<svg xmlns="http://www.w3.org/2000/svg" width="458.146" height="302.079" viewBox="0 0 458.146 302.079">
  <g id="Group_3558" data-name="Group 3558" transform="translate(-194.147 -404.96)">
    <g id="storyboard-illusa" transform="translate(194.01 404.485)">
      <path id="BG_8_" d="M22.7,47.636c0,73.717,34.78,55.545,32.873,106.126s-67.149,42.58-53.763,107.644c12.484,60.686,151.1,35.485,212.5,35.485,153.783,0,288.25-199.319,229.319-278.616-36.744-49.443-169.158,17.1-211.279,17.1C182.861,35.374,22.7-41.818,22.7,47.636Z" transform="translate(0.137 0.476)" fill="#ecf4ff"/>
      <g id="wall-line_8_" transform="translate(125.848 231.556)">
        <rect id="Rectangle" width="88.753" height="0.806" transform="translate(0 0)" fill="#bcdafe"/>
        <rect id="Rectangle-2" data-name="Rectangle" width="72.634" height="0.806" transform="translate(11.736 37.083)" fill="#bcdafe"/>
        <rect id="Rectangle-3" data-name="Rectangle" width="43.782" height="0.806" transform="translate(13.136 19.354)" fill="#bcdafe"/>
        <rect id="Rectangle-4" data-name="Rectangle" width="0.806" height="19.354" transform="translate(26.896 0.403)" fill="#bcdafe"/>
        <rect id="Rectangle-5" data-name="Rectangle" width="0.806" height="11.945" transform="translate(47.649 19.757)" fill="#bcdafe"/>
      </g>
      <g id="board_2_" transform="translate(115.991 9.361)">
        <path id="Path" d="M276.326,193.428H18.422A18.421,18.421,0,0,1,0,175.007V18.422A18.421,18.421,0,0,1,18.422,0h257.9a18.421,18.421,0,0,1,18.422,18.422V175.007A18.422,18.422,0,0,1,276.326,193.428Z" transform="translate(0 0)" fill="#bcdafe"/>
        <rect id="Rectangle-6" data-name="Rectangle" width="73.687" height="73.687" transform="translate(18.422 18.422)" fill="#dfedff"/>
        <rect id="Rectangle-7" data-name="Rectangle" width="73.687" height="73.687" transform="translate(110.531 18.422)" fill="#dfedff"/>
        <rect id="Rectangle-8" data-name="Rectangle" width="73.687" height="73.687" transform="translate(202.639 18.422)" fill="#dfedff"/>
        <g id="Group" transform="translate(24.435 25.145)">
          <path id="Path-2" data-name="Path" d="M1.83,13.8,1.463,27.762H13.954L13.4,19.125c2.193.193,5.339.73,5.829.15.9-1.071-.116-6.5-.116-6.5s2.234-.178,2.212-.823c-.076-2.318-2.99-5.555-2.639-9.7.178-2.1-3.393-2.7-7.638-1.937S1.04,2.573.176,5.527,1.83,13.8,1.83,13.8Z" transform="translate(3.13 8.506)" fill="#8cbfff"/>
          <path id="Path-3" data-name="Path" d="M0,10.358c-.019,6.1,1.653,10.29,4.96,11.944s2.2-2.756,2.2-2.756-5.511-2.021-2.388-6.064,4.2,9.293,5.119,11.617c1.394,3.528,4.616,4.663,8.842,4.479s4.84-2.381,4.592-4.336a18.072,18.072,0,0,0-1.1-3.924,19.321,19.321,0,0,1-4.776,1.192c-2.561.3-5.879.343-7.164-3.7s-1.653-6.8.368-6.983c10.213-.928,13.777.735,14.328-4.961.239-2.466-.595-6.545-1.1-6.8-.735-.368-2.761.9-6.2.729C14.656.648,13.409-.071,9,.3A10.526,10.526,0,0,0,0,10.358Z" transform="translate(0 0)" fill="#fff"/>
        </g>
        <path id="Path-4" data-name="Path" d="M25.329,18.422H9.213L4.606,23.027V18.422H2.3a2.3,2.3,0,0,1-2.3-2.3V2.3A2.3,2.3,0,0,1,2.3,0H25.329a2.3,2.3,0,0,1,2.3,2.3V16.119A2.3,2.3,0,0,1,25.329,18.422Z" transform="translate(146.942 26.297)" fill="#033593"/>
        <path id="Shape" d="M20.723,46.468H11.391V37.449h9.332v9.018Zm-.654-13.293H11.61a24.785,24.785,0,0,1,.994-7.287c.539-1.338,1.942-2.9,4.172-4.634l2.273-1.779a8.07,8.07,0,0,0,1.8-1.842A6.336,6.336,0,0,0,22.1,13.857a7.339,7.339,0,0,0-1.384-4.322c-.921-1.294-2.624-1.95-5.06-1.95-2.4,0-4.12.809-5.124,2.4a9.319,9.319,0,0,0-1.509,4.993H0a18.993,18.993,0,0,1,1.741-7.6A12.27,12.27,0,0,1,6.21,2.372,16.45,16.45,0,0,1,15.261,0a23.411,23.411,0,0,1,6.456.843,16.935,16.935,0,0,1,5.262,2.528,10.728,10.728,0,0,1,3.5,4.181,13.64,13.64,0,0,1,1.167,5.8,11.362,11.362,0,0,1-2.023,6.835A23.484,23.484,0,0,1,25.076,24.5l-2.205,1.717a6.728,6.728,0,0,0-2.4,3.277,13.8,13.8,0,0,0-.405,3.682Z" transform="translate(223.659 34.138)" fill="#1980ff"/>
        <path id="Path-5" data-name="Path" d="M18.94,37.88H3.788A3.788,3.788,0,0,1,0,34.092V3.788A3.788,3.788,0,0,1,3.788,0H18.94a3.788,3.788,0,0,1,3.788,3.788v30.3A3.788,3.788,0,0,1,18.94,37.88Z" transform="translate(120.409 45.536)" fill="#8cbfff"/>
        <rect id="Rectangle-9" data-name="Rectangle" width="15.152" height="26.516" transform="translate(124.197 49.324)" fill="#fff"/>
        <rect id="Rectangle-10" data-name="Rectangle" width="27.633" height="4.605" transform="translate(18.422 110.531)" fill="#1980ff"/>
        <rect id="Rectangle-11" data-name="Rectangle" width="73.687" height="4.605" transform="translate(18.422 128.952)" fill="#d4e7ff"/>
        <rect id="Rectangle-12" data-name="Rectangle" width="73.687" height="4.605" transform="translate(18.422 142.769)" fill="#d4e7ff"/>
        <rect id="Rectangle-13" data-name="Rectangle" width="64.476" height="4.605" transform="translate(18.422 156.585)" fill="#d4e7ff"/>
        <rect id="Rectangle-14" data-name="Rectangle" width="27.633" height="4.605" transform="translate(110.531 110.531)" fill="#0dbf95"/>
        <rect id="Rectangle-15" data-name="Rectangle" width="73.687" height="4.605" transform="translate(110.531 128.952)" fill="#d4e7ff"/>
        <rect id="Rectangle-16" data-name="Rectangle" width="73.687" height="4.605" transform="translate(110.531 142.769)" fill="#d4e7ff"/>
        <rect id="Rectangle-17" data-name="Rectangle" width="36.843" height="4.605" transform="translate(110.531 156.585)" fill="#d4e7ff"/>
        <rect id="Rectangle-18" data-name="Rectangle" width="27.633" height="4.605" transform="translate(202.639 110.531)" fill="#feac00"/>
        <rect id="Rectangle-19" data-name="Rectangle" width="73.687" height="4.605" transform="translate(202.639 128.952)" fill="#d4e7ff"/>
        <rect id="Rectangle-20" data-name="Rectangle" width="73.687" height="4.605" transform="translate(202.639 142.769)" fill="#d4e7ff"/>
        <path id="Path-6" data-name="Path" d="M26.38,22.687a4.732,4.732,0,0,1-3.836,5.077c-4.832,1.3-10.871-4.6-10.871-4.6S5.836,21.894,5.356,19.2A16.161,16.161,0,0,1,5.439,13.8S-.156,10.788,0,6.822,4.692,0,9.275,0a15.643,15.643,0,0,1,6.874,1.745,8.469,8.469,0,0,1,9.273,1.333,7.547,7.547,0,0,1,2.26,7.6s4.165,1.694,3.267,7.2a6.135,6.135,0,0,1-4.569,4.806Z" transform="translate(54.235 49.324)" fill="#1980ff"/>
        <path id="Path-7" data-name="Path" d="M5.557,2.061C3.524,1.837.916.077.085,4.608c-.375,2.044.533,8.047,1.9,9.7a4.484,4.484,0,0,0,4.171,1.308c-.157,3.384-1.1,4.154-1.1,4.154S.992,28.894,6.343,28.894s8.7-8.732,8.7-8.732C12.992,16.316,13.71,9.929,13.71,9.929a2.19,2.19,0,0,0,1.967-2.385c.079-2.385-2.722-2.316-2.833-2.307C10.706,5.4,10.673,0,10.673,0S8.435,2.378,5.557,2.061Z" transform="translate(57.153 56.465)" fill="#fff"/>
      </g>
      <g id="man_10_" transform="translate(251.448 94.015)">
        <path id="Path-8" data-name="Path" d="M.169,15.178a.905.905,0,0,0,.7.345H2.32c0,1.354-.862,6.795-.2,7.95.757,1.354,4.5.942,4.5.942l.809,15.063L23.315,36.8,16.042,24.137S30.322,2.227,13.613.183C2.585-1.157,2.32,5.306,2.32,5.306,2.32,7.655.7,12.22.037,14.4A.907.907,0,0,0,.169,15.178Z" transform="translate(38.794 5.655)" fill="#fe99c0"/>
        <path id="Path-9" data-name="Path" d="M16.833,29.8s-3.1-6.594-2.557-8.209S18.851,16.2,16.7,14.859s-4.037,5.383-4.037,5.383H10.508s2.154-4.306-1.346-6.46C3.2,10.116-1.675,12.633.547,6.1,3.241-1.829,14.007-.753,19.928,2.208c4.6,2.3,7.806,8.613,3.768,16.418S16.833,29.8,16.833,29.8Z" transform="translate(38.003 0)" fill="#00236e"/>
        <path id="Path-10" data-name="Path" d="M.973,0C4.949,0,4.59,1.95,7.6,1.95H0Z" transform="translate(40.137 21.184)" fill="#00236e"/>
        <path id="Path-11" data-name="Path" d="M0,12.989H27.987a5.211,5.211,0,0,0,1.6-3.39c0-2.274-2.3-7.275-2.082-9.6H16.658S17.9,3.835,16.1,4.749C11.216,7.225,0,7.528,0,12.989Z" transform="translate(1.841 149.991)" fill="#00236e"/>
        <path id="Path-12" data-name="Path" d="M0,12.989H27.987a5.211,5.211,0,0,0,1.6-3.39c0-2.274-1.417-7.275-1.2-9.6H19.314S17.9,3.835,16.1,4.749C11.215,7.225,0,7.528,0,12.989Z" transform="translate(41.502 191.513)" fill="#00236e"/>
        <path id="Path-13" data-name="Path" d="M24.6,42.507s-3.42,4.526-5.486,4.821S12.029,45.261,8.389,35.521,4.354,16.43,3.863,15.054.517,13.48.222,11.807-.442,5.3,1.8,4.526a11.9,11.9,0,0,1,3.95,0S5.326,0,6.814,0C8.708,0,8.2,4.675,8.189,6.087c-.035,3.542.131,6.3.82,8.072s8.236,20.979,9.317,21.952l3.1-3.629Z" transform="translate(8.155 23.977)" fill="#fe99c0"/>
        <path id="Path-14" data-name="Path" d="M16.321,0,0,17.473,5.3,30.9,16.321,17.515Z" transform="translate(27.969 39.031)" fill="#1063dc"/>
        <path id="Path-15" data-name="Path" d="M46.554,19.228c-.886.1-27.518.384-27.518.384L31.007,57.5H15.953S-6.165,12.851,1.686,4.47C8.967-3.3,48.915,1.424,48.915,1.424Z" transform="translate(0 94.682)" fill="#263238"/>
        <path id="Path-16" data-name="Path" d="M0,0,9.446,56.675l7.379,43.786H31.092L27.255,50.575s.591-28.3-3.64-49.394Z" transform="translate(40.454 93.149)" fill="#263238"/>
        <path id="Path-17" data-name="Path" d="M18.637.031C16.828-.43,8.892,4.285,6.088,6.8-2.422,14.425-.053,28.763,1.661,46.157a102.612,102.612,0,0,1-.1,16.826l24.3-.886c-.787-13.546,1.157-37.806,1.279-42.9C27.285,13.392,26.171,1.952,18.637.031Z" transform="translate(38.202 32.233)" fill="#1980ff"/>
        <path id="Path-18" data-name="Path" d="M45.78,0s.912,12.53-.618,14.809-18.577,5.173-23.1,5.707c-4.5.531-14.09-.2-14.09-.2a21.087,21.087,0,0,1-4.625.886A3,3,0,0,1,0,18.347c0-1.377,3.247-4.821,5.314-4.625S9.348,15,11.71,14.8,35.029,9.491,35.029,9.491l-.591-8.462Z" transform="translate(18.512 74.901)" fill="#fe99c0"/>
        <path id="Path-19" data-name="Path" d="M0,.885,2.551,26.96l13.233-1.672L15.645,0Z" transform="translate(49.703 51.43)" fill="#1980ff"/>
      </g>
      <g id="plant_5_" transform="translate(386.005 214.985)">
        <path id="Path-20" data-name="Path" d="M0,0,6.533,26.133a8.06,8.06,0,0,0,7.819,6.105H34a8.059,8.059,0,0,0,7.819-6.105L48.356,0Z" transform="translate(0 50.372)" fill="#8cbfff"/>
        <path id="Path-21" data-name="Path" d="M5.688,40.3S-3.715,24.179,1.658,0c0,0,10.578,15.783,10.41,40.3Z" transform="translate(9.423 10.074)" fill="#0dbf95"/>
        <path id="Path-22" data-name="Path" d="M6.383,40.3s9.4-16.119,4.03-40.3C10.412,0-.166,15.783,0,40.3Z" transform="translate(28.564 10.074)" fill="#0dbf95"/>
        <path id="Path-23" data-name="Path" d="M.224,50.372S-1.791,16.119,6.269,0c0,0,6.548,33.749,4.03,50.372Z" transform="translate(19.925 0)" fill="#08a078"/>
      </g>
      <g id="man_9_" transform="translate(46.973 97.212)">
        <path id="Path-24" data-name="Path" d="M2.439,14.317,3.477,27.524s1.428,5.071,6.787,4.508,4.993-5.746,4.993-5.746L13.881,18.2c2.087-.035,5.107.16,5.512-.437.746-1.1-.754-6.116-.754-6.116s2.089-.389,2.005-1c-.3-2.178-3.37-4.941-3.45-8.888-.04-2-3.467-2.208-7.395-1.069S.582,3.81.06,6.683,2.439,14.317,2.439,14.317Z" transform="translate(26.675 8.564)" fill="#fe99c0"/>
        <path id="Path-25" data-name="Path" d="M.046,12.108c.587,5.75,2.579,9.541,5.862,10.772s1.805-2.818,1.805-2.818-5.4-1.36-2.853-5.482,4.882,8.347,5.979,10.448c1.664,3.188,4.816,3.94,8.782,3.348s4.328-2.725,3.9-4.545a17.152,17.152,0,0,0-1.428-3.591,18.307,18.307,0,0,1-4.386,1.6c-2.385.539-5.509.906-7.123-2.779s-2.233-6.248-.346-6.622c9.54-1.888,13.065-.672,13.021-6.1-.019-2.349-1.21-6.114-1.713-6.3-.729-.274-2.515,1.121-5.771,1.3-2.868.16-4.117-.395-8.238.388A9.984,9.984,0,0,0,.046,12.108Z" transform="translate(23.207 0)" fill="#00236e"/>
        <path id="Path-26" data-name="Path" d="M0,11.492S9.191,6.2,10.5,5,18.817-.889,19.247.149s-3.212,4.807-5.078,6.834c0,0,3.738-1.032,3.8.122s-4.82,2.466-5.95,3.034-9.428,7.176-9.428,7.176Z" transform="translate(73.803 3.249)" fill="#fe99c0"/>
        <path id="Path-27" data-name="Path" d="M8.035,0l2.507,10.5-7.636.966L0,.221Z" transform="translate(46.284 185.837)" fill="#fe99c0"/>
        <path id="Path-28" data-name="Path" d="M3.436,0,0,9.165l5.986,3.144L10.876,2.048Z" transform="translate(5.982 181.283)" fill="#fe99c0"/>
        <path id="Path-29" data-name="Path" d="M12.04,0a141.028,141.028,0,0,0-2.027,18.654C9.6,28.914,9.2,58.361,9.2,58.361L0,96.459l11.013,2.83L22.746,59.18,36.05,7.943Z" transform="translate(5.962 86.683)" fill="#263238"/>
        <path id="Path-30" data-name="Path" d="M0,0S3.987,23.238,11.536,31.815l4.409-16.977Z" transform="translate(24.672 103.549)" fill="#00236e"/>
        <path id="Path-31" data-name="Path" d="M2.155,0S-2.9,14.02,2.469,27.677s14.4,32.49,14.4,32.49l10.037,42.325,11.577-2.61L23.358,6.08Z" transform="translate(17.536 87.991)" fill="#263238"/>
        <path id="Path-32" data-name="Path" d="M46.142,0l5.169,7.2L9.354,35.933,0,27.6Z" transform="translate(33.666 9.363)" fill="#1980ff"/>
        <path id="Path-33" data-name="Path" d="M11.311,3.3,28.373,61.31l-14.4.517L0,0Z" transform="translate(29.757 28.636)" fill="#1063dc"/>
        <path id="Path-34" data-name="Path" d="M0,0,11.312,3.3a252.034,252.034,0,0,1,2.136,27.436c.322,14.918-1.094,32.261-1.094,32.261Z" transform="translate(29.757 28.636)" fill="#fff"/>
        <path id="Path-35" data-name="Path" d="M8.595,0s5.122,13.168,8.973,23.727,9.917,39.826,9.917,39.826L.165,64.431.606,37.663l.2-12.114L0,23.877Z" transform="translate(21.162 28.636)" fill="#1980ff"/>
        <rect id="Rectangle-21" data-name="Rectangle" width="39.157" height="24.287" transform="translate(2.048 75.653) rotate(-5.999)" fill="#0dbf95"/>
        <path id="Path-36" data-name="Path" d="M0,5.746S6.808,20.731,10.012,20.394s7.032-4.228,7.032-4.228l-4.982.025L4.878,0Z" transform="translate(12.962 81.222)" fill="#fe99c0"/>
        <path id="Path-37" data-name="Path" d="M7.978,0C4.358,3.541,1.5,12.224,0,17.6L.2,5.488Z" transform="translate(21.769 48.696)" fill="#00236e"/>
        <path id="Path-38" data-name="Path" d="M21.969,25.489l-10.054,6.29,7.092,22.43-8.277,6.6L.362,30.688a6.639,6.639,0,0,1,1.96-7.2L29.757,0Z" transform="translate(0 28.636)" fill="#1980ff"/>
        <path id="Path-39" data-name="Path" d="M0,11.641l25.819-.1c.127-3.648-4.793-4.617-8.509-6.36A24.615,24.615,0,0,1,10.633,0C9.011-.056,8.9,3.268,8.9,3.268L1.437,2.915Z" transform="translate(45.838 189.848)" fill="#00236e"/>
        <path id="Path-40" data-name="Path" d="M13.974.05C15.085.37,19.989,9.7,19.989,9.7s6.655.269,7.054,4.076l-8.149.828L0,7.535,4.071.436l7.113,2.61L12.113.953A1.6,1.6,0,0,1,13.974.05Z" transform="translate(2.161 186.765)" fill="#00236e"/>
      </g>
      <g id="paperplane_5_" transform="translate(388.422 18.132)">
        <path id="Shape-2" data-name="Shape" d="M.508,151.141h0L0,150.516c1.641-1.337,3.27-2.753,4.843-4.212l.548.59c-1.572,1.46-3.215,2.889-4.882,4.246Zm9.478-8.8h0l-.585-.553c1.47-1.557,2.9-3.174,4.251-4.808l.622.514c-1.369,1.656-2.811,3.286-4.286,4.847Zm8.247-9.966h0l-.653-.472c1.241-1.718,2.447-3.509,3.586-5.323l.683.428c-1.147,1.827-2.364,3.633-3.615,5.367Zm6.879-10.956h0l-.708-.384c1.01-1.862,1.98-3.792,2.883-5.738l.73.339c-.913,1.969-1.89,3.914-2.9,5.782Zm5.448-11.733h0l-.75-.293c.773-1.973,1.5-4.008,2.166-6.047l.767.25c-.669,2.057-1.4,4.106-2.182,6.09Zm4-12.3h0l-.778-.205c.54-2.056,1.029-4.161,1.454-6.258l.79.16c-.431,2.127-.924,4.247-1.464,6.3Zm2.574-12.678h0l-.8-.116c.306-2.1.557-4.252.746-6.382l.8.071c-.191,2.139-.444,4.3-.751,6.427Zm1.14-12.886h0l-.805-.025c.037-1.169.057-2.354.057-3.523,0-.948-.012-1.925-.039-2.9l.807-.022c.026,1.005.039,1.989.038,2.924,0,1.169-.019,2.363-.057,3.547Zm-14.946-.629h0l-.093-.8a21.771,21.771,0,0,0,6.1-1.6l.318.741a22.608,22.608,0,0,1-6.326,1.66ZM16.9,70.025h0A14.694,14.694,0,0,1,13.04,64.7l.73-.342a13.928,13.928,0,0,0,3.63,5.034l-.5.632ZM35.173,66h0l-.539-.6A20.307,20.307,0,0,0,38.566,60.5l.7.4a21.1,21.1,0,0,1-4.09,5.1Zm1.945-7.043h0c-.195-2.166-.463-4.309-.8-6.369l.795-.129c.339,2.088.609,4.25.8,6.427l-.8.072Zm-26.174-.434h0a41.294,41.294,0,0,1-.985-6.432l.8-.059a40.47,40.47,0,0,0,.964,6.307l-.783.184ZM41.782,54.88h0l-.774-.222a36.346,36.346,0,0,0,1.187-6.252l.8.084a37.21,37.21,0,0,1-1.214,6.39Zm-6.749-8.575h0a55.383,55.383,0,0,0-1.9-6.108l.753-.287a55.826,55.826,0,0,1,1.929,6.2l-.781.2Zm-24.219-.648h0l-.8-.076a28.6,28.6,0,0,1,1.314-6.395l.764.258a27.685,27.685,0,0,0-1.275,6.213Zm31.625-3.635h0c-.044-2.031-.2-4.181-.453-6.39l.8-.093c.26,2.256.413,4.432.457,6.467l-.8.017Zm-12.09-7.54h0a11.472,11.472,0,0,0-4.329-4.357l.352-.725a12.225,12.225,0,0,1,4.658,4.65l-.68.432Zm-15.289-.55h0l-.618-.516a12.466,12.466,0,0,1,5.36-3.807l.276.757a11.706,11.706,0,0,0-5.017,3.566Zm25.9-4.615h0a38.555,38.555,0,0,0-2-6.052l.742-.314a39.18,39.18,0,0,1,2.047,6.179l-.783.187ZM36.031,17.59h0A43.264,43.264,0,0,0,32.307,12.4l.617-.519a44.148,44.148,0,0,1,3.794,5.284l-.688.421ZM27.838,7.856h0a33.03,33.03,0,0,0-5.186-3.678l.4-.7a33.86,33.86,0,0,1,5.314,3.768l-.525.61ZM16.821,1.7h0A22.711,22.711,0,0,0,10.576.806V0a23.514,23.514,0,0,1,6.467.924l-.222.774Z" transform="translate(26.617 17.123)" fill="#bcdafe"/>
        <g id="Group-2" data-name="Group" transform="translate(0 0)">
          <path id="Path-41" data-name="Path" d="M21.068,8.114l-7.916,6.38L0,0Z" transform="translate(11.646 5.239)" fill="#00236e"/>
          <path id="Path-42" data-name="Path" d="M34.818,20.856,14.9,6.809l17.818,6.544L30.621,5.895,0,0,38.154,32.749Z" fill="#feac00"/>
        </g>
      </g>
      <g id="pop-up_1_" transform="translate(11.884 28.463)">
        <path id="Path-43" data-name="Path" d="M71.46,48.894H7.522A7.522,7.522,0,0,1,0,41.372V7.522A7.522,7.522,0,0,1,7.522,0H71.46a7.522,7.522,0,0,1,7.522,7.522v33.85A7.521,7.521,0,0,1,71.46,48.894Z" transform="translate(0 7.522)" fill="#b0d3ff"/>
        <path id="Path-44" data-name="Path" d="M71.461,48.894H7.522A7.522,7.522,0,0,1,0,41.372V7.522A7.522,7.522,0,0,1,7.522,0H71.46a7.522,7.522,0,0,1,7.522,7.522v33.85A7.521,7.521,0,0,1,71.461,48.894Z" transform="translate(7.522 0)" fill="#263238"/>
        <path id="Path-45" data-name="Path" d="M18.806,7.523H3.761A3.772,3.772,0,0,1,0,3.761H0A3.772,3.772,0,0,1,3.761,0H18.806a3.772,3.772,0,0,1,3.761,3.761h0A3.772,3.772,0,0,1,18.806,7.523Z" transform="translate(33.849 33.848)" fill="#feac00"/>
        <path id="Path-46" data-name="Path" d="M18.806,7.523H3.761A3.772,3.772,0,0,1,0,3.761H0A3.772,3.772,0,0,1,3.761,0H18.806a3.772,3.772,0,0,1,3.761,3.761h0A3.772,3.772,0,0,1,18.806,7.523Z" transform="translate(75.221 33.848)" fill="#0dbf95"/>
        <circle id="Oval" cx="9.403" cy="9.403" r="9.403" transform="translate(15.044 7.521)" fill="#fff"/>
        <path id="Path-47" data-name="Path" d="M.665,3.328,0,2.66,2.659,0l.665.669Z" transform="translate(43.471 35.946)" fill="#fff"/>
        <path id="Path-48" data-name="Path" d="M2.659,3.328,0,.669.665,0,3.324,2.66Z" transform="translate(43.471 35.946)" fill="#fff"/>
        <path id="Path-49" data-name="Path" d="M2.094,4.052,0,1.962l.669-.669L2.094,2.722,4.812,0,5.48.668Z" transform="translate(84.963 35.392)" fill="#fff"/>
        <rect id="Rectangle-22" data-name="Rectangle" width="15.045" height="1.88" transform="translate(41.372 7.521)" fill="#f0f8fe"/>
        <rect id="Rectangle-23" data-name="Rectangle" width="22.567" height="1.88" transform="translate(41.372 15.044)" fill="#f0f8fe"/>
        <rect id="Rectangle-24" data-name="Rectangle" width="22.567" height="1.88" transform="translate(41.372 22.566)" fill="#f0f8fe"/>
      </g>
      <g id="check-box_5_" transform="translate(232.329 255.907)">
        <path id="Path-50" data-name="Path" d="M37.284,42.611H5.327A5.327,5.327,0,0,1,0,37.284V5.327A5.327,5.327,0,0,1,5.327,0H37.284a5.327,5.327,0,0,1,5.327,5.327V37.284A5.327,5.327,0,0,1,37.284,42.611Z" transform="translate(0 0)" fill="#1980ff"/>
        <circle id="Oval-2" data-name="Oval" cx="13.316" cy="13.316" r="13.316" transform="translate(7.989 7.989)" fill="#fff"/>
        <path id="Path-51" data-name="Path" d="M6.827,12.944,0,6.119,2.354,3.765,6.827,8.238,15.063,0,17.42,2.353Z" transform="translate(12.595 15.422)" fill="#feac00"/>
      </g>
    </g>
  </g>
</svg>
