<svg xmlns="http://www.w3.org/2000/svg" width="779.705" height="779.705" viewBox="0 0 779.705 779.705">
  <g id="Group_3575" data-name="Group 3575" transform="translate(-582 -1699)">
    <g id="_5680983" data-name="5680983" transform="translate(582 1699)">
      <g id="OBJECTS">
        <path id="Path_2848" data-name="Path 2848" d="M529.357,779.7A415.028,415.028,0,0,0,779.7,529.357V250.348A415.028,415.028,0,0,0,529.357,0H250.348A415.028,415.028,0,0,0,0,250.348v279.01A415.028,415.028,0,0,0,250.348,779.7Z" fill="#fff"/>
        <g id="Group_2131" data-name="Group 2131" transform="translate(67.751 25.075)">
          <g id="Group_2116" data-name="Group 2116" transform="translate(13.595 53.597)">
            <path id="Path_2849" data-name="Path 2849" d="M326.38,297.086l99.241-179.332A33.118,33.118,0,0,0,408.28,70.785a312.18,312.18,0,0,0-221.654,0,33.114,33.114,0,0,0-17.341,46.969l99.241,179.332C281.126,319.807,313.811,319.807,326.38,297.086Z" transform="translate(11.038 -50.45)" fill="#c44a56"/>
            <path id="Path_2850" data-name="Path 2850" d="M304.2,335.688l209.351.39a33.1,33.1,0,0,0,32.794-37.691A310.915,310.915,0,0,0,425.464,93.029a33.03,33.03,0,0,0-48.747,10.448L275.339,286.629A33.057,33.057,0,0,0,304.2,335.688Z" transform="translate(70.343 -30.341)" fill="#e38e37"/>
            <path id="Path_2851" data-name="Path 2851" d="M323.3,286.4,222.068,103.478a33.03,33.03,0,0,0-48.732-10.464A310.969,310.969,0,0,0,52.591,297.266,33.077,33.077,0,0,0,85.245,335.05l209.086.39A33.04,33.04,0,0,0,323.3,286.4Z" transform="translate(-52.115 -30.342)" fill="#6cb0e1"/>
            <path id="Path_2852" data-name="Path 2852" d="M294.63,253.88l-209.351-.39a33.1,33.1,0,0,0-32.794,37.691A310.915,310.915,0,0,0,173.37,496.54a33.03,33.03,0,0,0,48.747-10.448L323.495,302.923C335.674,280.936,319.783,253.927,294.63,253.88Z" transform="translate(-52.165 63.132)" fill="#8dcfd9"/>
            <path id="Path_2853" data-name="Path 2853" d="M275.431,302.949,376.667,485.868A33.03,33.03,0,0,0,425.4,496.331,310.967,310.967,0,0,0,546.144,292.064,33.077,33.077,0,0,0,513.49,254.28L304.4,253.89C279.2,253.859,263.221,280.9,275.431,302.949Z" transform="translate(70.392 63.356)" fill="#f1c962"/>
            <path id="Path_2854" data-name="Path 2854" d="M268.546,297.5,169.3,476.835A33.118,33.118,0,0,0,186.645,523.8a312.18,312.18,0,0,0,221.654,0,33.114,33.114,0,0,0,17.341-46.969L326.4,297.5C313.8,274.782,281.114,274.782,268.546,297.5Z" transform="translate(11.049 78.221)" fill="#a0bb31"/>
          </g>
          <g id="Group_2123" data-name="Group 2123">
            <g id="Group_2117" data-name="Group 2117" transform="translate(283.15)">
              <path id="Path_2855" data-name="Path 2855" d="M263.089,90.794A36.607,36.607,0,0,1,259.6,17.752c1.185-.109,2.386-.172,3.571-.172a36.607,36.607,0,0,1,3.493,73.043,34.012,34.012,0,0,1-3.571.172Z" transform="translate(-224.185 -15.241)" fill="#8f121f"/>
              <path id="Path_2856" data-name="Path 2856" d="M264.02,20.758a34.262,34.262,0,0,1,3.259,68.364c-1.123.109-2.246.156-3.353.156a34.262,34.262,0,0,1-3.259-68.364c1.123-.094,2.246-.156,3.353-.156m0-4.678c-1.263,0-2.542.062-3.8.187a38.943,38.943,0,0,0,3.711,77.705c1.263,0,2.542-.062,3.8-.187A38.944,38.944,0,0,0,264.02,16.08Z" transform="translate(-225.022 -16.08)" fill="#fff"/>
            </g>
            <g id="Group_2118" data-name="Group 2118" transform="translate(283.151 651.662)">
              <path id="Path_2857" data-name="Path 2857" d="M263.088,508.684a36.606,36.606,0,0,1-3.477-73.043c1.17-.109,2.37-.172,3.555-.172a36.606,36.606,0,0,1,3.478,73.043c-1.185.109-2.37.172-3.555.172Z" transform="translate(-224.185 -433.131)" fill="#7b861b"/>
              <path id="Path_2858" data-name="Path 2858" d="M264.019,438.648a34.269,34.269,0,0,1,3.244,68.38c-1.123.109-2.23.156-3.322.156A34.269,34.269,0,0,1,260.7,438.8c1.107-.109,2.214-.156,3.322-.156m0-4.678c-1.248,0-2.526.062-3.774.187a38.942,38.942,0,0,0,3.68,77.705c1.248,0,2.526-.062,3.774-.187a38.942,38.942,0,0,0-3.68-77.705Z" transform="translate(-225.022 -433.97)" fill="#fff"/>
            </g>
            <g id="Group_2119" data-name="Group 2119" transform="translate(564.738 161.882)">
              <path id="Path_2859" data-name="Path 2859" d="M443.718,194.61a36.614,36.614,0,0,1-21.426-66.322,36.31,36.31,0,0,1,21.364-6.908A36.614,36.614,0,0,1,465.081,187.7a36.31,36.31,0,0,1-21.364,6.908Z" transform="translate(-404.756 -119.056)" fill="#c1620d"/>
              <path id="Path_2860" data-name="Path 2860" d="M444.494,124.568a34.259,34.259,0,1,1-19.992,6.456,34.186,34.186,0,0,1,19.992-6.456m0-4.678A38.956,38.956,0,0,0,412.916,181.6a39.061,39.061,0,0,0,31.64,16.187,38.947,38.947,0,0,0,31.563-61.706,39.033,39.033,0,0,0-31.625-16.187Z" transform="translate(-405.595 -119.89)" fill="#fff"/>
            </g>
            <g id="Group_2120" data-name="Group 2120" transform="translate(1.572 489.779)">
              <path id="Path_2861" data-name="Path 2861" d="M82.6,404.874a36.713,36.713,0,0,1-29.754-15.235A36.618,36.618,0,0,1,82.542,331.66,36.686,36.686,0,0,1,112.3,346.911,36.6,36.6,0,0,1,82.6,404.874Z" transform="translate(-43.611 -329.321)" fill="#61aab4"/>
              <path id="Path_2862" data-name="Path 2862" d="M83.386,334.838a34.268,34.268,0,1,1-19.976,6.44,34.23,34.23,0,0,1,19.976-6.44m0-4.678a38.953,38.953,0,0,0-31.594,61.69,39.077,39.077,0,0,0,31.656,16.218,38.949,38.949,0,0,0,31.594-61.675A39.05,39.05,0,0,0,83.386,330.16Z" transform="translate(-44.455 -330.16)" fill="#fff"/>
            </g>
            <g id="Group_2121" data-name="Group 2121" transform="translate(566.272 487.081)">
              <path id="Path_2863" data-name="Path 2863" d="M444.68,403.165a36.621,36.621,0,0,1-33.387-51.585,36.6,36.6,0,1,1,33.387,51.585Z" transform="translate(-405.74 -327.596)" fill="#cc991e"/>
              <path id="Path_2864" data-name="Path 2864" d="M445.55,333.108a34.27,34.27,0,1,1-31.3,20.272,34.329,34.329,0,0,1,31.3-20.272m0-4.678a38.978,38.978,0,1,0,15.89,3.415,38.322,38.322,0,0,0-15.89-3.415Z" transform="translate(-406.579 -328.43)" fill="#fff"/>
            </g>
            <g id="Group_2122" data-name="Group 2122" transform="translate(0 164.564)">
              <path id="Path_2865" data-name="Path 2865" d="M81.555,196.34a36.3,36.3,0,0,1-14.97-3.212,36.613,36.613,0,0,1,15-70.017,36.615,36.615,0,0,1-.031,73.23Z" transform="translate(-42.596 -120.771)" fill="#437eb1"/>
              <path id="Path_2866" data-name="Path 2866" d="M82.437,126.288a34.266,34.266,0,1,1-31.282,20.241,34.114,34.114,0,0,1,31.282-20.241m0-4.678a38.943,38.943,0,0,0-15.968,74.477A38.517,38.517,0,0,0,82.39,199.5a38.946,38.946,0,0,0,.047-77.893Z" transform="translate(-43.447 -121.61)" fill="#fff"/>
            </g>
          </g>
          <circle id="Ellipse_168" data-name="Ellipse 168" cx="132.238" cy="132.238" r="132.238" transform="translate(189.863 232.539)" fill="#fff"/>
          <circle id="Ellipse_169" data-name="Ellipse 169" cx="117.283" cy="117.283" r="117.283" transform="matrix(0.995, -0.098, 0.098, 0.995, 193.929, 259.487)" fill="#ebeff7"/>
          <g id="Group_2130" data-name="Group 2130" transform="translate(16.895 19.271)">
            <g id="Group_2126" data-name="Group 2126" transform="translate(429.007 398.032)">
              <rect id="Rectangle_995" data-name="Rectangle 995" width="127.56" height="56.84" transform="translate(2.932 34.084)" fill="none"/>
            </g>
            <g id="Group_2127" data-name="Group 2127" transform="translate(239.008 510.129)">
              <rect id="Rectangle_997" data-name="Rectangle 997" width="127.56" height="56.84" transform="translate(2.932 34.077)" fill="none"/>
            </g>
            <g id="Group_2128" data-name="Group 2128" transform="translate(2.209 398.032)">
              <rect id="Rectangle_999" data-name="Rectangle 999" width="127.56" height="56.84" transform="translate(49.842 34.084)" fill="none"/>
            </g>
            <g id="Group_2129" data-name="Group 2129" transform="translate(0 165.289)">
              <rect id="Rectangle_1001" data-name="Rectangle 1001" width="127.56" height="56.84" transform="translate(58.803 62.466)" fill="none"/>
            </g>
          </g>
        </g>
      </g>
    </g>
    <text id="Pranil_Payroll_Services" data-name="Pranil Payroll 
Services" transform="translate(843 2053)" fill="#1c2120" font-size="20" font-family="'OpenSans', sans-serif" font-weight="600"><tspan x="60.304" y="21">Pranil Payroll </tspan><tspan x="84.708" y="48">Services</tspan></text>
    <text id="Adopt_best_practices_for_the_payroll" data-name="Adopt best practices for the payroll" transform="translate(903 1835.5)" fill="#fbfbfb" font-size="12" font-family="'OpenSans', sans-serif" font-weight="600"><tspan x="25.5" y="13">Adopt best </tspan><tspan x="9.794" y="30">practices for the </tspan><tspan x="37.087" y="47">payroll</tspan></text>
    <text id="Stay_Complaint_with_statetory_laws" data-name="Stay Complaint with statetory laws" transform="translate(1108.197 1972)" fill="#fbfbfb" font-size="12" font-family="'OpenSans', sans-serif" font-weight="600"><tspan x="5.651" y="13">Stay Complaint </tspan><tspan x="8.798" y="30">with statetory </tspan><tspan x="36.524" y="47">laws</tspan></text>
    <text id="Hassle_-_Free_processing_of_payroll_" data-name="Hassle  - Free processing of payroll " transform="translate(1106.197 2183)" fill="#fbfbfb" font-size="12" font-family="'OpenSans', sans-serif" font-weight="600"><tspan x="11.361" y="13" xml:space="preserve">Hassle  - Free </tspan><tspan x="11.142" y="30">processing of </tspan><tspan x="29.587" y="47">payroll </tspan></text>
    <text id="Reduce_payroll_administration_costs" data-name="Reduce payroll
administration costs" transform="translate(910.5 2278)" fill="#fbfbfb" font-size="12" font-family="'OpenSans', sans-serif" font-weight="600"><tspan x="6.762" y="13">Reduce payroll</tspan><tspan x="6.659" y="30">administration </tspan><tspan x="34.664" y="47">costs</tspan></text>
    <text id="Get_better_insight_of_investment_in_the_workforce_" data-name="Get better insight of investment in the workforce  " transform="translate(731.197 2161)" fill="#fbfbfb" font-size="12" font-family="'OpenSans', sans-serif" font-weight="600"><tspan x="1.577" y="13">Get better insight </tspan><tspan x="5.172" y="30">of investment in </tspan><tspan x="11.899" y="47" xml:space="preserve">the workforce  </tspan></text>
    <text id="Focus_on_expanding_core_business" data-name="Focus on expanding core business" transform="translate(729.197 1948.5)" fill="#f7f7f7" font-size="12" font-family="'OpenSans', sans-serif" font-weight="600"><tspan x="31.409" y="13">Focus on </tspan><tspan x="12.656" y="30">expanding core </tspan><tspan x="31.752" y="47">business</tspan></text>
  </g>
</svg>
