<svg xmlns="http://www.w3.org/2000/svg" width="1219.848" height="681.856" viewBox="0 0 1219.848 681.856">
   <defs>
   <style type="text/css"><![CDATA[
     

     
@keyframes fade{
   0% {opacity: 0;}
   50%{opacity: 0.8;}
   60%{opacity:1}
      90%{opacity: 0.8;}
   100% {opacity: 0;} 
} 

#Group_4212{ opacity: 1;
animation:fade infinite;
    animation-duration: 8s;
            animation-fill-mode: both;animation-fill-mode: both;} }
           
]]>
       
   </style>
 </defs>
  <g id="Group_4212" data-name="Group 4212" transform="translate(-294 -1662.572)">
    <text id="_04" data-name="04" transform="translate(1239.848 1684.572)" fill="#f7f7f7" font-size="21" font-family="OpenSans-Semibold, Open Sans" font-weight="600"><tspan x="0" y="0">04</tspan></text>
    <g id="Group_2181" data-name="Group 2181" transform="translate(381.018 1820.083)">
      <path id="Path_2869" data-name="Path 2869" d="M144.567,305.333,104.63,236.167,144.567,167H224.44l39.937,69.167L224.44,305.333Z" transform="translate(-104.63 -167)" fill="#eaeaea"/>
    </g>
    <path id="Path_2870" data-name="Path 2870" d="M619.159,379.526,555.49,269.258,619.159,158.99H746.5l63.669,110.268L746.5,379.526Z" transform="translate(666.532 1563.949)" fill="#eaeaea"/>
    <g id="Group_2184" data-name="Group 2184" transform="translate(437.892 2234.951)">
      <path id="Path_2872" data-name="Path 2872" d="M158.12,469.116l-23-39.844,23-39.862h46.018l23.018,39.862-23.018,39.844Z" transform="translate(-135.12 -389.41)" fill="#eaeaea"/>
    </g>
    <g id="Group_2190" data-name="Group 2190" transform="translate(294 1974.514)">
      <path id="Path_2873" data-name="Path 2873" d="M128.266,493.272,57.98,371.522,128.266,249.79h140.59l70.286,121.732-70.286,121.75Z" transform="translate(-57.98 -249.79)" fill="#0090f8"/>
    </g>
    <path id="Path_2882" data-name="Path 2882" d="M248.066,421.521,177.78,299.77l70.286-121.75H388.637l70.286,121.75-70.286,121.75Z" transform="translate(339.687 1662.619)" fill="#0090f8"/>
    <path id="Path_2892" data-name="Path 2892" d="M369.936,490.472,299.65,368.74l70.286-121.75H510.507l70.3,121.75-70.3,121.732Z" transform="translate(445.146 1722.301)" fill="#0090f8"/>
    <g id="Group_2207" data-name="Group 2207" transform="translate(968.467 1834.502)">
      <path id="Path_2894" data-name="Path 2894" d="M489.846,418.231,419.56,296.48l70.286-121.75H630.417L700.7,296.48l-70.286,121.75Z" transform="translate(-419.56 -174.73)" fill="#0090f8"/>
    </g>
    <path id="Path_2904" data-name="Path 2904" d="M611.576,485.7,541.29,363.952,611.576,242.22H752.147l70.3,121.732-70.3,121.75Z" transform="translate(654.244 1718.173)" fill="#0090f8"/>
    <g id="Group_2214" data-name="Group 2214" transform="translate(740.916 1708.48)">
      <path id="Path_2907" data-name="Path 2907" d="M367.856,350.652,297.57,228.9,367.856,107.17h140.59L578.732,228.9l-70.286,121.75Z" transform="translate(-297.57 -107.17)" fill="#eaeaea"/>
    </g>
    <g id="Group_2220" data-name="Group 2220" transform="translate(972.833 2095.425)">
      <path id="Path_2908" data-name="Path 2908" d="M492.186,558.092,421.9,436.36l70.286-121.75H632.757l70.286,121.75L632.757,558.092Z" transform="translate(-421.9 -314.61)" fill="#eaeaea"/>
    </g>
    <g id="Group_2221" data-name="Group 2221" transform="translate(519.333 2100.946)">
      <path id="Path_2912" data-name="Path 2912" d="M249.066,561.052,178.78,439.3,249.066,317.57H389.637L459.923,439.3l-70.286,121.75Z" transform="translate(-178.78 -317.57)" fill="#eaeaea"/>
    </g>
    <rect id="Rectangle_1020" data-name="Rectangle 1020" width="210.484" height="68.663" transform="translate(554.531 2224.431)" fill="none"/>
    <text id="Attendance_Management_" data-name="Attendance  Management
" transform="translate(368.696 2075.354)" fill="#fbfbfb" font-size="20" font-family="OpenSans-Semibold, Open Sans" font-weight="600"><tspan x="10.326" y="21" xml:space="preserve">Attendance  </tspan><tspan x="1.898" y="48">Management</tspan></text>
    <path id="Icon_awesome-users" data-name="Icon awesome-users" d="M5.477,13.2A3.652,3.652,0,1,0,1.826,9.553,3.655,3.655,0,0,0,5.477,13.2Zm25.562,0a3.652,3.652,0,1,0-3.652-3.652A3.655,3.655,0,0,0,31.039,13.2Zm1.826,1.826H29.213a3.641,3.641,0,0,0-2.573,1.061,8.346,8.346,0,0,1,4.285,6.242h3.766a1.824,1.824,0,0,0,1.826-1.826V18.682A3.655,3.655,0,0,0,32.865,15.031Zm-14.607,0a6.39,6.39,0,1,0-6.39-6.39A6.387,6.387,0,0,0,18.258,15.031Zm4.382,1.826h-.474a8.823,8.823,0,0,1-7.817,0h-.474A6.575,6.575,0,0,0,7.3,23.43v1.643a2.739,2.739,0,0,0,2.739,2.739H26.474a2.739,2.739,0,0,0,2.739-2.739V23.43A6.575,6.575,0,0,0,22.64,16.857ZM9.877,16.092A3.641,3.641,0,0,0,7.3,15.031H3.652A3.655,3.655,0,0,0,0,18.682v1.826a1.824,1.824,0,0,0,1.826,1.826h3.76A8.367,8.367,0,0,1,9.877,16.092Z" transform="translate(416.438 2037.543)" fill="#fbfbfb"/>
    <text id="Leave_Management_" data-name="Leave 
Management
" transform="translate(592.83 1941.572)" fill="#e4e4e4" font-size="20" font-family="OpenSans-Semibold, Open Sans" font-weight="600"><tspan x="0" y="21">Leave </tspan><tspan x="0" y="48">Management</tspan><tspan x="0" y="75"></tspan></text>
    <text id="Shift_Management_" data-name="Shift
 Management
" transform="translate(598.064 2211.354)" fill="#0090f8" font-size="20" font-family="OpenSans-Semibold, Open Sans" font-weight="600"><tspan x="0" y="21">Shift</tspan><tspan x="0" y="48" xml:space="preserve"> Management</tspan><tspan x="0" y="75"></tspan></text>
    <g id="Group_3547" data-name="Group 3547" transform="translate(-70.152 31.572)">
      <path id="Icon_material-timer" data-name="Icon material-timer" d="M29.787,1.5H17.144V5.715H29.787ZM21.358,28.894h4.215V16.251H21.358ZM38.279,14.965l2.992-2.992A23.282,23.282,0,0,0,38.3,9l-2.992,2.992a18.964,18.964,0,1,0,2.971,2.971ZM23.465,41.538A14.751,14.751,0,1,1,38.216,26.787,14.74,14.74,0,0,1,23.465,41.538Z" transform="translate(663.716 2122.282)" fill="#0090f8"/>
    </g>
    <text id="Staff_Loans_Advances_Management_" data-name="Staff Loans &amp; Advances 
Management 
" transform="translate(774.348 1827.354)" fill="#0090f8" font-size="20" font-family="OpenSans-Semibold, Open Sans" font-weight="600"><tspan x="0.347" y="21">Staff Loans &amp; Advances </tspan><tspan x="48.398" y="48">Management </tspan><tspan x="112.5" y="75"></tspan></text>
    <text id="Benefits_Management_" data-name="Benefits Management   
" transform="translate(835.848 2065.354)" fill="#fbfbfb" font-size="20" font-family="OpenSans-Semibold, Open Sans" font-weight="600"><tspan x="0" y="21">Benefits </tspan><tspan x="0" y="48" xml:space="preserve">Management   </tspan><tspan x="0" y="75"></tspan></text>
    <text id="Document_Management_" data-name="Document 
Management  
" transform="translate(983.848 1942.354)" fill="#fbfbfb" font-size="20" font-family="OpenSans-Semibold, Open Sans" font-weight="600"><tspan x="89.653" y="21">Document </tspan><tspan x="75.898" y="48" xml:space="preserve">Management  </tspan><tspan x="140" y="75"></tspan></text>
    <text id="Expenses_Claims_" data-name="Expenses Claims 
" transform="translate(1032.253 2207.116)" fill="#0090f8" font-size="20" font-family="OpenSans-Semibold, Open Sans" font-weight="600"><tspan x="0" y="21">Expenses Claims </tspan><tspan x="0" y="48"></tspan></text>
    <text id="Auto_Sync_with_Biometric_devices_" data-name="Auto Sync with Biometric devices  
" transform="translate(1283.55 2052.573)" fill="#f7f7f7" font-size="20" font-family="OpenSans-Semibold, Open Sans" font-weight="600"><tspan x="0" y="21">Auto Sync with </tspan><tspan x="0" y="48">Biometric </tspan><tspan x="0" y="75" xml:space="preserve">devices  </tspan><tspan x="0" y="102"></tspan></text>
    <text id="Employee_Life_Cycle_" data-name="Employee Life 
Cycle  
" transform="translate(1283.848 1829.072)" fill="#0090f8" font-size="20" font-family="OpenSans-Semibold, Open Sans" font-weight="600"><tspan x="0" y="21">Employee Life </tspan><tspan x="0" y="48" xml:space="preserve">Cycle  </tspan><tspan x="0" y="75"></tspan></text>
    <path id="Icon_awesome-life-ring" data-name="Icon awesome-life-ring" d="M23.968.563A23.405,23.405,0,1,0,47.373,23.968,23.405,23.405,0,0,0,23.968.563ZM40.361,11.846l-5.983,5.983a12.215,12.215,0,0,0-4.271-4.271L36.09,7.575a20.612,20.612,0,0,1,4.271,4.271ZM23.968,33.028a9.06,9.06,0,1,1,9.06-9.06A9.06,9.06,0,0,1,23.968,33.028ZM11.846,7.575l5.983,5.983a12.215,12.215,0,0,0-4.271,4.271L7.575,11.846a20.609,20.609,0,0,1,4.271-4.271ZM7.575,36.09l5.983-5.983a12.215,12.215,0,0,0,4.271,4.271l-5.983,5.983A20.612,20.612,0,0,1,7.575,36.09ZM36.09,40.361l-5.983-5.983a12.215,12.215,0,0,0,4.271-4.271l5.983,5.983A20.612,20.612,0,0,1,36.09,40.361Z" transform="translate(1282.988 1775.28)" fill="#0090f8"/>
    <path id="Path_1497" data-name="Path 1497" d="M2.25,6.75V24.969H34.133V6.75ZM13.673,22.692H7.951a3.42,3.42,0,0,0-3.423-3.423V13.582A4.559,4.559,0,0,0,9.082,9.027h4.59A10.626,10.626,0,0,0,11.36,15.86,10.626,10.626,0,0,0,13.673,22.692Zm18.184-3.423a3.441,3.441,0,0,0-3.416,3.423H22.711a10.626,10.626,0,0,0,2.313-6.832,10.626,10.626,0,0,0-2.313-6.832H27.3a4.559,4.559,0,0,0,4.555,4.555Z" transform="translate(842.023 2028.269)" fill="#fbfbfb"/>
    <path id="Path_1498" data-name="Path 1498" d="M2.25,27H34.133v2.277H2.25Z" transform="translate(842.023 2028.515)" fill="#fbfbfb"/>
    <g id="Icon_ionic-ios-document" data-name="Icon ionic-ios-document" transform="translate(1098.881 1873.635)">
      <path id="Path_1499" data-name="Path 1499" d="M22.808,15.431H33.378a.575.575,0,0,0,.581-.581h0a3.437,3.437,0,0,0-1.243-2.66L23.854,4.8a3.73,3.73,0,0,0-2.393-.859h0A.858.858,0,0,0,20.6,4.8v8.421A2.206,2.206,0,0,0,22.808,15.431Z" transform="translate(8.663 0.005)" fill="#f7f7f7"/>
      <path id="Path_1500" data-name="Path 1500" d="M26.244,13.229V3.938H11.029A3.728,3.728,0,0,0,7.312,7.654V46.68A3.728,3.728,0,0,0,11.029,50.4H38.9a3.728,3.728,0,0,0,3.717-3.717V18.456H31.471A5.234,5.234,0,0,1,26.244,13.229Z" transform="translate(0)" fill="#f7f7f7"/>
    </g>
    <g id="Group_2229" data-name="Group 2229" transform="translate(592.83 1892.462)">
      <path id="Path_2942" data-name="Path 2942" d="M811.684,486.285c1.018,0,2.035-.007,3.053,0a2.025,2.025,0,0,1,2.055,2.035,7.3,7.3,0,0,1-.016,1.353,7.627,7.627,0,0,1-.429,1.256,2.449,2.449,0,0,0-.222.64c-.029.663-.008,1.327-.011,1.992,0,.63-.237.859-.877.86-.885,0-1.771,0-2.736,0,.441.768.849,1.469,1.246,2.177a1.374,1.374,0,0,1,.19.508.641.641,0,0,1-.677.7c-1.031.014-2.063.006-3.094,0a.783.783,0,0,1-.688-.484c-.5-.871-1.006-1.733-1.5-2.606a.491.491,0,0,0-.487-.305q-7.864.014-15.727.008c-.069,0-.137.008-.283.017.243.423.464.807.685,1.192s.45.752.649,1.141a.669.669,0,0,1-.61,1.037c-1,.016-2.007,0-3.01.006a.8.8,0,0,1-.738-.475c-.5-.871-1.007-1.733-1.5-2.607a.52.52,0,0,0-.523-.318q-2.607.02-5.214,0a.489.489,0,0,0-.5.284c-.488.875-1.005,1.734-1.495,2.608a.9.9,0,0,1-.893.51c-.89-.018-1.781,0-2.67-.006s-1.153-.473-.718-1.228q3.153-5.466,6.317-10.924a.687.687,0,0,0-.006-.8q-3.139-5.4-6.253-10.813c-.437-.758-.376-.981.379-1.418.22-.127.436-.262.661-.379.511-.265.973-.493.915-1.25a1.487,1.487,0,0,1,.546-1.085,8.181,8.181,0,0,1,2-1.165,1.906,1.906,0,0,1,2.335.977c.743,1.266,1.47,2.542,2.2,3.813q3.492,6.053,6.975,12.109a1.122,1.122,0,0,0,1.116.644c1.893-.027,3.786-.01,5.747-.01m3.879,0H804.6q1.4,0,2.8,0m-5.356,4.07h6.825q2.883,0,5.766,0c.554,0,.8-.25.806-.8,0-.3,0-.594,0-.89,0-.837-.182-1.018-1.018-1.018q-11.15,0-22.3.009a2.384,2.384,0,0,1-2.271-1.315q-4.1-7.167-8.248-14.311c-.311-.538-.614-1.081-.935-1.612a.678.678,0,0,0-1.041-.268c-.26.142-.513.3-.769.447-.71.417-.772.649-.362,1.361Q783.7,480.979,788.9,490a.619.619,0,0,0,.626.36Q795.783,490.347,802.036,490.357Zm-10.961,6.105-13.565-23.5-1.161.685c.077.139.123.226.173.311l7.749,13.419q2.53,4.382,5.065,8.76a.623.623,0,0,0,.383.305C790.137,496.487,790.562,496.462,791.075,496.462Zm23.66-3.392v-1.326H789.924c.2.347.4.64.538.958a.6.6,0,0,0,.66.375q11.566-.014,23.131-.007Zm-38.145,3.392c.509,0,.943.015,1.374-.01a.472.472,0,0,0,.312-.217q2.328-4.006,4.635-8.023c.051-.089.115-.232.079-.3-.216-.418-.46-.823-.726-1.287Zm9.386-3.412-2.142-3.708-2.144,3.708Zm26.123,3.412c-.395-.685-.742-1.294-1.1-1.9a.28.28,0,0,0-.194-.128c-.456-.011-.912-.006-1.436-.006.391.681.736,1.291,1.1,1.893a.372.372,0,0,0,.274.133C811.166,496.47,811.589,496.462,812.1,496.462Z" transform="translate(-774.733 -455.769)" fill="#e4e4e4"/>
      <path id="Path_2943" data-name="Path 2943" d="M793.823,355.51a24.394,24.394,0,0,1,5.252.748,21.1,21.1,0,0,1,12.051,8.176,1.127,1.127,0,0,1,.2.767c-.077.433-.546.572-1.027.346a12.7,12.7,0,0,0-3.59-1.094,11.861,11.861,0,0,0-6.742.937,1.717,1.717,0,0,1-1.593,0,12.542,12.542,0,0,0-4.208-1.061c-.123-.011-.249,0-.418,0V382.86c0,.113,0,.226,0,.339-.012.49-.286.8-.7.785a.69.69,0,0,1-.657-.779c-.006-1.357,0-2.713,0-4.07V364.317a12.092,12.092,0,0,0-3.235.564,18.051,18.051,0,0,0-1.7.644,1.1,1.1,0,0,1-.969,0,12.176,12.176,0,0,0-10.6.011c-.354.163-.685.218-.961-.106-.293-.345-.164-.669.077-1a21.167,21.167,0,0,1,13.673-8.513c1.122-.208,2.269-.267,3.4-.406.114-.014.282-.081.318-.167a.7.7,0,0,1,.692-.522.688.688,0,0,1,.668.6C793.762,355.45,793.788,355.468,793.823,355.51Zm4.33,8.319a17.054,17.054,0,0,0-1.841-4.429,9.17,9.17,0,0,0-1.366-1.711,2.531,2.531,0,0,0-3.775,0,4.671,4.671,0,0,0-.361.357,15.167,15.167,0,0,0-2.833,5.784A15.042,15.042,0,0,1,798.153,363.829Zm-1.828-6.743a17.864,17.864,0,0,1,3.31,6.947,14.07,14.07,0,0,1,8.859-.643A20.22,20.22,0,0,0,796.325,357.086Zm-6.5,0a20.238,20.238,0,0,0-12.17,6.313,14.1,14.1,0,0,1,8.858.64A17.757,17.757,0,0,1,789.822,357.082Z" transform="translate(-774.754 -354.827)" fill="#e4e4e4"/>
    </g>
    <g id="Group_2230" data-name="Group 2230" transform="translate(616.788 1905.287)">
      <path id="Path_2944" data-name="Path 2944" d="M989,469.152c0-.1,0-.168,0-.241a.622.622,0,0,1,.639-.642c.455,0,.909,0,1.364,0a.625.625,0,0,1,.651.649c0,.072,0,.145,0,.226h7.373c0-.08,0-.163,0-.246a.619.619,0,0,1,.616-.628q.709-.01,1.419,0a.619.619,0,0,1,.618.625c0,.079,0,.157,0,.258h.763a1.5,1.5,0,0,1,1.6,1.591q0,6.081,0,12.163a1.5,1.5,0,0,1-1.587,1.582q-7.113,0-14.226,0a1.5,1.5,0,0,1-1.585-1.584q0-6.081,0-12.163a1.5,1.5,0,0,1,1.581-1.589C988.475,469.151,988.726,469.152,989,469.152Zm-2.064,3.547V482a1.214,1.214,0,0,0,1.309,1.31h12.847c0-.412-.006-.8,0-1.184a1.456,1.456,0,0,1,1.221-1.432,10.308,10.308,0,0,1,1.213-.038c.07,0,.141,0,.208,0V472.7Zm.009,10.308a1.2,1.2,0,0,0,1.249,1.185q7.148,0,14.3,0a1.2,1.2,0,0,0,1.253-1.254c0-.535,0-1.068,0-1.6a1.322,1.322,0,0,0-.011-.135l-.047-.029a1.213,1.213,0,0,1-.12.162c-.7.7-1.409,1.405-2.107,2.114a.5.5,0,0,1-.387.159q-6.319-.007-12.639,0A1.74,1.74,0,0,1,986.947,483.006Zm0-10.624h16.793v-.566H986.946Zm3.384-3.82c-.227,0-.455,0-.681,0a.323.323,0,0,0-.349.344q-.008.387,0,.773a.328.328,0,0,0,.358.354q.672.007,1.344,0a.329.329,0,0,0,.36-.354q.007-.376,0-.755a.332.332,0,0,0-.369-.364C990.772,468.56,990.551,468.562,990.33,468.562Zm10.032,0c-.227,0-.455,0-.681,0a.328.328,0,0,0-.355.357q-.007.377,0,.755a.328.328,0,0,0,.354.36q.672.007,1.344,0a.33.33,0,0,0,.364-.367q.005-.368,0-.736a.332.332,0,0,0-.363-.369C1000.8,468.558,1000.582,468.562,1000.362,468.562Z" transform="translate(-986.642 -468.265)" fill="#e4e4e4"/>
    </g>
    <rect id="Rectangle_1029" data-name="Rectangle 1029" width="1.52" height="1.52" transform="translate(617.887 1910.401)" fill="#e4e4e4" opacity="0.24"/>
    <rect id="Rectangle_1030" data-name="Rectangle 1030" width="1.52" height="1.52" transform="translate(620.256 1910.401)" fill="#e4e4e4" opacity="0.24"/>
    <rect id="Rectangle_1031" data-name="Rectangle 1031" width="1.52" height="1.52" transform="translate(622.646 1910.401)" fill="#e4e4e4" opacity="0.24"/>
    <rect id="Rectangle_1032" data-name="Rectangle 1032" width="1.52" height="1.52" transform="translate(624.973 1910.401)" fill="#e4e4e4" opacity="0.24"/>
    <rect id="Rectangle_1033" data-name="Rectangle 1033" width="1.52" height="1.52" transform="translate(627.28 1910.401)" fill="#e4e4e4" opacity="0.24"/>
    <rect id="Rectangle_1034" data-name="Rectangle 1034" width="1.52" height="1.52" transform="translate(629.533 1910.401)" fill="#e4e4e4" opacity="0.24"/>
    <rect id="Rectangle_1035" data-name="Rectangle 1035" width="1.52" height="1.52" transform="translate(631.819 1910.401)" fill="#e4e4e4" opacity="0.24"/>
    <rect id="Rectangle_1036" data-name="Rectangle 1036" width="1.52" height="1.52" transform="translate(617.887 1912.662)" fill="#e4e4e4" opacity="0.24"/>
    <rect id="Rectangle_1037" data-name="Rectangle 1037" width="1.52" height="1.52" transform="translate(620.256 1912.662)" fill="#e4e4e4" opacity="0.24"/>
    <rect id="Rectangle_1038" data-name="Rectangle 1038" width="1.52" height="1.52" transform="translate(622.646 1912.662)" fill="#e4e4e4" opacity="0.24"/>
    <rect id="Rectangle_1039" data-name="Rectangle 1039" width="1.52" height="1.52" transform="translate(624.973 1912.662)" fill="#e4e4e4" opacity="0.24"/>
    <rect id="Rectangle_1040" data-name="Rectangle 1040" width="1.52" height="1.52" transform="translate(627.28 1912.662)" fill="#e4e4e4" opacity="0.24"/>
    <rect id="Rectangle_1041" data-name="Rectangle 1041" width="1.52" height="1.52" transform="translate(629.533 1912.662)" fill="#e4e4e4" opacity="0.24"/>
    <rect id="Rectangle_1042" data-name="Rectangle 1042" width="1.52" height="1.52" transform="translate(631.819 1912.662)" fill="#e4e4e4" opacity="0.24"/>
    <rect id="Rectangle_1043" data-name="Rectangle 1043" width="1.52" height="1.52" transform="translate(617.887 1915.036)" fill="#e4e4e4" opacity="0.24"/>
    <rect id="Rectangle_1044" data-name="Rectangle 1044" width="1.52" height="1.52" transform="translate(620.256 1915.036)" fill="#e4e4e4" opacity="0.24"/>
    <rect id="Rectangle_1045" data-name="Rectangle 1045" width="1.52" height="1.52" transform="translate(622.646 1915.036)" fill="#e4e4e4" opacity="0.24"/>
    <rect id="Rectangle_1046" data-name="Rectangle 1046" width="1.52" height="1.52" transform="translate(624.973 1915.036)" fill="#e4e4e4" opacity="0.24"/>
    <rect id="Rectangle_1047" data-name="Rectangle 1047" width="1.52" height="1.52" transform="translate(627.28 1915.036)" fill="#e4e4e4" opacity="0.24"/>
    <rect id="Rectangle_1048" data-name="Rectangle 1048" width="1.52" height="1.52" transform="translate(629.533 1915.036)" fill="#e4e4e4" opacity="0.24"/>
    <rect id="Rectangle_1049" data-name="Rectangle 1049" width="1.52" height="1.52" transform="translate(631.819 1915.036)" fill="#e4e4e4" opacity="0.24"/>
    <rect id="Rectangle_1050" data-name="Rectangle 1050" width="1.52" height="1.52" transform="translate(617.887 1917.298)" fill="#e4e4e4" opacity="0.24"/>
    <rect id="Rectangle_1051" data-name="Rectangle 1051" width="1.52" height="1.52" transform="translate(620.256 1917.298)" fill="#e4e4e4" opacity="0.24"/>
    <rect id="Rectangle_1052" data-name="Rectangle 1052" width="1.52" height="1.52" transform="translate(622.646 1917.298)" fill="#e4e4e4" opacity="0.24"/>
    <rect id="Rectangle_1053" data-name="Rectangle 1053" width="1.52" height="1.52" transform="translate(624.973 1917.298)" fill="#e4e4e4" opacity="0.24"/>
    <rect id="Rectangle_1054" data-name="Rectangle 1054" width="1.52" height="1.52" transform="translate(627.28 1917.298)" fill="#e4e4e4" opacity="0.24"/>
    <rect id="Rectangle_1055" data-name="Rectangle 1055" width="1.52" height="1.52" transform="translate(629.533 1917.298)" fill="#e4e4e4" opacity="0.24"/>
    <g id="Group_3548" data-name="Group 3548" transform="translate(-70.152 31.572)">
      <g id="staff_loan" data-name="staff loan" transform="translate(152.152 1379.26)">
        <path id="Path_2945" data-name="Path 2945" d="M768.715,358.581a1.263,1.263,0,0,1,1.128-.46c2.136.015,4.273-.005,6.409.016a1.569,1.569,0,0,0,1.121-.4c.5-.435,1.031-.832,1.55-1.242s.963-.412,1.259-.027.187.782-.311,1.181c-.685.547-1.356,1.117-2.071,1.623a1.867,1.867,0,0,1-.987.346c-1.987.032-3.974.016-5.962.016h-.614v11.883c.168,0,.342,0,.516,0,1.606.02,3.212,0,4.816.072a11.55,11.55,0,0,1,4.738,1.345c.661.334,1.328.661,2.069,1.03a19.1,19.1,0,0,1,1.963-7.008c-.737.182-1.423.39-2.126.512a13.789,13.789,0,0,1-1.826.158.728.728,0,0,1-.841-.708.745.745,0,0,1,.835-.774,8.471,8.471,0,0,0,4.019-.94,8.327,8.327,0,0,0,4.09-5.766c.244-1.026.493-1.187,1.48-.83,1.569.57,3.134,1.152,4.708,1.708a3.113,3.113,0,0,0,3.827-1.323c-.125-.073-.244-.152-.371-.219-2.466-1.28-4.924-2.576-7.4-3.834a7.45,7.45,0,0,0-8.191.6c-.494.349-.9.343-1.185-.023s-.19-.828.3-1.179a8.962,8.962,0,0,1,8.937-1.116c.138.053.274.113.412.167.008,0,.025-.012.086-.046-.133-.355-.244-.732-.41-1.083a2.364,2.364,0,0,1,1.486-3.516H803.7c.209.093.427.171.628.28a2.218,2.218,0,0,1,1.019,2.771c-.351.981-.735,1.949-1.1,2.923-.057.152-.107.307-.174.5a2.491,2.491,0,0,1,1.657,1.715,2.42,2.42,0,0,1-.6,2.3c.184.152.358.294.529.439a21.4,21.4,0,0,1,7.432,11.63,12.307,12.307,0,0,1,.192,5.415,7.406,7.406,0,0,1-3.341,4.915,23.49,23.49,0,0,1-3.108,1.517.728.728,0,0,1-1.081-.437c-.135-.425.081-.757.612-.967.568-.227,1.148-.432,1.692-.705a6.693,6.693,0,0,0,3.937-6.719,16.087,16.087,0,0,0-1.814-6.7,20.677,20.677,0,0,0-6.309-7.424,1.525,1.525,0,0,0-.81-.268c-.977-.032-1.955-.029-2.931,0a.916.916,0,0,0-.611.286,4.674,4.674,0,0,1-5.313,1.528c-.86-.3-1.7-.635-2.568-.92a.685.685,0,0,0-.561.1,19.267,19.267,0,0,0-7.1,12.2,7.378,7.378,0,0,0,1.309,5.934,8.572,8.572,0,0,0,4.213,2.68,25.682,25.682,0,0,0,8.483,1.087c1.751-.028,3.5-.219,5.247-.358.6-.048.991.158,1.056.632.061.443-.245.775-.824.849a35.379,35.379,0,0,1-13.848-.6,11.347,11.347,0,0,1-4.242-2.1,7.793,7.793,0,0,1-2.853-4.907c-.045-.258-.1-.648-.276-.73a48.988,48.988,0,0,0-4.836-2.157,10.932,10.932,0,0,0-3.131-.416c-1.521-.065-3.048-.029-4.571-.009a.989.989,0,0,1-.985-.517Q768.718,365.537,768.715,358.581Zm29.273-8.349q-2.532,0-5.066,0c-.949,0-1.24.412-.913,1.284q.445,1.183.9,2.364a2.2,2.2,0,0,0,1.861,1.285c2.433,0,4.868,0,7.3.008a.507.507,0,0,0,.563-.407c.4-1.1.831-2.195,1.244-3.293.3-.81,0-1.242-.872-1.243Zm-.432,6.427c0,.036-.009.072-.013.107.113.064.228.123.338.192.689.432,1.56.59,2.03,1.357.046.076.237.086.36.087,1.008.007,2.017.009,3.027,0,.635,0,1-.315,1.008-.845.013-.551-.352-.889-1.008-.9-.926-.011-1.853,0-2.778,0Z" fill="#0090f8"/>
        <path id="Path_2946" data-name="Path 2946" d="M863.824,637.594a26.3,26.3,0,0,1-3.175-.514c-1.888-.538-3.741-1.2-5.6-1.839a.711.711,0,0,1-.443-.97.758.758,0,0,1,1.039-.383c1.308.466,2.6,1,3.923,1.4a20.355,20.355,0,0,0,9.824.386c3.219-.6,6.45-1.149,9.675-1.715a3.406,3.406,0,0,1,.594-.029c1.125,0,2.249,0,3.408,0V627.5c-.937,0-1.878-.033-2.815.011a2.582,2.582,0,0,1-1.745-.545,16.352,16.352,0,0,0-2.285-1.488,7.669,7.669,0,0,0-7.172-.134,9.91,9.91,0,0,1-5.387,1.116,17.451,17.451,0,0,0-2.234,0,2.632,2.632,0,0,0-2.468,2.713c.184.009.374.025.565.025h7.554c.166,0,.333,0,.5.012a.712.712,0,0,1,.7.708.738.738,0,0,1-.7.759,3.307,3.307,0,0,1-.4.011c-2.633,0-5.27.065-7.9-.032a14.859,14.859,0,0,1-3.138-.671c-3.007-.789-6.007-1.6-9.008-2.416a1.479,1.479,0,0,0-1.7.468,1.238,1.238,0,0,0-.121,1.527,2.156,2.156,0,0,0,.936.747c2.014.8,4.047,1.544,6.073,2.309.077.029.154.061.231.091.582.231.8.594.625,1.05-.159.42-.58.559-1.129.352-2.181-.822-4.368-1.631-6.539-2.481a2.912,2.912,0,0,1,.735-5.619,3.444,3.444,0,0,1,1.222.122c3.183.834,6.361,1.69,9.54,2.538.126.033.253.057.409.093a4.408,4.408,0,0,1,1.307-2.636,4.022,4.022,0,0,1,2.768-1.169c1.226-.019,2.452-.036,3.676,0a4.689,4.689,0,0,0,2.049-.437,19.342,19.342,0,0,1,3.434-1.248,9.223,9.223,0,0,1,6.956,1.254,3.178,3.178,0,0,1,.538.355,4.288,4.288,0,0,0,3.639,1.124c.555-.068,1.125.005,1.688-.016a1.2,1.2,0,0,1,1.124.469v8.448a.992.992,0,0,1-1.034.516c-.478-.029-.958-.012-1.438-.005a22.2,22.2,0,0,0-3.018.073c-2.954.455-5.891,1.014-8.837,1.517-1.251.213-2.509.39-3.762.583Z" transform="translate(-64.993 -237.964)" fill="#0090f8"/>
        <path id="Path_2947" data-name="Path 2947" d="M969.338,481.013c0-1.038.017-1.948-.016-2.856a.675.675,0,0,0-.345-.445,2.392,2.392,0,0,1-1.521-2.091,2.572,2.572,0,0,1,1.537-2.457.629.629,0,0,0,.331-.387c.086-.608.318-.92.762-.917s.712.33.746.926c0,.065.013.129.016.155.412.2.812.36,1.171.583a.762.762,0,0,1,.327,1.133c-.252.362-.667.4-1.136.111-.094-.058-.2-.1-.379-.2,0,.753-.008,1.438.011,2.122a.383.383,0,0,0,.225.256,2.6,2.6,0,0,1,1.959,2.67,2.953,2.953,0,0,1-2.16,2.792c-.113.959-.3,1.26-.794,1.254s-.7-.333-.755-1.092c-.526-.219-1.052-.4-1.543-.653-.549-.282-.69-.718-.441-1.13.236-.388.657-.439,1.172-.16C968.747,480.76,969.005,480.861,969.338,481.013Zm1.507-.268a1.382,1.382,0,0,0,.676-1.471.875.875,0,0,0-.676-.736Zm-1.548-4.663v-1.319C968.821,475.345,968.831,475.761,969.3,476.082Z" transform="translate(-172.199 -106.804)" fill="#0090f8"/>
      </g>
    </g>
    <path id="Path_2948" data-name="Path 2948" d="M770.815,297.95c1.075.159,2.163.257,3.222.486,7.611,1.649,13.363,5.893,16.774,12.87,4.291,8.778,3.543,17.349-2.227,25.271a23.214,23.214,0,0,1-15.621,9.37c-.941.153-1.9.224-2.866.336l1.969,1.851-1.255,1.177-3.876-3.857,3.911-3.886,1.059,1.222-1.81,1.687a22.415,22.415,0,0,0,.478-44.781,21.669,21.669,0,0,0-17.366,6.791,22.2,22.2,0,0,0-6.308,17.628l-1.637.185c-.033-.218-.076-.408-.088-.6A24.233,24.233,0,0,1,761,299.427a22.755,22.755,0,0,1,6.257-1.387,3.48,3.48,0,0,0,.435-.089Z" transform="translate(337.307 1839.482)" fill="#0090f8"/>
    <path id="Path_2949" data-name="Path 2949" d="M721.762,559.735h10.117v1.226c.52-.332.974-.6,1.4-.9a3.078,3.078,0,0,1,1.846-.538c3.387.009,6.773,0,10.161,0a3.369,3.369,0,0,1,3.4,2.253,3.465,3.465,0,0,1-1.239,3.9c-.062.05-.117.106-.248.224,1.3.177,2.441.552,3.74.13,2.974-.968,6-1.775,9.01-2.639a3.2,3.2,0,0,1,3.763,1.58,3.013,3.013,0,0,1-.7,3.743,3.626,3.626,0,0,1-1.184.63q-9.819,3.087-19.647,6.143a2.976,2.976,0,0,1-2.148-.114c-2.542-1.078-5.1-2.123-7.65-3.179-.136-.056-.277-.1-.486-.176v2.056H721.76C721.762,569.3,721.762,564.538,721.762,559.735Zm17.789,5.042h.6c1.744,0,3.487.01,5.229,0a1.683,1.683,0,1,0-.007-3.364q-5.23-.013-10.46,0a1.371,1.371,0,0,0-.618.15c-.708.379-1.411.771-2.095,1.192a.7.7,0,0,0-.3.5q-.03,3.268,0,6.538a.628.628,0,0,0,.315.463q4.292,1.835,8.606,3.621a1.229,1.229,0,0,0,.767.033q9.765-3,19.521-6.025a1.389,1.389,0,0,0,1.1-1.781,1.452,1.452,0,0,0-1.97-1c-3.247.937-6.491,1.888-9.745,2.8a4.053,4.053,0,0,1-1.624.142c-2.335-.344-4.66-.755-6.989-1.141l-2.5-.415Zm-9.377-3.342h-1.682v5h-1.716v-5.005h-3.328v10.939h6.727C730.174,568.714,730.174,565.1,730.174,561.435Z" transform="translate(358.196 1605.687)" fill="#0090f8"/>
    <path id="Path_2950" data-name="Path 2950" d="M833.34,409.117V393.88h30.45c.009.176.023.351.023.528,0,4.711-.005,9.423.012,14.134,0,.463-.124.586-.586.585q-14.687-.019-29.373-.01Zm28.753-13.527H835.024v11.8h27.069Z" transform="translate(258.464 1753.738)" fill="#0090f8"/>
    <path id="Path_2951" data-name="Path 2951" d="M771.152,641.34v2.469H769.51V641.34Z" transform="translate(315.516 1532.554)" fill="#0090f8"/>
    <path id="Path_2952" data-name="Path 2952" d="M948.088,440.326a3.388,3.388,0,1,1,3.406-3.371A3.408,3.408,0,0,1,948.088,440.326Zm1.71-3.363a1.7,1.7,0,1,0-1.718,1.677A1.713,1.713,0,0,0,949.8,436.964Z" transform="translate(158.92 1718.281)" fill="#0090f8"/>
    <path id="Path_2953" data-name="Path 2953" d="M868.554,475.412v1.69H865.21V473.77h1.661v1.642Z" transform="translate(229.978 1682.331)" fill="#0090f8"/>
    <path id="Path_2954" data-name="Path 2954" d="M1060.054,477.116h-3.334v-1.679h1.644V473.77h1.69Z" transform="translate(58.803 1682.331)" fill="#0090f8"/>
    <path id="Path_2955" data-name="Path 2955" d="M865.07,429.4v-3.3h3.356v1.622h-1.669V429.4Z" transform="translate(230.103 1724.94)" fill="#0090f8"/>
    <path id="Path_2956" data-name="Path 2956" d="M1056.6,425.95h3.35v3.308H1058.3v-1.638h-1.7C1056.6,427.033,1056.6,426.521,1056.6,425.95Z" transform="translate(58.91 1725.074)" fill="#0090f8"/>
    <path id="Path_2957" data-name="Path 2957" d="M907.583,457.81v1.622H905.09V457.81Z" transform="translate(194.332 1696.597)" fill="#0090f8"/>
    <path id="Path_2958" data-name="Path 2958" d="M1024.89,457.468c.761,0,1.461,0,2.161,0,.1,0,.194.02.319.033v1.626h-2.479Z" transform="translate(87.253 1696.903)" fill="#0090f8"/>
    <g id="Auto_Sync_with_devices" data-name="Auto Sync with devices" transform="translate(503.107 1645.639)">
      <path id="Path_2959" data-name="Path 2959" d="M794.979,366.932c1.171.151,2.336.31,3.5.451a2.267,2.267,0,0,1,2.134,2.212,1.859,1.859,0,0,1-1.636,1.937c-.894.108-1.8.144-2.694.2-1.531.1-3.062.225-4.6.284a28.525,28.525,0,0,1-8.592-1.114c-.556-.151-1.119-.276-1.678-.419-.522-.134-.678-.332-.678-.862q0-3.507,0-7.015c0-.73.443-1.006,1.121-.705.5.222,1,.445,1.5.683a3.629,3.629,0,0,0,2.629.208c2.291-.631,4.577-1.279,6.881-1.86a13.631,13.631,0,0,1,7.862.329c2.9.987,5.8,2,8.694,3,.849.292.96.558.579,1.384a3.066,3.066,0,0,1-3.346,2.071,4.778,4.778,0,0,1-1.048-.305,17.735,17.735,0,0,0-10.5-.6.367.367,0,0,0-.109.059C794.99,366.875,794.99,366.894,794.979,366.932Zm13.633-1.517c-.143-.051-.284-.1-.427-.152-2.514-.862-5.034-1.7-7.54-2.59a12.79,12.79,0,0,0-7.558-.4c-2.262.576-4.511,1.2-6.758,1.835a4.858,4.858,0,0,1-3.608-.323c-.192-.095-.39-.175-.615-.276v5.722c.4.1.791.2,1.182.3a25.3,25.3,0,0,0,7.106,1.128c2.771-.065,5.54-.266,8.308-.42a.6.6,0,0,0,.552-.87.948.948,0,0,0-.873-.625q-3.977-.516-7.956-1.028c-.456-.059-.718-.294-.725-.672s.224-.6.663-.686c1.533-.3,3.071-.572,4.6-.9a19.427,19.427,0,0,1,9.363.151c.73.2,1.441.474,2.161.713A1.658,1.658,0,0,0,808.612,365.416Z" transform="translate(0 0)" fill="#fbfbfb"/>
      <path id="Path_2960" data-name="Path 2960" d="M894.659,623.871c-1.254-.161-2.424-.318-3.595-.461a2.269,2.269,0,0,1-2.128-2.262,1.85,1.85,0,0,1,1.6-1.881c1.005-.118,2.019-.169,3.03-.23,1.658-.1,3.315-.223,4.975-.265a28.79,28.79,0,0,1,8.155,1.2c.5.134,1.005.266,1.512.384a.711.711,0,0,1,.619.775c0,2.365,0,4.731,0,7.1a.687.687,0,0,1-1.054.683c-.542-.233-1.075-.487-1.613-.734a3.6,3.6,0,0,0-2.548-.2c-2.44.67-4.87,1.38-7.331,1.958a13.6,13.6,0,0,1-7.728-.5c-2.812-.985-5.639-1.927-8.458-2.888-.774-.264-.876-.54-.586-1.3a3.065,3.065,0,0,1,3.4-2.168,9.023,9.023,0,0,1,1.447.442,17.72,17.72,0,0,0,10.1.455A1.273,1.273,0,0,0,894.659,623.871Zm-13.668,1.512c.125.048.251.1.38.146,2.566.879,5.136,1.748,7.7,2.638a12.356,12.356,0,0,0,7.106.412c2.375-.58,4.73-1.251,7.086-1.907a4.878,4.878,0,0,1,3.569.326c.194.095.392.18.595.273v-5.761l-.683-.176a29.11,29.11,0,0,0-8.829-1.222c-2.348.116-4.693.282-7.04.435a.618.618,0,0,0-.554.932.963.963,0,0,0,.833.563q3.977.515,7.953,1.029c.468.06.728.277.747.65s-.224.623-.682.713c-1.684.328-3.369.651-5.052.988a18.359,18.359,0,0,1-7.381.087c-1.22-.252-2.412-.654-3.6-1.022A1.647,1.647,0,0,0,880.991,625.383Z" transform="translate(-87.505 -229.156)" fill="#fbfbfb"/>
      <path id="Path_2961" data-name="Path 2961" d="M902.227,474.75a7.436,7.436,0,1,1-7.467,7.416A7.444,7.444,0,0,1,902.227,474.75Zm6.055,7.446a6.085,6.085,0,1,0-6.029,6.076A6.093,6.093,0,0,0,908.281,482.2Z" transform="translate(-101.17 -101.368)" fill="#fbfbfb"/>
      <path id="Path_2962" data-name="Path 2962" d="M836.833,498.407V493.03h1.352v5.377c.432,0,.82,0,1.209,0,.728.009,1.03.506.667,1.123q-.938,1.6-1.907,3.181a.683.683,0,0,1-1.269,0q-.969-1.582-1.908-3.181c-.365-.621-.069-1.117.658-1.127C836.016,498.4,836.4,498.407,836.833,498.407Zm1.5,1.371H836.7l.82,1.368Z" transform="translate(-47.987 -117.588)" fill="#fbfbfb"/>
      <path id="Path_2963" data-name="Path 2963" d="M1042.184,503.488v5.306h-1.344v-5.376c-.45,0-.854.008-1.259,0a.679.679,0,0,1-.632-1.1q.948-1.621,1.933-3.222a.674.674,0,0,1,1.245-.01q.984,1.6,1.933,3.222c.349.6.045,1.093-.656,1.107-.38.008-.761.008-1.14.013C1042.252,503.432,1042.241,503.447,1042.184,503.488Zm-.677-2.813-.8,1.36h1.617C1042.043,501.574,1041.795,501.159,1041.506,500.676Z" transform="translate(-228.987 -122.601)" fill="#fbfbfb"/>
      <path id="Path_2964" data-name="Path 2964" d="M915.613,514.01l-.943-.9a7.144,7.144,0,0,1,10.4-.008l-.952.909a5.908,5.908,0,0,0-8.5,0Z" transform="translate(-118.837 -133.408)" fill="#fbfbfb"/>
      <path id="Path_2965" data-name="Path 2965" d="M933.84,537.145l-.89-.944a4.5,4.5,0,0,1,6.268,0l-.885.936a3.448,3.448,0,0,0-2.228-.877A3.375,3.375,0,0,0,933.84,537.145Z" transform="translate(-135.057 -154.766)" fill="#fbfbfb"/>
      <path id="Path_2966" data-name="Path 2966" d="M956.131,559.47a.673.673,0,1,1-.651-.693A.681.681,0,0,1,956.131,559.47Z" transform="translate(-154.433 -175.926)" fill="#fbfbfb"/>
    </g>
  </g>
</svg>
