<svg xmlns="http://www.w3.org/2000/svg" xmlns:xlink="http://www.w3.org/1999/xlink" width="661.461" height="418.394" viewBox="0 0 661.461 418.394">
  <defs>
    <linearGradient id="linear-gradient" x1="1.044" y1="1.207" x2="2.107" y2="2.588" gradientUnits="objectBoundingBox">
      <stop offset="0" stop-color="#4042e2"/>
      <stop offset="1" stop-color="#4f52ff"/>
    </linearGradient>
    <linearGradient id="linear-gradient-2" x1="225.115" y1="-32.983" x2="213.886" y2="-32.592" gradientUnits="objectBoundingBox">
      <stop offset="0" stop-color="#09005d"/>
      <stop offset="1" stop-color="#1a0f91"/>
    </linearGradient>
    <linearGradient id="linear-gradient-3" x1="55.56" y1="-129.049" x2="55.172" y2="-129.991" xlink:href="#linear-gradient-2"/>
    <linearGradient id="linear-gradient-4" x1="272.409" y1="-48.426" x2="263.897" y2="-48.034" xlink:href="#linear-gradient-2"/>
    <linearGradient id="linear-gradient-5" x1="67.037" y1="-142.355" x2="66.649" y2="-143.297" xlink:href="#linear-gradient-2"/>
    <linearGradient id="linear-gradient-6" x1="317.785" y1="-40.676" x2="306.827" y2="-40.285" xlink:href="#linear-gradient-2"/>
    <linearGradient id="linear-gradient-7" x1="78.151" y1="-154.9" x2="77.764" y2="-155.842" xlink:href="#linear-gradient-2"/>
    <linearGradient id="linear-gradient-8" x1="0.982" y1="-0.027" x2="-0.16" y2="0.597" xlink:href="#linear-gradient-2"/>
    <linearGradient id="linear-gradient-9" x1="77.754" y1="-129.009" x2="77.366" y2="-129.95" xlink:href="#linear-gradient-2"/>
    <linearGradient id="linear-gradient-10" x1="-10.85" y1="-0.025" x2="-11.993" y2="0.599" xlink:href="#linear-gradient-2"/>
    <linearGradient id="linear-gradient-11" x1="55.337" y1="-52.06" x2="54.949" y2="-53.002" xlink:href="#linear-gradient-2"/>
    <linearGradient id="linear-gradient-12" x1="0" y1="0.5" x2="1" y2="0.5" xlink:href="#linear-gradient-2"/>
    <linearGradient id="linear-gradient-13" x1="1.258" y1="-0.788" x2="-0.19" y2="1.674" xlink:href="#linear-gradient"/>
    <linearGradient id="linear-gradient-14" x1="1.258" y1="-0.788" x2="-0.19" y2="1.674" xlink:href="#linear-gradient"/>
    <linearGradient id="linear-gradient-15" y1="0.5" x2="1" y2="0.5" gradientUnits="objectBoundingBox">
      <stop offset="0" stop-color="#dae3fe"/>
      <stop offset="1" stop-color="#e9effd"/>
    </linearGradient>
    <linearGradient id="linear-gradient-16" x1="0" y1="0.5" x2="1" y2="0.5" xlink:href="#linear-gradient-15"/>
    <linearGradient id="linear-gradient-18" x1="0" y1="0.5" x2="1" y2="0.5" xlink:href="#linear-gradient-15"/>
    <linearGradient id="linear-gradient-19" x1="0" y1="0.5" x2="1" y2="0.5" xlink:href="#linear-gradient-15"/>
    <linearGradient id="linear-gradient-21" x1="0" y1="0.5" x2="1" y2="0.5" xlink:href="#linear-gradient-15"/>
    <linearGradient id="linear-gradient-22" x1="0" y1="0.5" x2="1" y2="0.5" xlink:href="#linear-gradient-15"/>
    <linearGradient id="linear-gradient-25" x1="0.001" y1="0.5" x2="1" y2="0.5" xlink:href="#linear-gradient-15"/>
    <linearGradient id="linear-gradient-26" x1="0" y1="0.5" x2="1" y2="0.5" xlink:href="#linear-gradient-15"/>
    <linearGradient id="linear-gradient-27" x1="0" y1="0.5" x2="0.999" y2="0.5" xlink:href="#linear-gradient-15"/>
    <linearGradient id="linear-gradient-28" x1="0.001" y1="0.5" x2="1" y2="0.5" xlink:href="#linear-gradient-15"/>
    <linearGradient id="linear-gradient-29" x1="0" y1="0.5" x2="1" y2="0.5" xlink:href="#linear-gradient-15"/>
    <linearGradient id="linear-gradient-30" x1="4.084" y1="-3.357" x2="2.555" y2="-1.64" xlink:href="#linear-gradient"/>
    <linearGradient id="linear-gradient-31" x1="-0.436" y1="1.46" x2="-2.324" y2="3.389" xlink:href="#linear-gradient"/>
    <linearGradient id="linear-gradient-32" x1="0.843" y1="1.973" x2="1.803" y2="5.979" xlink:href="#linear-gradient-2"/>
    <linearGradient id="linear-gradient-33" x1="-78.476" y1="0.5" x2="-77.476" y2="0.5" gradientUnits="objectBoundingBox">
      <stop offset="0" stop-color="#ff928e"/>
      <stop offset="1" stop-color="#feb3b1"/>
    </linearGradient>
    <linearGradient id="linear-gradient-34" x1="-13.242" y1="0.652" x2="-12.521" y2="-0.149" xlink:href="#linear-gradient-2"/>
    <linearGradient id="linear-gradient-35" x1="0.482" y1="-3.461" x2="0.5" y2="0.508" xlink:href="#linear-gradient-2"/>
    <linearGradient id="linear-gradient-36" x1="-28.862" y1="0.5" x2="-27.862" y2="0.5" xlink:href="#linear-gradient"/>
    <linearGradient id="linear-gradient-37" x1="-85.189" y1="0.5" x2="-84.189" y2="0.5" xlink:href="#linear-gradient-33"/>
    <linearGradient id="linear-gradient-38" x1="-13.563" y1="0.936" x2="-13.525" y2="0.091" xlink:href="#linear-gradient-2"/>
    <linearGradient id="linear-gradient-39" x1="-20.11" y1="-0.027" x2="-21.894" y2="0.826" gradientUnits="objectBoundingBox">
      <stop offset="0" stop-color="#0090f8"/>
      <stop offset="1" stop-color="#4f52ff"/>
    </linearGradient>
    <linearGradient id="linear-gradient-40" x1="-21.966" y1="0.5" x2="-20.966" y2="0.5" xlink:href="#linear-gradient-33"/>
    <linearGradient id="linear-gradient-41" x1="-10.554" y1="0.175" x2="-11.561" y2="0.862" xlink:href="#linear-gradient-39"/>
    <linearGradient id="linear-gradient-42" x1="-36.482" y1="0.5" x2="-35.482" y2="0.5" xlink:href="#linear-gradient-33"/>
    <linearGradient id="linear-gradient-44" x1="-43.454" y1="0.534" x2="-40.289" y2="0.405" xlink:href="#linear-gradient-2"/>
    <linearGradient id="linear-gradient-45" x1="1.122" y1="-1.063" x2="0.281" y2="1.294" xlink:href="#linear-gradient-33"/>
    <linearGradient id="linear-gradient-46" x1="2.899" y1="-0.089" x2="0.396" y2="0.511" xlink:href="#linear-gradient-33"/>
    <linearGradient id="linear-gradient-47" x1="-21.672" y1="-12.328" x2="-20.624" y2="-12.328" xlink:href="#linear-gradient-2"/>
    <linearGradient id="linear-gradient-48" x1="-106.533" y1="-56.382" x2="-103.281" y2="-58.77" xlink:href="#linear-gradient-33"/>
    <linearGradient id="linear-gradient-49" x1="62.719" y1="47.091" x2="61.979" y2="49.528" xlink:href="#linear-gradient-2"/>
    <linearGradient id="linear-gradient-50" x1="0.303" y1="0.713" x2="1.285" y2="-0.574" xlink:href="#linear-gradient-2"/>
    <linearGradient id="linear-gradient-52" x1="2.844" y1="1.179" x2="3.845" y2="1.179" xlink:href="#linear-gradient-2"/>
  </defs>
  <g id="_20943629_Converted_" data-name="20943629 [Converted]" transform="translate(-50.077 -49.602)">
    <g id="Illustration" transform="translate(29.689 38.589)">
      <g id="Group_1851" data-name="Group 1851">
        <g id="Group_1793" data-name="Group 1793" transform="translate(479.77 211.058)">
          <path id="Path_2016" data-name="Path 2016" d="M1861.434,815.736c.209-2.137-3.242-3.534-4.651-1.879-13.613,16-51.07,56.808-90.273,71.219-63.83,23.469-121.451,78.821-103.979,125.224C1662.534,1010.3,1838.724,1048.672,1861.434,815.736Z" transform="translate(-1659.364 -813.128)" fill="#bdd0fb"/>
          <path id="Path_2017" data-name="Path 2017" d="M1896.445,900.537c-.313.623-.62,1.078-.927,1.6l-.946,1.51-1.934,2.987c-1.3,1.98-2.64,3.939-3.985,5.895-2.686,3.908-5.462,7.752-8.253,11.587q-8.446,11.449-17.5,22.437a520.473,520.473,0,0,1-38.445,41.96c-6.788,6.641-13.85,12.993-21.058,19.173q-10.859,9.215-22.388,17.611-11.591,8.285-23.88,15.532c-4.16,2.3-8.274,4.667-12.551,6.733-4.2,2.22-8.575,4.071-12.9,6.021a.348.348,0,0,1-.292-.633l.012-.006a281.825,281.825,0,0,0,24.995-13.362q12.084-7.4,23.511-15.805c7.571-5.649,15-11.492,22.164-17.654s14.1-12.579,20.917-19.13q10.164-9.883,19.806-20.294l4.786-5.232,4.71-5.3c3.116-3.555,6.227-7.12,9.266-10.743q9.146-10.846,17.761-22.13c2.865-3.764,5.714-7.54,8.477-11.381q2.077-2.878,4.1-5.787l2.011-2.92.983-1.474c.31-.485.663-1.016.906-1.44l.049-.086a.346.346,0,0,1,.47-.129A.358.358,0,0,1,1896.445,900.537Z" transform="translate(-1709.136 -873.353)" fill="#dce5fe"/>
        </g>
        <g id="Group_1794" data-name="Group 1794" transform="translate(110.879 58.219)">
          <path id="Path_2018" data-name="Path 2018" d="M462.611,315.6c36.941,16.02,248.1,118.037,187.961,333.378,0,0-156.3-31.374-192.7-329.85A3.4,3.4,0,0,1,462.611,315.6Z" transform="translate(-457.844 -315.315)" fill="#bdd0fb"/>
          <path id="Path_2019" data-name="Path 2019" d="M536.894,429.955c8.873,9.324,17.543,18.82,26.137,28.393s17.061,19.253,25.424,29.029c16.723,19.548,33.017,39.474,48.684,59.89,15.652,20.426,30.721,41.325,44.622,63.013q10.477,16.234,19.748,33.226a324.669,324.669,0,0,1,16.641,34.954,1.4,1.4,0,0,1-2.594,1.029l0-.006,0-.006a322.2,322.2,0,0,0-16.321-34.739q-9.109-16.934-19.483-33.174c-13.739-21.685-28.67-42.617-44.186-63.093-15.535-20.466-31.706-40.453-48.31-60.069Q574.8,473.689,562,459.27c-8.532-9.607-17.153-19.149-25.959-28.5l0,0a.591.591,0,0,1,.857-.814Z" transform="translate(-511.919 -394.631)" fill="#dce5fe"/>
        </g>
        <g id="Group_1799" data-name="Group 1799" transform="translate(87.113 181.848)">
          <g id="Group_1797" data-name="Group 1797" transform="translate(4.045 137.11)">
            <g id="Group_1795" data-name="Group 1795">
              <path id="Path_2020" data-name="Path 2020" d="M524.568,1256.275s-5.578-21.654-31.055-33.907c-23.641-11.369-81.044-36.342-97.9-57.45-.746-.936-2.257.184-1.968,1.465,3.092,13.714,13.315,46.885,43.05,70.32C475.043,1266.919,524.568,1256.275,524.568,1256.275Z" transform="translate(-393.612 -1164.571)" fill="#bdd0fb"/>
            </g>
            <g id="Group_1796" data-name="Group 1796" transform="translate(15.065 21.156)">
              <path id="Path_2021" data-name="Path 2021" d="M442.772,1233.507a50.068,50.068,0,0,0,4.16,7.117c.752,1.148,1.59,2.238,2.407,3.334s1.735,2.121,2.582,3.193a85.871,85.871,0,0,0,11.793,11.354l1.587,1.289c.534.424,1.1.807,1.649,1.213,1.111.792,2.2,1.615,3.322,2.386l3.451,2.2c1.13.764,2.327,1.418,3.515,2.088s2.367,1.354,3.571,1.992l3.684,1.787c2.425,1.228,4.983,2.3,7.485,3.433q7.567,3.311,15.231,6.4c5.109,2.063,10.248,4.053,15.394,6.061,2.576,1,5.152,2,7.715,3.046q1.925.769,3.844,1.581l1.916.807,1.9.863c2.533,1.136,5.02,2.4,7.448,3.779a38.519,38.519,0,0,1,6.767,4.94.35.35,0,0,1-.454.531l-.009-.009a43.744,43.744,0,0,0-6.893-4.381c-2.45-1.216-4.949-2.33-7.513-3.322-5.1-2.026-10.319-3.822-15.511-5.707l-7.8-2.822c-2.588-.976-5.179-1.943-7.758-2.957-2.585-.992-5.152-2.026-7.715-3.079-2.551-1.075-5.106-2.152-7.642-3.264-10.15-4.366-20.2-9.76-28.587-17.175a78.77,78.77,0,0,1-11.483-12.152,70.947,70.947,0,0,1-4.611-6.96,43.818,43.818,0,0,1-3.534-7.531.042.042,0,0,1,.028-.055A.06.06,0,0,1,442.772,1233.507Z" transform="translate(-442.68 -1233.479)" fill="#dce5fe"/>
            </g>
          </g>
          <g id="Group_1798" data-name="Group 1798">
            <path id="Path_2022" data-name="Path 2022" d="M380.437,720.089a2.033,2.033,0,0,1,3.795-1.075c10.107,17.767,38.074,63.522,68.659,83.887,49.8,33.158,93.165,96.331,77.068,138.638C529.959,941.54,387.683,950.342,380.437,720.089Z" transform="translate(-380.436 -717.989)" fill="#bdd0fb"/>
            <path id="Path_2023" data-name="Path 2023" d="M415.447,809.339c.175.454.421.995.639,1.5l.7,1.538,1.428,3.064,2.923,6.1q2.97,6.079,6.079,12.09,6.185,12.038,12.809,23.837c8.879,15.7,18.191,31.159,28.307,46.084,5.087,7.439,10.218,14.851,15.652,22.041s11.028,14.252,16.9,21.08,11.934,13.5,18.366,19.809a261.748,261.748,0,0,0,20.174,17.97l0,0a.348.348,0,0,1-.424.553,235.285,235.285,0,0,1-20.755-17.488c-6.567-6.239-12.76-12.852-18.777-19.619a434.475,434.475,0,0,1-32.888-43.173c-5.06-7.5-9.868-15.167-14.565-22.9s-9.22-15.566-13.524-23.518S429.978,842.362,426,834.245q-2.97-6.093-5.818-12.247c-.94-2.057-1.879-4.111-2.788-6.183l-1.342-3.116-.654-1.566c-.209-.537-.427-1.025-.629-1.636a.342.342,0,0,1,.218-.436.347.347,0,0,1,.433.2Z" transform="translate(-404.215 -781.087)" fill="#dce5fe"/>
          </g>
        </g>
        <g id="Group_1812" data-name="Group 1812" transform="translate(179.873 11.013)">
          <path id="Path_2024" data-name="Path 2024" d="M1006.373,165.981A14.583,14.583,0,0,0,995.9,161.56l-298.761.175a14.583,14.583,0,0,0-14.568,15.038l11.842,381.654a14.457,14.457,0,0,0,14.577,13.982H984.7a14.458,14.458,0,0,0,14.58-14.006L1010.493,176.5A14.406,14.406,0,0,0,1006.373,165.981Z" transform="translate(-682.567 -161.56)" fill="#0090f8"/>
          <path id="Path_2025" data-name="Path 2025" d="M1026.164,224.06a13.329,13.329,0,0,0-9.57-4.04l-273.07.16a13.335,13.335,0,0,0-13.318,13.745l10.825,348.79a13.2,13.2,0,0,0,13.325,12.766h252a13.2,13.2,0,0,0,13.325-12.787l10.248-349.027A13.151,13.151,0,0,0,1026.164,224.06Z" transform="translate(-715.575 -202.072)" fill="#f2f9fe"/>
          <g id="Group_1810" data-name="Group 1810" transform="translate(41.292 26.686)">
            <g id="Group_1800" data-name="Group 1800" transform="translate(93.135)">
              <circle id="Ellipse_133" data-name="Ellipse 133" cx="29.538" cy="29.538" r="29.538" fill="#0090f8"/>
              <circle id="Ellipse_134" data-name="Ellipse 134" cx="27.445" cy="27.445" r="27.445" transform="translate(2.794 2.094)" fill="#0090f8"/>
            </g>
            <g id="Group_1801" data-name="Group 1801" transform="translate(93.135 291.666)">
              <circle id="Ellipse_135" data-name="Ellipse 135" cx="29.538" cy="29.538" r="29.538" fill="url(#linear-gradient)"/>
              <circle id="Ellipse_136" data-name="Ellipse 136" cx="27.445" cy="27.445" r="27.445" transform="translate(2.794 2.094)" fill="#0090f8"/>
            </g>
            <path id="Path_2026" data-name="Path 2026" d="M1139.737,565.8l-34.187,34.018L1139.568,634l34.187-34.018Z" transform="translate(-1016.978 -468.376)" fill="none"/>
            <path id="Path_2027" data-name="Path 2027" d="M1146.027,574.89l-31.387,31.236,31.233,31.387,31.39-31.233Z" transform="translate(-1023.277 -474.676)" fill="#263238"/>
            <g id="Group_1802" data-name="Group 1802" transform="translate(182.115 195.768)">
              <path id="Path_2028" data-name="Path 2028" d="M1472.328,904.959a18.838,18.838,0,0,1-18.839,18.839h-24.42a18.838,18.838,0,0,1-18.839-18.839h0a18.838,18.838,0,0,1,18.839-18.839h24.42a18.838,18.838,0,0,1,18.839,18.839Z" transform="translate(-1410.23 -886.12)" fill="#263238"/>
              <path id="Path_2029" data-name="Path 2029" d="M1474.706,908.1a17.33,17.33,0,0,1-17.334,17.445H1434.7A17.33,17.33,0,0,1,1417.37,908.1h0A17.33,17.33,0,0,1,1434.7,890.66h22.667a17.332,17.332,0,0,1,17.334,17.445Z" transform="translate(-1415.178 -889.266)" fill="#263238"/>
            </g>
            <g id="Group_1803" data-name="Group 1803" transform="translate(92.106 195.768)">
              <path id="Path_2030" data-name="Path 2030" d="M1179.158,904.959a18.838,18.838,0,0,1-18.839,18.839H1135.9a18.838,18.838,0,0,1-18.839-18.839h0A18.838,18.838,0,0,1,1135.9,886.12h24.42a18.84,18.84,0,0,1,18.839,18.839Z" transform="translate(-1117.06 -886.12)" fill="#263238"/>
              <path id="Path_2031" data-name="Path 2031" d="M1181.526,908.1a17.33,17.33,0,0,1-17.334,17.445h-22.667A17.33,17.33,0,0,1,1124.19,908.1h0a17.33,17.33,0,0,1,17.334-17.445h22.667a17.332,17.332,0,0,1,17.334,17.445Z" transform="translate(-1122.001 -889.266)" fill="#263238"/>
            </g>
            <g id="Group_1804" data-name="Group 1804" transform="translate(0 195.768)">
              <path id="Path_2032" data-name="Path 2032" d="M879.158,904.959A18.838,18.838,0,0,1,860.319,923.8H835.9a18.838,18.838,0,0,1-18.839-18.839h0A18.838,18.838,0,0,1,835.9,886.12h24.42a18.838,18.838,0,0,1,18.839,18.839Z" transform="translate(-817.06 -886.12)" fill="#263238"/>
              <path id="Path_2033" data-name="Path 2033" d="M881.526,908.1a17.33,17.33,0,0,1-17.334,17.445H841.524A17.33,17.33,0,0,1,824.19,908.1h0a17.33,17.33,0,0,1,17.334-17.445h22.667A17.33,17.33,0,0,1,881.526,908.1Z" transform="translate(-822.001 -889.266)" fill="#263238"/>
            </g>
            <g id="Group_1805" data-name="Group 1805" transform="translate(118.387 62.147)">
              <path id="Path_2034" data-name="Path 2034" d="M1215.817,479.508a1.048,1.048,0,0,1-1.047-1.047V451.947a1.047,1.047,0,1,1,2.094,0v26.514A1.046,1.046,0,0,1,1215.817,479.508Z" transform="translate(-1211.052 -450.9)" fill="url(#linear-gradient-2)"/>
              <path id="Path_2035" data-name="Path 2035" d="M1211.232,527.03l-4.286,7.427-4.286-7.427Z" transform="translate(-1202.66 -503.657)" fill="url(#linear-gradient-3)"/>
            </g>
            <g id="Group_1806" data-name="Group 1806" transform="translate(118.387 167.507)">
              <path id="Path_2036" data-name="Path 2036" d="M1215.817,815.7a1.048,1.048,0,0,1-1.047-1.047V795.117a1.047,1.047,0,1,1,2.094,0v19.539A1.046,1.046,0,0,1,1215.817,815.7Z" transform="translate(-1211.052 -794.07)" fill="url(#linear-gradient-4)"/>
              <path id="Path_2037" data-name="Path 2037" d="M1211.232,847.48l-4.286,7.424-4.286-7.424Z" transform="translate(-1202.66 -831.082)" fill="url(#linear-gradient-5)"/>
            </g>
            <g id="Group_1807" data-name="Group 1807" transform="translate(117.316 255.426)">
              <path id="Path_2038" data-name="Path 2038" d="M1211.277,1108.341a1.048,1.048,0,0,1-1.047-1.047v-25.817a1.047,1.047,0,0,1,2.094,0v25.817A1.046,1.046,0,0,1,1211.277,1108.341Z" transform="translate(-1206.834 -1080.43)" fill="url(#linear-gradient-6)"/>
              <path id="Path_2039" data-name="Path 2039" d="M1207.742,1154.3l-4.286,7.424-4.286-7.424Z" transform="translate(-1199.17 -1131.62)" fill="url(#linear-gradient-7)"/>
            </g>
            <g id="Group_1808" data-name="Group 1808" transform="translate(22.793 130.18)">
              <path id="Path_2040" data-name="Path 2040" d="M904.457,724.472a1.048,1.048,0,0,1-1.047-1.047V673.537a1.048,1.048,0,0,1,1.047-1.047h57.566a1.047,1.047,0,0,1,0,2.094H905.5v48.844A1.044,1.044,0,0,1,904.457,724.472Z" transform="translate(-899.692 -672.49)" fill="url(#linear-gradient-8)"/>
              <path id="Path_2041" data-name="Path 2041" d="M899.875,836.12l-4.289,7.424L891.3,836.12Z" transform="translate(-891.3 -785.882)" fill="url(#linear-gradient-9)"/>
            </g>
            <g id="Group_1809" data-name="Group 1809" transform="translate(160.83 130.177)">
              <path id="Path_2042" data-name="Path 2042" d="M1399.513,724.465a1.048,1.048,0,0,1-1.047-1.047V674.574h-56.519a1.047,1.047,0,1,1,0-2.094h57.566a1.048,1.048,0,0,1,1.047,1.047v49.891A1.044,1.044,0,0,1,1399.513,724.465Z" transform="translate(-1340.9 -672.48)" fill="url(#linear-gradient-10)"/>
              <path id="Path_2043" data-name="Path 2043" d="M1518.24,836.12l4.286,7.424,4.286-7.424Z" transform="translate(-1463.793 -785.879)" fill="url(#linear-gradient-11)"/>
            </g>
            <path id="Path_2044" data-name="Path 2044" d="M1094.072,1039.656H902.187a1.048,1.048,0,0,1-1.047-1.047v-18.492a1.047,1.047,0,1,1,2.094,0v17.445h189.791v-17.445a1.047,1.047,0,1,1,2.094,0v18.492A1.048,1.048,0,0,1,1094.072,1039.656Z" transform="translate(-875.326 -782.483)" fill="url(#linear-gradient-12)"/>
          </g>
          <g id="Group_1811" data-name="Group 1811" transform="translate(31.523 35.455)">
            <path id="Path_2045" data-name="Path 2045" d="M866.18,281.691a4.417,4.417,0,0,1-4.418,4.418h-72.1a4.417,4.417,0,0,1-4.418-4.418v-.233a4.417,4.417,0,0,1,4.418-4.418h72.1a4.417,4.417,0,0,1,4.418,4.418v.233Z" transform="translate(-785.24 -277.04)" fill="url(#linear-gradient-13)"/>
            <path id="Path_2046" data-name="Path 2046" d="M866.18,347.6a4.417,4.417,0,0,1-4.418,4.418h-72.1a4.417,4.417,0,0,1-4.418-4.418v-.233a4.417,4.417,0,0,1,4.418-4.418h72.1a4.417,4.417,0,0,1,4.418,4.418v.233Z" transform="translate(-785.24 -322.714)" fill="url(#linear-gradient-14)"/>
          </g>
        </g>
        <g id="Group_1815" data-name="Group 1815" transform="translate(512.191 14.199)">
          <g id="Group_1813" data-name="Group 1813">
            <path id="Path_2047" data-name="Path 2047" d="M1807.765,251.2a1.646,1.646,0,0,1-1.418-.814l-3.4-5.8a32.808,32.808,0,0,1-9.318-1.836l-5.351,4.083a1.642,1.642,0,0,1-1.91.061l-7.295-4.851a1.645,1.645,0,0,1-.682-1.787l1.7-6.515a32.841,32.841,0,0,1-5.3-7.884l-6.668-.9a1.652,1.652,0,0,1-1.394-1.3l-1.728-8.59a1.642,1.642,0,0,1,.783-1.744l5.8-3.4a32.814,32.814,0,0,1,1.836-9.318l-4.083-5.351a1.647,1.647,0,0,1-.061-1.913l4.851-7.295a1.645,1.645,0,0,1,1.787-.682l6.515,1.7a32.75,32.75,0,0,1,7.884-5.3l.9-6.668a1.648,1.648,0,0,1,1.308-1.394l8.587-1.729a1.648,1.648,0,0,1,1.744.78l3.4,5.8a32.808,32.808,0,0,1,9.318,1.836l5.351-4.083a1.648,1.648,0,0,1,1.91-.061l7.295,4.851a1.645,1.645,0,0,1,.682,1.787l-1.7,6.515a32.845,32.845,0,0,1,5.3,7.884l6.668.9a1.644,1.644,0,0,1,1.394,1.308l1.728,8.59a1.647,1.647,0,0,1-.783,1.747l-5.8,3.4a32.856,32.856,0,0,1-1.836,9.321l4.083,5.351a1.642,1.642,0,0,1,.061,1.91l-4.851,7.295a1.643,1.643,0,0,1-1.787.682l-6.515-1.7a32.748,32.748,0,0,1-7.884,5.3l-.9,6.668a1.648,1.648,0,0,1-1.308,1.394l-8.59,1.729A1.908,1.908,0,0,1,1807.765,251.2Zm-14.5-10.813.54.2a30.791,30.791,0,0,0,9.782,1.928l.577.018,3.826,6.518,7.964-1.6,1.007-7.491.525-.239a30.7,30.7,0,0,0,8.274-5.56l.42-.4,7.319,1.907,4.5-6.764-4.587-6.011.2-.54a30.791,30.791,0,0,0,1.928-9.782l.018-.577,6.521-3.825-1.6-7.964-7.491-1.007-.24-.525a30.691,30.691,0,0,0-5.56-8.274l-.4-.421,1.907-7.319-6.764-4.5-6.011,4.587-.54-.2a30.79,30.79,0,0,0-9.782-1.928l-.577-.018-3.826-6.521-7.964,1.6-1.007,7.491-.525.239a30.739,30.739,0,0,0-8.274,5.56l-.421.4-7.319-1.907-4.5,6.764,4.587,6.011-.2.54a30.8,30.8,0,0,0-1.928,9.782l-.018.577-6.521,3.825,1.6,7.964,7.491,1.007.239.525a30.692,30.692,0,0,0,5.56,8.274l.4.421-1.906,7.319,6.764,4.5Zm-24.872-17.5Zm36.317,10.967A22.21,22.21,0,0,1,1783,216.031a22.285,22.285,0,0,1-.436-4.7,1.058,1.058,0,0,1,1.062-1.032,1.046,1.046,0,0,1,1.032,1.062,20.368,20.368,0,0,0,.4,4.261,20.085,20.085,0,1,0,6.183-18.836,1.048,1.048,0,0,1-1.409-1.55,22.189,22.189,0,1,1,19.3,38.175A22.541,22.541,0,0,1,1804.71,233.85Z" transform="translate(-1764.965 -171.935)" fill="#91b3fa"/>
            <path id="Path_2048" data-name="Path 2048" d="M1874.132,289.924a8.837,8.837,0,0,1-7.976-5.02h0a8.828,8.828,0,1,1,7.976,5.02ZM1868.044,284a6.732,6.732,0,1,0,3.172-8.977,6.74,6.74,0,0,0-3.172,8.977Z" transform="translate(-1834.491 -241.468)" fill="#91b3fa"/>
          </g>
          <g id="Group_1814" data-name="Group 1814" transform="translate(80.516 51.06)">
            <path id="Path_2049" data-name="Path 2049" d="M2043.368,377.01a1.365,1.365,0,0,1-.384-.055l-4.034-1.213a1.332,1.332,0,0,1-.949-1.228l-.117-2.944a16.245,16.245,0,0,1-3.208-2.619l-2.907.473a1.339,1.339,0,0,1-1.391-.685l-2-3.712a1.339,1.339,0,0,1,.193-1.538l2-2.164a16.3,16.3,0,0,1-.414-4.12l-2.392-1.722a1.334,1.334,0,0,1-.5-1.468l1.213-4.034a1.334,1.334,0,0,1,1.222-.949l2.947-.117a16.242,16.242,0,0,1,2.619-3.208l-.473-2.908a1.337,1.337,0,0,1,.685-1.391l3.712-2a1.339,1.339,0,0,1,1.538.193l2.164,2a16.141,16.141,0,0,1,4.12-.414l1.722-2.392a1.335,1.335,0,0,1,1.468-.5l4.034,1.213a1.332,1.332,0,0,1,.948,1.228l.117,2.944a16.236,16.236,0,0,1,3.208,2.619l2.908-.473a1.334,1.334,0,0,1,1.391.685l2,3.712a1.339,1.339,0,0,1-.2,1.541l-2,2.161a16.286,16.286,0,0,1,.415,4.12l2.392,1.722a1.332,1.332,0,0,1,.5,1.468l-1.213,4.034a1.335,1.335,0,0,1-1.225.949l-2.947.117a16.254,16.254,0,0,1-2.619,3.208l.473,2.908a1.336,1.336,0,0,1-.685,1.391l-3.712,2a1.34,1.34,0,0,1-1.538-.193l-2.164-2a16.277,16.277,0,0,1-4.12.414l-1.722,2.392A1.325,1.325,0,0,1,2043.368,377.01Zm-.614-1.778Zm-2.686-1.342,3,.9,2.076-2.88.577.037a14.307,14.307,0,0,0,4.6-.461l.559-.15,2.606,2.407,2.76-1.483-.568-3.5.433-.384a14.228,14.228,0,0,0,2.92-3.58l.289-.5,3.546-.141.9-3-2.88-2.075.037-.577a14.293,14.293,0,0,0-.461-4.6l-.15-.559,2.407-2.607-1.483-2.76-3.5.568-.384-.433a14.233,14.233,0,0,0-3.58-2.92l-.5-.289-.141-3.546-3-.9-2.075,2.88-.577-.037a14.3,14.3,0,0,0-4.6.461l-.559.15-2.607-2.407-2.76,1.483.568,3.5-.433.384a14.233,14.233,0,0,0-2.92,3.58l-.289.5-3.546.141-.9,3,2.88,2.076-.037.577a14.214,14.214,0,0,0,.461,4.6l.15.559-2.407,2.607,1.483,2.76,3.5-.568.384.433a14.24,14.24,0,0,0,3.58,2.92l.5.289Zm-8.468-5.5h0Zm31.479-18.047Zm-16.38,18.519a11.256,11.256,0,0,1-9.892-5.91,11.487,11.487,0,0,1-.9-2.211,1.047,1.047,0,0,1,2.011-.58,9.228,9.228,0,0,0,.734,1.8,9.118,9.118,0,1,0,.2-9,1.046,1.046,0,1,1-1.8-1.072,11.215,11.215,0,1,1,9.643,16.969Z" transform="translate(-2027.214 -338.243)" fill="#91b3fa"/>
          </g>
        </g>
        <g id="Group_1829" data-name="Group 1829" transform="translate(457.925 104.582)">
          <g id="Group_1816" data-name="Group 1816" transform="translate(74.838 63.915)">
            <path id="Path_2050" data-name="Path 2050" d="M1949.856,775.385l-109.6-9.726a8.646,8.646,0,0,1-7.881-8.566l-.405-73.9a8.648,8.648,0,0,1,9.244-8.673l116.7,8.121a8.643,8.643,0,0,1,8.01,9.389l-6.7,75.5A8.642,8.642,0,0,1,1949.856,775.385Z" transform="translate(-1831.97 -674.502)" fill="#0090f8"/>
            <path id="Path_2051" data-name="Path 2051" d="M1851.264,714.2l-.725,63.8a5.347,5.347,0,0,0,4.817,5.382l105.093,10.439a5.348,5.348,0,0,0,5.855-4.848l6.054-68.223a5.348,5.348,0,0,0-5.035-5.812L1856.9,708.921A5.344,5.344,0,0,0,1851.264,714.2Z" transform="translate(-1844.838 -698.348)" fill="#f2f9fe"/>
            <path id="Path_2052" data-name="Path 2052" d="M2012.586,907.686l59.476,3.491a1.084,1.084,0,0,1,1.016,1.176l-.086.955a1.085,1.085,0,0,1-1.161.986l-59.393-4.446a1.085,1.085,0,0,1-1-1.176h0A1.085,1.085,0,0,1,2012.586,907.686Z" transform="translate(-1956.337 -836.092)" fill="#91b3fa"/>
            <path id="Path_2053" data-name="Path 2053" d="M2009.927,924.873l-.037.408a1.081,1.081,0,0,0,.983,1.173l59.319,5.265a1.081,1.081,0,0,0,1.173-.982l.037-.408a1.081,1.081,0,0,0-.982-1.173L2011.1,923.89A1.082,1.082,0,0,0,2009.927,924.873Z" transform="translate(-1955.262 -847.32)" fill="#91b3fa"/>
            <path id="Path_2054" data-name="Path 2054" d="M2067.076,947.393l-.016.178a1.082,1.082,0,0,0,.983,1.173l41.316,3.666a1.081,1.081,0,0,0,1.173-.982l.074-.841a1.083,1.083,0,0,0-1-1.176L2068.23,946.4A1.087,1.087,0,0,0,2067.076,947.393Z" transform="translate(-1994.88 -862.923)" fill="#91b3fa"/>
          </g>
          <g id="Group_1817" data-name="Group 1817" transform="translate(37.838 28.791)">
            <path id="Path_2055" data-name="Path 2055" d="M1857.155,669.709l-129.345-2.631a10.167,10.167,0,0,1-9.932-9.416l-6.392-86.65a10.162,10.162,0,0,1,10.15-10.912l137.548.181a10.163,10.163,0,0,1,10.15,10.371l-1.814,89.1A10.158,10.158,0,0,1,1857.155,669.709Z" transform="translate(-1711.458 -560.1)" fill="#0090f8"/>
            <path id="Path_2056" data-name="Path 2056" d="M1737.957,602.273l4.259,74.9a6.282,6.282,0,0,0,6.082,5.925l124.116,3.829a6.285,6.285,0,0,0,6.478-6.156l1.64-80.513a6.285,6.285,0,0,0-6.371-6.414l-130.014,1.784A6.283,6.283,0,0,0,1737.957,602.273Z" transform="translate(-1729.814 -583.487)" fill="#f2f9fe"/>
            <path id="Path_2057" data-name="Path 2057" d="M1940.028,819.769l70.047-.669a1.275,1.275,0,0,1,1.286,1.3l-.021,1.127a1.272,1.272,0,0,1-1.28,1.247l-70.025-.457a1.274,1.274,0,0,1-1.265-1.3h0A1.27,1.27,0,0,1,1940.028,819.769Z" transform="translate(-1868.98 -739.582)" fill="#7d97f4"/>
            <path id="Path_2058" data-name="Path 2058" d="M1938.349,841.646l-.009.479a1.273,1.273,0,0,0,1.247,1.3l70,1.425a1.272,1.272,0,0,0,1.3-1.246l.009-.479a1.273,1.273,0,0,0-1.247-1.3l-70-1.425A1.273,1.273,0,0,0,1938.349,841.646Z" transform="translate(-1868.682 -754.341)" fill="#7d97f4"/>
            <path id="Path_2059" data-name="Path 2059" d="M2007.152,863.5l0,.212a1.273,1.273,0,0,0,1.247,1.3l48.758.992a1.273,1.273,0,0,0,1.3-1.247l.022-.992a1.271,1.271,0,0,0-1.268-1.3l-48.773-.212A1.272,1.272,0,0,0,2007.152,863.5Z" transform="translate(-1916.366 -769.484)" fill="#7d97f4"/>
          </g>
          <g id="Group_1828" data-name="Group 1828">
            <path id="Path_2060" data-name="Path 2060" d="M1752.03,587.724h-143.5a11.273,11.273,0,0,1-11.225-10.218l-9.045-95.947a11.272,11.272,0,0,1,11.01-12.33l152.537-2.9A11.275,11.275,0,0,1,1763.3,477.6V576.45A11.269,11.269,0,0,1,1752.03,587.724Z" transform="translate(-1588.214 -466.323)" fill="#0090f8"/>
            <path id="Path_2061" data-name="Path 2061" d="M1618.212,515.763l6.414,82.966a6.972,6.972,0,0,0,6.88,6.435l137.723,1.443a6.972,6.972,0,0,0,7.046-6.972V510.31a6.973,6.973,0,0,0-7.212-6.969l-144.137,4.912A6.977,6.977,0,0,0,1618.212,515.763Z" transform="translate(-1608.987 -491.973)" fill="#f2f9fe"/>
            <path id="Path_2062" data-name="Path 2062" d="M1854.649,536.083l77.664-2.324a1.413,1.413,0,0,1,1.455,1.412v1.25a1.413,1.413,0,0,1-1.394,1.412l-77.664,1.072a1.411,1.411,0,0,1-1.431-1.412h0A1.409,1.409,0,0,1,1854.649,536.083Z" transform="translate(-1771.899 -513.054)" fill="#7d97f4"/>
            <path id="Path_2063" data-name="Path 2063" d="M1853.27,563.952v.534a1.413,1.413,0,0,0,1.412,1.412h77.664a1.413,1.413,0,0,0,1.412-1.412v-.534a1.413,1.413,0,0,0-1.412-1.412h-77.664A1.412,1.412,0,0,0,1853.27,563.952Z" transform="translate(-1771.892 -533)" fill="#7d97f4"/>
            <g id="Group_1818" data-name="Group 1818" transform="translate(61.725 78.615)">
              <path id="Path_2064" data-name="Path 2064" d="M1789.945,744.556a.632.632,0,0,1-.632-.633l-.006-1.9a.634.634,0,0,1,.633-.636h0a.632.632,0,0,1,.632.632l.006,1.9a.635.635,0,0,1-.635.636Zm-.015-6.337a.632.632,0,0,1-.632-.632l-.006-1.9a.634.634,0,0,1,.633-.635h0a.631.631,0,0,1,.632.632l.006,1.9a.633.633,0,0,1-.636.636Zm-.015-6.334a.632.632,0,0,1-.632-.632l-.006-1.9a.634.634,0,0,1,.632-.636h0a.632.632,0,0,1,.633.633l.006,1.9a.639.639,0,0,1-.636.635Zm-.015-6.337a.632.632,0,0,1-.633-.633l-.006-1.9a.634.634,0,0,1,.632-.635h0a.632.632,0,0,1,.632.633l.006,1.9a.634.634,0,0,1-.632.635Z" transform="translate(-1789.26 -722.38)" fill="#7d97f4"/>
            </g>
            <g id="Group_1819" data-name="Group 1819" transform="translate(93.603 70.476)">
              <path id="Path_2065" data-name="Path 2065" d="M1893.722,724.38a.632.632,0,0,1-.633-.632v-1.9a.633.633,0,0,1,1.265,0v1.9A.632.632,0,0,1,1893.722,724.38Zm0-6.337a.632.632,0,0,1-.633-.632v-1.9a.633.633,0,0,1,1.265,0v1.9A.632.632,0,0,1,1893.722,718.043Zm0-6.334a.632.632,0,0,1-.633-.632v-1.9a.633.633,0,0,1,1.265,0v1.9A.634.634,0,0,1,1893.722,711.709Zm0-6.337a.632.632,0,0,1-.633-.633v-1.9a.633.633,0,0,1,1.265,0v1.9A.634.634,0,0,1,1893.722,705.372Zm0-6.337a.632.632,0,0,1-.633-.633v-1.9a.633.633,0,0,1,1.265,0v1.9A.632.632,0,0,1,1893.722,699.035Z" transform="translate(-1893.09 -695.87)" fill="#7d97f4"/>
            </g>
            <g id="Group_1820" data-name="Group 1820" transform="translate(116.663 63.819)">
              <path id="Path_2066" data-name="Path 2066" d="M1970.044,714.593a.632.632,0,0,1-.632-.614l-.034-1.136a.634.634,0,0,1,.614-.654.623.623,0,0,1,.654.614l.034,1.136a.635.635,0,0,1-.614.654Zm-.172-5.569a.632.632,0,0,1-.633-.614l-.058-1.9a.634.634,0,0,1,1.268-.04l.058,1.9a.634.634,0,0,1-.614.654Zm-.2-6.334a.632.632,0,0,1-.632-.614l-.058-1.9a.634.634,0,0,1,.614-.654.653.653,0,0,1,.654.614l.058,1.9a.634.634,0,0,1-.614.654Zm-.2-6.331a.632.632,0,0,1-.633-.614l-.058-1.9a.634.634,0,1,1,1.268-.04l.058,1.9a.634.634,0,0,1-.614.654Zm-.2-6.334a.632.632,0,0,1-.632-.614l-.058-1.9a.634.634,0,1,1,1.268-.04l.058,1.9a.635.635,0,0,1-.614.654Zm-.2-6.334a.632.632,0,0,1-.633-.614l-.058-1.9a.634.634,0,0,1,.614-.654.626.626,0,0,1,.654.614l.058,1.9a.634.634,0,0,1-.614.654Zm-.2-6.334a.632.632,0,0,1-.632-.614l-.058-1.9a.635.635,0,0,1,.614-.654.627.627,0,0,1,.654.614l.058,1.9a.634.634,0,0,1-.614.654Z" transform="translate(-1968.199 -674.189)" fill="#7d97f4"/>
            </g>
            <g id="Group_1821" data-name="Group 1821" transform="translate(140.949 46.82)">
              <path id="Path_2067" data-name="Path 2067" d="M2047.932,672.674a.632.632,0,0,1-.632-.632v-1.9a.632.632,0,1,1,1.265,0v1.9A.632.632,0,0,1,2047.932,672.674Zm0-6.334a.632.632,0,0,1-.632-.632v-1.9a.632.632,0,1,1,1.265,0v1.9A.634.634,0,0,1,2047.932,666.341Zm0-6.337a.632.632,0,0,1-.632-.633v-1.9a.632.632,0,1,1,1.265,0v1.9A.634.634,0,0,1,2047.932,660Zm0-6.337a.631.631,0,0,1-.632-.632v-1.9a.632.632,0,1,1,1.265,0v1.9A.632.632,0,0,1,2047.932,653.667Zm0-6.337a.632.632,0,0,1-.632-.632v-1.9a.632.632,0,1,1,1.265,0v1.9A.632.632,0,0,1,2047.932,647.33Zm0-6.337a.632.632,0,0,1-.632-.632v-1.9a.632.632,0,1,1,1.265,0v1.9A.632.632,0,0,1,2047.932,640.993Zm0-6.334a.631.631,0,0,1-.632-.632v-1.9a.632.632,0,1,1,1.265,0v1.9A.633.633,0,0,1,2047.932,634.659Zm0-6.337a.632.632,0,0,1-.632-.632v-1.9a.632.632,0,1,1,1.265,0v1.9A.634.634,0,0,1,2047.932,628.322Zm0-6.337a.632.632,0,0,1-.632-.633v-1.9a.632.632,0,1,1,1.265,0v1.9A.632.632,0,0,1,2047.932,621.985Z" transform="translate(-2047.3 -618.82)" fill="#7d97f4"/>
            </g>
            <g id="Group_1823" data-name="Group 1823" transform="translate(18.727 28.328)">
              <path id="Path_2068" data-name="Path 2068" d="M1663.735,641.166a.951.951,0,0,1-.946-.869l-6.5-76.712a.951.951,0,0,1,1.894-.163l6.5,76.712a.954.954,0,0,1-.866,1.029C1663.787,641.163,1663.759,641.166,1663.735,641.166Z" transform="translate(-1654.116 -561.338)" fill="#7d97f4"/>
              <g id="Group_1822" data-name="Group 1822">
                <path id="Path_2069" data-name="Path 2069" d="M1649.443,564.8l2.938-3.485,3.481,2.941-.23-2.726-3.482-2.941-2.941,3.485Z" transform="translate(-1649.21 -558.59)" fill="#7d97f4"/>
              </g>
            </g>
            <g id="Group_1825" data-name="Group 1825" transform="translate(22.467 100.367)">
              <path id="Path_2070" data-name="Path 2070" d="M1796,802.524H1662.342a.952.952,0,1,1,0-1.9H1796a.952.952,0,1,1,0,1.9Z" transform="translate(-1661.39 -798.351)" fill="#7d97f4"/>
              <g id="Group_1824" data-name="Group 1824" transform="translate(130.824)">
                <path id="Path_2071" data-name="Path 2071" d="M2087.5,799.674l3.224-3.224-3.224-3.221h2.736l3.224,3.221-3.224,3.224Z" transform="translate(-2087.5 -793.23)" fill="#7d97f4"/>
              </g>
            </g>
            <g id="Group_1826" data-name="Group 1826" transform="translate(32.958 42.495)">
              <path id="Path_2072" data-name="Path 2072" d="M1696.51,644.737a.951.951,0,0,1-.123-1.894c.7-.092,70.682-9.677,108.992-37.923a.95.95,0,1,1,1.127,1.529c-38.706,28.541-109.164,38.184-109.87,38.279A.876.876,0,0,1,1696.51,644.737Z" transform="translate(-1695.562 -604.734)" fill="#7d97f4"/>
            </g>
            <g id="Group_1827" data-name="Group 1827" transform="translate(136.821 41.53)">
              <path id="Path_2073" data-name="Path 2073" d="M2040.666,608.563a.671.671,0,0,1-.077,0,.948.948,0,0,1-.872-1.022l.295-3.733-5.262-.313a.951.951,0,0,1-.894-1,.941.941,0,0,1,1-.893l6.229.368a.951.951,0,0,1,.89,1.026l-.368,4.7A.95.95,0,0,1,2040.666,608.563Z" transform="translate(-2033.854 -601.591)" fill="#7d97f4"/>
            </g>
          </g>
        </g>
        <g id="Group_1830" data-name="Group 1830" transform="translate(31.648 204.798)">
          <path id="Path_2074" data-name="Path 2074" d="M208.5,1006.988H341.08a7.653,7.653,0,0,0,7.654-7.654V800.753A7.653,7.653,0,0,0,341.1,793.1l-133.643-.359a7.656,7.656,0,0,0-7.676,7.7l1.059,198.94A7.659,7.659,0,0,0,208.5,1006.988Z" transform="translate(-199.78 -792.74)" fill="#0090f8"/>
          <path id="Path_2075" data-name="Path 2075" d="M231.695,824.65l118.55.731a7.766,7.766,0,0,1,7.719,7.8l-.826,178.231a7.766,7.766,0,0,1-7.626,7.731l-115.188,2.1a7.768,7.768,0,0,1-7.909-7.657l-2.536-181.065A7.767,7.767,0,0,1,231.695,824.65Z" transform="translate(-216.479 -814.853)" fill="#91b3fa"/>
          <path id="Path_2076" data-name="Path 2076" d="M265.04,851.924v.817a2.324,2.324,0,0,0,2.324,2.324h91.342a2.324,2.324,0,0,0,2.324-2.324v-.817a2.324,2.324,0,0,0-2.324-2.324H267.361A2.324,2.324,0,0,0,265.04,851.924Z" transform="translate(-245.004 -832.143)" fill="url(#linear-gradient-15)"/>
          <path id="Path_2077" data-name="Path 2077" d="M298.222,885.129h0a2.323,2.323,0,0,0,2.278,2.2l79.884,1.455a2.324,2.324,0,0,0,2.367-2.324v-.19a2.327,2.327,0,0,0-2.287-2.324l-79.884-1.265A2.325,2.325,0,0,0,298.222,885.129Z" transform="translate(-267.996 -855.066)" fill="url(#linear-gradient-16)"/>
          <path id="Path_2078" data-name="Path 2078" d="M250.213,1081.139a6.934,6.934,0,0,1-6.914-6.791l-2.591-145.773a6.924,6.924,0,0,1,6.779-7.037l107.859-2.1a6.914,6.914,0,0,1,7.049,6.782l2.782,146.575a6.914,6.914,0,0,1-6.831,7.046l-108.047,1.3C250.268,1081.136,250.24,1081.139,250.213,1081.139ZM355.484,922.228H355.4l-107.859,2.1a4.13,4.13,0,0,0-4.043,4.2h0L246.09,1074.3a4.133,4.133,0,0,0,4.123,4.05h.049l108.047-1.3a4.125,4.125,0,0,0,4.074-4.2L359.6,926.278a4.135,4.135,0,0,0-4.117-4.05Z" transform="translate(-228.141 -880.538)" fill="url(#linear-gradient-16)"/>
          <path id="Path_2079" data-name="Path 2079" d="M364.339,969.994H246.667a1.4,1.4,0,0,1,0-2.794H364.339a1.4,1.4,0,0,1,0,2.794Z" transform="translate(-231.304 -913.637)" fill="url(#linear-gradient-18)"/>
        </g>
        <g id="Group_1832" data-name="Group 1832" transform="translate(57.898 287.433)">
          <path id="Path_2080" data-name="Path 2080" d="M299.94,1223.29a1.481,1.481,0,0,0-1.48-1.48h-11.7a1.481,1.481,0,0,0-1.48,1.48v50.284a1.481,1.481,0,0,0,1.48,1.48h11.7a1.481,1.481,0,0,0,1.48-1.48Z" transform="translate(-285.28 -1172.711)" opacity="0.6" fill="url(#linear-gradient-19)"/>
          <path id="Path_2081" data-name="Path 2081" d="M420.345,1201.07h-11.67a1.631,1.631,0,0,0-1.5,1.7v56.148a1.69,1.69,0,0,0,1.5,1.762h11.67a1.85,1.85,0,0,0,1.689-1.762v-56.148A1.791,1.791,0,0,0,420.345,1201.07Z" transform="translate(-369.754 -1158.339)" opacity="0.6" fill="url(#linear-gradient-19)"/>
          <path id="Path_2082" data-name="Path 2082" d="M359.64,1169.25a1.481,1.481,0,0,0-1.48-1.48h-11.7a1.481,1.481,0,0,0-1.48,1.48v66.875a1.481,1.481,0,0,0,1.48,1.48h11.7a1.481,1.481,0,0,0,1.48-1.48Z" transform="translate(-326.651 -1135.263)" opacity="0.6" fill="url(#linear-gradient-21)"/>
          <path id="Path_2083" data-name="Path 2083" d="M566.37,1091.96a1.481,1.481,0,0,0-1.48-1.48h-11.7a1.481,1.481,0,0,0-1.48,1.48v90.6a1.481,1.481,0,0,0,1.48,1.48h11.7a1.481,1.481,0,0,0,1.48-1.48Z" transform="translate(-469.911 -1081.702)" opacity="0.6" fill="url(#linear-gradient-22)"/>
          <path id="Path_2084" data-name="Path 2084" d="M495.36,1134.06a1.481,1.481,0,0,0-1.48-1.48h-11.7a1.481,1.481,0,0,0-1.48,1.48v77.679a1.481,1.481,0,0,0,1.48,1.48h11.7a1.481,1.481,0,0,0,1.48-1.48Z" transform="translate(-420.702 -1110.877)" opacity="0.6" fill="url(#linear-gradient-19)"/>
          <g id="Group_1831" data-name="Group 1831" transform="translate(4.584)" opacity="0.6">
            <path id="Path_2085" data-name="Path 2085" d="M306.879,1097.207l-.279-.51,19.514-10.66,18.139,7.973,15.575-15.277.031-.018,18.289-10.795.295.5-18.258,10.773-15.805,15.5-18.237-8.016Z" transform="translate(-304.638 -1066.069)" fill="url(#linear-gradient-16)"/>
            <path id="Path_2086" data-name="Path 2086" d="M304.41,1157.74a2.1,2.1,0,1,1-2.1-2.1A2.1,2.1,0,0,1,304.41,1157.74Z" transform="translate(-300.21 -1126.857)" fill="url(#linear-gradient-25)"/>
            <circle id="Ellipse_137" data-name="Ellipse 137" cx="2.1" cy="2.1" r="2.1" transform="translate(19.388 18.191)" fill="url(#linear-gradient-26)"/>
            <circle id="Ellipse_138" data-name="Ellipse 138" cx="2.1" cy="2.1" r="2.1" transform="translate(37.579 25.787)" fill="url(#linear-gradient-27)"/>
            <circle id="Ellipse_139" data-name="Ellipse 139" cx="2.1" cy="2.1" r="2.1" transform="translate(52.768 10.795)" fill="url(#linear-gradient-28)"/>
            <path id="Path_2087" data-name="Path 2087" d="M537.48,1063.99a2.1,2.1,0,1,1-2.1-2.1A2.1,2.1,0,0,1,537.48,1063.99Z" transform="translate(-461.723 -1061.89)" fill="url(#linear-gradient-29)"/>
          </g>
        </g>
        <g id="Group_1837" data-name="Group 1837" transform="translate(0 116.496)">
          <g id="Group_1834" data-name="Group 1834" transform="translate(85 0)">
            <path id="Path_2092" data-name="Path 2092" d="M200.44,516.518a18.963,18.963,0,0,1,11.587,3.936l6.788-9.607a30.265,30.265,0,0,0-17.73-5.707c-.875,0-1.753.049-2.625.126l1.744,11.258C200.281,516.524,200.36,516.518,200.44,516.518Z" transform="translate(-167.218 -505.14)" fill="#7d97f4"/>
            <path id="Path_2093" data-name="Path 2093" d="M129.923,554.885c-10.515,0-21.2-7.835-21.2-18.351,0-10.436,10.522-19.588,20.96-19.726l-1.744-11.258c-15.907,1.421-31.239,15.474-31.239,31.4,0,16.8,17.067,29.317,33.867,29.317a30.263,30.263,0,0,0,12.364-2.628l-6.837-9.782A19.008,19.008,0,0,1,129.923,554.885Z" transform="translate(-96.7 -505.424)" fill="url(#linear-gradient-30)"/>
            <path id="Path_2094" data-name="Path 2094" d="M249.9,548.442a30.375,30.375,0,0,0-12.689-24.712l-6.788,9.607a19.037,19.037,0,0,1-5.416,33.118l6.837,9.782A30.419,30.419,0,0,0,249.9,548.442Z" transform="translate(-185.616 -518.022)" fill="url(#linear-gradient-31)"/>
          </g>
          <g id="Group_1836" data-name="Group 1836" transform="translate(173.629)">
            <path id="Path_2099" data-name="Path 2099" d="M721.356,516.511a18.949,18.949,0,0,1,10.918,3.445l6.134-10.015A30.277,30.277,0,0,0,722,505.13c-8.035,0-16.128,3.374-22.388,8.726l7.279,8.508A22.165,22.165,0,0,1,721.356,516.511Z" transform="translate(-688.134 -505.13)" fill="#263238" opacity="0.464"/>
            <path id="Path_2100" data-name="Path 2100" d="M814.09,545.326l11.851-2.395a30.411,30.411,0,0,0-13.807-22.121L806,530.822A19.022,19.022,0,0,1,814.09,545.326Z" transform="translate(-761.86 -515.996)" fill="#263238" opacity="0.464"/>
            <path id="Path_2101" data-name="Path 2101" d="M674.253,555.945c0-5.293,2.708-10.255,6.736-13.877l-7.279-8.508c-6.828,5.84-11.479,14.034-11.479,22.8,0,10.887,7.169,19.966,16.782,25.016l5.947-9.662C678.84,568.573,674.253,562.834,674.253,555.945Z" transform="translate(-662.23 -524.831)" fill="#263238"/>
            <path id="Path_2102" data-name="Path 2102" d="M752.339,595.248c.021.362.034.728.034,1.093a19.042,19.042,0,0,1-19.041,19.041,23.212,23.212,0,0,1-10.494-2.585l-5.947,9.662a37.089,37.089,0,0,0,17.086,4.3,30.381,30.381,0,0,0,30.214-33.91Z" transform="translate(-700.108 -565.918)" fill="#263238"/>
          </g>
        </g>
        <g id="Group_1838" data-name="Group 1838" transform="translate(38.539 75.601)">
          <path id="Path_2103" data-name="Path 2103" d="M223.783,461.235a1.553,1.553,0,0,0,1.072-.427l21.172-20.055a9.835,9.835,0,0,1,6.788-2.7h72.07a1.56,1.56,0,1,0,0-3.119H252.818a12.953,12.953,0,0,0-8.934,3.558l-21.172,20.055a1.561,1.561,0,0,0,1.072,2.693Z" transform="translate(-222.225 -415.588)" fill="#7d97f4"/>
          <path id="Path_2104" data-name="Path 2104" d="M354.39,406.549h61a1.56,1.56,0,0,0,0-3.119h-61a1.56,1.56,0,0,0,0,3.119Z" transform="translate(-312.731 -393.759)" fill="#7d97f4"/>
          <path id="Path_2105" data-name="Path 2105" d="M386.72,375.049H437.8a1.56,1.56,0,1,0,0-3.119H386.72a1.56,1.56,0,1,0,0,3.119Z" transform="translate(-335.135 -371.93)" fill="#7d97f4"/>
        </g>
        <g id="Group_1841" data-name="Group 1841" transform="translate(439.518 36.399)">
          <g id="Group_1839" data-name="Group 1839" transform="translate(63.375 23.894)">
            <path id="Path_2106" data-name="Path 2106" d="M1735.358,322.374l3.5-.1a.7.7,0,0,1,.04,1.391h-.012l-3.466.1h-.021a.7.7,0,1,1-.04-1.391Z" transform="translate(-1734.679 -322.208)" fill="#7d97f4"/>
            <path id="Path_2107" data-name="Path 2107" d="M1758.118,322.082l3.494-.012a.694.694,0,1,1,.006,1.388h-.006l-3.479.015h-.006a.7.7,0,0,1-.009-1.391Z" transform="translate(-1750.445 -322.07)" fill="#7d97f4"/>
            <path id="Path_2108" data-name="Path 2108" d="M1780.836,322.15l3.494.055a.691.691,0,0,1-.024,1.382h-.006l-3.482-.052h-.006a.692.692,0,1,1,.024-1.385Z" transform="translate(-1766.176 -322.125)" fill="#7d97f4"/>
            <path id="Path_2109" data-name="Path 2109" d="M1803.565,322.619l3.491.12a.688.688,0,1,1-.049,1.375H1807l-3.479-.117h-.006a.69.69,0,1,1,.049-1.379Z" transform="translate(-1781.919 -322.45)" fill="#7d97f4"/>
            <path id="Path_2110" data-name="Path 2110" d="M1826.283,323.507l3.488.184a.686.686,0,1,1-.074,1.369h-.006l-3.475-.181h-.006a.687.687,0,1,1,.074-1.372Z" transform="translate(-1797.656 -323.065)" fill="#7d97f4"/>
            <path id="Path_2111" data-name="Path 2111" d="M1849,324.807l3.485.252a.683.683,0,0,1-.1,1.363h-.006l-3.473-.246h-.006a.686.686,0,0,1,.1-1.369Z" transform="translate(-1813.391 -323.965)" fill="#7d97f4"/>
            <path id="Path_2112" data-name="Path 2112" d="M1871.663,326.553l3.482.319a.68.68,0,1,1-.126,1.354h-.006l-3.466-.316h-.006a.681.681,0,0,1,.123-1.357Z" transform="translate(-1829.092 -325.174)" fill="#7d97f4"/>
            <path id="Path_2113" data-name="Path 2113" d="M1894.293,328.75l3.472.393a.677.677,0,0,1-.154,1.345h-.006l-3.46-.39h-.006a.678.678,0,1,1,.153-1.348Z" transform="translate(-1844.765 -326.696)" fill="#7d97f4"/>
            <path id="Path_2114" data-name="Path 2114" d="M1916.883,331.435l3.463.473a.674.674,0,1,1-.181,1.336h-.006l-3.448-.47h-.009a.675.675,0,0,1,.181-1.339Z" transform="translate(-1860.413 -328.555)" fill="#7d97f4"/>
            <path id="Path_2115" data-name="Path 2115" d="M1939.393,334.649l3.451.562a.672.672,0,0,1-.215,1.326h-.009l-3.436-.556h-.009a.675.675,0,0,1,.218-1.332Z" transform="translate(-1875.999 -330.781)" fill="#7d97f4"/>
            <path id="Path_2116" data-name="Path 2116" d="M1961.835,338.442l3.436.657a.669.669,0,1,1-.252,1.314l-.009,0-3.417-.651-.009,0a.669.669,0,0,1,.252-1.314Z" transform="translate(-1891.542 -333.407)" fill="#7d97f4"/>
            <path id="Path_2117" data-name="Path 2117" d="M1984.142,342.882l3.414.764a.666.666,0,1,1-.292,1.3l-.009,0-3.4-.755-.009,0a.667.667,0,1,1,.292-1.3Z" transform="translate(-1906.988 -336.48)" fill="#7d97f4"/>
            <path id="Path_2118" data-name="Path 2118" d="M2006.312,348.031l3.39.884a.662.662,0,0,1-.335,1.28l-.012,0-3.365-.875-.012,0a.663.663,0,1,1,.334-1.283Z" transform="translate(-1922.339 -340.046)" fill="#7d97f4"/>
            <path id="Path_2119" data-name="Path 2119" d="M2028.293,353.994l3.353,1.022a.659.659,0,1,1-.384,1.262l-.012,0-3.325-1.01-.012,0a.66.66,0,0,1-.439-.826.649.649,0,0,1,.82-.442Z" transform="translate(-1937.559 -344.172)" fill="#7d97f4"/>
            <path id="Path_2120" data-name="Path 2120" d="M2049.974,360.872l3.3,1.179a.657.657,0,0,1-.442,1.237l-.015-.006-3.273-1.164-.015-.006a.658.658,0,1,1,.442-1.24Z" transform="translate(-1952.562 -348.932)" fill="#7d97f4"/>
            <path id="Path_2121" data-name="Path 2121" d="M2071.312,368.813l3.233,1.36a.654.654,0,0,1-.507,1.207l-.019-.006-3.2-1.345-.019-.009a.655.655,0,1,1,.51-1.207Z" transform="translate(-1967.327 -354.426)" fill="#7d97f4"/>
            <path id="Path_2122" data-name="Path 2122" d="M2092.17,377.973l3.141,1.575a.651.651,0,1,1-.583,1.164l-.021-.009-3.1-1.55-.021-.009a.654.654,0,0,1,.583-1.17Z" transform="translate(-1981.76 -360.761)" fill="#7d97f4"/>
            <path id="Path_2123" data-name="Path 2123" d="M2112.334,388.566l3.009,1.824a.648.648,0,0,1-.672,1.108l-.025-.015-2.959-1.79-.025-.015a.649.649,0,1,1,.672-1.111Z" transform="translate(-1995.703 -368.084)" fill="#7d97f4"/>
            <path id="Path_2124" data-name="Path 2124" d="M2131.632,400.684l2.9,1.971a.645.645,0,1,1-.728,1.065l-.012-.006-2.874-1.953-.012-.009a.647.647,0,1,1,.731-1.068Z" transform="translate(-2009.057 -376.469)" fill="#7d97f4"/>
            <path id="Path_2125" data-name="Path 2125" d="M2150.313,413.7l2.8,2.109a.642.642,0,0,1-.774,1.025l-.012-.009-2.775-2.085-.012-.009a.645.645,0,0,1,.774-1.032Z" transform="translate(-2021.99 -385.479)" fill="#7d97f4"/>
            <path id="Path_2126" data-name="Path 2126" d="M2168.309,427.635l2.677,2.269a.64.64,0,0,1-.829.976l-.015-.012-2.65-2.241-.015-.012a.643.643,0,1,1,.832-.979Z" transform="translate(-2034.442 -395.119)" fill="#7d97f4"/>
            <path id="Path_2127" data-name="Path 2127" d="M2185.439,442.641l2.511,2.459a.636.636,0,1,1-.89.909l-.018-.018-2.478-2.422-.019-.018a.636.636,0,0,1-.009-.9.645.645,0,0,1,.9-.006Z" transform="translate(-2046.294 -405.498)" fill="#7d97f4"/>
            <path id="Path_2128" data-name="Path 2128" d="M2201.37,458.923l2.278,2.686a.634.634,0,0,1-.967.82l-.021-.025-2.238-2.634-.021-.025a.636.636,0,1,1,.97-.823Z" transform="translate(-2057.309 -416.751)" fill="#7d97f4"/>
            <path id="Path_2129" data-name="Path 2129" d="M2215.631,476.69l1.947,2.947a.632.632,0,0,1-1.053.7l-.024-.037-1.9-2.874-.025-.037a.629.629,0,0,1,.178-.875.636.636,0,0,1,.881.178Z" transform="translate(-2067.162 -429.022)" fill="#7d97f4"/>
            <path id="Path_2130" data-name="Path 2130" d="M2227.51,496.151l1.465,3.227a.629.629,0,0,1-1.146.519l-.024-.052-1.421-3.122-.021-.049a.631.631,0,0,1,1.148-.522Z" transform="translate(-2075.366 -442.45)" fill="#7d97f4"/>
            <path id="Path_2131" data-name="Path 2131" d="M2235.981,517.4a31.78,31.78,0,0,1,.8,3.466.626.626,0,0,1-1.234.212,31.2,31.2,0,0,0-.767-3.331.628.628,0,1,1,1.206-.347Z" transform="translate(-2081.218 -457.118)" fill="#7d97f4"/>
            <path id="Path_2132" data-name="Path 2132" d="M2239.727,539.9a28.7,28.7,0,0,1-.037,3.561.623.623,0,0,1-1.244-.089,28.046,28.046,0,0,0,.034-3.411.624.624,0,1,1,1.247-.061Z" transform="translate(-2083.778 -472.611)" fill="#7d97f4"/>
            <path id="Path_2133" data-name="Path 2133" d="M2236.273,562.672a31.5,31.5,0,0,1-.875,3.448.62.62,0,0,1-1.182-.372,30.1,30.1,0,0,0,.838-3.313.621.621,0,1,1,1.219.236Z" transform="translate(-2080.829 -488.29)" fill="#7d97f4"/>
            <path id="Path_2134" data-name="Path 2134" d="M2227.915,584.393l-1.56,3.181a.617.617,0,0,1-1.108-.543l.025-.049,1.507-3.079.025-.052a.619.619,0,0,1,1.111.543Z" transform="translate(-2074.589 -503.238)" fill="#7d97f4"/>
            <path id="Path_2135" data-name="Path 2135" d="M2215.905,604.44l-2.051,2.877a.614.614,0,0,1-1-.712l.024-.034,2-2.806.024-.037a.617.617,0,0,1,1.007.712Z" transform="translate(-2065.966 -517.074)" fill="#7d97f4"/>
            <path id="Path_2136" data-name="Path 2136" d="M2201.33,622.561l-2.382,2.591a.611.611,0,1,1-.9-.826l.021-.025,2.336-2.545.022-.025a.613.613,0,1,1,.9.829Z" transform="translate(-2055.673 -529.592)" fill="#7d97f4"/>
            <path id="Path_2137" data-name="Path 2137" d="M2184.98,638.953l-2.613,2.349a.609.609,0,0,1-.814-.906l.019-.015,2.573-2.315.018-.018a.61.61,0,0,1,.817.906Z" transform="translate(-2044.214 -540.928)" fill="#7d97f4"/>
            <path id="Path_2138" data-name="Path 2138" d="M2167.473,653.856l-2.736,2.164,0,0a.605.605,0,0,1-.752-.949l2.732-2.168.006,0a.607.607,0,1,1,.752.952Z" transform="translate(-2032.019 -551.24)" fill="#7d97f4"/>
            <path id="Path_2139" data-name="Path 2139" d="M2149.858,668.081l-2.668,2.235-.009.006a.6.6,0,1,1-.777-.921l2.684-2.25a.6.6,0,0,1,.777.924h0Z" transform="translate(-2019.847 -561.106)" fill="#7d97f4"/>
            <path id="Path_2140" data-name="Path 2140" d="M2132.812,682.835l-2.567,2.343-.012.009a.6.6,0,0,1-.807-.887l2.588-2.364a.6.6,0,1,1,.813.887h0Z" transform="translate(-2008.094 -571.34)" fill="#7d97f4"/>
            <path id="Path_2141" data-name="Path 2141" d="M2116.607,698.372l-2.407,2.5-.018.018a.6.6,0,0,1-.86-.829l2.438-2.533a.6.6,0,1,1,.863.832h0Z" transform="translate(-1996.955 -582.125)" fill="#7d97f4"/>
            <path id="Path_2142" data-name="Path 2142" d="M2101.876,715.068l-2.121,2.723-.025.034a.594.594,0,0,1-.939-.728l2.168-2.788a.6.6,0,0,1,.939.731h0Z" transform="translate(-1986.915 -593.724)" fill="#7d97f4"/>
            <path id="Path_2143" data-name="Path 2143" d="M2089.925,733.483a28.923,28.923,0,0,0-1.578,3.03.591.591,0,1,1-1.081-.479,30.263,30.263,0,0,1,1.639-3.159.594.594,0,0,1,1.02.608Z" transform="translate(-1978.98 -606.548)" fill="#7d97f4"/>
            <path id="Path_2144" data-name="Path 2144" d="M2083.153,754.124a19.456,19.456,0,0,0-.6,3.325.589.589,0,1,1-1.173-.1,20.441,20.441,0,0,1,.635-3.528.591.591,0,0,1,.725-.414.584.584,0,0,1,.417.721Z" transform="translate(-1974.931 -620.96)" fill="#7d97f4"/>
            <path id="Path_2145" data-name="Path 2145" d="M2082.528,776.423a23.591,23.591,0,0,0,.537,3.359.586.586,0,0,1-1.142.264,24.707,24.707,0,0,1-.568-3.525.588.588,0,1,1,1.173-.1Z" transform="translate(-1974.917 -636.554)" fill="#7d97f4"/>
            <path id="Path_2146" data-name="Path 2146" d="M2087.475,798.361l1.249,3.211.012.034a.583.583,0,1,1-1.087.424l-1.28-3.285a.583.583,0,1,1,1.087-.424h0Z" transform="translate(-1978.366 -651.845)" fill="#7d97f4"/>
            <path id="Path_2147" data-name="Path 2147" d="M2096.292,819.264l1.532,3.119.006.009a.58.58,0,0,1-1.041.513l-1.544-3.141a.582.582,0,0,1,1.044-.516h0Z" transform="translate(-1984.502 -666.38)" fill="#7d97f4"/>
            <path id="Path_2148" data-name="Path 2148" d="M2106.388,839.57l1.348,3.273a.576.576,0,1,1-1.065.439l-.019-.046-1.311-3.175-.022-.052a.578.578,0,1,1,1.069-.439Z" transform="translate(-1991.495 -680.438)" fill="#7d97f4"/>
            <path id="Path_2149" data-name="Path 2149" d="M2114.258,860.984l.863,3.414a.574.574,0,1,1-1.115.279l-.009-.034-.847-3.347-.009-.034a.576.576,0,1,1,1.118-.279Z" transform="translate(-1996.933 -695.224)" fill="#7d97f4"/>
            <path id="Path_2150" data-name="Path 2150" d="M2119.211,883.224l.47,3.488a.571.571,0,0,1-1.133.15l0-.031-.464-3.426,0-.031a.572.572,0,1,1,1.133-.151Z" transform="translate(-2000.363 -710.592)" fill="#7d97f4"/>
            <path id="Path_2151" data-name="Path 2151" d="M2121.658,905.865l.1,3.515a.568.568,0,1,1-1.136.031v-.031l-.1-3.454V905.9a.569.569,0,0,1,.552-.586.576.576,0,0,1,.586.556Z" transform="translate(-2002.059 -726.243)" fill="#7d97f4"/>
            <path id="Path_2152" data-name="Path 2152" d="M2121.079,928.64l-.276,3.506a.565.565,0,1,1-1.127-.089l0-.031.27-3.448,0-.031a.565.565,0,1,1,1.127.092Z" transform="translate(-2001.473 -741.984)" fill="#7d97f4"/>
            <path id="Path_2153" data-name="Path 2153" d="M2117.837,951.289l-.654,3.457a.562.562,0,1,1-1.105-.209l.006-.031.638-3.4.006-.031a.564.564,0,1,1,1.108.209Z" transform="translate(-1998.974 -757.642)" fill="#7d97f4"/>
            <path id="Path_2154" data-name="Path 2154" d="M2112.153,973.539l-1.029,3.365a.56.56,0,0,1-1.072-.328l.009-.028,1.007-3.307.009-.031a.562.562,0,1,1,1.075.329Z" transform="translate(-1994.788 -773.021)" fill="#7d97f4"/>
            <path id="Path_2155" data-name="Path 2155" d="M2104.085,995.14l-1.394,3.23a.558.558,0,1,1-1.025-.442l.012-.028,1.366-3.175.012-.028a.56.56,0,0,1,1.028.442Z" transform="translate(-1988.962 -787.953)" fill="#7d97f4"/>
            <path id="Path_2156" data-name="Path 2156" d="M2093.763,1015.807l-1.731,3.061a.554.554,0,1,1-.964-.547l.015-.025,1.7-3.012.015-.025a.554.554,0,1,1,.964.546Z" transform="translate(-1981.599 -802.241)" fill="#7d97f4"/>
            <path id="Path_2157" data-name="Path 2157" d="M2081.345,1035.328l-2.039,2.861a.552.552,0,1,1-.9-.642l.015-.021,2-2.818.016-.021a.554.554,0,0,1,.9.642Z" transform="translate(-1972.804 -815.738)" fill="#7d97f4"/>
            <path id="Path_2158" data-name="Path 2158" d="M2067.09,1053.542l-2.309,2.65a.548.548,0,1,1-.826-.721l.015-.019,2.272-2.613.019-.018a.55.55,0,1,1,.829.722Z" transform="translate(-1962.767 -828.333)" fill="#7d97f4"/>
            <path id="Path_2159" data-name="Path 2159" d="M2051.245,1070.372l-2.536,2.429a.545.545,0,1,1-.755-.786l.015-.015,2.5-2.4.018-.015a.546.546,0,1,1,.759.786Z" transform="translate(-1951.657 -839.977)" fill="#7d97f4"/>
            <path id="Path_2160" data-name="Path 2160" d="M2034.052,1085.769l-2.723,2.211a.544.544,0,1,1-.685-.844l.015-.012,2.689-2.186.015-.012a.545.545,0,1,1,.688.844Z" transform="translate(-1939.637 -850.628)" fill="#7d97f4"/>
            <path id="Path_2161" data-name="Path 2161" d="M2015.775,1099.777l-2.88,2a.54.54,0,0,1-.617-.887l.015-.009,2.846-1.98.015-.012a.541.541,0,1,1,.62.887Z" transform="translate(-1926.889 -860.323)" fill="#7d97f4"/>
            <path id="Path_2162" data-name="Path 2162" d="M1996.6,1112.45l-3.006,1.805a.537.537,0,0,1-.553-.921l.015-.009,2.975-1.79.015-.009a.538.538,0,1,1,.553.924Z" transform="translate(-1913.537 -869.094)" fill="#7d97f4"/>
            <path id="Path_2163" data-name="Path 2163" d="M1976.7,1123.889l-3.1,1.621a.535.535,0,0,1-.494-.949l.012-.006,3.077-1.609.012-.006a.536.536,0,1,1,.5.949Z" transform="translate(-1899.698 -877.014)" fill="#7d97f4"/>
            <path id="Path_2164" data-name="Path 2164" d="M1956.231,1134.143l-3.184,1.455a.533.533,0,0,1-.442-.97l.012-.006,3.159-1.446.012-.006a.531.531,0,0,1,.706.264.539.539,0,0,1-.264.709Z" transform="translate(-1885.481 -884.112)" fill="#7d97f4"/>
            <path id="Path_2165" data-name="Path 2165" d="M1935.292,1143.357l-3.248,1.3a.529.529,0,0,1-.393-.983l.01,0,3.227-1.3.012-.006a.529.529,0,0,1,.691.295.537.537,0,0,1-.3.691Z" transform="translate(-1870.946 -890.496)" fill="#7d97f4"/>
            <path id="Path_2166" data-name="Path 2166" d="M1913.967,1151.588l-3.3,1.161a.527.527,0,1,1-.35-.995l.009,0,3.279-1.157.009,0a.529.529,0,0,1,.353,1Z" transform="translate(-1856.148 -896.196)" fill="#7d97f4"/>
          </g>
          <g id="Group_1840" data-name="Group 1840">
            <path id="Path_2167" data-name="Path 2167" d="M1682.192,293.12l1.851,11.289-8.443-3.6Z" transform="translate(-1630.364 -278.114)" fill="#7d97f4"/>
            <path id="Path_2168" data-name="Path 2168" d="M1528.26,261.093l34.871,21.743a2.9,2.9,0,0,0,4.044-1.019l20.512-35.835a1.161,1.161,0,0,0-1.329-1.692Z" transform="translate(-1528.26 -244.245)" fill="#91b3fa"/>
            <path id="Path_2169" data-name="Path 2169" d="M1580.085,293.12l-51.825,1.842,48.534,3.951.645,3.11Z" transform="translate(-1528.26 -278.114)" fill="#7d97f4"/>
            <path id="Path_2170" data-name="Path 2170" d="M1679.89,315.41l7.126,2.075-5.146-5.5Z" transform="translate(-1633.337 -291.191)" fill="#7d97f4"/>
          </g>
        </g>
        <g id="Group_1848" data-name="Group 1848" transform="translate(455.802 226.374)">
          <g id="Group_1842" data-name="Group 1842" transform="translate(92.628 117.293)">
            <rect id="Rectangle_678" data-name="Rectangle 678" width="5.425" height="58.669" transform="translate(28.034 13.972)" fill="#0090f8"/>
            <path id="Path_2171" data-name="Path 2171" d="M1953.284,1477.371H1905.77v-2.7a.824.824,0,0,1,.826-.826h45.8a.891.891,0,0,1,.89.89Z" transform="translate(-1898.779 -1403.597)" fill="#0090f8"/>
            <path id="Path_2172" data-name="Path 2172" d="M1946.492,1256.858a6.22,6.22,0,0,1-6.2,6.2H1889.2a6.22,6.22,0,0,1-6.2-6.2v-5.606a6.22,6.22,0,0,1,6.2-6.2h51.091a6.22,6.22,0,0,1,6.2,6.2v5.606Z" transform="translate(-1883 -1245.05)" fill="#0090f8"/>
          </g>
          <g id="Group_1844" data-name="Group 1844" transform="translate(46.474)">
            <path id="Path_2173" data-name="Path 2173" d="M1855.125,1441.681s-15.492,11.167-12.8,18.667c0,0,16.951-7.313,19-13.073s-.347-8.3-.347-8.3Z" transform="translate(-1808.439 -1262.14)" fill="url(#linear-gradient-32)"/>
            <path id="Path_2174" data-name="Path 2174" d="M1876.822,1417.32l2.533,7.322a2.546,2.546,0,0,1-.989,2.987,6.626,6.626,0,0,1-2.1.811,2.965,2.965,0,0,1-3.279-1.489l-3.03-5.7Z" transform="translate(-1827.809 -1247.137)" fill="url(#linear-gradient-33)"/>
            <path id="Path_2175" data-name="Path 2175" d="M1861.072,1202.63s-31.82,5.514-45.47,18.123,12.53,52.829,12.53,52.829,4.289-.028,9.487-4.483c0,0-15.52-30.251-2.146-39.071,15.038-9.917,32.369-12.152,32.369-12.152l-6.463-14.276Z" transform="translate(-1787.408 -1098.361)" fill="url(#linear-gradient-34)"/>
            <path id="Path_2176" data-name="Path 2176" d="M1839.188,1475.546c3.408-1.578,13.055-8.329,14.679-8.627s4.446,1.612,4.446,1.612a4.4,4.4,0,0,1-.049,3.386c-2.263,2.739-7.292,7.961-14.049,9.908-4.97,1.431-8.449.1-10.614-1.464A14.411,14.411,0,0,1,1839.188,1475.546Z" transform="translate(-1802.613 -1281.486)" fill="url(#linear-gradient-35)"/>
            <path id="Path_2177" data-name="Path 2177" d="M1841.983,1493.188c6.757-1.947,11.786-7.169,14.049-9.908a13.691,13.691,0,0,1-4.083,5.523c-6.061,5.447-17.632,7.409-20.1,7.031-1.974-.3-1.79-2.125-.485-4.111C1833.534,1493.283,1837.012,1494.618,1841.983,1493.188Z" transform="translate(-1800.379 -1292.846)" fill="url(#linear-gradient-36)"/>
            <path id="Path_2178" data-name="Path 2178" d="M1903.293,1450.539c-.037.939-1.956,4.157-3.08,5.965a2.924,2.924,0,0,1-2.478,1.385,7.546,7.546,0,0,1-2.048-.245,1.9,1.9,0,0,1-1.274-2.361l2.192-7.482Z" transform="translate(-1844.701 -1268.259)" fill="url(#linear-gradient-37)"/>
            <path id="Path_2179" data-name="Path 2179" d="M1949,1171.53s7.068,18.894,0,24.641-23.923,12.216-27.69,23.662-10.156,33.689-18.71,41.564c0,0-6.008-.583-8.259-2.975,0,0,4.869-33.2,8.084-41.724,2.782-7.378,6.88-18.028,14.737-23.981,2.247-1.7,1.857-4.4.813-7.025l-1.9-4.774Z" transform="translate(-1844.704 -1076.81)" fill="url(#linear-gradient-38)"/>
            <path id="Path_2180" data-name="Path 2180" d="M1831.7,1080.478c11.848.715,8.158-18.215,7.943-18.968l17.982,12.7s-.952,10.122-15.9,15.434a18.571,18.571,0,0,1-10.3.746A16.352,16.352,0,0,0,1831.7,1080.478Z" transform="translate(-1801.102 -1000.568)" fill="url(#linear-gradient-39)"/>
            <path id="Path_2181" data-name="Path 2181" d="M1740.355,1101.65c4.415-3.07,9.416,0,9.416,0,5.9,3.862,10.27,5.5,13.494,5.7a16.374,16.374,0,0,1-.273,9.914c-6.613-1.421-11.344-6.208-13.4-8.664a2.135,2.135,0,0,0-2.957-.322c-.918.724-1.811,1.719-1.652,2.766.319,2.063-2.075,2.72-2.257,1.971s.82-5.186.82-5.186-4.789,4.814-6.656,6.665-4.219,0-4.219,0S1735.94,1104.723,1740.355,1101.65Z" transform="translate(-1732.67 -1027.439)" fill="url(#linear-gradient-40)"/>
            <path id="Path_2182" data-name="Path 2182" d="M1898.423,964.461s-17.236-6.9-49.317,19.582c0,0-2.68,5.548.242,10.482s30.776,28.992,34.6,42.332c0,0,16.594,5.391,33.754-7.393C1917.707,1029.467,1916.193,992.339,1898.423,964.461Z" transform="translate(-1812.58 -932.754)" fill="url(#linear-gradient-41)"/>
            <path id="Path_2183" data-name="Path 2183" d="M1875.418,946.23l8.486,10.288a3.38,3.38,0,0,1,.445,3.632c-1.179,2.4-3.973,5.9-10.172,5.416a5.211,5.211,0,0,1-4.283-2.92l-5.935-12.266Z" transform="translate(-1823.651 -920.681)" fill="url(#linear-gradient-42)"/>
            <path id="Path_2184" data-name="Path 2184" d="M2014.5,1010.347c2-8.148-18.268-26.318-18.268-26.318l4.922-17.74s43.769,29.136,32.615,52.568a17.076,17.076,0,0,1-6.183,7.286C2024.058,1016.657,2018.443,1012.306,2014.5,1010.347Z" transform="translate(-1915.312 -934.583)" fill="url(#linear-gradient-39)"/>
            <path id="Path_2185" data-name="Path 2185" d="M2013.463,1044.369a.478.478,0,0,0,.464-.365c2.048-8.333-17.577-26.038-18.415-26.788a.478.478,0,0,0-.639.712c.2.178,20.033,18.068,18.123,25.848a.48.48,0,0,0,.35.58A.784.784,0,0,0,2013.463,1044.369Z" transform="translate(-1914.261 -969.789)" fill="url(#linear-gradient-44)"/>
            <path id="Path_2186" data-name="Path 2186" d="M1910.08,1106.646s24.03,9.33,29.9,2.312a3.909,3.909,0,0,0,.8-1.612c3.942,1.959,9.561,6.309,13.085,15.8-12.64,8.078-34.242-4.492-40.084-8.2a4.357,4.357,0,0,0-3.227-.593c-2.254.467-6.146,1.154-8.244.832-3.07-.473-7.482,10.359-12.459,7.018C1889.847,1122.2,1894.108,1103.37,1910.08,1106.646Z" transform="translate(-1841.593 -1031.581)" fill="url(#linear-gradient-45)"/>
            <g id="Group_1843" data-name="Group 1843" transform="translate(28.059)">
              <path id="Path_2187" data-name="Path 2187" d="M1841.134,891.316c-.086.332,1.989,22.818,1.989,22.818l12.815-1.458,1.2-21.6S1842.562,885.778,1841.134,891.316Z" transform="translate(-1835.891 -880.876)" fill="url(#linear-gradient-46)"/>
              <path id="Path_2188" data-name="Path 2188" d="M1841.969,877.686l.258,11.424a1.562,1.562,0,0,1-.049.43c-.224.869-1.21,3.8-4.148,2.61-2.668-1.081-5.115-2.029-6.917-1.689a1.594,1.594,0,0,0-1.292,1.713,69.193,69.193,0,0,0,1.753,10.565,1.591,1.591,0,0,0,1.818,1.145,51.415,51.415,0,0,0,11.516-3.3,1.6,1.6,0,0,0,.93-1.342c.193-2.855.807-11.532,1.354-13.923.513-2.244,3.451-3.3,4.716-3.657a1.573,1.573,0,0,0,.964-.777c.715-1.345,1.848-4.516-2.109-6.3a1.6,1.6,0,0,1-.78-2.165c.792-1.624,1.333-4.179-1.685-5.947a5.853,5.853,0,0,0-7.12.909,1.6,1.6,0,0,1-2.048.015,1.26,1.26,0,0,0-1.434-.107,1.573,1.573,0,0,1-2.14-.915,4.767,4.767,0,0,0-5.2-3.347c-5.708.344-7.025,6.484-5.947,10.285s7.246,3.076,10.466,1.572c2.447-1.142,5.262.645,6.472,1.569A1.583,1.583,0,0,1,1841.969,877.686Z" transform="translate(-1824.061 -863.015)" fill="url(#linear-gradient-47)"/>
              <path id="Path_2189" data-name="Path 2189" d="M1898.463,929.976s-1.6-6.7.946-8.022,5.956-.117,4.67,4.473C1902.479,932.131,1898.463,929.976,1898.463,929.976Z" transform="translate(-1875.277 -903.509)" fill="url(#linear-gradient-48)"/>
            </g>
          </g>
          <g id="Group_1845" data-name="Group 1845" transform="translate(3.43 47.685)">
            <path id="Path_2190" data-name="Path 2190" d="M1796.482,1157.134c-.04,0-.077,0-.117,0l-50.422-.055a2.257,2.257,0,1,1,.006-4.513l50.422.055a2.256,2.256,0,0,1,.11,4.51Z" transform="translate(-1697.263 -1111.354)" fill="url(#linear-gradient-49)"/>
            <path id="Path_2191" data-name="Path 2191" d="M1595.827,1018.33h41.991a8,8,0,0,1,7.24,4.59l19.413,41.162h-52.184a4.862,4.862,0,0,1-4.522-3.076l-15.053-38.092A3.35,3.35,0,0,1,1595.827,1018.33Z" transform="translate(-1592.471 -1018.33)" fill="#0090f8"/>
          </g>
          <g id="Group_1847" data-name="Group 1847" transform="translate(0 92.986)">
            <g id="Group_1846" data-name="Group 1846" transform="translate(11.475 4.51)">
              <path id="Path_2192" data-name="Path 2192" d="M1620.792,1284.683a2.169,2.169,0,0,1-.835-.169,2.027,2.027,0,0,1-1.108-2.7l44.438-100.009a2.149,2.149,0,0,1,2.785-1.075,2.027,2.027,0,0,1,1.108,2.7l-44.438,100.009A2.128,2.128,0,0,1,1620.792,1284.683Z" transform="translate(-1618.675 -1180.568)" fill="#1c2120"/>
              <path id="Path_2193" data-name="Path 2193" d="M1683.543,1284.687a2.12,2.12,0,0,1-1.947-1.24l-44.438-100.009a2.027,2.027,0,0,1,1.108-2.7,2.147,2.147,0,0,1,2.785,1.075l44.438,100.009a2.027,2.027,0,0,1-1.108,2.7A2.251,2.251,0,0,1,1683.543,1284.687Z" transform="translate(-1631.363 -1180.572)" fill="#1c2120"/>
              <path id="Path_2194" data-name="Path 2194" d="M2068.822,1284.683a2.168,2.168,0,0,1-.835-.169,2.027,2.027,0,0,1-1.108-2.7l44.435-100.009a2.149,2.149,0,0,1,2.785-1.075,2.027,2.027,0,0,1,1.108,2.7l-44.438,100.009A2.124,2.124,0,0,1,2068.822,1284.683Z" transform="translate(-1929.151 -1180.568)" fill="#1c2120"/>
              <path id="Path_2195" data-name="Path 2195" d="M2131.563,1284.687a2.121,2.121,0,0,1-1.947-1.24l-44.438-100.009a2.027,2.027,0,0,1,1.108-2.7,2.147,2.147,0,0,1,2.784,1.075l44.438,100.009a2.027,2.027,0,0,1-1.108,2.7A2.24,2.24,0,0,1,2131.563,1284.687Z" transform="translate(-1941.832 -1180.572)" fill="#1c2120"/>
            </g>
            <path id="Path_2196" data-name="Path 2196" d="M1787.718,1168.542a2.426,2.426,0,0,0-.421-1.848,1.923,1.923,0,0,0-1.541-.814H1583.6a2.248,2.248,0,0,0-1.937,1.188,2.844,2.844,0,0,0-.151,2.469l2.192,5.308a3.062,3.062,0,0,0,2.785,1.993h197.884a2.411,2.411,0,0,0,2.281-2.106Z" transform="translate(-1581.299 -1165.88)" fill="#1c2120"/>
          </g>
        </g>
        <g id="Group_1850" data-name="Group 1850" transform="translate(20.388 272.111)">
          <path id="Path_2197" data-name="Path 2197" d="M255.312,1268.33l-88.456,49.065a7.278,7.278,0,0,0-2.542,10.377l.384.58a6.764,6.764,0,0,0,9.41,1.888l84.461-56.633Z" transform="translate(-163.107 -1189.627)" fill="url(#linear-gradient-50)"/>
          <path id="Path_2198" data-name="Path 2198" d="M533.816,1067.665c3.988,25.133-13.527,48.8-39.121,52.86s-49.575-13.021-53.563-38.153,13.527-48.8,39.121-52.86S529.828,1042.532,533.816,1067.665Z" transform="translate(-355.381 -1023.717)" opacity="0.42" fill="url(#linear-gradient-16)"/>
          <path id="Path_2199" data-name="Path 2199" d="M467.5,1012.65c-28.479,4.519-47.969,30.852-43.529,58.819s31.123,46.971,59.6,42.452,47.969-30.852,43.529-58.819S495.976,1008.13,467.5,1012.65Zm14.891,93.835c-24.295,3.856-47.06-12.361-50.846-36.216s12.84-46.323,37.137-50.179,47.06,12.361,50.846,36.216S506.685,1102.628,482.387,1106.484Z" transform="translate(-343.441 -1011.985)" fill="url(#linear-gradient-52)"/>
          <g id="Group_1849" data-name="Group 1849" transform="translate(83.148 3.185)">
            <path id="Path_2200" data-name="Path 2200" d="M436.168,1084.313a.347.347,0,0,1-.335-.252c-.344-1.173-.645-2.379-.9-3.58a.345.345,0,0,1,.27-.411.35.35,0,0,1,.414.27c.249,1.185.547,2.37.884,3.528a.349.349,0,0,1-.236.433A.573.573,0,0,1,436.168,1084.313Zm-1.891-14.215h-.006a.345.345,0,0,1-.341-.356,47.2,47.2,0,0,1,1.271-9.963h0a48.793,48.793,0,0,1,40.137-36.8,49.461,49.461,0,0,1,27.147,3.3.349.349,0,1,1-.273.642,48.762,48.762,0,0,0-26.766-3.254,48.1,48.1,0,0,0-39.569,36.275h0a46.6,46.6,0,0,0-1.253,9.812A.35.35,0,0,1,434.277,1070.1Z" transform="translate(-433.929 -1022.359)" fill="#bdd0fb"/>
          </g>
          <path id="Path_2201" data-name="Path 2201" d="M175.017,1430.157a.419.419,0,0,1-.061-.006c-3.868-.685-5.063-2.717-5.385-4.3a5.65,5.65,0,0,1,2.788-5.956l10.574-6.183a.348.348,0,0,1,.35.6l-10.574,6.183a4.957,4.957,0,0,0-2.456,5.216c.405,1.993,2.029,3.254,4.823,3.752a.348.348,0,0,1-.058.691Z" transform="translate(-167.512 -1290.342)" fill="#bdd0fb"/>
          <path id="Path_2202" data-name="Path 2202" d="M223.733,1406.349a.347.347,0,0,1-.175-.648l1.369-.8a.348.348,0,0,1,.35.6l-1.369.8A.364.364,0,0,1,223.733,1406.349Z" transform="translate(-204.878 -1284.234)" fill="#bdd0fb"/>
        </g>
      </g>
    </g>
  </g>
</svg>
