<svg xmlns="http://www.w3.org/2000/svg" width="45.64" height="45.636" viewBox="0 0 45.64 45.636">
  <g id="Group_3542" data-name="Group 3542" transform="translate(-1000 -1242.364)">
    <g id="Defining_salary_structures" data-name="Defining salary structures" transform="translate(231.26 893.594)">
      <path id="Path_2937" data-name="Path 2937" d="M768.741,386.563v-1.07l.915-1.963c-.289-.619-.6-1.29-.915-1.959V380.5c.018-.023.045-.043.052-.069a3.41,3.41,0,0,1,3.7-2.784h1.041v-3.025l-.089-.068c-.163.184-.316.379-.491.552a.915.915,0,0,1-1.468,0c-.6-.594-1.206-1.186-1.792-1.8-.334-.348-.635-.729-.95-1.095v-.357a8.964,8.964,0,0,1,.629-.786q3.316-3.334,6.646-6.651a3.009,3.009,0,0,1,.326-.3.857.857,0,0,1,1.139.077.871.871,0,0,1,.107,1.137,2.781,2.781,0,0,1-.328.363q-2.993,3-5.993,5.983a.952.952,0,0,1-.332.172l1.352,1.416c1.534-1.537,3.087-3.094,4.64-4.648l9.422-9.423c.063-.063.125-.127.189-.189a.9.9,0,0,1,1.439,0c1.02,1.015,2.028,2.043,3.05,3.075.135-.128.234-.218.327-.31q3.419-3.418,6.84-6.836a.914.914,0,0,1,1.5,0,7.546,7.546,0,0,1,.5.6l.14-.1c.305-1.526.611-3.052.927-4.629l-4.641.935-.082.124a3.337,3.337,0,0,1,.415.32.882.882,0,0,1,.015,1.375q-2.607,2.624-5.231,5.232a.878.878,0,0,1-1.373,0c-.449-.433-.885-.88-1.325-1.322-.585-.587-1.167-1.175-1.773-1.786-1.151,1.154-2.261,2.269-3.372,3.383-.452.453-.895.912-1.359,1.351a.874.874,0,0,1-1.105.12.816.816,0,0,1-.37-.966,1.511,1.511,0,0,1,.393-.576q2.512-2.53,5.041-5.044a.935.935,0,0,1,1.534-.008c.907.9,1.808,1.805,2.712,2.709.1.1.209.193.244.225l4.106-4.091c-.282-.263-.6-.556-.91-.849a.914.914,0,0,1-.3-1.005.934.934,0,0,1,.8-.622c1.368-.272,2.736-.54,4.1-.821,1.1-.227,2.2-.472,3.293-.71h.624a1.106,1.106,0,0,1,.541,1.274c-.506,2.425-.987,4.855-1.47,7.284a.929.929,0,0,1-1.695.5c-.361-.387-.733-.765-1.143-1.193-.163.193-.259.326-.374.441q-3.37,3.375-6.744,6.744a.929.929,0,0,1-1.534,0q-1.343-1.335-2.68-2.678c-.11-.111-.229-.214-.345-.321l.076.139-6.6,6.6h.4c.891,0,1.783-.009,2.674.011a.868.868,0,0,1,.862.85.893.893,0,0,1-.768.9,2.63,2.63,0,0,1-.443.023c-1.456,0-2.912-.009-4.367.012a.987.987,0,0,0-.616.248q-1.473,1.424-2.9,2.9a.915.915,0,0,0-.234.574c-.02,1.4-.011,2.793-.009,4.19,0,.127.017.253.025.365h1.367c0-1.017,0-2.01,0-3,0-.752.24-1.01.981-1.1a1.937,1.937,0,0,0,1.8-1.639c.166-1.036.326-1.172,1.382-1.172h26.16a4.492,4.492,0,0,1,.49.011.9.9,0,0,1,.859.868,1.918,1.918,0,0,0,1.962,1.944.834.834,0,0,1,.821.88q.012,4.969,0,9.939a.838.838,0,0,1-.809.891c-.147.02-.3.033-.441.061a1.9,1.9,0,0,0-1.519,1.606c-.125.972-.333,1.158-1.306,1.158q-10.183,0-20.367-.009a.847.847,0,0,0-.872.48,2.618,2.618,0,0,1,.379.469.808.808,0,0,0,.859.446q12.456-.016,24.912-.008h.555V369.336h-.592q-10.339,0-20.678,0a2.612,2.612,0,0,1-.618-.051.876.876,0,0,1,.133-1.717,3.241,3.241,0,0,1,.356-.012q11.03,0,22.06-.008a1.109,1.109,0,0,1,1.147.654v26.207H771.593a3.561,3.561,0,0,1-2.255-1.494,10.873,10.873,0,0,1-.6-1.358v-1.07a3.843,3.843,0,0,1,.973-1.839Zm40.633-2.98a1.14,1.14,0,0,0,.029-.165c0-2.643,0-5.288.01-7.931,0-.25-.114-.322-.315-.393a3.486,3.486,0,0,1-2.219-2.16.581.581,0,0,0-.669-.446q-12.253.014-24.508.007c-.074,0-.162-.025-.22.006-.125.065-.3.135-.341.245a3.784,3.784,0,0,1-2.365,2.379c-.1.037-.245.158-.247.242-.019.75-.011,1.5-.011,2.281h.547c1.515,0,3.031-.019,4.545.006a3.325,3.325,0,0,1,3.22,4.045,10.675,10.675,0,0,1-.878,1.95,3.528,3.528,0,0,1,.991,2.634h19.235a.7.7,0,0,0,.265-.006c.127-.058.305-.132.344-.24A3.776,3.776,0,0,1,809.375,383.583Zm-31.536-4.152q-2.783,0-5.565,0a1.61,1.61,0,1,0,.011,3.207q5.543,0,11.084,0a1.612,1.612,0,1,0-.011-3.208Q780.6,379.43,777.838,379.432Zm0,8.2q2.76,0,5.52,0a1.612,1.612,0,1,0,.019-3.208q-5.543,0-11.084,0a2.3,2.3,0,0,0-.487.034,1.6,1.6,0,0,0,.333,3.17C774.035,387.64,775.935,387.631,777.835,387.633Zm0,1.783q-2.8,0-5.609,0a1.6,1.6,0,1,0-.015,3.205q5.632.011,11.262,0a1.86,1.86,0,0,0,.4-.034,1.613,1.613,0,0,0,1.27-1.739,1.6,1.6,0,0,0-1.607-1.431C781.629,389.408,779.729,389.415,777.83,389.415Zm34.751,1.843H786.965c-.132.469-.253.9-.376,1.338H812.58C812.581,392.146,812.581,391.719,812.581,391.259Z" fill="#0090f8"/>
      <path id="Path_2938" data-name="Path 2938" d="M918.806,506.87a.889.889,0,0,1,.885.875.913.913,0,0,1-.921.894.891.891,0,0,1-.851-.909A.862.862,0,0,1,918.806,506.87Z" transform="translate(-131.449 -139.309)" fill="#0090f8"/>
      <path id="Path_2939" data-name="Path 2939" d="M851.923,455.27a.889.889,0,1,1-.037,1.777.889.889,0,0,1,.037-1.777Z" transform="translate(-72.517 -93.842)" fill="#0090f8"/>
      <path id="Path_2940" data-name="Path 2940" d="M950.25,571.168a4.751,4.751,0,1,1-4.756-4.768A4.782,4.782,0,0,1,950.25,571.168Zm-1.783.01a2.968,2.968,0,1,0-2.969,2.948A2.993,2.993,0,0,0,948.468,571.178Z" transform="translate(-151.565 -191.764)" fill="#0090f8"/>
      <path id="Path_2941" data-name="Path 2941" d="M1049.129,600.707c-.252-.012-.506,0-.755-.04a.843.843,0,0,1-.74-.9.826.826,0,0,1,.776-.825,11.187,11.187,0,0,1,1.468,0,.85.85,0,0,1,.794.862.869.869,0,0,1-.787.874,6.41,6.41,0,0,1-.756,0A.131.131,0,0,1,1049.129,600.707Z" transform="translate(-245.746 -220.412)" fill="#0090f8"/>
    </g>
  </g>
</svg>
