<svg id="Group_4230" data-name="Group 4230" xmlns="http://www.w3.org/2000/svg" width="263.004" height="195.177" viewBox="0 0 263.004 195.177">
  <path id="Path_1885" data-name="Path 1885" d="M605.5,270.787H407.4a32.5,32.5,0,0,1-32.454-32.454V108.064A32.5,32.5,0,0,1,407.4,75.61h43a1.729,1.729,0,0,1,0,3.458h-43a29.032,29.032,0,0,0-29,29V238.333a29.032,29.032,0,0,0,29,29H605.5a29.032,29.032,0,0,0,29-29V189.921a1.729,1.729,0,1,1,3.458,0v48.412A32.5,32.5,0,0,1,605.5,270.787Z" transform="translate(-374.95 -75.61)" fill="#21a371"/>
</svg>
