<svg xmlns="http://www.w3.org/2000/svg" width="1502.022" height="541.599" viewBox="0 0 1502.022 541.599">
  <g id="Group_3603" data-name="Group 3603" transform="translate(-347.978 -2673)">
    <rect id="Rectangle_965" data-name="Rectangle 965" width="77" height="11" transform="translate(1485 2682)" fill="#0090f8"/>
    <g id="Group_3602" data-name="Group 3602">
      <rect id="Rectangle_966" data-name="Rectangle 966" width="77" height="11" transform="translate(1485 2729)" fill="#fe9700"/>
      <text id="PRANIL_PAYROLL" data-name="PRANIL PAYROLL" transform="translate(1585 2673)" fill="#1c2120" font-size="22" font-family="OpenSans-Semibold, Open Sans" font-weight="600"><tspan x="0" y="24">PRANIL PAYROLL</tspan></text>
      <text id="CLIENT_" data-name="CLIENT " transform="translate(1585 2715)" fill="#1c2120" font-size="22" font-family="OpenSans-Semibold, Open Sans" font-weight="600"><tspan x="0" y="24">CLIENT </tspan></text>
      <g id="Group_3565" data-name="Group 3565" transform="translate(-0.181 20.599)">
        <g id="Group_1979" data-name="Group 1979" transform="translate(348.159 3027.33)">
          <path id="Path_2516" data-name="Path 2516" d="M106.092,416.46,57.98,333.119l48.112-83.329H202.33l48.113,83.329L202.33,416.46Z" transform="translate(-57.98 -249.79)" fill="#0090f8"/>
        </g>
        <g id="Group_1985" data-name="Group 1985" transform="translate(611.128 2853.861)">
          <path id="Path_2525" data-name="Path 2525" d="M225.893,344.7,177.78,261.361l48.113-83.341h96.225l48.112,83.341L322.118,344.7Z" transform="translate(-167.78 -162.02)" fill="#fe9700"/>
        </g>
        <g id="Group_2059" data-name="Group 2059" transform="translate(491.391 2953.461)" opacity="0.132">
          <path id="Path_2525-2" data-name="Path 2525" d="M220.424,325.759,177.78,251.889l42.644-73.869h85.289l42.644,73.869-42.644,73.869Z" transform="translate(-177.78 -178.02)" fill="#707070"/>
        </g>
        <g id="Group_2060" data-name="Group 2060" transform="translate(767.391 2953.461)" opacity="0.132">
          <path id="Path_2525-3" data-name="Path 2525" d="M220.424,325.759,177.78,251.889l42.644-73.869h85.289l42.644,73.869-42.644,73.869Z" transform="translate(-177.78 -178.02)" fill="#707070"/>
        </g>
        <g id="Group_2061" data-name="Group 2061" transform="translate(1037.391 2953.202)" opacity="0.132">
          <path id="Path_2525-4" data-name="Path 2525" d="M220.424,325.759,177.78,251.889l42.644-73.869h85.289l42.644,73.869-42.644,73.869Z" transform="translate(-177.78 -178.02)" fill="#707070"/>
        </g>
        <g id="Group_2062" data-name="Group 2062" transform="translate(1308.391 2943.995)" opacity="0.132">
          <path id="Path_2525-5" data-name="Path 2525" d="M220.424,325.759,177.78,251.889l42.644-73.869h85.289l42.644,73.869-42.644,73.869Z" transform="translate(-177.78 -178.02)" fill="#707070"/>
        </g>
        <g id="Group_1990" data-name="Group 1990" transform="translate(893.741 3017.865)">
          <path id="Path_2535" data-name="Path 2535" d="M347.763,413.66,299.65,330.331l48.112-83.341h96.225l48.125,83.341L443.988,413.66Z" transform="translate(-299.65 -246.99)" fill="#fe9700"/>
        </g>
        <g id="Group_2058" data-name="Group 2058" transform="translate(1431.741 3017.865)">
          <path id="Path_2535-2" data-name="Path 2535" d="M347.763,413.66,299.65,330.331l48.112-83.341h96.225l48.125,83.341L443.988,413.66Z" transform="translate(-299.65 -246.99)" fill="#fe9700"/>
        </g>
        <g id="Group_2002" data-name="Group 2002" transform="translate(1162.284 2860.401)">
          <path id="Path_2547" data-name="Path 2547" d="M589.4,408.89,541.29,325.549,589.4,242.22h96.225l48.125,83.329L685.628,408.89Z" transform="translate(-541.29 -242.22)" fill="#fe9700"/>
        </g>
        <text id="Send_Input_data_before_agreed_cut_off_date_" data-name="Send Input data
before agreed cut off date " transform="translate(399 3082)" fill="#fbfbfb" font-size="12" font-family="OpenSans-Semibold, Open Sans" font-weight="600"><tspan x="0" y="13">Send Input data</tspan><tspan x="0" y="30">before agreed cut </tspan><tspan x="0" y="47">off date </tspan></text>
        <text id="Clarifications_and_amendments_on_input_data_" data-name="Clarifications and amendments on input data " transform="translate(672 2927)" fill="#fbfbfb" font-size="12" font-family="OpenSans-Semibold, Open Sans" font-weight="600"><tspan x="0" y="13">Clarifications and </tspan><tspan x="0" y="30">amendments on </tspan><tspan x="0" y="47">input data </tspan></text>
        <text id="Add_new_employee_to_to_payroll_" data-name="Add new employee to to payroll " transform="translate(960 3084)" fill="#fbfbfb" font-size="12" font-family="OpenSans-Semibold, Open Sans" font-weight="600"><tspan x="0" y="13">Add new </tspan><tspan x="0" y="30">employee to to </tspan><tspan x="0" y="47">payroll </tspan></text>
        <text id="Activate_ESS_Portal_for_the_employee_" data-name="Activate ESS Portal for the employee " transform="translate(1210 2925)" fill="#fbfbfb" font-size="12" font-family="OpenSans-Semibold, Open Sans" font-weight="600"><tspan x="0" y="13">Activate ESS Portal </tspan><tspan x="0" y="30">for the employee </tspan></text>
        <text id="Follow_Monthly_process_flow_from_Slide_18" data-name="Follow Monthly process flow from 
Slide 18" transform="translate(1485 3084)" fill="#fbfbfb" font-size="12" font-family="OpenSans-Semibold, Open Sans" font-weight="600"><tspan x="0" y="13">Follow Monthly </tspan><tspan x="0" y="30">process flow from </tspan><tspan x="0" y="47">Slide 18</tspan></text>
        <g id="Group_3556" data-name="Group 3556">
          <path id="Icon_ionic-md-arrow-dropright-circle" data-name="Icon ionic-md-arrow-dropright-circle" d="M18,32.625A14.625,14.625,0,1,0,3.375,18,14.625,14.625,0,0,0,18,32.625ZM15.75,24.75V11.25L22.5,18Z" transform="translate(546.77 3025.037) rotate(-30)" opacity="0.598"/>
        </g>
        <g id="Group_3555" data-name="Group 3555">
          <path id="Icon_ionic-md-arrow-dropright-circle-2" data-name="Icon ionic-md-arrow-dropright-circle" d="M18,32.625A14.625,14.625,0,1,0,3.375,18,14.625,14.625,0,0,0,18,32.625ZM15.75,24.75V11.25L22.5,18Z" transform="translate(849.89 3007.037) rotate(30)" opacity="0.598"/>
        </g>
        <g id="Group_3554" data-name="Group 3554">
          <path id="Icon_ionic-md-arrow-dropright-circle-3" data-name="Icon ionic-md-arrow-dropright-circle" d="M18,32.625A14.625,14.625,0,1,0,3.375,18,14.625,14.625,0,0,0,18,32.625ZM15.75,24.75V11.25L22.5,18Z" transform="matrix(0.839, -0.545, 0.545, 0.839, 1099.079, 3018.686)" opacity="0.598"/>
        </g>
        <g id="Group_3553" data-name="Group 3553">
          <path id="Icon_ionic-md-arrow-dropright-circle-4" data-name="Icon ionic-md-arrow-dropright-circle" d="M18,32.625A14.625,14.625,0,1,0,3.375,18,14.625,14.625,0,0,0,18,32.625ZM15.75,24.75V11.25L22.5,18Z" transform="matrix(0.866, 0.5, -0.5, 0.866, 1388.143, 2992.412)" opacity="0.598"/>
        </g>
        <text id="_01" data-name="01" transform="translate(427 3066)" fill="#1c2120" font-size="32" font-family="OpenSans-Semibold, Open Sans" font-weight="600" opacity="0.103"><tspan x="0" y="0">01</tspan></text>
        <text id="_02" data-name="02" transform="translate(701 2918)" fill="#1c2120" font-size="32" font-family="OpenSans-Semibold, Open Sans" font-weight="600" opacity="0.103"><tspan x="0" y="0">02</tspan></text>
        <text id="_03" data-name="03" transform="translate(975 3078)" fill="#1c2120" font-size="32" font-family="OpenSans-Semibold, Open Sans" font-weight="600" opacity="0.103"><tspan x="0" y="0">03</tspan></text>
        <text id="_05" data-name="05" transform="translate(1505 3078)" fill="#1c2120" font-size="32" font-family="OpenSans-Semibold, Open Sans" font-weight="600" opacity="0.103"><tspan x="0" y="0">05</tspan></text>
      </g>
      <text id="_04" data-name="04" transform="translate(1239 2915)" fill="#1c2120" font-size="32" font-family="OpenSans-Semibold, Open Sans" font-weight="600" opacity="0.103"><tspan x="0" y="0">04</tspan></text>
    </g>
  </g>
</svg>
