<svg xmlns="http://www.w3.org/2000/svg" width="1591" height="804" viewBox="0 0 1591 804">
  <g id="Group_4234" data-name="Group 4234" transform="translate(-277 -4557)">
    <rect id="Rectangle_1007" data-name="Rectangle 1007" width="103" height="80" transform="translate(277 4944)" fill="#fff"/>
    <text id="_04" data-name="04" transform="translate(1349 4640)" fill="#f7f7f7" font-size="21" font-family="OpenSans-Semibold, Open Sans" font-weight="600"><tspan x="0" y="0">04</tspan></text>
    <rect id="Rectangle_1010" data-name="Rectangle 1010" width="70" height="10" transform="translate(1535 4608)" fill="#fe9700"/>
    <text id="CLIENT_" data-name="CLIENT " transform="translate(1625 4600)" fill="#1c2120" font-size="22" font-family="OpenSans-Semibold, Open Sans" font-weight="600"><tspan x="0" y="24">CLIENT </tspan></text>
    <g id="Group_3588" data-name="Group 3588">
      <g id="Group_2156" data-name="Group 2156" transform="translate(364.755 4649.673)">
        <g id="Group_1757" data-name="Group 1757">
          <path id="Path_1521" data-name="Path 1521" d="M210.422,236.63H46.994A26.815,26.815,0,0,1,20.22,209.855V102.384A26.815,26.815,0,0,1,46.994,75.61h35.5a1.426,1.426,0,1,1,0,2.853h-35.5a23.951,23.951,0,0,0-23.921,23.921V209.855a23.951,23.951,0,0,0,23.921,23.921H210.422a23.951,23.951,0,0,0,23.921-23.921V169.916a1.417,1.417,0,0,1,1.426-1.426h55.3a1.426,1.426,0,0,1,0,2.853H237.2v38.513A26.815,26.815,0,0,1,210.422,236.63Z" transform="translate(-20.22 -75.61)" fill="#0090f8"/>
        </g>
        <g id="Group_1758" data-name="Group 1758" transform="translate(259.418 82.591)">
          <path id="Path_1522" data-name="Path 1522" d="M133.1,134.337l-1.941-2.1,10.336-9.587-10.336-9.611,1.941-2.1,12.58,11.715Z" transform="translate(-131.16 -110.93)" fill="#0090f8"/>
        </g>
      </g>
      <g id="Group_2166" data-name="Group 2166" transform="translate(388.031 5193.99)">
        <g id="Group_1757-2" data-name="Group 1757">
          <path id="Path_1521-2" data-name="Path 1521" d="M210.422,236.63H46.994A26.815,26.815,0,0,1,20.22,209.855V102.384A26.815,26.815,0,0,1,46.994,75.61h35.5a1.426,1.426,0,1,1,0,2.853h-35.5a23.951,23.951,0,0,0-23.921,23.921V209.855a23.951,23.951,0,0,0,23.921,23.921H210.422a23.951,23.951,0,0,0,23.921-23.921V169.916a1.417,1.417,0,0,1,1.426-1.426h55.3a1.426,1.426,0,0,1,0,2.853H237.2v38.513A26.815,26.815,0,0,1,210.422,236.63Z" transform="translate(-20.22 -75.61)" fill="#0090f8"/>
        </g>
        <g id="Group_1758-2" data-name="Group 1758" transform="translate(259.418 82.591)">
          <path id="Path_1522-2" data-name="Path 1522" d="M133.1,134.337l-1.941-2.1,10.336-9.587-10.336-9.611,1.941-2.1,12.58,11.715Z" transform="translate(-131.16 -110.93)" fill="#0090f8"/>
        </g>
      </g>
      <g id="Group_2174" data-name="Group 2174" transform="translate(1212.245 4906.673)">
        <g id="Group_1757-3" data-name="Group 1757" transform="translate(1.641)">
          <path id="Path_1521-3" data-name="Path 1521" d="M101.329,234.731h161.5a26.5,26.5,0,0,0,26.459-26.459v-106.2A26.5,26.5,0,0,0,262.83,75.61H227.752a1.41,1.41,0,1,0,0,2.819H262.83a23.669,23.669,0,0,1,23.639,23.639v106.2a23.669,23.669,0,0,1-23.639,23.639h-161.5a23.669,23.669,0,0,1-23.639-23.639V168.8a1.4,1.4,0,0,0-1.41-1.41H21.63a1.41,1.41,0,0,0,0,2.819H74.87v38.059A26.5,26.5,0,0,0,101.329,234.731Z" transform="translate(-20.22 -75.61)" fill="#0090f8"/>
        </g>
        <g id="Group_1758-3" data-name="Group 1758" transform="translate(0 81.617)">
          <path id="Path_1522-3" data-name="Path 1522" d="M143.592,134.061l1.918-2.08L135.3,122.507l10.214-9.5-1.918-2.08L131.16,122.507Z" transform="translate(-131.16 -110.93)" fill="#0090f8"/>
        </g>
      </g>
      <g id="Group_2167" data-name="Group 2167" transform="translate(923.944 4919.104)">
        <g id="Group_1757-4" data-name="Group 1757" transform="translate(1.641)">
          <path id="Path_1521-4" data-name="Path 1521" d="M101.329,234.731h161.5a26.5,26.5,0,0,0,26.459-26.459v-106.2A26.5,26.5,0,0,0,262.83,75.61H227.752a1.41,1.41,0,1,0,0,2.819H262.83a23.669,23.669,0,0,1,23.639,23.639v106.2a23.669,23.669,0,0,1-23.639,23.639h-161.5a23.669,23.669,0,0,1-23.639-23.639V168.8a1.4,1.4,0,0,0-1.41-1.41H21.63a1.41,1.41,0,0,0,0,2.819H74.87v38.059A26.5,26.5,0,0,0,101.329,234.731Z" transform="translate(-20.22 -75.61)" fill="#0090f8"/>
        </g>
        <g id="Group_1758-4" data-name="Group 1758" transform="translate(0 81.617)">
          <path id="Path_1522-4" data-name="Path 1522" d="M143.592,134.061l1.918-2.08L135.3,122.507l10.214-9.5-1.918-2.08L131.16,122.507Z" transform="translate(-131.16 -110.93)" fill="#0090f8"/>
        </g>
      </g>
      <g id="Group_2160" data-name="Group 2160" transform="translate(611.944 4919.104)">
        <g id="Group_1757-5" data-name="Group 1757" transform="translate(1.641)">
          <path id="Path_1521-5" data-name="Path 1521" d="M101.329,234.731h161.5a26.5,26.5,0,0,0,26.459-26.459v-106.2A26.5,26.5,0,0,0,262.83,75.61H227.752a1.41,1.41,0,1,0,0,2.819H262.83a23.669,23.669,0,0,1,23.639,23.639v106.2a23.669,23.669,0,0,1-23.639,23.639h-161.5a23.669,23.669,0,0,1-23.639-23.639V168.8a1.4,1.4,0,0,0-1.41-1.41H21.63a1.41,1.41,0,0,0,0,2.819H74.87v38.059A26.5,26.5,0,0,0,101.329,234.731Z" transform="translate(-20.22 -75.61)" fill="#fe9700"/>
        </g>
        <g id="Group_1758-5" data-name="Group 1758" transform="translate(0 81.617)">
          <path id="Path_1522-5" data-name="Path 1522" d="M143.592,134.061l1.918-2.08L135.3,122.507l10.214-9.5-1.918-2.08L131.16,122.507Z" transform="translate(-131.16 -110.93)" fill="#fe9700"/>
        </g>
      </g>
      <g id="Group_2157" data-name="Group 2157" transform="translate(315.944 4919.104)">
        <g id="Group_1757-6" data-name="Group 1757" transform="translate(1.641)">
          <path id="Path_1521-6" data-name="Path 1521" d="M101.329,234.731h161.5a26.5,26.5,0,0,0,26.459-26.459v-106.2A26.5,26.5,0,0,0,262.83,75.61H227.752a1.41,1.41,0,1,0,0,2.819H262.83a23.669,23.669,0,0,1,23.639,23.639v106.2a23.669,23.669,0,0,1-23.639,23.639h-161.5a23.669,23.669,0,0,1-23.639-23.639V168.8a1.4,1.4,0,0,0-1.41-1.41H21.63a1.41,1.41,0,0,0,0,2.819H74.87v38.059A26.5,26.5,0,0,0,101.329,234.731Z" transform="translate(-20.22 -75.61)" fill="#fe9700"/>
        </g>
        <g id="Group_1758-6" data-name="Group 1758" transform="translate(0 81.617)">
          <path id="Path_1522-6" data-name="Path 1522" d="M143.592,134.061l1.918-2.08L135.3,122.507l10.214-9.5-1.918-2.08L131.16,122.507Z" transform="translate(-131.16 -110.93)" fill="#fe9700"/>
        </g>
      </g>
      <g id="Group_2161" data-name="Group 2161" transform="translate(660.005 4645.823)">
        <g id="Group_1757-7" data-name="Group 1757">
          <path id="Path_1521-7" data-name="Path 1521" d="M210.422,236.63H46.994A26.815,26.815,0,0,1,20.22,209.855V102.384A26.815,26.815,0,0,1,46.994,75.61h35.5a1.426,1.426,0,1,1,0,2.853h-35.5a23.951,23.951,0,0,0-23.921,23.921V209.855a23.951,23.951,0,0,0,23.921,23.921H210.422a23.951,23.951,0,0,0,23.921-23.921V169.916a1.417,1.417,0,0,1,1.426-1.426h55.3a1.426,1.426,0,0,1,0,2.853H237.2v38.513A26.815,26.815,0,0,1,210.422,236.63Z" transform="translate(-20.22 -75.61)" fill="#fe9700"/>
        </g>
        <g id="Group_1758-7" data-name="Group 1758" transform="translate(259.418 82.591)">
          <path id="Path_1522-7" data-name="Path 1522" d="M133.1,134.337l-1.941-2.1,10.336-9.587-10.336-9.611,1.941-2.1,12.58,11.715Z" transform="translate(-131.16 -110.93)" fill="#fe9700"/>
        </g>
      </g>
      <g id="Group_2163" data-name="Group 2163" transform="translate(682.627 5192.823)">
        <g id="Group_1757-8" data-name="Group 1757">
          <path id="Path_1521-8" data-name="Path 1521" d="M210.422,236.63H46.994A26.815,26.815,0,0,1,20.22,209.855V102.384A26.815,26.815,0,0,1,46.994,75.61h35.5a1.426,1.426,0,1,1,0,2.853h-35.5a23.951,23.951,0,0,0-23.921,23.921V209.855a23.951,23.951,0,0,0,23.921,23.921H210.422a23.951,23.951,0,0,0,23.921-23.921V169.916a1.417,1.417,0,0,1,1.426-1.426h55.3a1.426,1.426,0,0,1,0,2.853H237.2v38.513A26.815,26.815,0,0,1,210.422,236.63Z" transform="translate(-20.22 -75.61)" fill="#fe9700"/>
        </g>
        <g id="Group_1758-8" data-name="Group 1758" transform="translate(259.418 82.591)">
          <path id="Path_1522-8" data-name="Path 1522" d="M133.1,134.337l-1.941-2.1,10.336-9.587-10.336-9.611,1.941-2.1,12.58,11.715Z" transform="translate(-131.16 -110.93)" fill="#fe9700"/>
        </g>
      </g>
      <g id="Group_2168" data-name="Group 2168" transform="translate(962.757 4645.823)">
        <g id="Group_1757-9" data-name="Group 1757">
          <path id="Path_1521-9" data-name="Path 1521" d="M210.422,236.63H46.994A26.815,26.815,0,0,1,20.22,209.855V102.384A26.815,26.815,0,0,1,46.994,75.61h35.5a1.426,1.426,0,1,1,0,2.853h-35.5a23.951,23.951,0,0,0-23.921,23.921V209.855a23.951,23.951,0,0,0,23.921,23.921H210.422a23.951,23.951,0,0,0,23.921-23.921V169.916a1.417,1.417,0,0,1,1.426-1.426h55.3a1.426,1.426,0,0,1,0,2.853H237.2v38.513A26.815,26.815,0,0,1,210.422,236.63Z" transform="translate(-20.22 -75.61)" fill="#fe9700"/>
        </g>
        <g id="Group_1758-9" data-name="Group 1758" transform="translate(259.418 82.591)">
          <path id="Path_1522-9" data-name="Path 1522" d="M133.1,134.337l-1.941-2.1,10.336-9.587-10.336-9.611,1.941-2.1,12.58,11.715Z" transform="translate(-131.16 -110.93)" fill="#fe9700"/>
        </g>
      </g>
      <g id="Group_2169" data-name="Group 2169" transform="translate(985.379 5192.823)">
        <g id="Group_1757-10" data-name="Group 1757">
          <path id="Path_1521-10" data-name="Path 1521" d="M210.422,236.63H46.994A26.815,26.815,0,0,1,20.22,209.855V102.384A26.815,26.815,0,0,1,46.994,75.61h35.5a1.426,1.426,0,1,1,0,2.853h-35.5a23.951,23.951,0,0,0-23.921,23.921V209.855a23.951,23.951,0,0,0,23.921,23.921H210.422a23.951,23.951,0,0,0,23.921-23.921V169.916a1.417,1.417,0,0,1,1.426-1.426h55.3a1.426,1.426,0,0,1,0,2.853H237.2v38.513A26.815,26.815,0,0,1,210.422,236.63Z" transform="translate(-20.22 -75.61)" fill="#fe9700"/>
        </g>
        <g id="Group_1758-10" data-name="Group 1758" transform="translate(259.418 82.591)">
          <path id="Path_1522-10" data-name="Path 1522" d="M133.1,134.337l-1.941-2.1,10.336-9.587-10.336-9.611,1.941-2.1,12.58,11.715Z" transform="translate(-131.16 -110.93)" fill="#fe9700"/>
        </g>
      </g>
      <g id="Group_2175" data-name="Group 2175" transform="translate(1265.508 4633.221)">
        <g id="Group_1757-11" data-name="Group 1757" transform="translate(0)">
          <path id="Path_1521-11" data-name="Path 1521" d="M210.422,236.63H46.994A26.815,26.815,0,0,1,20.22,209.855V102.384A26.815,26.815,0,0,1,46.994,75.61h35.5a1.426,1.426,0,1,1,0,2.853h-35.5a23.951,23.951,0,0,0-23.921,23.921V209.855a23.951,23.951,0,0,0,23.921,23.921H210.422a23.951,23.951,0,0,0,23.921-23.921V169.916a1.417,1.417,0,0,1,1.426-1.426h55.3a1.426,1.426,0,0,1,0,2.853H237.2v38.513A26.815,26.815,0,0,1,210.422,236.63Z" transform="translate(-20.22 -75.61)" fill="#fe9700"/>
        </g>
        <g id="Group_1758-11" data-name="Group 1758" transform="translate(259.418 82.591)">
          <path id="Path_1522-11" data-name="Path 1522" d="M133.1,134.337l-1.941-2.1,10.336-9.587-10.336-9.611,1.941-2.1,12.58,11.715Z" transform="translate(-131.16 -110.93)" fill="#fe9700"/>
        </g>
      </g>
      <g id="Group_2176" data-name="Group 2176" transform="translate(1288.131 5180.221)">
        <g id="Group_1757-12" data-name="Group 1757" transform="translate(0)">
          <path id="Path_1521-12" data-name="Path 1521" d="M210.422,236.63H46.994A26.815,26.815,0,0,1,20.22,209.855V102.384A26.815,26.815,0,0,1,46.994,75.61h35.5a1.426,1.426,0,1,1,0,2.853h-35.5a23.951,23.951,0,0,0-23.921,23.921V209.855a23.951,23.951,0,0,0,23.921,23.921H210.422a23.951,23.951,0,0,0,23.921-23.921V169.916a1.417,1.417,0,0,1,1.426-1.426h55.3a1.426,1.426,0,0,1,0,2.853H237.2v38.513A26.815,26.815,0,0,1,210.422,236.63Z" transform="translate(-20.22 -75.61)" fill="#fe9700"/>
        </g>
        <g id="Group_1758-12" data-name="Group 1758" transform="translate(259.418 82.591)">
          <path id="Path_1522-12" data-name="Path 1522" d="M133.1,134.337l-1.941-2.1,10.336-9.587-10.336-9.611,1.941-2.1,12.58,11.715Z" transform="translate(-131.16 -110.93)" fill="#fe9700"/>
        </g>
      </g>
      <g id="Group_2158" data-name="Group 2158" transform="translate(416.035 4622.221)">
        <ellipse id="Ellipse_118" data-name="Ellipse 118" cx="29.44" cy="29.44" rx="29.44" ry="29.44" transform="translate(1.426 1.45)" fill="#0090f8"/>
        <path id="Path_1523" data-name="Path 1523" d="M73.04,125.65a30.89,30.89,0,1,1,30.89-30.89A30.922,30.922,0,0,1,73.04,125.65Zm0-58.9A28.014,28.014,0,1,0,101.053,94.76,28.048,28.048,0,0,0,73.04,66.746Z" transform="translate(-42.15 -63.87)" fill="#fff"/>
      </g>
      <g id="Group_2164" data-name="Group 2164" transform="translate(440.61 5165.371)">
        <ellipse id="Ellipse_118-2" data-name="Ellipse 118" cx="29.44" cy="29.44" rx="29.44" ry="29.44" transform="translate(1.426 1.45)" fill="#0090f8"/>
        <path id="Path_1523-2" data-name="Path 1523" d="M73.04,125.65a30.89,30.89,0,1,1,30.89-30.89A30.922,30.922,0,0,1,73.04,125.65Zm0-58.9A28.014,28.014,0,1,0,101.053,94.76,28.048,28.048,0,0,0,73.04,66.746Z" transform="translate(-42.15 -63.87)" fill="#fff"/>
      </g>
      <g id="Group_2177" data-name="Group 2177" transform="translate(1378.489 4875.784)">
        <ellipse id="Ellipse_118-3" data-name="Ellipse 118" cx="29.44" cy="29.44" rx="29.44" ry="29.44" transform="translate(1.426 1.45)" fill="#0090f8"/>
        <path id="Path_1523-3" data-name="Path 1523" d="M73.04,125.65a30.89,30.89,0,1,1,30.89-30.89A30.922,30.922,0,0,1,73.04,125.65Zm0-58.9A28.014,28.014,0,1,0,101.053,94.76,28.048,28.048,0,0,0,73.04,66.746Z" transform="translate(-42.15 -63.87)" fill="#fff"/>
      </g>
      <g id="Group_2170" data-name="Group 2170" transform="translate(1090.189 4888.214)">
        <ellipse id="Ellipse_118-4" data-name="Ellipse 118" cx="29.44" cy="29.44" rx="29.44" ry="29.44" transform="translate(1.426 1.45)" fill="#0090f8"/>
        <path id="Path_1523-4" data-name="Path 1523" d="M73.04,125.65a30.89,30.89,0,1,1,30.89-30.89A30.922,30.922,0,0,1,73.04,125.65Zm0-58.9A28.014,28.014,0,1,0,101.053,94.76,28.048,28.048,0,0,0,73.04,66.746Z" transform="translate(-42.15 -63.87)" fill="#fff"/>
      </g>
      <g id="Group_2171" data-name="Group 2171" transform="translate(778.189 4888.214)">
        <ellipse id="Ellipse_118-5" data-name="Ellipse 118" cx="29.44" cy="29.44" rx="29.44" ry="29.44" transform="translate(1.426 1.45)" fill="#fe9700"/>
        <path id="Path_1523-5" data-name="Path 1523" d="M73.04,125.65a30.89,30.89,0,1,1,30.89-30.89A30.922,30.922,0,0,1,73.04,125.65Zm0-58.9A28.014,28.014,0,1,0,101.053,94.76,28.048,28.048,0,0,0,73.04,66.746Z" transform="translate(-42.15 -63.87)" fill="#fe9700"/>
      </g>
      <g id="Group_2159" data-name="Group 2159" transform="translate(482.189 4888.214)">
        <ellipse id="Ellipse_118-6" data-name="Ellipse 118" cx="29.44" cy="29.44" rx="29.44" ry="29.44" transform="translate(1.426 1.45)" fill="#fe9700"/>
        <path id="Path_1523-6" data-name="Path 1523" d="M73.04,125.65a30.89,30.89,0,1,1,30.89-30.89A30.922,30.922,0,0,1,73.04,125.65Zm0-58.9A28.014,28.014,0,1,0,101.053,94.76,28.048,28.048,0,0,0,73.04,66.746Z" transform="translate(-42.15 -63.87)" fill="#fe9700"/>
      </g>
      <g id="Group_2162" data-name="Group 2162" transform="translate(711.285 4618.371)">
        <ellipse id="Ellipse_118-7" data-name="Ellipse 118" cx="29.44" cy="29.44" rx="29.44" ry="29.44" transform="translate(1.426 1.45)" fill="#fe9700"/>
        <path id="Path_1523-7" data-name="Path 1523" d="M73.04,125.65a30.89,30.89,0,1,1,30.89-30.89A30.922,30.922,0,0,1,73.04,125.65Zm0-58.9A28.014,28.014,0,1,0,101.053,94.76,28.048,28.048,0,0,0,73.04,66.746Z" transform="translate(-42.15 -63.87)" fill="#fe9700"/>
      </g>
      <g id="Group_2165" data-name="Group 2165" transform="translate(733.907 5165.371)">
        <ellipse id="Ellipse_118-8" data-name="Ellipse 118" cx="29.44" cy="29.44" rx="29.44" ry="29.44" transform="translate(1.426 1.45)" fill="#fe9700"/>
        <path id="Path_1523-8" data-name="Path 1523" d="M73.04,125.65a30.89,30.89,0,1,1,30.89-30.89A30.922,30.922,0,0,1,73.04,125.65Zm0-58.9A28.014,28.014,0,1,0,101.053,94.76,28.048,28.048,0,0,0,73.04,66.746Z" transform="translate(-42.15 -63.87)" fill="#fe9700"/>
      </g>
      <g id="Group_2172" data-name="Group 2172" transform="translate(1014.037 4618.371)">
        <ellipse id="Ellipse_118-9" data-name="Ellipse 118" cx="29.44" cy="29.44" rx="29.44" ry="29.44" transform="translate(1.427 1.45)" fill="#fe9700"/>
        <path id="Path_1523-9" data-name="Path 1523" d="M73.04,125.65a30.89,30.89,0,1,1,30.89-30.89A30.922,30.922,0,0,1,73.04,125.65Zm0-58.9A28.014,28.014,0,1,0,101.053,94.76,28.048,28.048,0,0,0,73.04,66.746Z" transform="translate(-42.15 -63.87)" fill="#fe9700"/>
      </g>
      <g id="Group_2173" data-name="Group 2173" transform="translate(1036.659 5165.371)">
        <ellipse id="Ellipse_118-10" data-name="Ellipse 118" cx="29.44" cy="29.44" rx="29.44" ry="29.44" transform="translate(1.427 1.45)" fill="#fe9700"/>
        <path id="Path_1523-10" data-name="Path 1523" d="M73.04,125.65a30.89,30.89,0,1,1,30.89-30.89A30.922,30.922,0,0,1,73.04,125.65Zm0-58.9A28.014,28.014,0,1,0,101.053,94.76,28.048,28.048,0,0,0,73.04,66.746Z" transform="translate(-42.15 -63.87)" fill="#fe9700"/>
      </g>
      <g id="Group_2178" data-name="Group 2178" transform="translate(1326.709 4602.331)">
        <ellipse id="Ellipse_118-11" data-name="Ellipse 118" cx="29.44" cy="29.44" rx="29.44" ry="29.44" transform="translate(1.427 1.45)" fill="#fe9700"/>
        <path id="Path_1523-11" data-name="Path 1523" d="M73.04,125.65a30.89,30.89,0,1,1,30.89-30.89A30.922,30.922,0,0,1,73.04,125.65Zm0-58.9A28.014,28.014,0,1,0,101.053,94.76,28.048,28.048,0,0,0,73.04,66.746Z" transform="translate(-42.15 -63.87)" fill="#fe9700"/>
      </g>
      <g id="Group_2179" data-name="Group 2179" transform="translate(1347.599 5161.934)">
        <ellipse id="Ellipse_118-12" data-name="Ellipse 118" cx="29.44" cy="29.44" rx="29.44" ry="29.44" transform="translate(1.427 1.45)" fill="#fe9700"/>
        <path id="Path_1523-12" data-name="Path 1523" d="M73.04,125.65a30.89,30.89,0,1,1,30.89-30.89A30.922,30.922,0,0,1,73.04,125.65Zm0-58.9A28.014,28.014,0,1,0,101.053,94.76,28.048,28.048,0,0,0,73.04,66.746Z" transform="translate(-42.15 -63.87)" fill="#fe9700"/>
      </g>
      <rect id="Rectangle_1008" data-name="Rectangle 1008" width="103" height="80" transform="translate(1468 4661)" fill="#fff"/>
      <rect id="Rectangle_1009" data-name="Rectangle 1009" width="103" height="80" transform="translate(1490.623 5208)" fill="#fff"/>
      <text id="_01" data-name="01" transform="translate(433 4657)" fill="#f7f7f7" font-size="21" font-family="OpenSans-Semibold, Open Sans" font-weight="600"><tspan x="0" y="0">01</tspan></text>
      <text id="_02" data-name="02" transform="translate(730 4657)" fill="#f7f7f7" font-size="21" font-family="OpenSans-Semibold, Open Sans" font-weight="600"><tspan x="0" y="0">02</tspan></text>
      <text id="_03" data-name="03" transform="translate(1033 4655)" fill="#f7f7f7" font-size="21" font-family="OpenSans-Semibold, Open Sans" font-weight="600"><tspan x="0" y="0">03</tspan></text>
      <text id="_04-2" data-name="04" transform="translate(1348 4643)" fill="#f7f7f7" font-size="21" font-family="OpenSans-Semibold, Open Sans" font-weight="600"><tspan x="0" y="0">04</tspan></text>
      <text id="_05" data-name="05" transform="translate(1409 4926)" fill="#f7f7f7" font-size="21" font-family="OpenSans-Semibold, Open Sans" font-weight="600"><tspan x="-11" y="0">05</tspan></text>
      <text id="_06" data-name="06" transform="translate(1121 4926)" fill="#f7f7f7" font-size="21" font-family="OpenSans-Semibold, Open Sans" font-weight="600"><tspan x="-11" y="0">06</tspan></text>
      <text id="_07" data-name="07" transform="translate(812 4926)" fill="#f7f7f7" font-size="21" font-family="OpenSans-Semibold, Open Sans" font-weight="600"><tspan x="-11" y="0">07</tspan></text>
      <text id="_08" data-name="08" transform="translate(513 4926)" fill="#f7f7f7" font-size="21" font-family="OpenSans-Semibold, Open Sans" font-weight="600"><tspan x="-11" y="0">08</tspan></text>
      <text id="_09" data-name="09" transform="translate(459 5203)" fill="#f7f7f7" font-size="21" font-family="OpenSans-Semibold, Open Sans" font-weight="600"><tspan x="0" y="0">09</tspan></text>
      <text id="_10" data-name="10" transform="translate(749 5203)" fill="#f7f7f7" font-size="21" font-family="OpenSans-Semibold, Open Sans" font-weight="600"><tspan x="0" y="0">10</tspan></text>
      <text id="_11" data-name="11" transform="translate(1055 5203)" fill="#f7f7f7" font-size="21" font-family="OpenSans-Semibold, Open Sans" font-weight="600"><tspan x="0" y="0">11</tspan></text>
      <text id="_12" data-name="12" transform="translate(1366 5203)" fill="#f7f7f7" font-size="21" font-family="OpenSans-Semibold, Open Sans" font-weight="600"><tspan x="0" y="0">12</tspan></text>
      <line id="Line_45" data-name="Line 45" y2="49" transform="translate(1417.5 4806.5)" fill="none" stroke="#fe9700" stroke-width="2"/>
      <line id="Line_44" data-name="Line 44" y2="49" transform="translate(472.547 5100.331)" fill="none" stroke="#fe9700" stroke-width="2"/>
      <path id="Icon_ionic-ios-arrow-down" data-name="Icon ionic-ios-arrow-down" d="M14.458,17.851l6.252-6.257a1.177,1.177,0,0,1,1.669,0,1.192,1.192,0,0,1,0,1.674L15.3,20.357a1.179,1.179,0,0,1-1.63.034L6.532,13.272A1.182,1.182,0,0,1,8.2,11.6Z" transform="translate(458.092 5130.357)" fill="#fe9700"/>
      <path id="Icon_ionic-ios-arrow-down-2" data-name="Icon ionic-ios-arrow-down" d="M14.458,17.851l6.252-6.257a1.177,1.177,0,0,1,1.669,0,1.192,1.192,0,0,1,0,1.674L15.3,20.357a1.179,1.179,0,0,1-1.63.034L6.532,13.272A1.182,1.182,0,0,1,8.2,11.6Z" transform="translate(1402.545 4834.799)" fill="#fe9700"/>
      <text id="Send_input_data_before_agreed_cut_off_date_" data-name="Send input data before agreed cut off date " transform="translate(416 4704)" fill="#1c2120" font-size="15" font-family="OpenSans-Semibold, Open Sans" font-weight="600" opacity="0.571"><tspan x="0" y="16">Send input data </tspan><tspan x="0" y="36">before agreed cut </tspan><tspan x="0" y="56">off date </tspan></text>
      <text id="Final_conformation_and_approval_from_Client_" data-name="Final conformation and approval from Client " transform="translate(433 5253)" fill="#1c2120" font-size="15" font-family="OpenSans-Semibold, Open Sans" font-weight="600" opacity="0.571"><tspan x="0" y="16">Final </tspan><tspan x="0" y="36">conformation and </tspan><tspan x="0" y="56">approval from </tspan><tspan x="0" y="76">Client </tspan></text>
      <text id="Run_finalise_and_submit_final_payroll" data-name="Run, finalise and submit final payroll" transform="translate(741 5253)" fill="#1c2120" font-size="15" font-family="OpenSans-Semibold, Open Sans" font-weight="600" opacity="0.571"><tspan x="0" y="16">Run, finalise and </tspan><tspan x="0" y="36">submit final </tspan><tspan x="0" y="56">payroll</tspan></text>
      <text id="Issue_Payslips_in_the_ESS_portal_" data-name="Issue Payslips in the ESS portal " transform="translate(1037 5248)" fill="#1c2120" font-size="15" font-family="OpenSans-Semibold, Open Sans" font-weight="600" opacity="0.571"><tspan x="0" y="16">Issue Payslips in </tspan><tspan x="0" y="36">the ESS portal </tspan></text>
      <text id="Submit_agreed_report_compliance_forms" data-name="Submit agreed report &amp; compliance forms" transform="translate(1334 5242)" fill="#1c2120" font-size="15" font-family="OpenSans-Semibold, Open Sans" font-weight="600" opacity="0.571"><tspan x="0" y="16">Submit agreed </tspan><tspan x="0" y="36">report &amp; </tspan><tspan x="0" y="56">compliance forms</tspan></text>
      <text id="Clarification_amendments_on_input_data_" data-name="Clarification amendments on input data  " transform="translate(711 4699)" fill="#1c2120" font-size="15" font-family="OpenSans-Semibold, Open Sans" font-weight="600" opacity="0.571"><tspan x="0" y="16">Clarification </tspan><tspan x="0" y="36">amendments on </tspan><tspan x="0" y="56" xml:space="preserve">input data  </tspan></text>
      <text id="Process_payroll_" data-name="Process payroll " transform="translate(1016 4701)" fill="#1c2120" font-size="15" font-family="OpenSans-Semibold, Open Sans" font-weight="600" opacity="0.571"><tspan x="0" y="16">Process payroll </tspan></text>
      <text id="Payroll_review_by_the_IT_brother_s_Team_Lead_" data-name="Payroll review by the IT brother’s Team Lead " transform="translate(1320 4691)" fill="#1c2120" font-size="15" font-family="OpenSans-Semibold, Open Sans" font-weight="600" opacity="0.571"><tspan x="0" y="16">Payroll review by </tspan><tspan x="0" y="36">the IT brother’s </tspan><tspan x="0" y="56">Team Lead </tspan></text>
      <text id="Client_s_review_of_1st_set_of_output_data_" data-name="Client’s review  of 1st set of output data  " transform="translate(1305 4968)" fill="#1c2120" font-size="15" font-family="OpenSans-Semibold, Open Sans" font-weight="600" opacity="0.571"><tspan x="11" y="16" xml:space="preserve">Client’s review  of </tspan><tspan x="17" y="36">1st set of output </tspan><tspan x="104" y="56" xml:space="preserve">data  </tspan></text>
      <text id="Send_input_of_amendments_If_any_required_" data-name="Send input of amendments, If any required  " transform="translate(1003 4968)" fill="#1c2120" font-size="15" font-family="OpenSans-Semibold, Open Sans" font-weight="600" opacity="0.571"><tspan x="40" y="16">Send input of </tspan><tspan x="22" y="36">amendments, If </tspan><tspan x="44" y="56" xml:space="preserve">any required  </tspan></text>
      <text id="Re-run_of_payroll" data-name="Re-run of payroll" transform="translate(715 4984)" fill="#1c2120" font-size="15" font-family="OpenSans-Semibold, Open Sans" font-weight="600" opacity="0.571"><tspan x="16" y="16">Re-run of payroll</tspan></text>
      <text id="Provide_final_output_to_the_client_for_approval_" data-name="Provide  final output to the client for approval " transform="translate(403 4968)" fill="#1c2120" font-size="15" font-family="OpenSans-Semibold, Open Sans" font-weight="600" opacity="0.571"><tspan x="42" y="16" xml:space="preserve">Provide  final </tspan><tspan x="40" y="36">output to the </tspan><tspan x="4" y="56">client for approval </tspan></text>
    </g>
    <rect id="Rectangle_1011" data-name="Rectangle 1011" width="70" height="10" transform="translate(1535 4568)" fill="#0090f8"/>
    <text id="PRANIL_PAYROLL" data-name="PRANIL PAYROLL" transform="translate(1625 4557)" fill="#1c2120" font-size="22" font-family="OpenSans-Semibold, Open Sans" font-weight="600"><tspan x="0" y="24">PRANIL PAYROLL</tspan></text>
  </g>
</svg>
