<svg xmlns="http://www.w3.org/2000/svg" xmlns:xlink="http://www.w3.org/1999/xlink" width="1698.245" height="339.95" viewBox="0 0 1698.245 339.95">
  <defs>
    <radialGradient id="radial-gradient" cx="0.5" cy="0.5" r="0.5" gradientUnits="objectBoundingBox">
      <stop offset="0.109"/>
      <stop offset="0.117" stop-color="#040404"/>
      <stop offset="0.264" stop-color="#454545"/>
      <stop offset="0.409" stop-color="#7e7e7e"/>
      <stop offset="0.548" stop-color="#acacac"/>
      <stop offset="0.679" stop-color="#d0d0d0"/>
      <stop offset="0.802" stop-color="#eaeaea"/>
      <stop offset="0.912" stop-color="#fafafa"/>
      <stop offset="1" stop-color="#fff"/>
    </radialGradient>
    <radialGradient id="radial-gradient-2" cx="0.5" cy="0.5" r="0.5" xlink:href="#radial-gradient"/>
  </defs>
  <g id="Group_4235" data-name="Group 4235" transform="translate(-185.755 -3004.05)">
    <text id="Process_Salaries" data-name="Process Salaries" transform="translate(219 3255)" fill="#21a371" font-size="22" font-family="OpenSans-Semibold, Open Sans" font-weight="600"><tspan x="0" y="24">Process Salaries</tspan></text>
    <text id="File_Tax_Returns" data-name="File Tax Returns" transform="translate(554 3255)" fill="#4ab500" font-size="22" font-family="OpenSans-Semibold, Open Sans" font-weight="600"><tspan x="0" y="24">File Tax Returns</tspan></text>
    <text id="Pay_Slip_Distribution" data-name="Pay Slip Distribution" transform="translate(871 3255)" fill="#0090f8" font-size="22" font-family="OpenSans-Semibold, Open Sans" font-weight="600"><tspan x="0" y="24">Pay Slip Distribution</tspan></text>
    <text id="Calculate_process_employee_s_salaries_" data-name="Calculate / process employee’s salaries " transform="translate(243 3121)" fill="#1c2120" font-size="15" font-family="OpenSans-Semibold, Open Sans" font-weight="600" opacity="0.571"><tspan x="0" y="16">Calculate / process </tspan><tspan x="0" y="36">employee’s </tspan><tspan x="0" y="56">salaries </tspan></text>
    <text id="Preparation_of_statutory_reports_filling_of_returns_" data-name="Preparation of statutory reports &amp; filling of returns " transform="translate(580 3115)" fill="#1c2120" font-size="15" font-family="OpenSans-Semibold, Open Sans" font-weight="600" opacity="0.571"><tspan x="0" y="16">Preparation of statutory </tspan><tspan x="0" y="36">reports &amp; filling of </tspan><tspan x="0" y="56">returns </tspan></text>
    <text id="Distribution_of_pay_slips_to_the_employees" data-name="Distribution of pay slips to the employees" transform="translate(918 3117)" fill="#1c2120" font-size="15" font-family="OpenSans-Semibold, Open Sans" font-weight="600" opacity="0.571"><tspan x="0" y="16">Distribution of pay slips </tspan><tspan x="0" y="36">to the employees</tspan></text>
    <text id="Prepration_of_MIS_reports_For_decision_making" data-name="Prepration of MIS reports 
For decision making" transform="translate(1250 3112)" fill="#1c2120" font-size="15" font-family="OpenSans-Semibold, Open Sans" font-weight="600" opacity="0.571"><tspan x="0" y="16">Prepration of MIS reports </tspan><tspan x="0" y="36">For decision making</tspan></text>
    <text id="Answering_queries_" data-name="Answering queries " transform="translate(1586 3126)" fill="#1c2120" font-size="15" font-family="OpenSans-Semibold, Open Sans" font-weight="600" opacity="0.571"><tspan x="0" y="16">Answering queries </tspan></text>
    <text id="Prepare_MIS_Report" data-name="Prepare MIS Report" transform="translate(1213 3255)" fill="#f50021" font-size="22" font-family="OpenSans-Semibold, Open Sans" font-weight="600"><tspan x="0" y="24">Prepare MIS Report</tspan></text>
    <text id="Answer_Client_Queries." data-name="Answer Client Queries." transform="translate(1545 3264)" fill="#2a4687" font-size="22" font-family="OpenSans-Semibold, Open Sans" font-weight="600"><tspan x="0" y="24">Answer Client Queries.</tspan></text>
    <circle id="Ellipse_117" data-name="Ellipse 117" cx="50.594" cy="50.594" r="50.594" transform="translate(234.733 3014.074)" opacity="0.5" fill="url(#radial-gradient)"/>
    <circle id="Ellipse_118" data-name="Ellipse 118" cx="35.685" cy="35.685" r="35.685" transform="translate(249.642 3011.069)" fill="#21a371"/>
    <path id="Path_1523" data-name="Path 1523" d="M79.592,138.755a37.442,37.442,0,1,1,37.442-37.442A37.481,37.481,0,0,1,79.592,138.755Zm0-71.4a33.956,33.956,0,1,0,33.956,33.956A34,34,0,0,0,79.592,67.356Z" transform="translate(205.763 2945.442)" fill="#fff"/>
    <circle id="Ellipse_119" data-name="Ellipse 119" cx="50.594" cy="50.594" r="50.594" transform="translate(569.901 3014.074)" opacity="0.5" fill="url(#radial-gradient-2)"/>
    <circle id="Ellipse_205" data-name="Ellipse 205" cx="50.594" cy="50.594" r="50.594" transform="translate(897.901 3008.812)" opacity="0.5" fill="url(#radial-gradient-2)"/>
    <circle id="Ellipse_206" data-name="Ellipse 206" cx="50.594" cy="50.594" r="50.594" transform="translate(1572.348 3018.835)" opacity="0.5" fill="url(#radial-gradient-2)"/>
    <g id="Group_1768" data-name="Group 1768" transform="translate(583.053 3009.312)">
      <circle id="Ellipse_120" data-name="Ellipse 120" cx="35.685" cy="35.685" r="35.685" transform="translate(1.757 1.757)" fill="#4ab500"/>
      <path id="Path_1647" data-name="Path 1647" d="M197.832,138.755a37.442,37.442,0,1,1,37.442-37.442A37.481,37.481,0,0,1,197.832,138.755Zm0-71.4a33.956,33.956,0,1,0,33.956,33.956A34,34,0,0,0,197.832,67.356Z" transform="translate(-160.39 -63.87)" fill="#fff"/>
    </g>
    <circle id="Ellipse_120-2" data-name="Ellipse 120" cx="35.685" cy="35.685" r="35.685" transform="translate(912.81 3005.808)" fill="#1599f8"/>
    <path id="Path_1647-2" data-name="Path 1647" d="M197.832,138.755a37.442,37.442,0,1,1,37.442-37.442A37.481,37.481,0,0,1,197.832,138.755Zm0-71.4a33.956,33.956,0,1,0,33.956,33.956A34,34,0,0,0,197.832,67.356Z" transform="translate(750.663 2940.18)" fill="#fff"/>
    <g id="Group_4217" data-name="Group 4217" transform="translate(1585.5 3014.074)">
      <path id="Path_13503" data-name="Path 13503" d="M35.685,0A35.685,35.685,0,1,1,0,35.685,35.685,35.685,0,0,1,35.685,0Z" transform="translate(1.757 1.757)" fill="#2a4687"/>
      <path id="Path_1647-3" data-name="Path 1647" d="M197.832,138.755a37.442,37.442,0,1,1,37.442-37.442A37.481,37.481,0,0,1,197.832,138.755Zm0-71.4a33.956,33.956,0,1,0,33.956,33.956A34,34,0,0,0,197.832,67.356Z" transform="translate(-160.39 -63.87)" fill="#fff"/>
    </g>
    <g id="Group_1777" data-name="Group 1777" transform="translate(1191.202 3042.588)">
      <path id="Path_1885" data-name="Path 1885" d="M605.5,270.787H407.4a32.5,32.5,0,0,1-32.454-32.454V108.064A32.5,32.5,0,0,1,407.4,75.61h43a1.729,1.729,0,0,1,0,3.458h-43a29.032,29.032,0,0,0-29,29V238.333a29.032,29.032,0,0,0,29,29H605.5a29.032,29.032,0,0,0,29-29V189.921a1.729,1.729,0,1,1,3.458,0v48.412A32.5,32.5,0,0,1,605.5,270.787Z" transform="translate(-374.95 -75.61)" fill="#f50021"/>
    </g>
    <g id="Group_4228" data-name="Group 4228" transform="translate(856.062 3042.588)">
      <path id="Path_1885-2" data-name="Path 1885" d="M605.5,270.787H407.4a32.5,32.5,0,0,1-32.454-32.454V108.064A32.5,32.5,0,0,1,407.4,75.61h43a1.729,1.729,0,0,1,0,3.458h-43a29.032,29.032,0,0,0-29,29V238.333a29.032,29.032,0,0,0,29,29H605.5a29.032,29.032,0,0,0,29-29V189.921a1.729,1.729,0,1,1,3.458,0v48.412A32.5,32.5,0,0,1,605.5,270.787Z" transform="translate(-374.95 -75.61)" fill="#1599f8"/>
    </g>
    <g id="Group_4229" data-name="Group 4229" transform="translate(520.895 3042.588)">
      <path id="Path_1885-3" data-name="Path 1885" d="M605.5,270.787H407.4a32.5,32.5,0,0,1-32.454-32.454V108.064A32.5,32.5,0,0,1,407.4,75.61h43a1.729,1.729,0,0,1,0,3.458h-43a29.032,29.032,0,0,0-29,29V238.333a29.032,29.032,0,0,0,29,29H605.5a29.032,29.032,0,0,0,29-29V189.921a1.729,1.729,0,1,1,3.458,0v48.412A32.5,32.5,0,0,1,605.5,270.787Z" transform="translate(-374.95 -75.61)" fill="#4ab500"/>
    </g>
    <g id="Group_4230" data-name="Group 4230" transform="translate(185.755 3042.588)">
      <path id="Path_1885-4" data-name="Path 1885" d="M605.5,270.787H407.4a32.5,32.5,0,0,1-32.454-32.454V108.064A32.5,32.5,0,0,1,407.4,75.61h43a1.729,1.729,0,0,1,0,3.458h-43a29.032,29.032,0,0,0-29,29V238.333a29.032,29.032,0,0,0,29,29H605.5a29.032,29.032,0,0,0,29-29V189.921a1.729,1.729,0,1,1,3.458,0v48.412A32.5,32.5,0,0,1,605.5,270.787Z" transform="translate(-374.95 -75.61)" fill="#21a371"/>
    </g>
    <g id="Group_4227" data-name="Group 4227">
      <g id="Group_1780" data-name="Group 1780" transform="translate(1525 3045.912)">
        <path id="Path_1885-5" data-name="Path 1885" d="M605.5,270.787H407.4a32.5,32.5,0,0,1-32.454-32.454V108.064A32.5,32.5,0,0,1,407.4,75.61h43a1.729,1.729,0,0,1,0,3.458h-43a29.032,29.032,0,0,0-29,29V238.333a29.032,29.032,0,0,0,29,29H605.5a29.032,29.032,0,0,0,29-29V189.921a1.729,1.729,0,1,1,3.458,0v48.412A32.5,32.5,0,0,1,605.5,270.787Z" transform="translate(-374.95 -75.61)" fill="#2a4687"/>
      </g>
    </g>
    <circle id="Ellipse_123" data-name="Ellipse 123" cx="50.594" cy="50.594" r="50.594" transform="translate(1240.18 3014.074)" opacity="0.5" fill="url(#radial-gradient)"/>
    <g id="Group_1778" data-name="Group 1778" transform="translate(1253.332 3009.312)">
      <circle id="Ellipse_124" data-name="Ellipse 124" cx="35.685" cy="35.685" r="35.685" transform="translate(1.757 1.757)" fill="#f50021"/>
      <path id="Path_1886" data-name="Path 1886" d="M434.312,138.755a37.442,37.442,0,1,1,37.442-37.442A37.481,37.481,0,0,1,434.312,138.755Zm0-71.4a33.956,33.956,0,1,0,33.956,33.956A34,34,0,0,0,434.312,67.356Z" transform="translate(-396.87 -63.87)" fill="#fff"/>
    </g>
    <path id="Path_2004" data-name="Path 2004" d="M194.992,76.578v0Z" transform="translate(777.409 2963.275)" fill="#fff"/>
    <path id="Icon_awesome-users" data-name="Icon awesome-users" d="M3.912,10.074A2.608,2.608,0,1,0,1.3,7.466,2.61,2.61,0,0,0,3.912,10.074Zm18.256,0A2.608,2.608,0,1,0,19.56,7.466,2.61,2.61,0,0,0,22.168,10.074Zm1.3,1.3H20.864a2.6,2.6,0,0,0-1.838.758,5.961,5.961,0,0,1,3.06,4.458h2.69a1.3,1.3,0,0,0,1.3-1.3v-1.3A2.61,2.61,0,0,0,23.472,11.378Zm-10.432,0A4.564,4.564,0,1,0,8.476,6.814,4.562,4.562,0,0,0,13.04,11.378Zm3.13,1.3h-.338a6.3,6.3,0,0,1-5.583,0H9.91a4.7,4.7,0,0,0-4.694,4.694V18.55a1.957,1.957,0,0,0,1.956,1.956H18.908a1.957,1.957,0,0,0,1.956-1.956V17.376A4.7,4.7,0,0,0,16.17,12.682Zm-9.116-.546a2.6,2.6,0,0,0-1.838-.758H2.608A2.61,2.61,0,0,0,0,13.986v1.3a1.3,1.3,0,0,0,1.3,1.3H3.989A5.976,5.976,0,0,1,7.054,12.136Z" transform="translate(1609.902 3036.75)" fill="#fbfbfb"/>
    <g id="Collect_payroll_inputs" data-name="Collect payroll inputs" transform="translate(-195.168 2834.25)">
      <path id="Path_13489" data-name="Path 13489" d="M491.327,212.023c.081.2.158.4.229.605a12.454,12.454,0,0,1,.6,3.417c.045.723.2,1.441.32,2.16.172,1.053.352,2.106.527,3.159.008.05.007.1.012.175H477.112c0,.153,0,.284,0,.416a2.028,2.028,0,0,1-2.033,2.04q-2.438.013-4.876,0a2.018,2.018,0,0,1-2.029-2.043q-.007-6.553,0-13.105a4.458,4.458,0,0,1,3.85-4.348c.065-.009.13-.025.209-.041,0-.29,0-.569,0-.848a1.232,1.232,0,0,1,.369-.917q1.776-1.783,3.556-3.563a1.264,1.264,0,0,1,.937-.379q6.273,0,12.547,0a1.217,1.217,0,0,1,1.286,1.3q0,2.506,0,5.013v.3a1.849,1.849,0,0,1,1.887,3.066c-.639.656-1.291,1.3-1.938,1.944a1.943,1.943,0,0,1-.18.149c.214.518.432,1.01.628,1.5m-18.272-7.558c.139.022.264.037.388.061a4.473,4.473,0,0,1,3.67,4.483q0,5.712,0,11.425v.285h9.739v-.8h-8.906V209.337h.3c1.777,0,3.556,0,5.333,0a.544.544,0,0,0,.425-.162,1.968,1.968,0,0,1,1.229-.605c.682-.047,1.369-.029,2.053-.057a.606.606,0,0,0,.371-.15c.774-.759,1.534-1.533,2.306-2.3a.507.507,0,0,0,.159-.4q-.007-2.761,0-5.522c0-.466-.119-.584-.585-.584h-12.42c0,.951,0,1.866,0,2.781a1.222,1.222,0,0,1-1.293,1.29c-.829,0-1.659,0-2.489,0h-.275C473.055,203.925,473.055,204.178,473.055,204.464Zm-.409.8a3.664,3.664,0,1,0,3.653,3.681A3.667,3.667,0,0,0,472.646,205.265Zm3.654,6.28c-.242.258-.459.472-.654.705a.6.6,0,0,0-.151.341c-.013.78-.006,1.56-.007,2.341a.825.825,0,0,1-.905.92q-1.942,0-3.885,0a.82.82,0,0,1-.9-.9c0-.789,0-1.577,0-2.366,0-.081,0-.193-.048-.236-.265-.241-.546-.465-.82-.694l.057-.071v.149q0,5.088,0,10.177a1.217,1.217,0,0,0,1.285,1.271q2.311,0,4.621,0a1.246,1.246,0,0,0,1.408-1.4v-9.947C476.3,211.748,476.3,211.665,476.3,211.546Zm15.027,4.4a10.834,10.834,0,0,0-1.263-4.764c-.8.8-1.552,1.581-2.334,2.332a1.094,1.094,0,0,0-.463,1.041c0,.019-.019.043-.026.058h-.781v-.288c0-.84,0-1.68,0-2.519a.77.77,0,0,0-.8-.818c0,1.3-.02,2.594.01,3.89a1.8,1.8,0,0,0,.694,1.34c.291.246.59.483.892.715a.3.3,0,0,0,.223.067C488.747,216.661,490.018,216.31,491.327,215.95Zm-4.05-3.114c.324-.328.6-.606.871-.882q2.019-2.024,4.039-4.045a1.044,1.044,0,0,0,.343-1.009,1.031,1.031,0,0,0-1.765-.488q-1.983,1.986-3.966,3.974c-.041.041-.076.088-.128.148C487.435,211.127,487.25,211.976,487.277,212.837Zm4.8,7.892c-.221-1.332-.438-2.631-.658-3.957l-3.722,1.017v2.939Zm-13.324-8.96h4.45c.025-.542.05-1.071.074-1.6h-4.523C478.75,210.7,478.75,211.222,478.75,211.769Zm-4.09,1.16a4.491,4.491,0,0,1-4.037,0v2.093h4.037Zm8.771-.317h-4.675v1.612c1,0,1.978,0,2.957,0a.279.279,0,0,0,.176-.072C482.4,213.65,482.9,213.147,483.431,212.612Zm1.4-.128a2.3,2.3,0,0,0-.347.227c-.633.625-1.258,1.256-1.887,1.885-.143.143-.288.28-.408.4l1.463,1.467c.375-.376.77-.769,1.158-1.168a.269.269,0,0,0,.06-.178c-.008-.355-.033-.71-.037-1.065C484.829,213.55,484.834,213.052,484.834,212.484Zm-6.084,6.608H482.8v-1.248c-.326.129-.607.243-.89.352a1.074,1.074,0,0,1-1.46-.573c-.029-.057-.1-.132-.147-.133-.514-.01-1.028-.006-1.555-.006Zm6.475-3.023c-.076.059-.111.082-.14.11q-.714.66-1.426,1.322a.137.137,0,0,0-.041.086c0,.5,0,1.009,0,1.511h1.609C485.226,218.1,485.226,217.11,485.226,216.068Zm-11.56-13.246c.731,0,1.431,0,2.13,0,.361,0,.5-.145.5-.511q0-.965,0-1.929a1.64,1.64,0,0,0-.018-.175Zm7.472,12.233h-2.38v1.612c.55,0,1.082,0,1.614,0a.218.218,0,0,0,.163-.109C480.738,216.064,480.932,215.57,481.137,215.055Zm5.558-5.7a8.491,8.491,0,0,0-1.295.011,1.686,1.686,0,0,0-1.368,2.082.365.365,0,0,0,.394.326.38.38,0,0,0,.4-.352,2.887,2.887,0,0,0,.008-.406.824.824,0,0,1,.879-.868.4.4,0,0,0,.245-.081C486.2,209.854,486.422,209.624,486.7,209.356Zm-4.985,6.459c-.172.432-.359.873-.52,1.325a.261.261,0,0,0,.325.326c.451-.16.892-.347,1.324-.519Zm4.355,1.221v2.059h.8c0-.446,0-.876,0-1.306a.253.253,0,0,0-.078-.171C486.561,217.427,486.329,217.247,486.066,217.035Z" transform="translate(0 0)" fill="#fbfbfb"/>
      <path id="Path_13490" data-name="Path 13490" d="M623.476,223.02v2.411H612.12V223.02Zm-.814.813h-9.721v.785h9.721Z" transform="translate(-134.183 -22.623)" fill="#fbfbfb"/>
      <path id="Path_13491" data-name="Path 13491" d="M623.578,271.793H612.24V271h11.338Z" transform="translate(-134.294 -67.347)" fill="#fbfbfb"/>
      <path id="Path_13492" data-name="Path 13492" d="M623.476,295.01v.783H612.12v-.783Z" transform="translate(-134.183 -89.727)" fill="#fbfbfb"/>
      <path id="Path_13493" data-name="Path 13493" d="M618.71,319.01v.783h-6.47v-.783Z" transform="translate(-134.294 -112.098)" fill="#fbfbfb"/>
      <path id="Path_13494" data-name="Path 13494" d="M517.7,312.728h-.813c0-.237.008-.464,0-.69,0-.071-.039-.18-.091-.2a1.31,1.31,0,0,1-.7-1.523h.8c0,.151,0,.293,0,.434a.341.341,0,0,0,.322.36.378.378,0,0,0,.47-.247.345.345,0,0,0-.221-.432c-.249-.126-.5-.247-.747-.378a1.114,1.114,0,0,1-.635-1.05,1.09,1.09,0,0,1,.647-1.014.245.245,0,0,0,.164-.269c-.011-.211,0-.423,0-.656h.813c0,.226-.006.46,0,.694,0,.065.033.166.08.187a1.307,1.307,0,0,1,.716,1.522h-.8c0-.136,0-.278,0-.418a.346.346,0,0,0-.335-.374.374.374,0,0,0-.453.236.35.35,0,0,0,.227.45c.242.122.485.24.725.365a1.116,1.116,0,0,1,.646,1.044,1.149,1.149,0,0,1-.652,1.044.353.353,0,0,0-.149.241C517.683,312.267,517.7,312.487,517.7,312.728Z" transform="translate(-44.649 -100.959)" fill="#fbfbfb"/>
      <path id="Path_13495" data-name="Path 13495" d="M492.161,465.564q0-.954,0-1.908a.827.827,0,0,1,.9-.92q1.942,0,3.885,0a.819.819,0,0,1,.9.9q0,1.946,0,3.893a.825.825,0,0,1-.918.907q-1.93,0-3.86,0a.823.823,0,0,1-.911-.913Q492.16,466.544,492.161,465.564Zm4.859,2.047V465.2h-.782v2.411Zm-3.244-4.042h-.791v.781h.791Zm.835.778h.781v-.784h-.781Zm1.626,0h.781v-.784h-.781Zm-3.25.843v.789h.783v-.789Zm1.627,0v.786h.78v-.786Zm-.839,1.631h-.785v.781h.785Zm.829.785h.791v-.778H494.6Z" transform="translate(-22.364 -246.069)" fill="#fbfbfb"/>
    </g>
    <g id="Preparation_of_MIS_reports_for_decision_making_" data-name="Preparation of MIS reports for decision making " transform="translate(783.415 2841.25)">
      <path id="Path_13496" data-name="Path 13496" d="M713.462,407.75a.456.456,0,0,1-.22-.455c.019-.583-.028-1.173.047-1.747a1.911,1.911,0,0,1,1.358-1.612c.623-.221,1.254-.417,1.88-.63.063-.022.161-.09.158-.131a.428.428,0,0,0-.1-.291,2.44,2.44,0,0,1-1.066-2.129,8.76,8.76,0,0,1,.067-1.443,2.4,2.4,0,0,1,4.752.369,10.08,10.08,0,0,1-.05,1.681,2.131,2.131,0,0,1-.962,1.479c-.126.088-.195.189-.144.316a.392.392,0,0,0,.229.171c.584.2,1.174.383,1.758.585a2.041,2.041,0,0,1,1.417,1.6.329.329,0,0,0,.037.074v2.164h-4.06c-.135-.119-.244-.252-.166-.445s.252-.207.433-.2c.43,0,.86,0,1.316,0,0-.184,0-.348,0-.512.007-.229.124-.356.318-.357s.316.126.326.353c.007.164,0,.328,0,.5h1.183c0-.411,0-.807,0-1.2a1.413,1.413,0,0,0-.934-1.328c-.209-.077-.422-.144-.633-.213-.429-.141-.859-.28-1.286-.419a1.277,1.277,0,0,1-2.376-.012c-.7.243-1.415.462-2.106.741a1.105,1.105,0,0,0-.7.93c-.047.5-.011,1-.011,1.506h1.146c0-.175-.006-.34,0-.5.01-.225.134-.354.325-.353s.311.128.319.356c.005.164,0,.328,0,.513h.257c.388,0,.777,0,1.166,0,.243,0,.4.178.336.39a1.012,1.012,0,0,1-.174.257Zm6.265-7.4-.035,0c0-.223.013-.448,0-.671a1.761,1.761,0,0,0-3.512-.008,10.82,10.82,0,0,0,0,1.341,1.757,1.757,0,0,0,3.457.3A6.944,6.944,0,0,0,719.726,400.349Zm-1.214,2.915h-1.159a.666.666,0,0,0,.266.724.559.559,0,0,0,.629,0A.668.668,0,0,0,718.512,403.264Z" transform="translate(-199.183 -192.84)" fill="#fbfbfb"/>
      <path id="Path_13497" data-name="Path 13497" d="M492.651,407.717a.462.462,0,0,1-.219-.456c.02-.583-.026-1.173.048-1.749a1.9,1.9,0,0,1,1.339-1.6c.615-.222,1.242-.41,1.861-.62a.327.327,0,0,0,.2-.154.255.255,0,0,0-.118-.309,2.336,2.336,0,0,1-1.049-2,8.592,8.592,0,0,1,.061-1.53,2.379,2.379,0,0,1,2.59-1.921,2.4,2.4,0,0,1,2.166,2.261,12.593,12.593,0,0,1,0,1.383,2.286,2.286,0,0,1-.985,1.77c-.129.095-.238.194-.17.345.036.08.162.136.259.17.557.192,1.118.372,1.676.56a2.07,2.07,0,0,1,1.5,2.1c0,.433-.008.866,0,1.3a.461.461,0,0,1-.22.455h-3.845c-.132-.121-.243-.254-.165-.447s.253-.206.434-.2c.43,0,.86,0,1.28,0,.017-.034.028-.046.029-.058,0-.151,0-.3.008-.454.009-.227.125-.356.318-.357s.316.126.326.353c.007.164,0,.328,0,.5h1.182c0-.4,0-.793,0-1.181a1.4,1.4,0,0,0-.976-1.361c-.414-.145-.831-.279-1.247-.416-.21-.069-.422-.136-.63-.2a1.277,1.277,0,0,1-2.376-.011c-.695.24-1.4.456-2.087.73a1.119,1.119,0,0,0-.713.941c-.048.5-.012,1-.012,1.5h1.147c0-.176-.006-.341,0-.5.01-.225.134-.354.326-.353s.31.126.319.357c.006.164,0,.328,0,.512.484,0,.944,0,1.4,0,.234,0,.395.134.362.328a1.073,1.073,0,0,1-.182.32Q494.573,407.718,492.651,407.717Zm2.71-7.413h0c0,.223-.013.448,0,.671a1.761,1.761,0,0,0,3.512.012,10.808,10.808,0,0,0,0-1.319,1.762,1.762,0,0,0-3.517.009C495.35,399.885,495.361,400.095,495.361,400.3Zm1.181,2.9a.693.693,0,0,0,.27.749.56.56,0,0,0,.647-.016.684.684,0,0,0,.24-.734c-.192.017-.375.047-.559.047S496.756,403.225,496.542,403.208Z" transform="translate(0 -192.807)" fill="#fbfbfb"/>
      <path id="Path_13498" data-name="Path 13498" d="M607.787,192.75c.137.037.276.069.413.111a2.41,2.41,0,0,1,1.7,2.241,11.772,11.772,0,0,1-.032,1.469,2.227,2.227,0,0,1-.994,1.627.265.265,0,0,0-.135.323.354.354,0,0,0,.212.16c.6.205,1.2.39,1.8.6a1.982,1.982,0,0,1,1.411,1.855c.034.532.016,1.067.01,1.6,0,.254-.121.362-.381.362q-1.738,0-3.477,0c-.25,0-.4-.128-.394-.328s.151-.318.407-.32c.445,0,.89,0,1.365,0,0-.178,0-.342,0-.5a.334.334,0,0,1,.316-.366c.193-.006.326.141.33.371,0,.157,0,.315,0,.485h1.184a6.208,6.208,0,0,0-.085-1.668,1.27,1.27,0,0,0-.812-.841c-.643-.228-1.293-.436-1.962-.658a1.258,1.258,0,0,1-2.354,0c-.695.237-1.39.443-2.061.712a1.23,1.23,0,0,0-.783,1.107c-.031.444-.006.891-.006,1.352h1.173c0-.159,0-.322,0-.484a.332.332,0,0,1,.308-.37c.193-.008.33.139.338.366,0,.079,0,.159,0,.238v.266h.5c.309,0,.619-.006.929,0a.323.323,0,1,1-.009.644q-1.771,0-3.542,0c-.234,0-.356-.11-.357-.34,0-.57-.028-1.142.018-1.708a1.911,1.911,0,0,1,1.283-1.719c.642-.25,1.308-.44,1.96-.664a.282.282,0,0,0,.17-.148.248.248,0,0,0-.1-.3,2.376,2.376,0,0,1-1.064-2.1,9.087,9.087,0,0,1,.066-1.465,2.356,2.356,0,0,1,1.95-1.866.562.562,0,0,0,.1-.038Zm-2.087,2.937h.016c0,.194,0,.39,0,.584a1.777,1.777,0,0,0,1.586,1.714,1.733,1.733,0,0,0,1.909-1.439,8.806,8.806,0,0,0,.041-1.4,1.764,1.764,0,0,0-3.5-.276A7.323,7.323,0,0,0,605.7,195.687Zm1.213,2.93a.645.645,0,0,0,.252.723.594.594,0,0,0,.683-.029.64.64,0,0,0,.2-.694Z" transform="translate(-99.548)" fill="#fbfbfb"/>
      <path id="Path_13499" data-name="Path 13499" d="M643.926,389.971a1.57,1.57,0,0,1-1.622,0c-.05.046-.107.1-.16.151-.321.32-.639.644-.963.961a.322.322,0,0,1-.493.026.325.325,0,0,1,.035-.479c.323-.329.646-.657.978-.977a.226.226,0,0,0,.063-.31,1.482,1.482,0,0,1,.849-2.063.227.227,0,0,0,.176-.265c-.007-.454,0-.908,0-1.362,0-.182.054-.33.253-.375.224-.05.39.1.393.361.006.454.01.908,0,1.362a.252.252,0,0,0,.2.288,1.484,1.484,0,0,1,.828,2.041.237.237,0,0,0,.064.328c.321.31.634.628.948.946.177.18.193.37.052.511s-.327.129-.51-.052C644.65,390.7,644.286,390.333,643.926,389.971Zm-.814-2.132a.855.855,0,1,0,.854.852A.862.862,0,0,0,643.112,387.84Z" transform="translate(-135.173 -181.411)" fill="#fbfbfb"/>
      <path id="Path_13500" data-name="Path 13500" d="M569.072,260.064a2.848,2.848,0,0,1,0-.331.311.311,0,0,1,.487-.258c.354.206.7.426,1.043.651a.315.315,0,0,1,.01.543c-.346.233-.7.454-1.061.663a.31.31,0,0,1-.477-.249c-.016-.112-.014-.226-.021-.337a1.216,1.216,0,0,0-1.213,1.238c-.005,1.384,0,2.769,0,4.153a1.282,1.282,0,0,1,0,.194.321.321,0,0,1-.639,0,1.206,1.206,0,0,1,0-.194c0-1.319.029-2.64-.009-3.958A1.98,1.98,0,0,1,569.072,260.064Z" transform="translate(-68.369 -62.824)" fill="#fbfbfb"/>
      <path id="Path_13501" data-name="Path 13501" d="M742.562,275.606c.128,0,.229-.008.328,0a.318.318,0,0,1,.27.5c-.207.355-.425.7-.651,1.045a.313.313,0,0,1-.542,0q-.342-.512-.652-1.045a.318.318,0,0,1,.272-.5c.1-.009.2,0,.327,0v-.224q0-1.32,0-2.64a1.254,1.254,0,0,0-1.337-1.34c-.4,0-.792,0-1.188,0-.25,0-.4-.127-.4-.326s.153-.325.4-.321a13.69,13.69,0,0,1,1.594.042,1.836,1.836,0,0,1,1.57,1.817c.012.938,0,1.876,0,2.813Z" transform="translate(-225.267 -73.5)" fill="#fbfbfb"/>
      <path id="Path_13502" data-name="Path 13502" d="M668.147,544.233c-.2,0-.4.006-.6,0a.336.336,0,0,1-.362-.343c.01-.186.148-.3.373-.3q.6,0,1.208,0c.226,0,.363.116.373.3a.336.336,0,0,1-.362.343C668.565,544.239,668.356,544.233,668.147,544.233Z" transform="translate(-160.222 -330.586)" fill="#fbfbfb"/>
    </g>
    <g id="Distribution_of_payslips_to_the_employees" data-name="Distribution of payslips to the employees" transform="translate(407.855 2823.24)">
      <path id="Path_13504" data-name="Path 13504" d="M531.918,227.645V207.162a2.213,2.213,0,0,1,2.388-2.4h14.549a2.214,2.214,0,0,1,2.39,2.4c0,.174,0,.348,0,.522,0,.453-.141.6-.585.6H547.73v.376q0,10.095,0,20.189a2.193,2.193,0,0,1-1.6,2.229,2.629,2.629,0,0,1-.676.087q-7.385.008-14.769,0a2.2,2.2,0,0,1-2.279-2.291c0-.211,0-.422,0-.632,0-.453.14-.6.585-.6h2.635C531.714,227.645,531.8,227.645,531.918,227.645Zm.879,0h10.732c.581,0,.684.107.69.686a5.027,5.027,0,0,0,.044.929,1.289,1.289,0,0,0,1.4,1.02,1.313,1.313,0,0,0,1.19-1.291c.01-1.237,0-2.475,0-3.712q0-9.088,0-18.175a2.449,2.449,0,0,1,.351-1.334.668.668,0,0,0,.046-.128H534.325a1.35,1.35,0,0,0-1.527,1.538v20.1C532.8,227.388,532.8,227.5,532.8,227.645Zm10.983,2.641a2.571,2.571,0,0,1-.444-1.741H529.3a1.443,1.443,0,0,0,1.576,1.755c4.182-.032,8.364-.014,12.545-.014Zm6.572-22.9a1.432,1.432,0,0,0-.695-1.593,1.234,1.234,0,0,0-1.413.125,1.446,1.446,0,0,0-.493,1.468Z" fill="#f7f7f7"/>
      <path id="Path_13505" data-name="Path 13505" d="M606.432,240.75h5.545c.467,0,.6.137.6.605q0,2.476,0,4.951c0,.467-.138.605-.6.605H600.887c-.467,0-.6-.137-.6-.605q0-2.476,0-4.951c0-.469.136-.6.6-.6Zm1.311.9H601.18v.837h6.563Zm-.015,2.607v-.847h-6.552v.847Zm.008.91h-6.554v.847h6.554Zm3.953-3.521h-3.04v.846h3.04Zm-3.048,1.752v.853h3.041V243.4Zm3.048,1.769h-3.05v.846h3.05Z" transform="translate(-66.608 -33.35)" fill="#f7f7f7"/>
      <path id="Path_13506" data-name="Path 13506" d="M687.174,460.266H684.7c-.453,0-.6-.14-.6-.584q0-1.183,0-2.365c0-.417.148-.571.555-.571q2.525,0,5.051,0c.39,0,.542.157.543.555q0,1.21,0,2.421c0,.391-.157.543-.555.544C688.858,460.268,688.016,460.266,687.174,460.266ZM685,457.631v1.735h.839v-1.735Zm1.755.007v1.731h.845v-1.731Zm2.6,1.743v-1.735h-.841v1.735Z" transform="translate(-144.282 -233.502)" fill="#f7f7f7"/>
      <path id="Path_13507" data-name="Path 13507" d="M602.041,421.881v-.861h.873v.846h1.749v.884h-1.716v.891c.146,0,.3,0,.45,0a1.319,1.319,0,0,1,.012,2.637c-.153.006-.306,0-.478,0v.862h-.873v-.847h-1.749v-.884h1.716v-.891c-.147,0-.3,0-.45,0a1.319,1.319,0,0,1,.015-2.638C601.733,421.877,601.877,421.881,602.041,421.881Zm-.006.885c-.3.009-.629-.107-.8.224a.546.546,0,0,0,.021.453c.18.295.491.183.775.19C602.035,423.342,602.035,423.071,602.035,422.766Zm.9,2.64c.31-.029.648.1.8-.25a.549.549,0,0,0-.037-.451c-.189-.285-.493-.171-.764-.172Z" transform="translate(-66.614 -200.397)" fill="#f7f7f7"/>
      <path id="Path_13508" data-name="Path 13508" d="M624.42,373.779v-.849h10.507v.849Z" transform="translate(-88.975 -155.835)" fill="#f7f7f7"/>
      <path id="Path_13509" data-name="Path 13509" d="M657.149,349.9H648.4v-.847h8.749Z" transform="translate(-111.196 -133.706)" fill="#f7f7f7"/>
      <path id="Path_13510" data-name="Path 13510" d="M708.24,397.8v-.846H712.6v.846Z" transform="translate(-166.646 -178.093)" fill="#f7f7f7"/>
      <path id="Path_13511" data-name="Path 13511" d="M732.2,421.787v-.847h2.6v.847Z" transform="translate(-188.849 -200.323)" fill="#f7f7f7"/>
      <path id="Path_13512" data-name="Path 13512" d="M625.31,349.8h-.841v-.856h.841Z" transform="translate(-89.021 -133.604)" fill="#f7f7f7"/>
      <path id="Path_13513" data-name="Path 13513" d="M660.31,397.813v-.843h.855v.843Z" transform="translate(-122.232 -178.111)" fill="#f7f7f7"/>
      <path id="Path_13514" data-name="Path 13514" d="M684.26,397.821v-.841h.854v.841Z" transform="translate(-144.425 -178.121)" fill="#f7f7f7"/>
      <path id="Path_13515" data-name="Path 13515" d="M708.24,421.8v-.846h.844v.846Z" transform="translate(-166.646 -200.332)" fill="#f7f7f7"/>
    </g>
    <g id="Preparation_of_statutory_reports_filing_of_returns_" data-name="Preparation of statutory reports &amp; filing of returns " transform="translate(77.771 2840.25)">
      <path id="Path_13516" data-name="Path 13516" d="M549.839,221.75H530.167a2.492,2.492,0,0,1-1.937-2.772c.03-7.875.015-15.751.015-23.627,0-.132,0-.264,0-.4a2.121,2.121,0,0,1,.909-1.738,6.229,6.229,0,0,1,1.011-.467h19.672a2.493,2.493,0,0,1,1.937,2.772c-.031,7.894-.015,15.789-.015,23.683,0,.113,0,.227,0,.34a2.275,2.275,0,0,1-1.495,2.071C550.124,221.665,549.981,221.705,549.839,221.75Zm1.017-14.486V195.229a1.385,1.385,0,0,0-1.556-1.573H530.7a1.381,1.381,0,0,0-1.555,1.545v24.1a1.382,1.382,0,0,0,1.557,1.545h18.6a1.386,1.386,0,0,0,1.556-1.575Q550.856,213.266,550.856,207.264Z" fill="#f7f7f7"/>
      <path id="Path_13517" data-name="Path 13517" d="M552.38,234.3V223.43c0-.559.121-.68.678-.68H571.6c.558,0,.679.122.679.68v21.749c0,.558-.122.68-.678.68H553.059c-.557,0-.679-.122-.679-.68Zm.918,10.629h18.055V223.671H553.3Z" transform="translate(-22.327 -27.734)" fill="#f7f7f7"/>
      <path id="Path_13518" data-name="Path 13518" d="M661.974,541.632c-.424,0-.848,0-1.272,0a.459.459,0,0,1-.514-.446.452.452,0,0,1,.5-.458q1.3-.007,2.6,0a.457.457,0,0,1,.514.445c0,.275-.2.456-.529.459C662.841,541.635,662.408,541.632,661.974,541.632Z" transform="translate(-121.994 -321.694)" fill="#f7f7f7"/>
      <path id="Path_13519" data-name="Path 13519" d="M589.223,268.8h3.147c0-.273,0-.541,0-.811,0-.335.174-.538.446-.541s.453.2.456.532c0,.406.005.812,0,1.217a.455.455,0,0,1-.5.513q-1.978.007-3.956,0a.453.453,0,0,1-.512-.5q-.007-1.982,0-3.964a.454.454,0,0,1,.5-.514q1.074-.008,2.148,0a.456.456,0,0,1,.513.446c0,.275-.2.456-.529.458-.564,0-1.128,0-1.711,0C589.223,266.7,589.223,267.737,589.223,268.8Z" transform="translate(-55.533 -66.544)" fill="#f7f7f7"/>
      <path id="Path_13520" data-name="Path 13520" d="M592.364,352.8c0-.293,0-.565,0-.837a.454.454,0,1,1,.9,0c.005.415.006.831,0,1.246a.456.456,0,0,1-.509.507q-1.978.006-3.956,0a.453.453,0,0,1-.507-.509q-.006-1.982,0-3.964a.453.453,0,0,1,.507-.508q1.074-.008,2.148,0a.454.454,0,1,1,0,.9c-.572.005-1.146,0-1.735,0V352.8Z" transform="translate(-55.527 -144.201)" fill="#f7f7f7"/>
      <path id="Path_13521" data-name="Path 13521" d="M589.211,433.63v3.157h3.153c0-.265,0-.534,0-.8,0-.334.175-.537.449-.538s.451.2.454.533c0,.406.005.812,0,1.217a.456.456,0,0,1-.505.511q-1.978.006-3.956,0a.453.453,0,0,1-.51-.505q-.006-1.982,0-3.964a.454.454,0,0,1,.5-.512q1.074-.008,2.148,0a.454.454,0,1,1,.008.9C590.381,433.633,589.808,433.63,589.211,433.63Z" transform="translate(-55.527 -221.848)" fill="#f7f7f7"/>
      <path id="Path_13522" data-name="Path 13522" d="M676.5,276.722h3.617a1.247,1.247,0,0,1,.282.011.449.449,0,0,1,0,.881,1.362,1.362,0,0,1-.31.013h-7.235a2.384,2.384,0,0,1-.254,0,.45.45,0,0,1,0-.9,2.379,2.379,0,0,1,.255,0Z" transform="translate(-133.079 -77.628)" fill="#f7f7f7"/>
      <path id="Path_13523" data-name="Path 13523" d="M676.539,360.713h3.617a1.419,1.419,0,0,1,.254.007.45.45,0,0,1,0,.892,1.42,1.42,0,0,1-.254.007h-7.292a1.354,1.354,0,0,1-.254-.008.45.45,0,0,1,0-.892,1.419,1.419,0,0,1,.254-.007Z" transform="translate(-133.116 -155.275)" fill="#f7f7f7"/>
      <path id="Path_13524" data-name="Path 13524" d="M676.511,445.63h-3.646a1.419,1.419,0,0,1-.254-.007.449.449,0,0,1,0-.891,1.593,1.593,0,0,1,.282-.008h7.235a1.588,1.588,0,0,1,.282.007.45.45,0,0,1,0,.892,1.352,1.352,0,0,1-.254.007Z" transform="translate(-133.116 -232.943)" fill="#f7f7f7"/>
      <path id="Path_13525" data-name="Path 13525" d="M606.74,256.744l1.67-2.362c.163-.231.322-.465.491-.692a.452.452,0,1,1,.736.52q-1.209,1.724-2.431,3.439a.436.436,0,0,1-.725.064c-.294-.279-.579-.567-.859-.859a.448.448,0,0,1-.025-.656.458.458,0,0,1,.677.031q.125.116.239.24C606.581,256.545,606.644,256.628,606.74,256.744Z" transform="translate(-71.403 -56.126)" fill="#f7f7f7"/>
      <path id="Path_13526" data-name="Path 13526" d="M606.757,340.736l1.664-2.355c.163-.231.322-.465.491-.692a.452.452,0,1,1,.735.52q-1.2,1.713-2.414,3.417a.449.449,0,0,1-.764.066c-.279-.268-.551-.542-.819-.82a.454.454,0,1,1,.631-.643C606.439,340.379,606.58,340.544,606.757,340.736Z" transform="translate(-71.415 -133.782)" fill="#f7f7f7"/>
      <path id="Path_13527" data-name="Path 13527" d="M606.756,424.7l2.065-2.92a1.434,1.434,0,0,1,.172-.224.416.416,0,0,1,.566-.052.425.425,0,0,1,.157.549,1.033,1.033,0,0,1-.134.215q-1.133,1.605-2.267,3.209c-.322.455-.549.47-.949.07-.24-.24-.483-.477-.717-.722a.454.454,0,1,1,.643-.633C606.444,424.347,606.583,424.514,606.756,424.7Z" transform="translate(-71.417 -211.399)" fill="#f7f7f7"/>
      <path id="Path_13528" data-name="Path 13528" d="M674.891,301.652c-.716,0-1.432,0-2.148,0-.356,0-.563-.17-.563-.452s.207-.452.563-.452q2.148,0,4.3,0c.357,0,.563.17.564.452s-.208.452-.563.453C676.323,301.653,675.607,301.652,674.891,301.652Z" transform="translate(-133.079 -99.839)" fill="#f7f7f7"/>
      <path id="Path_13529" data-name="Path 13529" d="M674.883,384.744c.716,0,1.432,0,2.148,0,.356,0,.563.171.562.454s-.208.451-.565.452q-2.148,0-4.3,0c-.356,0-.563-.171-.562-.454s.208-.45.564-.451C673.451,384.742,674.167,384.744,674.883,384.744Z" transform="translate(-133.07 -177.494)" fill="#f7f7f7"/>
      <path id="Path_13530" data-name="Path 13530" d="M674.928,468.742c.707,0,1.413,0,2.12,0,.356,0,.563.171.563.452s-.208.452-.563.452q-2.148,0-4.3,0c-.356,0-.563-.171-.563-.453s.207-.451.563-.452C673.478,468.74,674.2,468.742,674.928,468.742Z" transform="translate(-133.089 -255.148)" fill="#f7f7f7"/>
      <path id="Path_13531" data-name="Path 13531" d="M756.91,301.229a.45.45,0,1,1-.452-.449A.456.456,0,0,1,756.91,301.229Z" transform="translate(-210.578 -99.871)" fill="#f7f7f7"/>
      <path id="Path_13532" data-name="Path 13532" d="M756.454,384.78a.451.451,0,1,1-.455.446A.454.454,0,0,1,756.454,384.78Z" transform="translate(-210.569 -177.527)" fill="#f7f7f7"/>
      <path id="Path_13533" data-name="Path 13533" d="M756.918,469.217a.45.45,0,1,1-.461-.44A.455.455,0,0,1,756.918,469.217Z" transform="translate(-210.586 -255.182)" fill="#f7f7f7"/>
    </g>
  </g>
</svg>
