<svg xmlns="http://www.w3.org/2000/svg" width="867.26" height="618.188" viewBox="0 0 867.26 618.188">
  <g id="Group_3535" data-name="Group 3535" transform="translate(-910 -260.775)">
    <g id="Group_204" data-name="Group 204" transform="translate(853.373 155.355)">
      <g id="Group_1" data-name="Group 1" transform="translate(125.866 383.276)">
        <path id="Path_8" data-name="Path 8" d="M130.455,224.82H86.38V263.5l6.725-6.725h37.35Z" transform="translate(-86.38 -224.82)" fill="#78c2ff"/>
      </g>
      <g id="Group_5" data-name="Group 5" transform="translate(76.583 393.489)">
        <g id="Group_4" data-name="Group 4">
          <g id="Group_3" data-name="Group 3">
            <g id="Group_2" data-name="Group 2">
              <path id="Path_9" data-name="Path 9" d="M92.912,231.585s10.774,5.283,8.122,19.618c-2.676,14.335-3.84,16.29-.861,21.875,2.979,5.608,6.493,29.508,3.816,34.046S70.782,287.2,66.546,266.678s2.676-29.647,5.12-33.045C74.086,230.259,83.395,226.745,92.912,231.585Z" transform="translate(-65.203 -229.209)" fill="#0e2d3d"/>
            </g>
          </g>
        </g>
      </g>
      <g id="Group_7" data-name="Group 7" transform="translate(107.272 447.644)">
        <g id="Group_6" data-name="Group 6">
          <path id="Path_10" data-name="Path 10" d="M78.39,252.48a14.981,14.981,0,0,1,8.564,5.655c2.141,3.165,2.327,10.169,2.63,11.5s4.4,16.266,4.4,16.266l-11.426,7.656Z" transform="translate(-78.39 -252.48)" fill="#285173"/>
        </g>
      </g>
      <g id="Group_9" data-name="Group 9" transform="translate(135.04 687.215)">
        <g id="Group_8" data-name="Group 8" transform="translate(0 0)">
          <path id="Path_11" data-name="Path 11" d="M104.791,371.35s7.47,10.053,6.446,11.635-8.866,1.815-13.637,0-4.887-13.59-7.051-18.64c-.908-2.118,1.024-8.378,3.747-8.82a11.269,11.269,0,0,1,5.678.884S97.135,363.508,104.791,371.35Z" transform="translate(-90.323 -355.428)" fill="#1d3b54"/>
        </g>
      </g>
      <g id="Group_12" data-name="Group 12" transform="translate(137.292 687.065)">
        <g id="Group_11" data-name="Group 11" transform="translate(0 0)">
          <g id="Group_10" data-name="Group 10">
            <path id="Path_12" data-name="Path 12" d="M98.737,356.4a48.516,48.516,0,0,1,2.141,8.354c.465,3.4,5.306,10.588,5.1,11.5-.233.908-6.376,1.745-8.866-.605s-4.119-9.169-4.654-13.241a32.644,32.644,0,0,0-1.164-5.678S96.34,353.889,98.737,356.4Z" transform="translate(-91.29 -355.364)" fill="#eea886"/>
          </g>
        </g>
      </g>
      <g id="Group_14" data-name="Group 14" transform="translate(69.835 687.22)">
        <g id="Group_13" data-name="Group 13">
          <path id="Path_13" data-name="Path 13" d="M77.05,371.51s7.191,9.867,6.167,11.473c-1.024,1.582-8.866,1.815-13.637,0s-4.887-13.59-7.051-18.64c-.908-2.118,1.024-8.378,3.747-8.82a12.039,12.039,0,0,1,5.911.977S69.394,363.668,77.05,371.51Z" transform="translate(-62.303 -355.43)" fill="#1d3b54"/>
        </g>
      </g>
      <g id="Group_17" data-name="Group 17" transform="translate(73.207 686.834)">
        <g id="Group_16" data-name="Group 16" transform="translate(0 0)">
          <g id="Group_15" data-name="Group 15">
            <path id="Path_14" data-name="Path 14" d="M70.264,356.7a64.086,64.086,0,0,0,1.489,7.959c.908,3.3,5.794,10.8,5.562,11.705s-6.376,1.745-8.866-.605S64,366.61,63.794,362.515a21.879,21.879,0,0,1,.558-6.8S67.867,354.207,70.264,356.7Z" transform="translate(-63.752 -355.264)" fill="#eea886"/>
          </g>
        </g>
      </g>
      <g id="Group_20" data-name="Group 20" transform="translate(62.257 503.075)">
        <g id="Group_19" data-name="Group 19">
          <g id="Group_18" data-name="Group 18">
            <path id="Path_15" data-name="Path 15" d="M112.439,298.012s6.4,29.787,7.866,37.28,5.585,43.819,6.027,49.986,6.679,29.438,6.376,31.649,9.239,46.5,9.239,46.5a5.731,5.731,0,0,1-6.7.233c-1.769-1.233-20.944-41.469-20.944-52.5,0-15.242-11.263-35.139-12.729-38.537-13.52-31.672-10.844-41.353-12.613-43.424-1.769-2.048-1.908,1.28-2.955,5.818-1.024,4.561-3.235,43.959-4.561,48.962s-.3,21.9-1.024,30.439c-.745,8.517-3.956,47.1-3.956,47.1s-2.49,3.91-6,.093c-.745-.815-6.05-42.958-6.213-53.1-.14-10.146-.3-24.132-.582-28.53-2.723-42.027-9.425-48.031,1.117-77.8C84.583,246.49,112.439,298.012,112.439,298.012Z" transform="translate(-59.046 -276.3)" fill="#eea886"/>
          </g>
        </g>
      </g>
      <g id="Group_22" data-name="Group 22" transform="translate(60.32 516.454)">
        <g id="Group_21" data-name="Group 21">
          <path id="Path_16" data-name="Path 16" d="M70.562,282.051s-18.244,25.528-10.379,79.82c0,0,43.261,5.888,66.439-6.8,0,0-9.588-55.967-13.055-64.693C110.076,281.656,70.562,282.051,70.562,282.051Z" transform="translate(-58.214 -282.049)" fill="#1d3b54"/>
        </g>
      </g>
      <g id="Group_24" data-name="Group 24" transform="translate(135.058 695.248)">
        <g id="Group_23" data-name="Group 23" transform="translate(0 0)">
          <path id="Path_17" data-name="Path 17" d="M90.33,358.88v10.5h1.35v-8.122Z" transform="translate(-90.33 -358.88)" fill="#1d3b54"/>
        </g>
      </g>
      <g id="Group_26" data-name="Group 26" transform="translate(69.852 695.248)">
        <g id="Group_25" data-name="Group 25" transform="translate(0 0)">
          <path id="Path_18" data-name="Path 18" d="M62.31,358.88v10.5h1.35v-8.122Z" transform="translate(-62.31 -358.88)" fill="#1d3b54"/>
        </g>
      </g>
      <g id="Group_28" data-name="Group 28" transform="translate(63.759 443.572)">
        <g id="Group_27" data-name="Group 27">
          <path id="Path_19" data-name="Path 19" d="M93.058,251.079s6.725,3.165,9.052,3.63,11.38,12.217,12.962,16.522c1.582,4.282,0,10.728-3.258,18.291s-.186,10.076-1.676,17.639-2.793,23.55-2.513,27.762c.279,4.189-37.746,5-46.426-2.653,0,0,8.727-13.055,9.844-14.917s.186-12.031-.838-14.638-7.866-24.83-7.866-24.83-5.585-17.058-.535-20.991c4.375-3.4,16.336-4.631,18.477-5.376C82.423,250.753,88.683,250.427,93.058,251.079Z" transform="translate(-59.692 -250.73)" fill="#eddad3"/>
        </g>
      </g>
      <g id="Group_30" data-name="Group 30" transform="translate(99.074 441.547)">
        <g id="Group_29" data-name="Group 29">
          <path id="Path_20" data-name="Path 20" d="M75.06,267.22l4.072-4.771L75.6,249.86A85.3,85.3,0,0,0,75.06,267.22Z" transform="translate(-74.867 -249.86)" fill="#d6c5be"/>
        </g>
      </g>
      <g id="Group_32" data-name="Group 32" transform="translate(84.35 426.971)">
        <g id="Group_31" data-name="Group 31">
          <path id="Path_21" data-name="Path 21" d="M84.527,252.8s-.186,1.676-.4,4c-.093,1.024-.186,2.187-.3,3.4a79.176,79.176,0,0,0-.372,8.936s-6.981,7-14.917-8.168a20.755,20.755,0,0,0,.814-14.777C66.864,237.694,84.527,252.8,84.527,252.8Z" transform="translate(-68.54 -243.596)" fill="#eea886"/>
        </g>
      </g>
      <g id="Group_34" data-name="Group 34" transform="translate(91.238 452.508)">
        <g id="Group_33" data-name="Group 33">
          <path id="Path_22" data-name="Path 22" d="M79.529,254.57v6.4l-8.029-6Z" transform="translate(-71.5 -254.57)" fill="#eea886"/>
        </g>
      </g>
      <g id="Group_36" data-name="Group 36" transform="translate(81.069 443.572)">
        <g id="Group_35" data-name="Group 35">
          <path id="Path_23" data-name="Path 23" d="M85.328,266.066,82,261.947,70.76,250.73l-3.63,3.514Z" transform="translate(-67.13 -250.73)" fill="#d6c5be"/>
        </g>
      </g>
      <g id="Group_38" data-name="Group 38" transform="translate(60.288 444.642)">
        <g id="Group_37" data-name="Group 37">
          <path id="Path_24" data-name="Path 24" d="M81.052,251.19s9.425,14.312,9.89,20.618c.442,6.306-3.514,53.407-6.679,68.556s-26.064-1.7-26.064-1.7,15.382-24.9,9.471-44.82-8.052-27.9-8.052-27.9,2.025-11.1,9.239-12.659C75.188,251.911,81.052,251.19,81.052,251.19Z" transform="translate(-58.2 -251.19)" fill="#285173"/>
        </g>
      </g>
      <g id="Group_40" data-name="Group 40" transform="translate(102.129 446.131)">
        <g id="Group_39" data-name="Group 39">
          <path id="Path_25" data-name="Path 25" d="M93.819,271.7s1.7,6.027-4.933,19.315c0,0,.093,17.034.3,22.34.186,5.329,3.956,24.435,3.956,24.435l-9.052,4.817a1.849,1.849,0,0,1-2.769-1.815c1.862-15.312,7.889-73.374-5.143-88.965l5.236,1.536C81.393,253.389,90.7,261,93.819,271.7Z" transform="translate(-76.18 -251.83)" fill="#285173"/>
        </g>
      </g>
      <g id="Group_42" data-name="Group 42" transform="translate(99.825 441.547)">
        <g id="Group_41" data-name="Group 41">
          <path id="Path_26" data-name="Path 26" d="M78.727,262.45l5.143,1.419L75.19,249.86Z" transform="translate(-75.19 -249.86)" fill="#fae6de"/>
        </g>
      </g>
      <g id="Group_44" data-name="Group 44" transform="translate(81.604 443.572)">
        <g id="Group_43" data-name="Group 43">
          <path id="Path_27" data-name="Path 27" d="M81.695,261.947l-4.7,6.144L67.36,252.01l3.1-1.28Z" transform="translate(-67.36 -250.73)" fill="#fae6de"/>
        </g>
      </g>
      <g id="Group_45" data-name="Group 45" transform="translate(102.793 478.64)">
        <rect id="Rectangle_9" data-name="Rectangle 9" width="1.699" height="20.129" transform="translate(0 1.053) rotate(-38.321)" fill="#eb4747"/>
      </g>
      <g id="Group_46" data-name="Group 46" transform="translate(100.005 489.732)">
        <path id="Path_28" data-name="Path 28" d="M77.228,274.508a3.6,3.6,0,0,0,1.978-.582c1.35-1.024,1.838-3.537,4.235-3.351s3.491,7.679,2.909,9.1c-.605,1.42-3.91,2.118-8.82,1.14C72.621,279.861,77.228,274.508,77.228,274.508Z" transform="translate(-75.267 -270.566)" fill="#eea886"/>
      </g>
      <g id="Group_47" data-name="Group 47" transform="translate(106.449 487.054)">
        <path id="Path_29" data-name="Path 29" d="M78.952,272.172s3.444-1.164,7.4-2.025c3.467-.745,7.633-1,8.029-.4.442.675-3.4,1.257-6.8,2.211-3.142.884-2.4,1.21-2.4,1.21s-.209-.093,3.374-.442c3.863-.349,7.819-.349,8.215.419.186.372.047.628-1.326.977.838-.047.954.186.977.512.163,1.745-5.445,3.118-7.679,3.654,1.722-.419,3-.535,2.4.628-.7,1.326-8.727,2.932-11.542,3.77C76.509,283.645,78.952,272.172,78.952,272.172Z" transform="translate(-78.036 -269.415)" fill="#eea886"/>
      </g>
      <g id="Group_48" data-name="Group 48" transform="translate(56.627 446.858)">
        <path id="Path_30" data-name="Path 30" d="M72.3,252.277c-2.374-.768-9.308,1.7-10.472,8.8-1.164,7.121-1.652,15.01-2.746,18.826-1.094,3.84-3.886,20.8-1.536,22.2s6.8,2.7,13.009,2.7c6.423,0,31.369,1.117,31.369,1.117l1.559-8.866s-9.471-.489-14.382-1.233c-4.375-.675-10.425-2.513-17.546-3.3,0,0,1.513-10.518,2.606-13.474S82.907,255.7,72.3,252.277Z" transform="translate(-56.627 -252.142)" fill="#285173"/>
      </g>
      <g id="Group_49" data-name="Group 49" transform="translate(116.557 492.464)">
        <path id="Path_31" data-name="Path 31" d="M83.73,271.74l1.164,2.839-2.513-1.792Z" transform="translate(-82.38 -271.74)" fill="#eea886"/>
      </g>
      <g id="Group_51" data-name="Group 51" transform="translate(104.154 462.491)">
        <g id="Group_50" data-name="Group 50">
          <path id="Path_32" data-name="Path 32" d="M77.05,303.68l25.133-4.98L120.8,258.86l-26.808,2.816Z" transform="translate(-77.05 -258.86)" fill="#e8734d"/>
        </g>
      </g>
      <g id="Group_54" data-name="Group 54" transform="translate(130.054 483.128)">
        <g id="Group_53" data-name="Group 53">
          <g id="Group_52" data-name="Group 52">
            <path id="Path_33" data-name="Path 33" d="M90.53,280.182a20.76,20.76,0,0,0,2.606-3.072c1.233-1.792,5.236-8.634,4.864-9.053s-6.33-.582-7.4.4,1.07,1.35,1.07,1.35-3.258.326-3.025,1.257,2.187.675,2.187.675-2.63.512-2.234,1.3c.4.814,1.652.791,1.652.791s-2.327.3-2.048,1.164c.279.884,3.956,1.722,3.467,2.443A19.488,19.488,0,0,0,90.53,280.182Z" transform="translate(-88.18 -267.728)" fill="#eea886"/>
          </g>
        </g>
      </g>
      <g id="Group_58" data-name="Group 58" transform="translate(82.07 396.99)">
        <g id="Group_57" data-name="Group 57">
          <g id="Group_56" data-name="Group 56">
            <g id="Group_55" data-name="Group 55">
              <path id="Path_34" data-name="Path 34" d="M88.2,231.171s15.661,4.91,7.167,31.928-29.88-3.142-27.646-19.594S88.2,231.171,88.2,231.171Z" transform="translate(-67.56 -230.713)" fill="#eea987"/>
            </g>
          </g>
        </g>
      </g>
      <g id="Group_62" data-name="Group 62" transform="translate(80.848 394.829)">
        <g id="Group_61" data-name="Group 61">
          <g id="Group_60" data-name="Group 60">
            <g id="Group_59" data-name="Group 59">
              <path id="Path_35" data-name="Path 35" d="M97.671,248.181a35.3,35.3,0,0,1-20.8,8.587s-5,5.864-5.376,8.168c0,0-11.612-19.8,2.653-31.672S102.907,243.294,97.671,248.181Z" transform="translate(-67.035 -229.784)" fill="#0e2d3d"/>
            </g>
          </g>
        </g>
      </g>
      <g id="Group_66" data-name="Group 66" transform="translate(85.406 416.94)">
        <g id="Group_65" data-name="Group 65">
          <g id="Group_64" data-name="Group 64">
            <g id="Group_63" data-name="Group 63">
              <path id="Path_36" data-name="Path 36" d="M74.43,244.694c-.093-1.955-1.3-6.446-4.235-5.189s.186,10.356,2.118,9.8C72.313,249.3,74.663,249.348,74.43,244.694Z" transform="translate(-68.994 -239.286)" fill="#eea987"/>
            </g>
          </g>
        </g>
      </g>
      <g id="Group_67" data-name="Group 67" transform="translate(89.167 432.495)">
        <path id="Path_37" data-name="Path 37" d="M81.384,253.673c-.093,1.024-.186,2.187-.3,3.4h0c-9.052-4.468-10.425-10.914-10.472-11.1C77.056,254.278,81.384,253.673,81.384,253.673Z" transform="translate(-70.61 -245.97)" fill="#a77860"/>
      </g>
      <g id="Group_69" data-name="Group 69" transform="translate(360.693 484.715)">
        <g id="Group_68" data-name="Group 68">
          <path id="Path_38" data-name="Path 38" d="M187.43,268.41s-2.025,15.638,9.285,27.646,36.791,7.726,36.791,7.726-4.212-14.2-13.451-20.036C210.794,277.881,192.643,275.88,187.43,268.41Z" transform="translate(-187.29 -268.41)" fill="#869135"/>
        </g>
      </g>
      <g id="Group_71" data-name="Group 71" transform="translate(369.429 455.044)">
        <g id="Group_70" data-name="Group 70">
          <path id="Path_39" data-name="Path 39" d="M195.6,255.66s-9.308,17.546-1.3,36.7,39.933,25.389,39.933,25.389,1.326-18.594-6.981-29.577S198.435,266.783,195.6,255.66Z" transform="translate(-191.044 -255.66)" fill="#48753a"/>
        </g>
      </g>
      <g id="Group_75" data-name="Group 75" transform="translate(777.681 217.33)">
        <g id="Group_72" data-name="Group 72" transform="translate(0 12.264)">
          <path id="Path_40" data-name="Path 40" d="M380.748,158.78s15.824,24.016,2.467,36.792c-13.358,12.753-14.94-1.489-14.94-1.489s-7.144.465,7.051-15.778C382.052,170.625,380.748,158.78,380.748,158.78Z" transform="translate(-366.477 -158.78)" fill="#bbd070"/>
        </g>
        <g id="Group_73" data-name="Group 73" transform="translate(12.188)">
          <path id="Path_41" data-name="Path 41" d="M416.2,153.51s11.286,21.828-15.289,42.26c-26.576,20.455-26.459,34.534-26.459,34.534S355.74,179.736,416.2,153.51Z" transform="translate(-371.715 -153.51)" fill="#97a43c"/>
        </g>
        <g id="Group_74" data-name="Group 74" transform="translate(8.225 26.971)">
          <path id="Path_42" data-name="Path 42" d="M373.312,205.638c-10.1-.279,4.7-25.947,21.153-31.137,16.453-5.213,29.6-3.048,39.607-9.4C434.05,165.077,423.042,207.011,373.312,205.638Z" transform="translate(-370.012 -165.1)" fill="#48753a"/>
        </g>
      </g>
      <g id="Group_76" data-name="Group 76" transform="translate(385.617 203.089)">
        <rect id="Rectangle_10" data-name="Rectangle 10" width="2.118" height="254.306" fill="#78c2ff"/>
      </g>
      <g id="Group_77" data-name="Group 77" transform="translate(229.794 386.069)">
        <rect id="Rectangle_11" data-name="Rectangle 11" width="175.557" height="2.118" fill="#78c2ff"/>
      </g>
      <g id="Group_78" data-name="Group 78" transform="translate(449.892 283.676)">
        <path id="Path_43" data-name="Path 43" d="M599.306,485.335H254.639c-16.011,0-29.019-13.59-29.019-30.322V212.342c0-16.709,13.008-30.322,29.019-30.322H599.306c16.01,0,29.019,13.59,29.019,30.322v242.67C628.325,471.744,615.317,485.335,599.306,485.335ZM254.639,184.58c-14.591,0-26.459,12.45-26.459,27.762v242.67c0,15.312,11.868,27.762,26.459,27.762H599.306c14.591,0,26.459-12.45,26.459-27.762V212.342c0-15.312-11.868-27.762-26.459-27.762Z" transform="translate(-225.62 -182.02)" fill="#4da8f2"/>
      </g>
      <g id="Group_79" data-name="Group 79" transform="translate(115.859 105.42)">
        <path id="Path_44" data-name="Path 44" d="M672.513,478.967H669.93l.023-2.56c3.747.023,7.656,0,11.473-.07l.046,2.56C678.494,478.943,675.491,478.967,672.513,478.967Zm-14.1-.209c-3.84-.116-7.726-.279-11.5-.489l.14-2.537c3.77.209,7.61.372,11.449.489Zm34.558-.233-.116-2.537c3.84-.163,7.679-.4,11.449-.675l.186,2.537C700.717,478.129,696.831,478.338,692.968,478.525ZM635.419,477.5c-7.214-.582-11.449-1.14-11.5-1.164l.326-2.536c.046,0,4.235.558,11.38,1.14Zm80.564-.628-.256-2.536c3.816-.4,7.656-.814,11.379-1.3l.326,2.537C723.686,476.035,719.823,476.477,715.983,476.872Zm22.852-3-.419-2.513c3.793-.628,7.586-1.326,11.263-2.048l.512,2.49C746.491,472.544,742.675,473.242,738.835,473.87Zm22.6-4.561-.605-2.49c3.747-.908,7.47-1.885,11.054-2.932l.7,2.443C768.971,467.4,765.225,468.378,761.432,469.309Zm22.177-6.423-.814-2.42c3.654-1.257,7.261-2.583,10.728-3.956l.954,2.374C790.962,460.28,787.309,461.63,783.609,462.886Zm21.456-8.61-1.094-2.3c3.491-1.652,6.911-3.374,10.169-5.189l1.233,2.234C812.069,450.855,808.6,452.624,805.065,454.276Zm20.246-11.217-1.4-2.141c3.211-2.094,6.33-4.305,9.285-6.562l1.559,2.025C831.78,438.685,828.592,440.942,825.31,443.059Zm18.314-14.125-1.722-1.885c2.816-2.583,5.492-5.283,8.005-8.052l1.885,1.722C849.233,423.558,846.487,426.3,843.625,428.934Zm15.522-17.151-2.048-1.513a105.258,105.258,0,0,0,6.283-9.425l2.188,1.3C863.591,405.454,861.427,408.688,859.147,411.783Zm11.868-19.85-2.3-1.094c1.582-3.374,3.049-6.888,4.328-10.472l2.4.861C874.133,384.882,872.644,388.489,871.015,391.933Zm7.842-21.735-2.467-.652c.931-3.584,1.745-7.33,2.4-11.077l2.513.442C880.626,362.728,879.811,366.544,878.857,370.2Zm3.956-22.736-2.537-.233c.349-3.7.582-7.517.675-11.356l2.56.07C883.418,339.829,883.186,343.715,882.813,347.462ZM880.9,324.447c-.14-3.723-.372-7.54-.721-11.38l2.536-.233c.349,3.886.605,7.773.721,11.519Zm-2.025-22.713c-.512-3.677-1.14-7.47-1.838-11.263l2.513-.465c.721,3.84,1.35,7.656,1.862,11.38Zm-4.166-22.457c-.3-1.373-.652-2.769-.977-4.142-.558-2.327-1.187-4.654-1.838-6.888l2.443-.721c.675,2.281,1.3,4.631,1.862,7,.326,1.4.675,2.793.977,4.189Zm-6.446-21.758q-2.059-5.341-4.538-10.379l2.281-1.117c1.676,3.4,3.235,6.958,4.631,10.588ZM84.407,241.812l-2.327-1.07c1.606-3.514,3.281-7.028,4.933-10.4l2.281,1.14C87.642,234.83,86.013,238.3,84.407,241.812Zm773.855-4.561c-1.978-3.211-4.142-6.33-6.4-9.308l2.025-1.559c2.327,3.048,4.538,6.237,6.562,9.518ZM94.553,221.333l-2.234-1.21c1.838-3.421,3.747-6.8,5.655-10.03l2.187,1.3C98.277,214.584,96.392,217.935,94.553,221.333Zm750-2c-2.537-2.723-5.283-5.352-8.122-7.866l1.676-1.908c2.909,2.56,5.7,5.259,8.308,8.028Zm-16.965-14.963c-3-2.187-6.167-4.305-9.448-6.306l1.327-2.187c3.328,2.025,6.562,4.189,9.611,6.423Zm-721.426-2.723-2.141-1.373c2.094-3.258,4.259-6.469,6.446-9.541l2.071,1.466C110.378,195.223,108.237,198.411,106.166,201.646Zm702.064-9.1c-3.281-1.676-6.749-3.3-10.309-4.84l1-2.35c3.607,1.559,7.121,3.211,10.449,4.91Zm-20.9-9.052c-3.467-1.257-7.121-2.49-10.821-3.63l.745-2.443c3.747,1.164,7.423,2.4,10.937,3.677Zm-667.972-.465-2-1.559c2.374-3.048,4.84-6.05,7.33-8.913l1.932,1.676C124.154,177.048,121.711,180,119.36,183.029Zm646.167-6.33c-3.584-.931-7.307-1.838-11.123-2.7l.558-2.49c3.84.861,7.586,1.769,11.217,2.723Zm-22.317-5c-3.63-.7-7.447-1.35-11.286-1.978l.419-2.513c3.863.628,7.679,1.3,11.356,2Zm-22.619-3.677c-3.654-.512-7.493-1-11.38-1.443l.3-2.537c3.886.465,7.749.954,11.426,1.466ZM134.3,165.808l-1.838-1.769c2.676-2.769,5.469-5.492,8.238-8.075l1.722,1.885C139.676,160.363,136.953,163.062,134.3,165.808Zm563.532-.489c-3.677-.372-7.517-.721-11.426-1.07l.233-2.537c3.909.349,7.772.7,11.449,1.071Zm-22.875-1.978c-3.63-.279-7.493-.535-11.449-.814l.163-2.537c3.956.256,7.819.535,11.473.814Zm-22.9-1.536c-3.793-.233-7.61-.442-11.426-.652l.14-2.537c3.817.209,7.633.419,11.449.652Zm-22.9-1.233-10.937-.559-.535-.023.116-2.56.535.023,10.937.559Zm-22.969-1.164c-3.84-.186-7.68-.4-11.519-.605l.14-2.537c3.84.209,7.656.419,11.5.605Zm-22.969-1.257c-4.049-.233-7.8-.465-11.473-.721l.163-2.537c3.677.233,7.424.465,11.45.721Zm-22.968-1.513c-3.933-.3-7.8-.605-11.473-.931l.209-2.537c3.654.326,7.517.628,11.449.931Zm-22.922-2c-3.91-.4-7.749-.814-11.449-1.233l.3-2.537c3.677.442,7.517.838,11.4,1.233Zm-22.852-2.676c-3.886-.535-7.726-1.094-11.38-1.7l.4-2.513c3.654.582,7.47,1.14,11.333,1.675Zm-363.447-1.606-1.606-1.978c2.979-2.443,6.05-4.817,9.169-7.028l1.489,2.071C157.013,145.609,153.964,147.936,151.032,150.356Zm340.711-2.071c-3.84-.721-7.656-1.489-11.286-2.3l.559-2.49c3.63.791,7.4,1.559,11.217,2.281Zm-22.5-4.957c-1.676-.419-3.351-.884-4.98-1.326l-6.12-1.676.675-2.467,6.12,1.7c1.629.442,3.281.884,4.933,1.326Zm-22.154-6.05q-5.515-1.5-11.077-3l.652-2.467q5.55,1.5,11.077,3Zm-277.577-.209-1.35-2.164c3.258-2.048,6.609-4,9.983-5.818l1.21,2.234C176.025,133.113,172.721,135.044,169.509,137.069Zm255.4-5.748c-3.816-1-7.563-1.978-11.1-2.886l.628-2.467c3.56.908,7.307,1.885,11.124,2.886Zm-235.363-5.1-1.07-2.327c3.467-1.606,7.051-3.118,10.635-4.491l.908,2.374C196.48,123.153,192.966,124.665,189.546,126.224Zm213.139-.559c-3.793-.931-7.54-1.838-11.147-2.676l.582-2.49c3.607.838,7.377,1.745,11.17,2.676Zm-22.34-5.189c-3.793-.838-7.563-1.629-11.217-2.374l.512-2.49c3.654.745,7.447,1.559,11.24,2.374ZM210.769,118.01l-.768-2.42c3.63-1.14,7.354-2.211,11.1-3.165l.628,2.467C218.029,115.822,214.353,116.893,210.769,118.01Zm147.12-2.118c-3.816-.7-7.61-1.373-11.286-1.978l.419-2.513c3.7.605,7.517,1.28,11.333,2ZM232.853,112.4l-.489-2.513c3.723-.721,7.54-1.373,11.38-1.931l.372,2.513C240.323,111.028,236.53,111.68,232.853,112.4Zm102.439-.233c-3.84-.559-7.656-1.047-11.356-1.489l.3-2.537c3.723.442,7.563.954,11.4,1.489Zm-22.736-2.7c-3.84-.349-7.679-.652-11.4-.861l.163-2.537c3.747.233,7.61.512,11.5.884Zm-57.084-.326-.233-2.537c3.747-.349,7.633-.628,11.5-.838l.116,2.56C263.012,108.515,259.2,108.794,255.472,109.143ZM289.7,108.1c-2.886-.07-5.771-.116-8.564-.116-.954,0-1.908,0-2.862.023l-.023-2.56c.954,0,1.931-.023,2.886-.023,2.839,0,5.748.047,8.634.116Z" transform="translate(-82.08 -105.42)" fill="#0a0a09"/>
      </g>
      <g id="Group_80" data-name="Group 80" transform="translate(733.752 160.549)">
        <path id="Path_45" data-name="Path 45" d="M505.959,196.736a74.086,74.086,0,0,0-7.912-19.082l8.052-12.1-11.17-11.17-11.17-11.17-12.124,8.052a73.745,73.745,0,0,0-19.082-7.912L449.69,129.11h-31.6l-2.862,14.242a74.085,74.085,0,0,0-19.082,7.912l-12.1-8.052-11.17,11.17-11.17,11.17,8.052,12.1a73.743,73.743,0,0,0-7.912,19.082L347.6,199.6v31.6l14.242,2.862a74.08,74.08,0,0,0,7.912,19.082l-8.052,12.1,11.17,11.17,11.17,11.17,12.1-8.052a73.744,73.744,0,0,0,19.082,7.912l2.862,14.242h31.6l2.862-14.242a74.426,74.426,0,0,0,19.082-7.912l12.124,8.052,11.17-11.17,11.17-11.17-8.052-12.1a73.747,73.747,0,0,0,7.912-19.082L520.2,231.2V199.6Zm-72.047,74.025A55.362,55.362,0,1,1,489.274,215.4,55.358,55.358,0,0,1,433.912,270.761Z" transform="translate(-347.6 -129.11)" fill="#0090f8"/>
      </g>
      <g id="Group_81" data-name="Group 81" transform="translate(401.162 253.68)">
        <path id="Path_46" data-name="Path 46" d="M623.582,198.172V440.866a29.05,29.05,0,0,1-29.042,29.042H233.722a29.05,29.05,0,0,1-29.042-29.042V198.172a29.05,29.05,0,0,1,29.042-29.042H594.54A29.065,29.065,0,0,1,623.582,198.172Z" transform="translate(-204.68 -169.13)" fill="#dae8f5"/>
      </g>
      <g id="Group_86" data-name="Group 86" transform="translate(428.58 272.63)">
        <g id="Group_82" data-name="Group 82" transform="translate(0)">
          <path id="Path_47" data-name="Path 47" d="M383.31,234.28a85.921,85.921,0,1,0-161.8,57.875c.652,1.815,1.35,3.607,2.118,5.352A85.922,85.922,0,0,0,383.31,234.28Zm-59.2,89.593a64.37,64.37,0,0,1-80.774-34.953c-.559-1.3-1.094-2.653-1.582-4.026a64.417,64.417,0,1,1,82.356,38.979Z" transform="translate(-216.462 -177.273)" fill="#0090f8"/>
        </g>
        <g id="Group_83" data-name="Group 83" transform="translate(3.928 0.039)">
          <path id="Path_48" data-name="Path 48" d="M238.675,243.985l-20.525-6.4a86.036,86.036,0,0,1,79.447-60.3l.652,21.5a64.525,64.525,0,0,0-59.574,45.192Z" transform="translate(-218.15 -177.29)" fill="#1a598c"/>
        </g>
        <g id="Group_84" data-name="Group 84" transform="translate(0 60.334)">
          <path id="Path_49" data-name="Path 49" d="M243.335,254.513,223.625,263.1c-.768-1.745-1.466-3.537-2.118-5.352A85.492,85.492,0,0,1,220.39,203.2l20.525,6.4a64.01,64.01,0,0,0,.838,40.887C242.241,251.86,242.777,253.209,243.335,254.513Z" transform="translate(-216.462 -203.2)" fill="#2273b5"/>
        </g>
        <g id="Group_85" data-name="Group 85" transform="translate(7.162 111.647)">
          <path id="Path_50" data-name="Path 50" d="M232.851,255.223a85.462,85.462,0,0,1-13.311-21.386l19.711-8.587a64.127,64.127,0,0,0,9.983,16.034Z" transform="translate(-219.54 -225.25)" fill="#4da8f2"/>
        </g>
      </g>
      <g id="Group_91" data-name="Group 91" transform="translate(429.478 454.903)">
        <g id="Group_87" data-name="Group 87">
          <path id="Path_51" data-name="Path 51" d="M241.776,338.515a43.548,43.548,0,0,0,37.257-78.726c-.884-.419-1.769-.815-2.676-1.164a43,43,0,0,0-12.45-2.886,43.551,43.551,0,0,0-22.131,82.775ZM230.885,285.2a32.635,32.635,0,0,1,41.469-16.429c.675.256,1.35.559,2,.861A32.623,32.623,0,0,1,289.9,313.1a32.109,32.109,0,0,1-5.748,8.424A32.637,32.637,0,0,1,230.885,285.2Z" transform="translate(-216.848 -255.599)" fill="#6eb2eb"/>
        </g>
        <g id="Group_88" data-name="Group 88" transform="translate(67.328 23.365)">
          <path id="Path_52" data-name="Path 52" d="M250.923,270.69l9.658-5.05a43.6,43.6,0,0,1-6.865,50.079l-7.935-7.47a33.084,33.084,0,0,0,5.748-8.424A32.678,32.678,0,0,0,250.923,270.69Z" transform="translate(-245.78 -265.64)" fill="#1a598c"/>
        </g>
        <g id="Group_89" data-name="Group 89" transform="translate(55.507 3.027)">
          <path id="Path_53" data-name="Path 53" d="M240.7,267.046l4-10.146c.908.349,1.792.745,2.676,1.164a43.4,43.4,0,0,1,19.943,19.152l-9.658,5.05A32.472,32.472,0,0,0,242.7,267.907C242.05,267.6,241.375,267.325,240.7,267.046Z" transform="translate(-240.7 -256.9)" fill="#2273b5"/>
        </g>
        <g id="Group_90" data-name="Group 90" transform="translate(46.175 0.141)">
          <path id="Path_54" data-name="Path 54" d="M237.574,255.66a43,43,0,0,1,12.45,2.886l-4,10.146a32.356,32.356,0,0,0-9.332-2.164Z" transform="translate(-236.69 -255.66)" fill="#4da8f2"/>
        </g>
      </g>
      <g id="Group_92" data-name="Group 92" transform="translate(631.266 253.703)">
        <path id="Path_55" data-name="Path 55" d="M492.358,198.159V440.853a29.05,29.05,0,0,1-29.042,29.042H303.56V169.14H463.316A29.03,29.03,0,0,1,492.358,198.159Z" transform="translate(-303.56 -169.14)" fill="#0090f8"/>
      </g>
      <g id="Group_93" data-name="Group 93" transform="translate(655.514 284.886)">
        <path id="Path_56" data-name="Path 56" d="M450.465,197.829H317.773a3.794,3.794,0,0,1-3.793-3.793v-7.7a3.794,3.794,0,0,1,3.793-3.793H450.465a3.794,3.794,0,0,1,3.793,3.793v7.7A3.794,3.794,0,0,1,450.465,197.829Z" transform="translate(-313.98 -182.54)" fill="#e3f2ff"/>
      </g>
      <g id="Group_94" data-name="Group 94" transform="translate(655.514 317.675)">
        <path id="Path_57" data-name="Path 57" d="M450.465,211.919H317.773a3.794,3.794,0,0,1-3.793-3.793v-7.7a3.794,3.794,0,0,1,3.793-3.793H450.465a3.794,3.794,0,0,1,3.793,3.793v7.7A3.794,3.794,0,0,1,450.465,211.919Z" transform="translate(-313.98 -196.63)" fill="#73c0ff"/>
      </g>
      <g id="Group_95" data-name="Group 95" transform="translate(655.538 355.304)">
        <path id="Path_58" data-name="Path 58" d="M441.515,385.587h-114.8a12.732,12.732,0,0,1-12.729-12.729V225.529A12.732,12.732,0,0,1,326.719,212.8h114.8a12.732,12.732,0,0,1,12.729,12.729V372.858A12.732,12.732,0,0,1,441.515,385.587Z" transform="translate(-313.99 -212.8)" fill="#73c0ff"/>
      </g>
      <g id="Group_96" data-name="Group 96" transform="translate(646.392 347.928)" opacity="0.58">
        <path id="Path_59" data-name="Path 59" d="M344.222,337.714h-18.5a15.652,15.652,0,0,1-15.661-15.661V225.291a15.652,15.652,0,0,1,15.661-15.661h18.5a15.652,15.652,0,0,1,15.661,15.661v96.761A15.667,15.667,0,0,1,344.222,337.714Z" transform="translate(-310.06 -209.63)" fill="#e0f1ff"/>
      </g>
      <g id="Group_97" data-name="Group 97" transform="translate(322.04 239.787)">
        <rect id="Rectangle_12" data-name="Rectangle 12" width="320.116" height="2.118" fill="#78c2ff"/>
      </g>
      <g id="Group_98" data-name="Group 98" transform="translate(336.957 187.916)">
        <path id="Path_60" data-name="Path 60" d="M194.241,175.171a17.151,17.151,0,1,1,17.151-17.151A17.167,17.167,0,0,1,194.241,175.171Zm0-31.765a14.614,14.614,0,1,0,14.614,14.614A14.639,14.639,0,0,0,194.241,143.407Z" transform="translate(-177.09 -140.87)" fill="#4da8f2"/>
      </g>
      <g id="Group_100" data-name="Group 100" transform="translate(286.987 417.679)">
        <g id="Group_99" data-name="Group 99">
          <path id="Path_61" data-name="Path 61" d="M176.731,239.665s16.034,2.862,16.173,16.429-12.264,33.231-20.339,31.765c-8.075-1.443-17.244-8.61-16.941-16.872s2.606-19.106,6.33-25.063C165.677,239.991,172.263,239.362,176.731,239.665Z" transform="translate(-155.617 -239.604)" fill="#eea886"/>
        </g>
      </g>
      <g id="Group_102" data-name="Group 102" transform="translate(287.45 416.664)">
        <g id="Group_101" data-name="Group 101">
          <path id="Path_62" data-name="Path 62" d="M155.919,265.284s.023,2.769,5.539,4.957,15.638-.884,18.175-.372,3.3-.721,3.3-.721l.186,2.7,2.164,1.466s1.513-7.214,6.05-7.842,8.308-21.316-11.217-25.249c0,0-14.451-3.933-18.175,3.4C158.176,251,155.22,260.118,155.919,265.284Z" transform="translate(-155.816 -239.167)" fill="#e8734d"/>
        </g>
      </g>
      <g id="Group_103" data-name="Group 103" transform="translate(262.653 515.712)" opacity="0.82">
        <path id="Path_63" data-name="Path 63" d="M289.487,444.79H163.893a18.736,18.736,0,0,1-18.733-18.733V300.463a18.736,18.736,0,0,1,18.733-18.733H289.487a18.736,18.736,0,0,1,18.733,18.733V426.057A18.706,18.706,0,0,1,289.487,444.79Z" transform="translate(-145.16 -281.73)" fill="#87c9ff"/>
      </g>
      <g id="Group_104" data-name="Group 104" transform="translate(250.017 253.703)">
        <path id="Path_64" data-name="Path 64" d="M302.813,185.476v91.176a16.327,16.327,0,0,1-16.336,16.336H156.066a16.327,16.327,0,0,1-16.336-16.336V185.476a16.327,16.327,0,0,1,16.336-16.336H286.477A16.327,16.327,0,0,1,302.813,185.476Z" transform="translate(-139.73 -169.14)" fill="#e3f2ff"/>
      </g>
      <g id="Group_105" data-name="Group 105" transform="translate(349.919 539.658)">
        <path id="Path_65" data-name="Path 65" d="M242.187,309.59H186.5a3.843,3.843,0,0,1-3.84-3.84v-9.89a3.843,3.843,0,0,1,3.84-3.84h55.688a3.843,3.843,0,0,1,3.84,3.84v9.89A3.843,3.843,0,0,1,242.187,309.59Z" transform="translate(-182.66 -292.02)" fill="#e3f2ff"/>
      </g>
      <g id="Group_106" data-name="Group 106" transform="translate(349.942 566.14)">
        <path id="Path_66" data-name="Path 66" d="M237.194,396.368h-45.7a8.829,8.829,0,0,1-8.82-8.82V312.22a8.829,8.829,0,0,1,8.82-8.82h45.7a8.829,8.829,0,0,1,8.82,8.82v75.328A8.829,8.829,0,0,1,237.194,396.368Z" transform="translate(-182.67 -303.4)" fill="#e3f2ff"/>
      </g>
      <g id="Group_112" data-name="Group 112" transform="translate(279.499 532.371)">
        <g id="Group_107" data-name="Group 107">
          <path id="Path_67" data-name="Path 67" d="M172.205,345.65a29.125,29.125,0,0,0,38.467-27.227c0-.652,0-1.3-.047-1.955a29.113,29.113,0,0,0-28.716-27.576A29.155,29.155,0,0,0,152.4,317.655,29.131,29.131,0,0,0,172.205,345.65Zm-12.5-27.879a21.86,21.86,0,0,1,42.4-7.168h0a21.555,21.555,0,0,1,1.28,6.26c.023.489.023.977.023,1.466A21.828,21.828,0,0,1,181.3,339.9a21.462,21.462,0,0,1-6.725-1.14A21.834,21.834,0,0,1,159.708,317.771Z" transform="translate(-152.399 -288.889)" fill="#e3f2ff"/>
        </g>
        <g id="Group_108" data-name="Group 108" transform="translate(19.806 42.542)">
          <path id="Path_68" data-name="Path 68" d="M187.532,307.17l5.771,4.468a29.009,29.009,0,0,1-23.411,11.286,29.446,29.446,0,0,1-8.983-1.536l2.35-6.911a21.46,21.46,0,0,0,6.725,1.14A21.719,21.719,0,0,0,187.532,307.17Z" transform="translate(-160.91 -307.17)" fill="#1a598c"/>
        </g>
        <g id="Group_109" data-name="Group 109" transform="translate(46.428 27.579)">
          <path id="Path_69" data-name="Path 69" d="M176.888,301.136l7.284-.4c.023.652.047,1.3.047,1.955a29.122,29.122,0,0,1-6.1,17.477L172.35,315.7a21.641,21.641,0,0,0,4.561-13.1C176.911,302.113,176.911,301.624,176.888,301.136Z" transform="translate(-172.35 -300.74)" fill="#2273b5"/>
        </g>
        <g id="Group_110" data-name="Group 110" transform="translate(49.686 19.225)">
          <path id="Path_70" data-name="Path 70" d="M175.03,305.9a21.4,21.4,0,0,0-1.28-6.26h0l6.865-2.49a28.532,28.532,0,0,1,1.7,8.378Z" transform="translate(-173.75 -297.15)" fill="#2273b5"/>
        </g>
        <g id="Group_111" data-name="Group 111" transform="translate(11.615 0.023)">
          <path id="Path_71" data-name="Path 71" d="M157.39,294.766A29.126,29.126,0,0,1,202.3,308.1l-6.842,2.513h0a21.885,21.885,0,0,0-33.813-9.913Z" transform="translate(-157.39 -288.899)" fill="#4da8f2"/>
        </g>
      </g>
      <g id="Group_116" data-name="Group 116" transform="translate(93.938 254.006)">
        <g id="Group_113" data-name="Group 113">
          <path id="Path_72" data-name="Path 72" d="M72.66,224.143l35.116-54.873-17.849,8.075Z" transform="translate(-72.66 -169.27)" fill="#070606"/>
        </g>
        <g id="Group_114" data-name="Group 114" transform="translate(0 14.521)">
          <path id="Path_73" data-name="Path 73" d="M72.66,215.862,74.8,182.794l12.753-7.284Z" transform="translate(-72.66 -175.51)" fill="#070606"/>
        </g>
        <g id="Group_115" data-name="Group 115" transform="translate(0 12.613)">
          <path id="Path_74" data-name="Path 74" d="M99.7,174.69l4.4,5.771L72.66,216.95Z" transform="translate(-72.66 -174.69)" fill="#070606"/>
        </g>
      </g>
      <g id="Group_117" data-name="Group 117" transform="translate(336.161 517.709)">
        <path id="Path_75" data-name="Path 75" d="M178.568,288.969a4.857,4.857,0,0,0,2.49-1.14c1.582-1.606,1.722-5,4.91-5.236,3.165-.233,6.1,9.4,5.608,11.38-.512,1.978-4.724,3.56-11.38,3.258C173.541,296.9,178.568,288.969,178.568,288.969Z" transform="translate(-176.748 -282.588)" fill="#eea886"/>
      </g>
      <g id="Group_118" data-name="Group 118" transform="translate(344.189 511.494)">
        <path id="Path_76" data-name="Path 76" d="M180.3,286.37a99.7,99.7,0,0,1,9.332-4.119c4.422-1.676,9.89-2.862,10.5-2.094,1.326,1.7-3.84,2.886-8.122,4.817a28.235,28.235,0,0,0-3.281,1.513s-.3-.093,4.352-1.233c5-1.233,10.216-2,10.868-1.07.326.465.908,2.048-1.187,1.978,1.094-.209.908-.372,1.024.047.559,2.257-6.562,5.166-9.378,6.33,2.164-.884,3.863-1.3,3.281.349-.675,1.885-10.891,5.585-14.451,7.237C179.365,301.915,180.3,286.37,180.3,286.37Z" transform="translate(-180.198 -279.917)" fill="#eea886"/>
      </g>
      <g id="Group_119" data-name="Group 119" transform="translate(208.795 457.4)">
        <path id="Path_77" data-name="Path 77" d="M181.622,256.993a121.961,121.961,0,0,0-17.081,0c-7.074.721-16.825,6.516-22.736,8.168-5.911,1.675-20.176,11.263-19.78,12.566s5.911,16.918,16.127,29.577C146.878,318.149,181.622,256.993,181.622,256.993Z" transform="translate(-122.017 -256.672)" fill="#d4d8e8"/>
      </g>
      <g id="Group_120" data-name="Group 120" transform="translate(227.188 464.004)">
        <path id="Path_78" data-name="Path 78" d="M149.514,259.51s-10.8,7.982-14.544,15.312a59.083,59.083,0,0,0-5.05,16.057Z" transform="translate(-129.92 -259.51)" fill="#a9adba"/>
      </g>
      <g id="Group_121" data-name="Group 121" transform="translate(235.126 701.173)">
        <path id="Path_79" data-name="Path 79" d="M153.178,362.3s3.1,3.281,4.864,4.142c1.792.861,23.085,4.538,24.528,6.26,1.443,1.745,1.443,8.587-4.049,8.587s-23.806-.093-26.878,0c-3.1.093-16.1,2.7-17.453,0s-1.21-15.289,1.164-18.314S153.178,362.3,153.178,362.3Z" transform="translate(-133.331 -361.426)" fill="#1c4154"/>
      </g>
      <g id="Group_122" data-name="Group 122" transform="translate(237.148 698.203)">
        <path id="Path_80" data-name="Path 80" d="M151.374,360.15l.652,3.816s-5.678,2.606-17.826.675v-3.956Z" transform="translate(-134.2 -360.15)" fill="#2a617d"/>
      </g>
      <g id="Group_123" data-name="Group 123" transform="translate(118.226 691.431)">
        <path id="Path_81" data-name="Path 81" d="M89.829,357.24a21.252,21.252,0,0,0-3.56,6.353c-.745,2.3-4.328,13.008-2.793,15.615s13.683,2.979,19.757,2.025,19.268,1.047,20.618-1.536c1.35-2.606,2.118-6.4-1.838-7.866S109,366.5,107.375,362.453,89.829,357.24,89.829,357.24Z" transform="translate(-83.097 -357.24)" fill="#1c4154"/>
      </g>
      <g id="Group_124" data-name="Group 124" transform="translate(124.958 683.426)">
        <path id="Path_82" data-name="Path 82" d="M105.212,362.689l-1.676,4.328s-17.407-1.3-17.546-5.213l5.492-8.005Z" transform="translate(-85.99 -353.8)" fill="#2a617d"/>
      </g>
      <g id="Group_127" data-name="Group 127" transform="translate(274.161 450.32)">
        <g id="Group_126" data-name="Group 126">
          <g id="Group_125" data-name="Group 125">
            <path id="Path_83" data-name="Path 83" d="M162.962,253.63s-9.7,8.238-12.45,7.563c-2.769-.675,9.518,17.43,9.518,17.43s11.682-11.5,14.312-11.845S162.962,253.63,162.962,253.63Z" transform="translate(-150.105 -253.63)" fill="#eea886"/>
          </g>
        </g>
      </g>
      <g id="Group_128" data-name="Group 128" transform="translate(284.091 478.464)">
        <path id="Path_84" data-name="Path 84" d="M157.95,270.113c-3.3,2-3.863,2.63-3.467,12.078s4.305,17.058,4.584,19.664,5.539,28.414,6.981,29.857,18.733-1.931,22.224-3c5.236-1.629,27.367-9.122,27.367-9.122l-4.864-10.146s-27.949,6.237-28.856,4.049-3.1-20.525-3.863-24.5.582-10.239-4.189-19.687C169.632,260.8,157.95,270.113,157.95,270.113Z" transform="translate(-154.373 -265.724)" fill="#d4d8e8"/>
      </g>
      <g id="Group_129" data-name="Group 129" transform="translate(198.799 532.351)">
        <path id="Path_85" data-name="Path 85" d="M173.825,310.429s5.934,6.306,7.586,8.354c11.356,14.032,26.785,39.77,28.716,44.261s-9.541,36.3-14.265,47.426c-2.467,5.818-18.826,45.984-18.314,46.868.512.908-17.29,1.489-25.272-2.606,0,0,11.449-33.929,13.87-40.585,3.654-10.053,16.29-37.885,16.662-40.585.4-2.7-20.432-24.947-27.367-29.182s-23.9-19.268-25.831-21.2-12.846-7.074-11.822-16.825c1.024-9.774,8.284-17.477,8.284-17.477Z" transform="translate(-117.721 -288.88)" fill="#326ea0"/>
      </g>
      <g id="Group_130" data-name="Group 130" transform="translate(126.796 530.652)">
        <path id="Path_86" data-name="Path 86" d="M183.75,335.576s-1.094,2.862-2.606,6.842c-3.258,8.587-8.54,22.433-9.425,24.621-1.28,3.211-7.7,17.081-10.8,19.78s-53.849,63.6-53.966,64.112-19.012-9.262-20.176-12.985c0,0,27.506-35.861,31.742-41.12s13.1-13.1,16.057-25.575,24.155-60.388,24.225-62.2c0,0,3.421-14.777,8.354-19.268,4.957-4.491,22.945.768,25.761,10.146C195.758,309.35,183.75,335.576,183.75,335.576Z" transform="translate(-86.78 -288.15)" fill="#326ea0"/>
      </g>
      <g id="Group_131" data-name="Group 131" transform="translate(273.683 456.184)">
        <path id="Path_87" data-name="Path 87" d="M149.9,257.756l4.1-1.606s10.356,2.374,16.313,10.658l-.512,2.467C169.8,269.3,154.019,265.877,149.9,257.756Z" transform="translate(-149.9 -256.15)" fill="#d4d8e8"/>
      </g>
      <g id="Group_132" data-name="Group 132" transform="translate(286.11 505.822)">
        <path id="Path_88" data-name="Path 88" d="M158.614,289.79a16.492,16.492,0,0,1-1.932,2.35c-.3.256-.652.559-1.047.884h0l-.4-15.545s1.955,5.981,2.234,6.888S158.614,289.79,158.614,289.79Z" transform="translate(-155.24 -277.48)" fill="#a9adba"/>
      </g>
      <g id="Group_133" data-name="Group 133" transform="translate(209.827 565.907)">
        <path id="Path_89" data-name="Path 89" d="M136.4,315.471s-1.094,2.862-2.606,6.842c-3.444-3.979-11.333-19.012-11.333-19.012.512.372,2.164,1.908,2.537,2.257S136.4,315.471,136.4,315.471Z" transform="translate(-122.46 -303.3)" fill="#215b8a"/>
      </g>
      <g id="Group_135" data-name="Group 135" transform="translate(306.303 442.26)">
        <g id="Group_134" data-name="Group 134">
          <path id="Path_90" data-name="Path 90" d="M169.648,254.061c.372-1.187-.512-5.678-3.4-3.118-2.862,2.56-2.862,8.308-1.233,8.773C166.646,260.2,168.74,257.063,169.648,254.061Z" transform="translate(-163.917 -250.166)" fill="#eea886"/>
        </g>
      </g>
      <g id="Group_137" data-name="Group 137" transform="translate(287.32 419.554)">
        <g id="Group_136" data-name="Group 136">
          <path id="Path_91" data-name="Path 91" d="M169.746,241.761s-13.916-9.89-13.986,23.83Z" transform="translate(-155.76 -240.409)" fill="#e8734d"/>
        </g>
      </g>
      <g id="Group_138" data-name="Group 138" transform="translate(207.175 457.684)">
        <path id="Path_92" data-name="Path 92" d="M203.63,317.242a16.492,16.492,0,0,1-1.932,2.35c-.3.256-.652.559-1.047.884h0a162.649,162.649,0,0,1-16.8,11.449c-4.491,2.443-13.032,23.015-13.032,23.015s-40.236-2.723-49.5-23.527c0,0,6.562-14.661,12.52-23.318,5.981-8.68,19.082-39.91,26.017-44.331,6.935-4.445,12.915-7.33,26.6-6.935s21.27,11.24,21.27,11.24,10.4,11.17,11.426,17.081C220.059,290.248,208.749,310.1,203.63,317.242Z" transform="translate(-121.32 -256.794)" fill="#d4d8e8"/>
      </g>
      <g id="Group_139" data-name="Group 139" transform="translate(249.737 253.703)">
        <path id="Path_93" data-name="Path 93" d="M302.973,185.476l-.279,9.076H139.61l.279-9.076a16.327,16.327,0,0,1,16.336-16.336H286.636A16.327,16.327,0,0,1,302.973,185.476Z" transform="translate(-139.61 -169.14)" fill="#0090f8"/>
      </g>
      <g id="Group_140" data-name="Group 140" transform="translate(260.675 286.329)">
        <path id="Path_94" data-name="Path 94" d="M184.8,263.934H151.989a7.687,7.687,0,0,1-7.679-7.679V190.839a7.687,7.687,0,0,1,7.679-7.679H184.8a7.687,7.687,0,0,1,7.679,7.679v65.415A7.657,7.657,0,0,1,184.8,263.934ZM151.989,185.72a5.145,5.145,0,0,0-5.143,5.143v65.415a5.145,5.145,0,0,0,5.143,5.143H184.8a5.145,5.145,0,0,0,5.143-5.143V190.863a5.145,5.145,0,0,0-5.143-5.143Z" transform="translate(-144.31 -183.16)" fill="#78c2ff"/>
      </g>
      <g id="Group_141" data-name="Group 141" transform="translate(317.572 287.586)">
        <path id="Path_95" data-name="Path 95" d="M249.487,190.518H171.32a2.552,2.552,0,0,1-2.56-2.56v-1.7a2.552,2.552,0,0,1,2.56-2.56h78.167a2.552,2.552,0,0,1,2.56,2.56v1.7A2.582,2.582,0,0,1,249.487,190.518Z" transform="translate(-168.76 -183.7)" fill="#78c2ff"/>
      </g>
      <g id="Group_142" data-name="Group 142" transform="translate(317.572 301.409)">
        <path id="Path_96" data-name="Path 96" d="M249.487,196.458H171.32a2.552,2.552,0,0,1-2.56-2.56v-1.7a2.552,2.552,0,0,1,2.56-2.56h78.167a2.552,2.552,0,0,1,2.56,2.56v1.7A2.583,2.583,0,0,1,249.487,196.458Z" transform="translate(-168.76 -189.64)" fill="#78c2ff"/>
      </g>
      <g id="Group_143" data-name="Group 143" transform="translate(532.527 464.632)">
        <path id="Path_97" data-name="Path 97" d="M316.7,275.674H265.086a3.953,3.953,0,0,1-3.956-3.956v-7.982a3.953,3.953,0,0,1,3.956-3.956H316.7a3.953,3.953,0,0,1,3.956,3.956v7.982A3.953,3.953,0,0,1,316.7,275.674Z" transform="translate(-261.13 -259.78)" fill="#6eb2eb"/>
      </g>
      <g id="Group_144" data-name="Group 144" transform="translate(532.527 490.509)">
        <path id="Path_98" data-name="Path 98" d="M316.7,286.794H265.086a3.953,3.953,0,0,1-3.956-3.956v-7.982a3.953,3.953,0,0,1,3.956-3.956H316.7a3.953,3.953,0,0,1,3.956,3.956v7.982A3.953,3.953,0,0,1,316.7,286.794Z" transform="translate(-261.13 -270.9)" fill="#4da8f2"/>
      </g>
      <g id="Group_145" data-name="Group 145" transform="translate(532.527 516.387)">
        <path id="Path_99" data-name="Path 99" d="M316.7,297.914H265.086a3.953,3.953,0,0,1-3.956-3.956v-7.982a3.953,3.953,0,0,1,3.956-3.956H316.7a3.953,3.953,0,0,1,3.956,3.956v7.982A3.953,3.953,0,0,1,316.7,297.914Z" transform="translate(-261.13 -282.02)" fill="#2273b5"/>
      </g>
      <g id="Group_146" data-name="Group 146" transform="translate(261.955 260.405)">
        <path id="Path_100" data-name="Path 100" d="M159.032,179.094a7.086,7.086,0,1,1-7.1-7.074A7.1,7.1,0,0,1,159.032,179.094Z" transform="translate(-144.86 -172.02)" fill="#e3f2ff"/>
      </g>
      <g id="Group_148" data-name="Group 148" transform="translate(809.173 470.45)">
        <g id="Group_147" data-name="Group 147">
          <path id="Path_101" data-name="Path 101" d="M380.01,304.284s28.81,9.308,35.465,7.656c3.514-.861,9.006-5.864,14.126-11.24.838-.884,1.675-1.792,2.49-2.676,5.632-6.19,10.239-12.1,10.239-12.1s13.963-16.36,2.746-23.643a14.989,14.989,0,0,0-8.68,4.468,57.509,57.509,0,0,0-8.215,12.52c-.977,2.141-14.684,21.9-15.405,22.34-.7.442-6.7-1.14-11.5-1.536-7.842-.652-19.548-4.654-19.548-4.654Z" transform="translate(-380.01 -262.28)" fill="#2273b5"/>
        </g>
      </g>
      <g id="Group_149" data-name="Group 149" transform="translate(825.788 689.942)">
        <path id="Path_102" data-name="Path 102" d="M410.142,356.6s-3.677,6.562-5.841,7.889c-2.723,1.652-7.982,6.958-9.82,7.214-1.838.233-8.447,1.419-7.167,5.143,1.047,3.072,16.825,2.63,18.594,1.094s7.1-7.028,9.239-6.911,1.35,7.935,1.35,7.935h2.327s.814-7.61.908-8.913c.279-3.863-2.467-6.725-2.583-8.913-.116-2.211-.256-3.863-.256-3.863Z" transform="translate(-387.15 -356.6)" fill="#16202e"/>
      </g>
      <g id="Group_150" data-name="Group 150" transform="translate(833.654 689.547)">
        <path id="Path_103" data-name="Path 103" d="M390.53,371.742s5.189,1.792,9.192-.512,11.682-5.794,14.4-5.818c0,0-1.489-4.538-1.513-5.027-.023-.512-.186-2.886-.186-2.886l-6.7-1.07s-4.352,6.4-6.283,7.889A104.417,104.417,0,0,0,390.53,371.742Z" transform="translate(-390.53 -356.43)" fill="#eea886"/>
      </g>
      <g id="Group_151" data-name="Group 151" transform="translate(905.802 694.48)">
        <path id="Path_104" data-name="Path 104" d="M427.9,360.179s-.652,4.538-1.35,5.771-2.653,7.54-3.537,8.727-2.839,10.03,0,11.077c2.839,1.07,9.495,2.839,11.729-.7a14.6,14.6,0,0,0,2.187-9.774c-.349-2.723-3.048-15.15-3-16.383C433.953,357.643,427.9,360.179,427.9,360.179Z" transform="translate(-421.533 -358.55)" fill="#eea886"/>
      </g>
      <g id="Group_152" data-name="Group 152" transform="translate(904.937 708.163)">
        <path id="Path_105" data-name="Path 105" d="M424.626,364.43s-.3,6.865,4.887,6.865,7.493-6.26,7.493-6.26,1.769,3.072,0,9.611-9.146,5.189-10.775,4.957C424.556,379.37,416.737,377.3,424.626,364.43Z" transform="translate(-421.161 -364.43)" fill="#16202e"/>
      </g>
      <g id="Group_153" data-name="Group 153" transform="translate(865.954 536.674)">
        <path id="Path_106" data-name="Path 106" d="M442.062,293.675s6.7,8.541,9.076,14.2,6.306,18.035,5.794,27.646c-.535,9.588-3.677,27.6-2.769,31.672.931,4.072,1.838,12.5,2.816,15.382s4.933,11.31,5.329,19.99-2.816,46.728-2.537,50.289c.256,3.537-11.5,1.373-11.5,1.373s-.3-34.3-1.606-40.236c-1.326-5.911-2.886-26.04-4.072-27.483s-4.491-16.685-4.724-19.175c-.209-2.42-14.265-44.1-15.056-51.2s-18.407-22.457-18.407-22.457A61.432,61.432,0,0,1,442.062,293.675Z" transform="translate(-404.41 -290.738)" fill="#1a598c"/>
      </g>
      <g id="Group_154" data-name="Group 154" transform="translate(847.164 534.459)">
        <path id="Path_107" data-name="Path 107" d="M409.1,447.131c2.49-.4,9.192-38.839,8.4-45.681s-1.582-21.409.652-27.344c1.466-3.886,10.635-23.667,16.8-37.559.861-1.955,1.675-3.793,2.4-5.469,1.955-4.515,3.258-7.726,3.281-8.378.14-2.63,8.7-47.915-25.156-27.762a40.11,40.11,0,0,1-.745,4.887c-.4,1.3-9.471,34.837-10.379,47.729a257.783,257.783,0,0,1-3.677,26.576c-.4,2.746.4,11.961,1.187,14.312.791,2.374-5.12,55.781-5.515,57.107S406.609,447.527,409.1,447.131Z" transform="translate(-396.335 -289.786)" fill="#1a598c"/>
      </g>
      <g id="Group_156" data-name="Group 156" transform="translate(857.986 467.73)">
        <g id="Group_155" data-name="Group 155">
          <path id="Path_108" data-name="Path 108" d="M422.591,261.434s-6.4,3.025-8.633,3.467-10.868,11.659-12.38,15.755,0,10.239,3.118,17.453.186,9.611,1.606,16.825,2.676,22.48,2.4,26.483,36,4.77,44.261-2.513c0,0-8.308-12.45-9.378-14.242s-.186-11.473.814-13.963c.977-2.49,7.912-23.085,7.912-23.085s4.91-16.872.093-20.618c-4.189-3.258-15.592-4.4-17.616-5.12C432.714,261.131,426.78,260.829,422.591,261.434Z" transform="translate(-400.986 -261.111)" fill="#eddad3"/>
        </g>
      </g>
      <g id="Group_158" data-name="Group 158" transform="translate(873.657 465.772)">
        <g id="Group_157" data-name="Group 157">
          <path id="Path_109" data-name="Path 109" d="M411.606,276.839l-3.886-4.561,3.374-12.008A78.838,78.838,0,0,1,411.606,276.839Z" transform="translate(-407.72 -260.27)" fill="#d6c5be"/>
        </g>
      </g>
      <g id="Group_160" data-name="Group 160" transform="translate(876.543 451.898)">
        <g id="Group_159" data-name="Group 159">
          <path id="Path_110" data-name="Path 110" d="M408.96,263.063s1.28,11.752,1,15.592c0,0,6.656,6.679,14.242-7.772a19.842,19.842,0,0,1-.791-14.079C425.808,248.658,408.96,263.063,408.96,263.063Z" transform="translate(-408.96 -254.308)" fill="#eea886"/>
        </g>
      </g>
      <g id="Group_162" data-name="Group 162" transform="translate(877.544 476.244)">
        <g id="Group_161" data-name="Group 161">
          <path id="Path_111" data-name="Path 111" d="M409.39,264.77v6.1l7.656-5.725Z" transform="translate(-409.39 -264.77)" fill="#eea886"/>
        </g>
      </g>
      <g id="Group_164" data-name="Group 164" transform="translate(877.544 467.727)">
        <g id="Group_163" data-name="Group 163">
          <path id="Path_112" data-name="Path 112" d="M409.39,275.724l3.165-3.933,10.728-10.681,3.467,3.328Z" transform="translate(-409.39 -261.11)" fill="#d6c5be"/>
        </g>
      </g>
      <g id="Group_166" data-name="Group 166" transform="translate(883.445 469.007)">
        <g id="Group_165" data-name="Group 165">
          <path id="Path_113" data-name="Path 113" d="M418.335,346.436c3.025,14.451,24.853-1.629,24.853-1.629s-14.149-23.783-8.517-42.8c.046-.14.093-.3.14-.442.349-1.21.721-2.35,1.07-3.421.07-.186.116-.4.186-.582,1.233-3.747,2.234-6.818,3.048-9.378h0c2.513-7.819,3.235-10.4,3.235-10.4s-1.07-12.171-7.1-13.52-12.427-2.606-12.427-2.606-10.425,13.381-10.868,19.385C411.539,287.049,415.309,331.985,418.335,346.436Z" transform="translate(-411.926 -261.66)" fill="#2273b5"/>
        </g>
      </g>
      <g id="Group_168" data-name="Group 168" transform="translate(857.668 470.147)">
        <g id="Group_167" data-name="Group 167">
          <path id="Path_114" data-name="Path 114" d="M400.874,282.047s-.675,8.284,5,19.152c0,0-.116,14.568-.3,19.641s-1.4,24.248-1.4,24.248l6.26,3.654a1.753,1.753,0,0,0,2.63-1.745C411.3,332.405,405.552,277.02,418,262.15l-5.539,1.908C412.463,264.081,400.874,276.252,400.874,282.047Z" transform="translate(-400.849 -262.15)" fill="#2273b5"/>
        </g>
      </g>
      <g id="Group_170" data-name="Group 170" transform="translate(868.747 465.772)">
        <g id="Group_169" data-name="Group 169">
          <path id="Path_115" data-name="Path 115" d="M410.5,272.278l-4.887,1.35,8.285-13.358Z" transform="translate(-405.61 -260.27)" fill="#fae6de"/>
        </g>
      </g>
      <g id="Group_172" data-name="Group 172" transform="translate(880.708 467.727)">
        <g id="Group_171" data-name="Group 171">
          <path id="Path_116" data-name="Path 116" d="M410.75,271.791l4.491,5.864,9.169-15.243-2.932-1.3Z" transform="translate(-410.75 -261.11)" fill="#fae6de"/>
        </g>
      </g>
      <g id="Group_173" data-name="Group 173" transform="translate(863.121 422.663)">
        <path id="Path_117" data-name="Path 117" d="M421.245,241.8c-4.677-.442-15.219,1.42-17.43,13.8a37.758,37.758,0,0,0,.908,6.05c.7,2.676-2.048,10.332-1.443,10.751a16.76,16.76,0,0,0,3.118,1.024s2.327,8.634,5.329,8.7c2.979.07,14.382-1.722,20.223-12.054C437.768,259.768,440.165,243.618,421.245,241.8Z" transform="translate(-403.192 -241.745)" fill="#eea886"/>
      </g>
      <g id="Group_174" data-name="Group 174" transform="translate(863.714 420.732)">
        <path id="Path_118" data-name="Path 118" d="M403.477,256.7s7.377,5.562,14.893,6.981,11.589,14.5,11.589,14.5,12.613-18.966,3.886-31.09C425.119,234.922,402.523,242.113,403.477,256.7Z" transform="translate(-403.447 -240.916)" fill="#344052"/>
      </g>
      <g id="Group_175" data-name="Group 175" transform="translate(881.537 440.932)">
        <path id="Path_119" data-name="Path 119" d="M411.395,251.956c.116-1.466,1.838-3.584,4.166-1.466,2.3,2.118-1.257,8.936-3.188,8.145C410.417,257.867,411.278,253.469,411.395,251.956Z" transform="translate(-411.106 -249.596)" fill="#eea886"/>
      </g>
      <g id="Group_176" data-name="Group 176" transform="translate(876.52 457.278)">
        <path id="Path_120" data-name="Path 120" d="M408.95,261.693c.163.908.349,1.978.489,3.118a32.765,32.765,0,0,0,9.611-8.191C415.4,259.645,408.95,261.693,408.95,261.693Z" transform="translate(-408.95 -256.62)" fill="#a77860"/>
      </g>
      <g id="Group_177" data-name="Group 177" transform="translate(733.077 460.792)" opacity="0.86">
        <path id="Path_121" data-name="Path 121" d="M356.549,339.136l93.55.465a9.281,9.281,0,0,0,9.332-9.239l.3-62.436a9.3,9.3,0,0,0-9.239-9.332l-93.55-.465a9.281,9.281,0,0,0-9.332,9.239l-.3,62.436A9.281,9.281,0,0,0,356.549,339.136Z" transform="translate(-347.31 -258.13)" fill="#e0f1ff"/>
      </g>
      <g id="Group_178" data-name="Group 178" transform="translate(777.92 470.333)">
        <path id="Path_122" data-name="Path 122" d="M372.63,327.436l47.682.233a6.1,6.1,0,0,0,6.12-6.051l.256-53.035a6.1,6.1,0,0,0-6.051-6.12l-47.682-.233a6.1,6.1,0,0,0-6.12,6.051l-.256,53.035A6.083,6.083,0,0,0,372.63,327.436Z" transform="translate(-366.58 -262.23)" fill="#a1d4ff"/>
      </g>
      <g id="Group_179" data-name="Group 179" transform="translate(743.386 525.555)">
        <path id="Path_123" data-name="Path 123" d="M353.439,295.92l27.553.14a1.713,1.713,0,0,0,1.722-1.7l.023-6.539a1.713,1.713,0,0,0-1.7-1.722l-27.553-.14a1.713,1.713,0,0,0-1.722,1.7l-.023,6.539A1.728,1.728,0,0,0,353.439,295.92Z" transform="translate(-351.74 -285.96)" fill="#a1d4ff"/>
      </g>
      <g id="Group_180" data-name="Group 180" transform="translate(743.386 519.598)">
        <path id="Path_124" data-name="Path 124" d="M352.671,286.355l29.112.14a.934.934,0,0,0,.931-.931V284.47a.933.933,0,0,0-.931-.931l-29.112-.14a.934.934,0,0,0-.931.931v1.094A.934.934,0,0,0,352.671,286.355Z" transform="translate(-351.74 -283.4)" fill="#a1d4ff"/>
      </g>
      <g id="Group_183" data-name="Group 183" transform="translate(826.721 513.105)">
        <g id="Group_181" data-name="Group 181" transform="translate(14.065 0.419)">
          <path id="Path_125" data-name="Path 125" d="M401.752,283.327a3.478,3.478,0,0,1-1.955-.14c-1.466-.675-2.42-2.932-4.608-2.281s-1.745,7.819-.908,9.029,4.072,1.21,8.424-.675C407.1,287.376,401.752,283.327,401.752,283.327Z" transform="translate(-393.594 -280.79)" fill="#eea886"/>
        </g>
        <g id="Group_182" data-name="Group 182">
          <path id="Path_126" data-name="Path 126" d="M404,281.029a67.492,67.492,0,0,0-7.284-.419c-3.374-.023-7.307.582-7.563,1.21-.279.721,3.4.489,6.749.721,3.1.209,2.467.675,2.467.675s.163-.14-3.235.256c-3.654.419-7.33,1.21-7.563,2-.093.4.07.605,1.42.652-.791.116-.861.349-.814.675.186,1.652,5.678,1.815,7.866,1.885-1.676-.047-2.909.093-2.094,1.047.931,1.094,8.7,1,11.5,1.233C408.539,291.222,404,281.029,404,281.029Z" transform="translate(-387.551 -280.61)" fill="#eea886"/>
        </g>
      </g>
      <g id="Group_184" data-name="Group 184" transform="translate(887.743 433.839)">
        <path id="Path_127" data-name="Path 127" d="M414.883,253.371c-2.3,5.236-.908,10.937,3.118,12.706s9.169-1.047,11.473-6.306.908-10.937-3.118-12.706C422.33,245.32,417.187,248.135,414.883,253.371Z" transform="translate(-413.773 -246.548)" fill="#344052"/>
      </g>
      <g id="Group_186" data-name="Group 186" transform="translate(848.362 472.079)">
        <g id="Group_185" data-name="Group 185">
          <path id="Path_128" data-name="Path 128" d="M456.494,262.98s-5.981,1.094-8.913,5.7c-2.955,4.608-5.981,11.17-6.562,13.427-.582,2.281-11.775,23.155-12.4,23.713s-6.8.093-11.589.559c-7.819.768-20.06-1.047-20.06-1.047l-.116,9.029s30.02,3.979,36.256,1.164c7.633-3.421,26.11-29.252,26.11-29.252S468.827,268.146,456.494,262.98Z" transform="translate(-396.85 -262.98)" fill="#2273b5"/>
        </g>
      </g>
      <g id="Group_187" data-name="Group 187" transform="translate(895.881 495.512)">
        <path id="Path_129" data-name="Path 129" d="M417.27,291.806l11.705-9.378c1.233-3.747,2.234-6.818,3.048-9.378C432,273.073,420.156,288.618,417.27,291.806Z" transform="translate(-417.27 -273.05)" fill="#1a598c"/>
      </g>
      <g id="Group_188" data-name="Group 188" transform="translate(857.71 494.209)">
        <path id="Path_130" data-name="Path 130" d="M401.921,287.151c.838-.884,1.675-1.792,2.49-2.676,0,0-3.165-8.424-3.374-11.985A52.043,52.043,0,0,0,401.921,287.151Z" transform="translate(-400.867 -272.49)" fill="#1a598c"/>
      </g>
      <g id="Group_193" data-name="Group 193" transform="translate(743.39 468.932)">
        <g id="Group_189" data-name="Group 189" transform="translate(0.047)">
          <path id="Path_131" data-name="Path 131" d="M378.31,270.709a13.7,13.7,0,0,0-13.288-9.076,13.884,13.884,0,0,0-4.189.791,13.653,13.653,0,0,0-8.261,17.477c.116.279.209.582.349.861a13.66,13.66,0,0,0,25.389-10.053Zm-9.425,14.265a10.242,10.242,0,0,1-11.263-3,9.267,9.267,0,0,1-1.582-2.56,5.42,5.42,0,0,1-.256-.652,10.263,10.263,0,0,1,6.19-13.125,10.725,10.725,0,0,1,3.142-.605,10.277,10.277,0,0,1,3.77,19.943Z" transform="translate(-351.762 -261.628)" fill="#73c0ff"/>
        </g>
        <g id="Group_190" data-name="Group 190" transform="translate(0.624 0.005)">
          <path id="Path_132" data-name="Path 132" d="M355.291,272.242l-3.281-1.024a13.627,13.627,0,0,1,8.447-8.8,14.158,14.158,0,0,1,4.189-.791l.093,3.421a9.893,9.893,0,0,0-3.142.605A10.252,10.252,0,0,0,355.291,272.242Z" transform="translate(-352.01 -261.63)" fill="#73c0ff"/>
        </g>
        <g id="Group_191" data-name="Group 191" transform="translate(0 9.616)">
          <path id="Path_133" data-name="Path 133" d="M356.043,273.928,352.9,275.3c-.116-.279-.233-.558-.349-.861a13.549,13.549,0,0,1-.186-8.68l3.281,1.024a10.1,10.1,0,0,0,.14,6.516C355.857,273.486,355.95,273.719,356.043,273.928Z" transform="translate(-351.742 -265.76)" fill="#73c0ff"/>
        </g>
        <g id="Group_192" data-name="Group 192" transform="translate(1.159 17.785)">
          <path id="Path_134" data-name="Path 134" d="M354.358,274.041a13.048,13.048,0,0,1-2.118-3.4l3.142-1.373a10.988,10.988,0,0,0,1.582,2.56Z" transform="translate(-352.24 -269.27)" fill="#73c0ff"/>
        </g>
      </g>
      <g id="Group_198" data-name="Group 198" transform="translate(743.667 498.303)">
        <g id="Group_194" data-name="Group 194">
          <path id="Path_135" data-name="Path 135" d="M362.773,277.975a5.629,5.629,0,0,0-5.469-3.723,5.5,5.5,0,0,0-1.722.326,5.609,5.609,0,0,0-3.4,7.167l.14.349a5.458,5.458,0,0,0,.884,1.4,5.612,5.612,0,0,0,9.564-5.515Zm-3.886,5.864a4.2,4.2,0,0,1-4.631-1.233,3.976,3.976,0,0,1-.652-1.047,1.779,1.779,0,0,1-.093-.256,4.066,4.066,0,0,1-.047-2.676,4.209,4.209,0,0,1,2.606-2.723,4.152,4.152,0,0,1,1.3-.233,4.2,4.2,0,0,1,1.513,8.168Z" transform="translate(-351.861 -274.249)" fill="#73c0ff"/>
        </g>
        <g id="Group_195" data-name="Group 195" transform="translate(0.23 0.002)">
          <path id="Path_136" data-name="Path 136" d="M353.31,278.6l-1.35-.419a5.57,5.57,0,0,1,3.467-3.607,5.506,5.506,0,0,1,1.722-.326l.047,1.4a4.115,4.115,0,0,0-3.886,2.955Z" transform="translate(-351.96 -274.25)" fill="#73c0ff"/>
        </g>
        <g id="Group_196" data-name="Group 196" transform="translate(0 3.959)">
          <path id="Path_137" data-name="Path 137" d="M353.6,279.3l-1.28.558-.14-.349a5.657,5.657,0,0,1-.07-3.56l1.35.419a4.221,4.221,0,0,0,.047,2.676C353.534,279.115,353.581,279.208,353.6,279.3Z" transform="translate(-351.861 -275.95)" fill="#73c0ff"/>
        </g>
        <g id="Group_197" data-name="Group 197" transform="translate(0.44 7.31)">
          <path id="Path_138" data-name="Path 138" d="M352.934,279.345a6.176,6.176,0,0,1-.884-1.4l1.28-.559a3.975,3.975,0,0,0,.652,1.047Z" transform="translate(-352.05 -277.39)" fill="#73c0ff"/>
        </g>
      </g>
      <g id="Group_199" data-name="Group 199" transform="translate(319.504 329.311)">
        <rect id="Rectangle_13" data-name="Rectangle 13" width="9.937" height="36.536" fill="#78c2ff"/>
      </g>
      <g id="Group_200" data-name="Group 200" transform="translate(333.653 325.611)">
        <rect id="Rectangle_14" data-name="Rectangle 14" width="9.937" height="40.212" fill="#78c2ff"/>
      </g>
      <g id="Group_201" data-name="Group 201" transform="translate(347.964 333.267)">
        <rect id="Rectangle_15" data-name="Rectangle 15" width="9.937" height="32.579" fill="#78c2ff"/>
      </g>
      <g id="Group_202" data-name="Group 202" transform="translate(362.299 318.164)">
        <rect id="Rectangle_16" data-name="Rectangle 16" width="9.937" height="47.659" fill="#78c2ff"/>
      </g>
      <g id="Group_203" data-name="Group 203" transform="translate(377.332 322.911)">
        <rect id="Rectangle_17" data-name="Rectangle 17" width="9.937" height="42.912" fill="#78c2ff"/>
      </g>
    </g>
  </g>
</svg>
