<svg xmlns="http://www.w3.org/2000/svg" width="52.535" height="63.152" viewBox="0 0 52.535 63.152">
  <g id="Documentation_Made_Easy" data-name="Documentation Made Easy" transform="translate(-524.44 -192.75)">
    <path id="Path_13585" data-name="Path 13585" d="M569.9,255.9H525.218c-.707-.308-.778-.9-.778-1.584q.012-27.893.007-55.788c0-.1,0-.206,0-.308.026-.882.4-1.261,1.3-1.268,1.436-.01,2.872,0,4.307,0h.7c0-.962.028-1.844-.01-2.722a1.417,1.417,0,0,1,.757-1.48h30.037c.2.169.419.324.605.51q7.161,7.169,14.3,14.357a2.326,2.326,0,0,1,.493,1.192,8.667,8.667,0,0,1,.02,1.477V247.9c0,1.452-.255,1.7-1.73,1.7-1.312,0-2.625,0-3.939,0-.2,0-.395.021-.633.035,0,1.63-.021,3.21.01,4.787A1.433,1.433,0,0,1,569.9,255.9Zm4.894-8.443V209.594h-.789q-6.155,0-12.308,0c-1.235,0-1.534-.3-1.534-1.521q0-6.226,0-12.455v-.737H532.9v52.579Zm-48.2-48.371v54.663h41.921V249.6H532.436c-1.423,0-1.686-.265-1.686-1.687V199.088Zm35.717-2.577v10.905h10.9C569.56,203.761,565.95,200.146,562.318,196.511Z" fill="#0090f8"/>
    <path id="Path_13586" data-name="Path 13586" d="M653.133,467.97q6.032,0,12.062,0a4.21,4.21,0,0,1,.676.025,1.022,1.022,0,0,1,.881,1.028,1,1,0,0,1-.832,1.006,2.86,2.86,0,0,1-.673.039q-12.122,0-24.246,0c-1.013,0-1.513-.336-1.534-1.026-.021-.709.5-1.076,1.543-1.076Z" transform="translate(-96.109 -229.957)" fill="#0090f8"/>
    <path id="Path_13587" data-name="Path 13587" d="M653.13,391.166q6.029,0,12.06,0a3.546,3.546,0,0,1,.794.058,1.017,1.017,0,0,1,.034,1.97,3.171,3.171,0,0,1-.791.076q-12.09,0-24.182,0c-1.041,0-1.566-.363-1.556-1.071s.516-1.038,1.581-1.038Q647.1,391.164,653.13,391.166Z" transform="translate(-96.128 -165.784)" fill="#0090f8"/>
    <path id="Path_13588" data-name="Path 13588" d="M653.14,429.6h12.124c1.028,0,1.506.322,1.523,1.021.016.717-.505,1.085-1.539,1.085q-12.093,0-24.185,0a3.2,3.2,0,0,1-.732-.061,1.026,1.026,0,0,1,.133-2.028,6.615,6.615,0,0,1,.676-.016Z" transform="translate(-96.142 -197.893)" fill="#0090f8"/>
    <path id="Path_13589" data-name="Path 13589" d="M653.162,316.41q-6.031,0-12.061,0a3.647,3.647,0,0,1-.735-.035.967.967,0,0,1-.819-.949.93.93,0,0,1,.65-1.007,2.46,2.46,0,0,1,.785-.107q12.184-.007,24.368,0a2.454,2.454,0,0,1,.784.1.939.939,0,0,1,.674,1.049.974.974,0,0,1-.849.921,3.539,3.539,0,0,1-.674.028Z" transform="translate(-96.174 -101.566)" fill="#0090f8"/>
    <path id="Path_13590" data-name="Path 13590" d="M653.094,354.805H641.032c-1.057,0-1.567-.347-1.562-1.053s.526-1.054,1.576-1.054q12.061,0,24.121,0a3.621,3.621,0,0,1,.791.071.937.937,0,0,1,.788,1.025.949.949,0,0,1-.857.97,4.558,4.558,0,0,1-.735.038Z" transform="translate(-96.112 -133.643)" fill="#0090f8"/>
    <path id="Path_13591" data-name="Path 13591" d="M609.44,254.612c0,.985.011,1.97,0,2.955-.013.862-.39,1.235-1.247,1.24q-2.95.012-5.9,0a1.1,1.1,0,0,1-1.245-1.255q-.017-2.955,0-5.911c0-.847.4-1.23,1.26-1.233q2.95-.012,5.9,0c.857,0,1.22.375,1.232,1.25C609.45,252.642,609.44,253.627,609.44,254.612Zm-6.256-2.076v4.123h4.12v-4.123Z" transform="translate(-64 -48.171)" fill="#0090f8"/>
    <path id="Path_13592" data-name="Path 13592" d="M603.176,316.512c-.349,0-.7.02-1.044,0a1,1,0,0,1-.977-.936.936.936,0,0,1,.8-1.074,15.041,15.041,0,0,1,2.567,0,.928.928,0,0,1,.8,1.072,1,1,0,0,1-.969.937C603.956,316.533,603.566,316.512,603.176,316.512Z" transform="translate(-64.09 -101.678)" fill="#0090f8"/>
    <path id="Path_13593" data-name="Path 13593" d="M603.2,431.656a8.849,8.849,0,0,1-1.105-.008,1.047,1.047,0,0,1-.964-1.085,1.036,1.036,0,0,1,1.067-.98c.7-.023,1.395-.025,2.09,0a1.027,1.027,0,0,1,.135,2.043,10.115,10.115,0,0,1-1.225.066A.162.162,0,0,0,603.2,431.656Z" transform="translate(-64.076 -197.868)" fill="#0090f8"/>
    <path id="Path_13594" data-name="Path 13594" d="M603.212,470.026c-.369,0-.74.028-1.107-.007a1.059,1.059,0,0,1-.98-1.072,1.035,1.035,0,0,1,.992-.995c.737-.033,1.477-.034,2.212,0a1,1,0,0,1,.969,1,1.026,1.026,0,0,1-.982,1.061C603.952,470.054,603.581,470.026,603.212,470.026Z" transform="translate(-64.073 -229.922)" fill="#0090f8"/>
    <path id="Path_13595" data-name="Path 13595" d="M603.252,354.922c-.39,0-.78.026-1.166-.007a.976.976,0,0,1-.931-.974.945.945,0,0,1,.85-1.031,16.349,16.349,0,0,1,2.506.01.914.914,0,0,1,.8,1.061.943.943,0,0,1-.9.931c-.385.038-.778.008-1.166.008C603.252,354.92,603.252,354.92,603.252,354.922Z" transform="translate(-64.094 -133.784)" fill="#0090f8"/>
    <path id="Path_13596" data-name="Path 13596" d="M603.286,391.07c.388.018.78.01,1.164.059a.944.944,0,0,1,.875.951.924.924,0,0,1-.827,1.043,17.98,17.98,0,0,1-2.508,0c-.548-.038-.8-.474-.827-.992a.977.977,0,0,1,.895-1,11.293,11.293,0,0,1,1.227-.008C603.286,391.1,603.286,391.086,603.286,391.07Z" transform="translate(-64.104 -165.704)" fill="#0090f8"/>
  </g>
</svg>
