<svg xmlns="http://www.w3.org/2000/svg" width="63.044" height="63.152" viewBox="0 0 63.044 63.152">
  <g id="Eliminate_Human_Errors" data-name="Eliminate Human Errors" transform="translate(-492.411 -192.75)">
    <path id="Path_13597" data-name="Path 13597" d="M542.406,192.75h7.263a2.57,2.57,0,0,1,1.607,2.733c-.034,7.266-.016,14.534-.016,21.8v.737c.615,0,1.127.033,1.635-.007a2.253,2.253,0,0,1,2.561,1.625v.863a14,14,0,0,1-1.123,1.507q-2.872,2.963-5.8,5.865a1.373,1.373,0,0,0-.451,1.072c.02,3.245.013,6.491.007,9.738a5.961,5.961,0,0,1-.084,1.225,4.193,4.193,0,0,1-4.325,3.367c-2.645.013-5.289,0-7.934,0h-.793c.928,1.219,1.88,2.084,3.355,2.105.821.012,1.641-.015,2.46.01a2.056,2.056,0,0,1,2.054,2.376,17.276,17.276,0,0,1-.428,1.826h.65c3.669,0,7.34.01,11.009-.01a1.34,1.34,0,0,1,1.4.765v.617a1.521,1.521,0,0,1-1.493.742q-17.878-.022-35.756-.01h-.824c.2,1.615.85,3.314-1.2,4.2H493.9a2.148,2.148,0,0,1-1.457-2.534,9.772,9.772,0,0,1,7.365-8.712c.329-.082.66-.161,1.008-.245,0-.71-.044-1.37.012-2.021.059-.684-.064-1.182-.8-1.418a2.809,2.809,0,0,1-.77-.5,9.566,9.566,0,0,1-3.516-6.156c-.069-.375-.133-.65-.581-.808a4.1,4.1,0,0,1-2.74-3.987c-.01-2.465-.016-4.932,0-7.4a9.337,9.337,0,0,1,7.506-9.133,30.5,30.5,0,0,1,4.345-.245c.586-.025,1.174,0,1.807,0,0-1.125-.008-2.169,0-3.214a4.066,4.066,0,0,1,1.156-2.837,4.459,4.459,0,0,1,3.449-1.324q14.612.012,29.224,0h.834v-.819c0-3.062.031-6.123-.015-9.184A2.414,2.414,0,0,1,542.406,192.75ZM512.4,211.744c-.016.653-.135,1.215.477,1.733a1.942,1.942,0,0,1,.2,2.543c-.186.288-.395.561-.617.875.135.035.211.061.286.072,3.247.534,4.963,2.49,4.881,5.791-.074,2.972.414,5.975-.4,8.907h24.572c0-1.658-.011-3.276.008-4.894a1.223,1.223,0,0,0-.39-.972c-1.4-1.388-2.773-2.8-4.163-4.2a2.031,2.031,0,0,1-.543-2.306,2,2,0,0,1,2.046-1.275c.646,0,1.294,0,1.946,0v-6.278C531.244,211.744,521.841,211.744,512.4,211.744Zm-1.061,3.1h-9.016c-.308,0-.617-.007-.923.02a7.137,7.137,0,0,0-3.253,1.025c-3.357,2.107-3.888,5.1-3.559,8.569.161-.03.321-.062.48-.089a3.088,3.088,0,0,1,3.613,2.766,3.812,3.812,0,0,0,2.367,3.454,9.4,9.4,0,0,0,6.166.84c2.418-.487,4.153-1.6,4.2-4.4a3.032,3.032,0,0,1,3.572-2.659c.169.028.34.053.564.087,0-.707,0-1.342,0-1.977a3.2,3.2,0,0,0-3.436-3.419c-1.6-.007-3.2,0-4.8,0-.761,0-1.2-.38-1.22-1.007-.02-.645.449-1.077,1.215-1.092.676-.013,1.354.008,2.031-.012a.8.8,0,0,0,.544-.173C510.36,216.186,510.8,215.569,511.339,214.844Zm34.572,12.3c2.363-2.3,4.778-4.658,7.2-7.016h-6.023c-.368,0-.74.02-1.107-.01a1.026,1.026,0,0,1-1.01-1.094,1,1,0,0,1,1.036-.993c.266-.015.533,0,.8,0h2.314V194.9h-6.263v23.716c0,1.184-.326,1.511-1.488,1.513-.826,0-1.651,0-2.656,0Q542.535,223.849,545.911,227.141Zm-30.441,26.63a.5.5,0,0,0,.049-.141,7.578,7.578,0,0,0-6.564-7.077c-2.217-.212-4.465-.123-6.7-.123A7.5,7.5,0,0,0,497,248.49a7.654,7.654,0,0,0-2.475,5.283C501.55,253.771,508.515,253.771,515.47,253.771Zm-20.938-25.158h-.01v.431c0,1.607.349,2.067,1.814,2.689a2.484,2.484,0,0,1,1.09.921,4.489,4.489,0,0,1,.406,1.464c.508,2.577,1.7,4.677,4.325,5.506a10.874,10.874,0,0,0,3.628.436,6.037,6.037,0,0,0,5.587-3.5,13.528,13.528,0,0,0,.916-2.982,2.373,2.373,0,0,1,1.7-1.969,2.065,2.065,0,0,0,1.546-2.061c.023-.6.013-1.192,0-1.788-.013-.794-.454-1.327-1.077-1.322s-.974.449-1.026,1.278a5.471,5.471,0,0,1-3.163,4.857,11.124,11.124,0,0,1-9.7.11c-2.3-.969-3.885-2.576-3.977-5.276a1.009,1.009,0,0,0-1.007-.972,1.1,1.1,0,0,0-1.061,1.01C494.5,227.828,494.532,228.223,494.532,228.613Zm15.512,12.524c.2.012.4.033.6.033q16.46,0,32.919,0c1.847,0,2.807-1.3,2.324-3.156H513.663a1.433,1.433,0,0,0-.367.007c-.145.039-.337.086-.406.194A10.7,10.7,0,0,1,510.045,241.137Zm30.684-33.654H540q-14.617,0-29.235,0a5.862,5.862,0,0,0-.8.041,1.96,1.96,0,0,0-1.747,1.73c-.077,1.14-.018,2.288-.018,3.444h2.074v-.648a2.151,2.151,0,0,1,2.452-2.455q13.6,0,27.2,0h.793C540.729,208.858,540.729,208.224,540.729,207.483Zm3.164,21.037c0,.878-.053,1.78.011,2.671a2.324,2.324,0,0,1-2.613,2.64c-8.7-.039-17.4-.02-26.092-.02a2.024,2.024,0,0,0-.49.012c-.115.028-.275.125-.3.222-.161.6-.289,1.214-.429,1.827H545.95v-6.046Zm-3.225,19.02H515.149c.387.546.78,1.021,1.081,1.549a.909.909,0,0,0,.921.52q10.583-.022,21.168-.012a3.814,3.814,0,0,0,.613-.03A1.948,1.948,0,0,0,540.668,247.539Zm-20.226-2.2h13.294c-.354-.636-.676-1.247-1.036-1.835a.589.589,0,0,0-.437-.217q-5.161-.017-10.32,0a.648.648,0,0,0-.475.253C521.11,244.117,520.8,244.712,520.442,245.344Zm-11.175-2.071c-.008.087-.012.207-.03.326-.094.6.067.9.75,1.023a14,14,0,0,1,2.2.757,1.37,1.37,0,0,0,.456.145c1.1-.033,2.2-.082,3.3-.135a4.311,4.311,0,0,0,3.288-2.115Zm-6.3-1.127v2.128h4.118v-2.128Z" transform="translate(0)" fill="#0090f8"/>
    <path id="Path_13598" data-name="Path 13598" d="M698.973,326.647c0,1.5,0,3,0,4.5,0,.8-.377,1.257-1.02,1.271-.661.015-1.074-.469-1.074-1.286q0-4.5,0-9c0-.8.378-1.253,1.03-1.265.679-.012,1.064.441,1.066,1.28C698.976,323.647,698.973,325.147,698.973,326.647Z" transform="translate(-170.837 -107.048)" fill="#0090f8"/>
    <path id="Path_13599" data-name="Path 13599" d="M698.975,404.018a1.052,1.052,0,1,1-2.1-.007,1.085,1.085,0,0,1,1.054-1.122A1.072,1.072,0,0,1,698.975,404.018Z" transform="translate(-170.841 -175.58)" fill="#0090f8"/>
  </g>
</svg>
