<svg xmlns="http://www.w3.org/2000/svg" xmlns:xlink="http://www.w3.org/1999/xlink" width="259.276" height="164" viewBox="0 0 259.276 164">
  <defs>
    <linearGradient id="linear-gradient" x1="1.044" y1="1.207" x2="2.107" y2="2.588" gradientUnits="objectBoundingBox">
      <stop offset="0" stop-color="#4042e2"/>
      <stop offset="1" stop-color="#4f52ff"/>
    </linearGradient>
    <linearGradient id="linear-gradient-2" x1="225.115" y1="-32.983" x2="213.886" y2="-32.592" gradientUnits="objectBoundingBox">
      <stop offset="0" stop-color="#09005d"/>
      <stop offset="1" stop-color="#1a0f91"/>
    </linearGradient>
    <linearGradient id="linear-gradient-3" x1="55.56" y1="-129.049" x2="55.172" y2="-129.991" xlink:href="#linear-gradient-2"/>
    <linearGradient id="linear-gradient-4" x1="272.409" y1="-48.426" x2="263.897" y2="-48.034" xlink:href="#linear-gradient-2"/>
    <linearGradient id="linear-gradient-5" x1="67.037" y1="-142.355" x2="66.649" y2="-143.297" xlink:href="#linear-gradient-2"/>
    <linearGradient id="linear-gradient-6" x1="317.785" y1="-40.676" x2="306.827" y2="-40.285" xlink:href="#linear-gradient-2"/>
    <linearGradient id="linear-gradient-7" x1="78.151" y1="-154.9" x2="77.764" y2="-155.842" xlink:href="#linear-gradient-2"/>
    <linearGradient id="linear-gradient-8" x1="0.982" y1="-0.027" x2="-0.16" y2="0.597" xlink:href="#linear-gradient-2"/>
    <linearGradient id="linear-gradient-9" x1="77.754" y1="-129.009" x2="77.366" y2="-129.95" xlink:href="#linear-gradient-2"/>
    <linearGradient id="linear-gradient-10" x1="-10.85" y1="-0.025" x2="-11.993" y2="0.599" xlink:href="#linear-gradient-2"/>
    <linearGradient id="linear-gradient-11" x1="55.337" y1="-52.06" x2="54.949" y2="-53.002" xlink:href="#linear-gradient-2"/>
    <linearGradient id="linear-gradient-12" x1="0" y1="0.5" x2="1" y2="0.5" xlink:href="#linear-gradient-2"/>
    <linearGradient id="linear-gradient-13" x1="1.258" y1="-0.788" x2="-0.19" y2="1.674" xlink:href="#linear-gradient"/>
    <linearGradient id="linear-gradient-14" x1="1.258" y1="-0.788" x2="-0.19" y2="1.674" xlink:href="#linear-gradient"/>
    <linearGradient id="linear-gradient-15" y1="0.5" x2="1" y2="0.5" gradientUnits="objectBoundingBox">
      <stop offset="0" stop-color="#dae3fe"/>
      <stop offset="1" stop-color="#e9effd"/>
    </linearGradient>
    <linearGradient id="linear-gradient-16" x1="0" y1="0.5" x2="1" y2="0.5" xlink:href="#linear-gradient-15"/>
    <linearGradient id="linear-gradient-18" x1="0" y1="0.5" x2="1" y2="0.5" xlink:href="#linear-gradient-15"/>
    <linearGradient id="linear-gradient-19" x1="0" y1="0.5" x2="1" y2="0.5" xlink:href="#linear-gradient-15"/>
    <linearGradient id="linear-gradient-21" x1="0" y1="0.5" x2="1" y2="0.5" xlink:href="#linear-gradient-15"/>
    <linearGradient id="linear-gradient-22" x1="0" y1="0.5" x2="1" y2="0.5" xlink:href="#linear-gradient-15"/>
    <linearGradient id="linear-gradient-25" x1="0.001" y1="0.5" x2="1" y2="0.5" xlink:href="#linear-gradient-15"/>
    <linearGradient id="linear-gradient-26" x1="0" y1="0.5" x2="1" y2="0.5" xlink:href="#linear-gradient-15"/>
    <linearGradient id="linear-gradient-27" x1="0" y1="0.5" x2="0.999" y2="0.5" xlink:href="#linear-gradient-15"/>
    <linearGradient id="linear-gradient-28" x1="0.001" y1="0.5" x2="1" y2="0.5" xlink:href="#linear-gradient-15"/>
    <linearGradient id="linear-gradient-29" x1="0" y1="0.5" x2="1" y2="0.5" xlink:href="#linear-gradient-15"/>
    <linearGradient id="linear-gradient-30" x1="4.084" y1="-3.357" x2="2.555" y2="-1.64" xlink:href="#linear-gradient"/>
    <linearGradient id="linear-gradient-31" x1="-0.436" y1="1.46" x2="-2.324" y2="3.389" xlink:href="#linear-gradient"/>
    <linearGradient id="linear-gradient-32" x1="0.843" y1="1.973" x2="1.803" y2="5.979" xlink:href="#linear-gradient-2"/>
    <linearGradient id="linear-gradient-33" x1="-78.476" y1="0.5" x2="-77.476" y2="0.5" gradientUnits="objectBoundingBox">
      <stop offset="0" stop-color="#ff928e"/>
      <stop offset="1" stop-color="#feb3b1"/>
    </linearGradient>
    <linearGradient id="linear-gradient-34" x1="-13.242" y1="0.652" x2="-12.521" y2="-0.149" xlink:href="#linear-gradient-2"/>
    <linearGradient id="linear-gradient-35" x1="0.482" y1="-3.461" x2="0.5" y2="0.508" xlink:href="#linear-gradient-2"/>
    <linearGradient id="linear-gradient-36" x1="-28.862" y1="0.5" x2="-27.862" y2="0.5" xlink:href="#linear-gradient"/>
    <linearGradient id="linear-gradient-37" x1="-85.189" y1="0.5" x2="-84.189" y2="0.5" xlink:href="#linear-gradient-33"/>
    <linearGradient id="linear-gradient-38" x1="-13.563" y1="0.936" x2="-13.525" y2="0.091" xlink:href="#linear-gradient-2"/>
    <linearGradient id="linear-gradient-39" x1="-20.11" y1="-0.027" x2="-21.894" y2="0.826" gradientUnits="objectBoundingBox">
      <stop offset="0" stop-color="#0090f8"/>
      <stop offset="1" stop-color="#4f52ff"/>
    </linearGradient>
    <linearGradient id="linear-gradient-40" x1="-21.966" y1="0.5" x2="-20.966" y2="0.5" xlink:href="#linear-gradient-33"/>
    <linearGradient id="linear-gradient-41" x1="-10.554" y1="0.175" x2="-11.561" y2="0.862" xlink:href="#linear-gradient-39"/>
    <linearGradient id="linear-gradient-42" x1="-36.482" y1="0.5" x2="-35.482" y2="0.5" xlink:href="#linear-gradient-33"/>
    <linearGradient id="linear-gradient-44" x1="-43.454" y1="0.534" x2="-40.289" y2="0.405" xlink:href="#linear-gradient-2"/>
    <linearGradient id="linear-gradient-45" x1="1.122" y1="-1.063" x2="0.281" y2="1.294" xlink:href="#linear-gradient-33"/>
    <linearGradient id="linear-gradient-46" x1="2.899" y1="-0.089" x2="0.396" y2="0.511" xlink:href="#linear-gradient-33"/>
    <linearGradient id="linear-gradient-47" x1="-21.672" y1="-12.328" x2="-20.624" y2="-12.328" xlink:href="#linear-gradient-2"/>
    <linearGradient id="linear-gradient-48" x1="-106.533" y1="-56.382" x2="-103.281" y2="-58.77" xlink:href="#linear-gradient-33"/>
    <linearGradient id="linear-gradient-49" x1="62.719" y1="47.091" x2="61.979" y2="49.528" xlink:href="#linear-gradient-2"/>
    <linearGradient id="linear-gradient-50" x1="0.303" y1="0.713" x2="1.285" y2="-0.574" xlink:href="#linear-gradient-2"/>
    <linearGradient id="linear-gradient-52" x1="2.844" y1="1.179" x2="3.845" y2="1.179" xlink:href="#linear-gradient-2"/>
  </defs>
  <g id="Group_4208" data-name="Group 4208" transform="translate(-1386 -2480.822)">
    <g id="_20943629_Converted_" data-name="20943629 [Converted]" transform="translate(1386 2480.822)">
      <g id="Illustration" transform="translate(0 0)">
        <g id="Group_1851" data-name="Group 1851" transform="translate(0 0)">
          <g id="Group_1793" data-name="Group 1793" transform="translate(180.065 78.412)">
            <path id="Path_2016" data-name="Path 2016" d="M1738.57,814.15a1.1,1.1,0,0,0-1.823-.737c-5.336,6.271-20.018,22.267-35.385,27.916-25.02,9.2-47.606,30.9-40.757,49.085C1660.606,890.416,1729.668,905.455,1738.57,814.15Z" transform="translate(-1659.364 -813.129)" fill="#bdd0fb"/>
            <path id="Path_2017" data-name="Path 2017" d="M1795.964,900.232c-.123.244-.243.422-.363.628l-.371.592-.758,1.171c-.511.776-1.035,1.544-1.562,2.311-1.053,1.532-2.141,3.038-3.235,4.542q-3.311,4.488-6.86,8.795a204.009,204.009,0,0,1-15.069,16.447c-2.661,2.6-5.429,5.093-8.255,7.516s-5.767,4.711-8.776,6.9q-4.544,3.247-9.36,6.088c-1.631.9-3.244,1.829-4.92,2.639-1.647.87-3.362,1.6-5.056,2.36a.136.136,0,0,1-.114-.248l0,0a110.448,110.448,0,0,0,9.8-5.237q4.737-2.9,9.216-6.2c2.968-2.214,5.878-4.5,8.688-6.92s5.529-4.93,8.2-7.5q3.983-3.874,7.763-7.955l1.876-2.051,1.846-2.078c1.222-1.394,2.441-2.791,3.632-4.211q3.586-4.251,6.962-8.674c1.123-1.475,2.239-2.956,3.322-4.461q.815-1.128,1.608-2.269l.789-1.144.385-.578c.121-.19.26-.4.355-.565l.019-.034a.136.136,0,0,1,.184-.05A.14.14,0,0,1,1795.964,900.232Z" transform="translate(-1722.544 -889.577)" fill="#dce5fe"/>
          </g>
          <g id="Group_1794" data-name="Group 1794" transform="translate(35.47 18.503)">
            <path id="Path_2018" data-name="Path 2018" d="M459.713,315.427c14.48,6.28,97.248,46.267,73.676,130.675,0,0-61.266-12.3-75.534-129.293A1.335,1.335,0,0,1,459.713,315.427Z" transform="translate(-457.844 -315.315)" fill="#bdd0fb"/>
            <path id="Path_2019" data-name="Path 2019" d="M536.275,429.844c3.478,3.655,6.876,7.377,10.245,11.129s6.688,7.547,9.966,11.379c6.555,7.662,12.942,15.473,19.083,23.475s12.042,16.2,17.491,24.7q4.107,6.363,7.741,13.024a127.256,127.256,0,0,1,6.522,13.7.547.547,0,1,1-1.017.4v0a126.282,126.282,0,0,0-6.4-13.617q-3.571-6.638-7.637-13c-5.385-8.5-11.238-16.7-17.32-24.731s-12.428-15.857-18.936-23.545q-4.881-5.768-9.9-11.419c-3.344-3.766-6.724-7.506-10.175-11.17h0a.232.232,0,0,1,.336-.319Z" transform="translate(-526.486 -415.998)" fill="#dce5fe"/>
          </g>
          <g id="Group_1799" data-name="Group 1799" transform="translate(26.154 66.963)">
            <g id="Group_1797" data-name="Group 1797" transform="translate(1.586 53.743)">
              <g id="Group_1795" data-name="Group 1795">
                <path id="Path_2020" data-name="Path 2020" d="M444.943,1200.517s-2.187-8.488-12.173-13.291c-9.266-4.456-31.767-14.245-38.373-22.519-.292-.367-.885.072-.771.574,1.212,5.376,5.219,18.378,16.875,27.564C425.531,1204.689,444.943,1200.517,444.943,1200.517Z" transform="translate(-393.612 -1164.571)" fill="#bdd0fb"/>
              </g>
              <g id="Group_1796" data-name="Group 1796" transform="translate(5.905 8.293)">
                <path id="Path_2021" data-name="Path 2021" d="M442.716,1233.49a19.605,19.605,0,0,0,1.631,2.789c.295.45.623.877.944,1.307s.68.832,1.012,1.252a33.642,33.642,0,0,0,4.622,4.45l.622.505c.209.166.431.317.646.475.436.311.862.633,1.3.935l1.353.86c.443.3.912.556,1.378.818s.928.531,1.4.781l1.444.7c.951.481,1.953.9,2.934,1.346q2.966,1.3,5.97,2.508c2,.809,4.017,1.589,6.034,2.375,1.01.391,2.019.782,3.024,1.194q.755.3,1.507.62l.751.316.744.338c.993.446,1.968.943,2.92,1.482a15.1,15.1,0,0,1,2.652,1.936.137.137,0,0,1-.178.208l0,0a17.15,17.15,0,0,0-2.7-1.717c-.96-.476-1.94-.913-2.945-1.3-2-.794-4.045-1.5-6.08-2.237l-3.057-1.106c-1.015-.382-2.03-.762-3.041-1.159s-2.019-.794-3.024-1.207-2-.844-3-1.279a41.538,41.538,0,0,1-11.205-6.732,30.861,30.861,0,0,1-4.5-4.763,27.851,27.851,0,0,1-1.808-2.728,17.177,17.177,0,0,1-1.385-2.952.016.016,0,0,1,.011-.021A.024.024,0,0,1,442.716,1233.49Z" transform="translate(-442.68 -1233.479)" fill="#dce5fe"/>
              </g>
            </g>
            <g id="Group_1798" data-name="Group 1798">
              <path id="Path_2022" data-name="Path 2022" d="M380.437,718.812a.8.8,0,0,1,1.487-.421c3.962,6.964,14.924,24.9,26.913,32.882,19.521,13,36.518,37.759,30.209,54.342C439.045,805.615,383.277,809.065,380.437,718.812Z" transform="translate(-380.436 -717.989)" fill="#bdd0fb"/>
              <path id="Path_2023" data-name="Path 2023" d="M415.024,809.158c.069.178.165.39.25.589l.273.6.56,1.2,1.146,2.392q1.164,2.383,2.383,4.739,2.424,4.719,5.021,9.343c3.48,6.154,7.13,12.214,11.1,18.064,1.994,2.916,4.005,5.821,6.135,8.639s4.323,5.586,6.625,8.263,4.678,5.292,7.2,7.764a102.546,102.546,0,0,0,7.908,7.044h0a.136.136,0,0,1-.166.216,92.209,92.209,0,0,1-8.135-6.855c-2.574-2.445-5-5.038-7.36-7.69a170.321,170.321,0,0,1-12.891-16.923c-1.983-2.941-3.868-5.945-5.709-8.975s-3.614-6.1-5.3-9.218-3.337-6.254-4.9-9.436q-1.164-2.388-2.28-4.8c-.368-.806-.737-1.611-1.093-2.424l-.526-1.221-.256-.614c-.082-.211-.167-.4-.247-.641a.134.134,0,0,1,.086-.171.136.136,0,0,1,.17.079Z" transform="translate(-410.621 -798.084)" fill="#dce5fe"/>
            </g>
          </g>
          <g id="Group_1812" data-name="Group 1812" transform="translate(62.514)">
            <path id="Path_2024" data-name="Path 2024" d="M809.491,163.293a5.716,5.716,0,0,0-4.1-1.733l-117.107.069a5.716,5.716,0,0,0-5.711,5.894l4.642,149.6a5.667,5.667,0,0,0,5.714,5.48H801a5.667,5.667,0,0,0,5.715-5.49l4.395-149.7A5.647,5.647,0,0,0,809.491,163.293Z" transform="translate(-682.567 -161.56)" fill="#0090f8"/>
            <path id="Path_2025" data-name="Path 2025" d="M846.21,221.6a5.225,5.225,0,0,0-3.751-1.584l-107.036.063a5.227,5.227,0,0,0-5.22,5.388l4.243,136.717a5.175,5.175,0,0,0,5.223,5h98.776a5.175,5.175,0,0,0,5.223-5.012l4.017-136.809A5.155,5.155,0,0,0,846.21,221.6Z" transform="translate(-724.467 -212.985)" fill="#f2f9fe"/>
            <g id="Group_1810" data-name="Group 1810" transform="translate(16.185 10.46)">
              <g id="Group_1800" data-name="Group 1800" transform="translate(36.506)">
                <circle id="Ellipse_133" data-name="Ellipse 133" cx="11.578" cy="11.578" r="11.578" fill="#0090f8"/>
                <circle id="Ellipse_134" data-name="Ellipse 134" cx="10.758" cy="10.758" r="10.758" transform="translate(1.095 0.821)" fill="#0090f8"/>
              </g>
              <g id="Group_1801" data-name="Group 1801" transform="translate(36.506 114.326)">
                <circle id="Ellipse_135" data-name="Ellipse 135" cx="11.578" cy="11.578" r="11.578" fill="url(#linear-gradient)"/>
                <circle id="Ellipse_136" data-name="Ellipse 136" cx="10.758" cy="10.758" r="10.758" transform="translate(1.095 0.821)" fill="#0090f8"/>
              </g>
              <path id="Path_2026" data-name="Path 2026" d="M1118.95,565.8l-13.4,13.334,13.334,13.4,13.4-13.334Z" transform="translate(-1070.832 -527.613)" fill="none"/>
              <path id="Path_2027" data-name="Path 2027" d="M1126.943,574.89l-12.3,12.244,12.243,12.3,12.3-12.243Z" transform="translate(-1078.828 -535.609)" fill="#263238"/>
              <g id="Group_1802" data-name="Group 1802" transform="translate(71.384 76.736)">
                <path id="Path_2028" data-name="Path 2028" d="M1434.571,893.5a7.384,7.384,0,0,1-7.384,7.384h-9.572a7.384,7.384,0,0,1-7.384-7.384h0a7.384,7.384,0,0,1,7.384-7.384h9.572a7.384,7.384,0,0,1,7.384,7.384Z" transform="translate(-1410.23 -886.12)" fill="#263238"/>
                <path id="Path_2029" data-name="Path 2029" d="M1439.844,897.5a6.793,6.793,0,0,1-6.795,6.838h-8.885a6.793,6.793,0,0,1-6.795-6.838h0a6.793,6.793,0,0,1,6.795-6.838h8.885a6.794,6.794,0,0,1,6.795,6.838Z" transform="translate(-1416.511 -890.114)" fill="#263238"/>
              </g>
              <g id="Group_1803" data-name="Group 1803" transform="translate(36.103 76.736)">
                <path id="Path_2030" data-name="Path 2030" d="M1141.4,893.5a7.384,7.384,0,0,1-7.384,7.384h-9.572a7.384,7.384,0,0,1-7.384-7.384h0a7.384,7.384,0,0,1,7.384-7.384h9.572a7.385,7.385,0,0,1,7.384,7.384Z" transform="translate(-1117.06 -886.12)" fill="#263238"/>
                <path id="Path_2031" data-name="Path 2031" d="M1146.664,897.5a6.793,6.793,0,0,1-6.794,6.838h-8.885a6.793,6.793,0,0,1-6.795-6.838h0a6.793,6.793,0,0,1,6.795-6.838h8.885a6.793,6.793,0,0,1,6.794,6.838Z" transform="translate(-1123.332 -890.114)" fill="#263238"/>
              </g>
              <g id="Group_1804" data-name="Group 1804" transform="translate(0 76.736)">
                <path id="Path_2032" data-name="Path 2032" d="M841.4,893.5a7.384,7.384,0,0,1-7.384,7.384h-9.572a7.384,7.384,0,0,1-7.384-7.384h0a7.384,7.384,0,0,1,7.384-7.384h9.572A7.384,7.384,0,0,1,841.4,893.5Z" transform="translate(-817.06 -886.12)" fill="#263238"/>
                <path id="Path_2033" data-name="Path 2033" d="M846.664,897.5a6.793,6.793,0,0,1-6.794,6.838h-8.885a6.793,6.793,0,0,1-6.794-6.838h0a6.793,6.793,0,0,1,6.794-6.838h8.885a6.793,6.793,0,0,1,6.794,6.838Z" transform="translate(-823.332 -890.114)" fill="#263238"/>
              </g>
              <g id="Group_1805" data-name="Group 1805" transform="translate(46.405 24.36)">
                <path id="Path_2034" data-name="Path 2034" d="M1215.18,462.114a.411.411,0,0,1-.41-.41V451.311a.41.41,0,1,1,.821,0V461.7A.41.41,0,0,1,1215.18,462.114Z" transform="translate(-1213.313 -450.9)" fill="url(#linear-gradient-2)"/>
                <path id="Path_2035" data-name="Path 2035" d="M1206.02,527.03l-1.68,2.911-1.68-2.911Z" transform="translate(-1202.66 -517.868)" fill="url(#linear-gradient-3)"/>
              </g>
              <g id="Group_1806" data-name="Group 1806" transform="translate(46.405 65.658)">
                <path id="Path_2036" data-name="Path 2036" d="M1215.18,802.55a.411.411,0,0,1-.41-.41v-7.659a.41.41,0,1,1,.821,0v7.659A.41.41,0,0,1,1215.18,802.55Z" transform="translate(-1213.313 -794.07)" fill="url(#linear-gradient-4)"/>
                <path id="Path_2037" data-name="Path 2037" d="M1206.02,847.48l-1.68,2.91-1.68-2.91Z" transform="translate(-1202.66 -841.053)" fill="url(#linear-gradient-5)"/>
              </g>
              <g id="Group_1807" data-name="Group 1807" transform="translate(45.985 100.12)">
                <path id="Path_2038" data-name="Path 2038" d="M1210.641,1091.371a.411.411,0,0,1-.411-.411v-10.12a.411.411,0,0,1,.821,0v10.12A.41.41,0,0,1,1210.641,1091.371Z" transform="translate(-1208.899 -1080.43)" fill="url(#linear-gradient-6)"/>
                <path id="Path_2039" data-name="Path 2039" d="M1202.53,1154.3l-1.68,2.91-1.68-2.91Z" transform="translate(-1199.17 -1145.41)" fill="url(#linear-gradient-7)"/>
              </g>
              <g id="Group_1808" data-name="Group 1808" transform="translate(8.934 51.027)">
                <path id="Path_2040" data-name="Path 2040" d="M903.82,692.865a.411.411,0,0,1-.41-.41V672.9a.411.411,0,0,1,.41-.41h22.564a.41.41,0,0,1,0,.821H904.231v19.146A.409.409,0,0,1,903.82,692.865Z" transform="translate(-901.953 -672.49)" fill="url(#linear-gradient-8)"/>
                <path id="Path_2041" data-name="Path 2041" d="M894.661,836.12l-1.681,2.91-1.68-2.91Z" transform="translate(-891.3 -816.428)" fill="url(#linear-gradient-9)"/>
              </g>
              <g id="Group_1809" data-name="Group 1809" transform="translate(63.041 51.026)">
                <path id="Path_2042" data-name="Path 2042" d="M1363.875,692.857a.411.411,0,0,1-.411-.41V673.3h-22.154a.41.41,0,1,1,0-.821h22.564a.411.411,0,0,1,.411.41v19.556A.41.41,0,0,1,1363.875,692.857Z" transform="translate(-1340.9 -672.48)" fill="url(#linear-gradient-10)"/>
                <path id="Path_2043" data-name="Path 2043" d="M1518.24,836.12l1.68,2.91,1.68-2.91Z" transform="translate(-1496.898 -816.427)" fill="url(#linear-gradient-11)"/>
              </g>
              <path id="Path_2044" data-name="Path 2044" d="M976.764,1027.139H901.551a.411.411,0,0,1-.41-.41v-7.248a.41.41,0,1,1,.821,0v6.838h74.393v-6.838a.41.41,0,1,1,.821,0v7.248A.411.411,0,0,1,976.764,1027.139Z" transform="translate(-891.022 -926.334)" fill="url(#linear-gradient-12)"/>
            </g>
            <g id="Group_1811" data-name="Group 1811" transform="translate(12.356 13.897)">
              <path id="Path_2045" data-name="Path 2045" d="M816.966,278.863a1.731,1.731,0,0,1-1.732,1.732H786.972a1.731,1.731,0,0,1-1.732-1.732v-.091a1.731,1.731,0,0,1,1.732-1.732h28.261a1.731,1.731,0,0,1,1.732,1.732v.091Z" transform="translate(-785.24 -277.04)" fill="url(#linear-gradient-13)"/>
              <path id="Path_2046" data-name="Path 2046" d="M816.966,344.773a1.731,1.731,0,0,1-1.732,1.732H786.972a1.731,1.731,0,0,1-1.732-1.732v-.091a1.731,1.731,0,0,1,1.732-1.732h28.261a1.731,1.731,0,0,1,1.732,1.732v.091Z" transform="translate(-785.24 -335.018)" fill="url(#linear-gradient-14)"/>
            </g>
          </g>
          <g id="Group_1815" data-name="Group 1815" transform="translate(192.774 1.249)">
            <g id="Group_1813" data-name="Group 1813">
              <path id="Path_2047" data-name="Path 2047" d="M1781.741,203a.645.645,0,0,1-.556-.319l-1.335-2.275a12.858,12.858,0,0,1-3.652-.72l-2.1,1.6a.644.644,0,0,1-.749.024l-2.859-1.9a.644.644,0,0,1-.267-.7l.665-2.554a12.865,12.865,0,0,1-2.076-3.09l-2.614-.351a.647.647,0,0,1-.546-.511l-.677-3.367a.643.643,0,0,1,.307-.684l2.274-1.335a12.869,12.869,0,0,1,.72-3.652l-1.6-2.1a.646.646,0,0,1-.024-.75l1.9-2.859a.645.645,0,0,1,.7-.267l2.554.665a12.837,12.837,0,0,1,3.091-2.076l.351-2.614a.646.646,0,0,1,.513-.546l3.366-.678a.645.645,0,0,1,.683.306l1.335,2.275a12.858,12.858,0,0,1,3.653.72l2.1-1.6a.646.646,0,0,1,.749-.024l2.859,1.9a.645.645,0,0,1,.267.7l-.665,2.554a12.868,12.868,0,0,1,2.076,3.09l2.614.351a.645.645,0,0,1,.546.513l.677,3.367a.645.645,0,0,1-.307.685l-2.275,1.335a12.886,12.886,0,0,1-.72,3.654l1.6,2.1a.644.644,0,0,1,.024.749l-1.9,2.859a.644.644,0,0,1-.7.267l-2.554-.666a12.839,12.839,0,0,1-3.09,2.076l-.351,2.614a.646.646,0,0,1-.513.546l-3.367.678A.744.744,0,0,1,1781.741,203Zm-5.684-4.238.212.079a12.069,12.069,0,0,0,3.834.756l.226.007,1.5,2.555,3.122-.628.395-2.936.206-.094a12.035,12.035,0,0,0,3.243-2.179l.165-.155,2.869.747,1.763-2.651-1.8-2.356.079-.212a12.055,12.055,0,0,0,.756-3.834l.007-.226,2.557-1.5-.628-3.122-2.937-.395-.094-.206a12.028,12.028,0,0,0-2.179-3.243l-.155-.165.747-2.869-2.651-1.763-2.356,1.8-.212-.079a12.068,12.068,0,0,0-3.834-.756l-.226-.007-1.5-2.556-3.122.628-.395,2.936-.206.094a12.049,12.049,0,0,0-3.243,2.179l-.165.155-2.869-.747-1.763,2.651,1.8,2.356-.08.212a12.082,12.082,0,0,0-.756,3.834l-.007.226-2.556,1.5.628,3.122,2.936.395.094.206a12.033,12.033,0,0,0,2.179,3.243l.155.165-.747,2.869,2.651,1.763Zm-9.749-6.861Zm14.235,4.3a8.706,8.706,0,0,1-8.508-6.985,8.725,8.725,0,0,1-.171-1.844.415.415,0,0,1,.416-.4.41.41,0,0,1,.4.416,7.973,7.973,0,0,0,.156,1.67,7.873,7.873,0,1,0,2.424-7.383.411.411,0,1,1-.552-.608,8.7,8.7,0,1,1,7.565,14.964A8.835,8.835,0,0,1,1780.544,196.2Z" transform="translate(-1764.965 -171.935)" fill="#91b3fa"/>
              <path id="Path_2048" data-name="Path 2048" d="M1868.759,279.192a3.463,3.463,0,0,1-3.126-1.968h0a3.46,3.46,0,1,1,3.126,1.968Zm-2.387-2.321a2.639,2.639,0,1,0,1.243-3.519,2.642,2.642,0,0,0-1.243,3.519Z" transform="translate(-1853.221 -260.199)" fill="#91b3fa"/>
            </g>
            <g id="Group_1814" data-name="Group 1814" transform="translate(31.56 20.014)">
              <path id="Path_2049" data-name="Path 2049" d="M2033.546,353.439a.536.536,0,0,1-.15-.022l-1.581-.475a.521.521,0,0,1-.372-.481l-.046-1.154a6.369,6.369,0,0,1-1.258-1.026l-1.139.185a.525.525,0,0,1-.545-.268l-.782-1.455a.525.525,0,0,1,.076-.6l.783-.848a6.386,6.386,0,0,1-.163-1.615l-.937-.675a.523.523,0,0,1-.2-.575l.476-1.581a.523.523,0,0,1,.479-.372l1.155-.046a6.366,6.366,0,0,1,1.027-1.258l-.185-1.14a.523.523,0,0,1,.268-.545l1.455-.782a.524.524,0,0,1,.6.076l.848.783a6.326,6.326,0,0,1,1.615-.162l.675-.937a.523.523,0,0,1,.575-.195l1.582.475a.522.522,0,0,1,.372.481l.046,1.154a6.372,6.372,0,0,1,1.257,1.027l1.139-.185a.523.523,0,0,1,.545.268l.782,1.455a.525.525,0,0,1-.077.6l-.782.847a6.391,6.391,0,0,1,.163,1.615l.937.675a.522.522,0,0,1,.2.575l-.475,1.581a.524.524,0,0,1-.48.372l-1.155.046a6.383,6.383,0,0,1-1.027,1.258l.185,1.14a.524.524,0,0,1-.268.545l-1.455.782a.525.525,0,0,1-.6-.076l-.848-.783a6.38,6.38,0,0,1-1.615.162l-.675.938A.519.519,0,0,1,2033.546,353.439Zm-.241-.7Zm-1.053-.526,1.176.354.813-1.129.226.014a5.61,5.61,0,0,0,1.8-.181l.219-.059,1.021.944,1.082-.581-.223-1.373.17-.15a5.581,5.581,0,0,0,1.145-1.4l.113-.2,1.39-.055.354-1.176-1.129-.813.015-.226a5.588,5.588,0,0,0-.181-1.8l-.059-.219.943-1.022-.581-1.082-1.373.223-.15-.17a5.586,5.586,0,0,0-1.4-1.145l-.2-.113-.055-1.39-1.176-.354-.813,1.129-.226-.014a5.6,5.6,0,0,0-1.8.181l-.219.059-1.022-.943-1.082.581.223,1.373-.17.151a5.58,5.58,0,0,0-1.145,1.4l-.113.2-1.39.055-.354,1.176,1.129.814-.015.226a5.574,5.574,0,0,0,.181,1.8l.059.219-.943,1.022.581,1.082,1.373-.223.15.17a5.589,5.589,0,0,0,1.4,1.144l.2.113Zm-3.319-2.155h0Zm12.339-7.074Zm-6.42,7.259a4.412,4.412,0,0,1-3.877-2.317,4.494,4.494,0,0,1-.354-.866.41.41,0,1,1,.788-.227,3.649,3.649,0,0,0,.288.705,3.574,3.574,0,1,0,.08-3.526.41.41,0,1,1-.7-.42,4.4,4.4,0,1,1,3.78,6.651Z" transform="translate(-2027.214 -338.243)" fill="#91b3fa"/>
            </g>
          </g>
          <g id="Group_1829" data-name="Group 1829" transform="translate(171.503 36.676)">
            <g id="Group_1816" data-name="Group 1816" transform="translate(29.334 25.053)">
              <path id="Path_2050" data-name="Path 2050" d="M1878.178,714.045l-42.961-3.812a3.389,3.389,0,0,1-3.089-3.358l-.159-28.966a3.389,3.389,0,0,1,3.623-3.4l45.745,3.183a3.388,3.388,0,0,1,3.14,3.68l-2.626,29.595A3.387,3.387,0,0,1,1878.178,714.045Z" transform="translate(-1831.97 -674.502)" fill="#0090f8"/>
              <path id="Path_2051" data-name="Path 2051" d="M1850.823,710.984l-.284,25.01a2.1,2.1,0,0,0,1.888,2.11l41.194,4.092a2.1,2.1,0,0,0,2.295-1.9l2.374-26.742a2.1,2.1,0,0,0-1.974-2.278l-43.283-2.359A2.1,2.1,0,0,0,1850.823,710.984Z" transform="translate(-1848.304 -704.772)" fill="#f2f9fe"/>
              <path id="Path_2052" data-name="Path 2052" d="M2011.887,907.685l23.313,1.368a.425.425,0,0,1,.4.461l-.034.374a.425.425,0,0,1-.455.386l-23.281-1.743a.425.425,0,0,1-.391-.461h0A.425.425,0,0,1,2011.887,907.685Z" transform="translate(-1989.839 -879.622)" fill="#91b3fa"/>
              <path id="Path_2053" data-name="Path 2053" d="M2009.9,924.273l-.014.16a.424.424,0,0,0,.385.46l23.252,2.064a.424.424,0,0,0,.46-.385l.014-.16a.424.424,0,0,0-.385-.46l-23.252-2.064A.424.424,0,0,0,2009.9,924.273Z" transform="translate(-1988.475 -893.874)" fill="#91b3fa"/>
              <path id="Path_2054" data-name="Path 2054" d="M2067.064,946.791l-.006.07a.424.424,0,0,0,.385.46l16.194,1.437a.424.424,0,0,0,.46-.385l.029-.33a.424.424,0,0,0-.392-.461l-16.217-1.178A.426.426,0,0,0,2067.064,946.791Z" transform="translate(-2038.765 -913.681)" fill="#91b3fa"/>
            </g>
            <g id="Group_1817" data-name="Group 1817" transform="translate(14.832 11.285)">
              <path id="Path_2055" data-name="Path 2055" d="M1768.568,603.064l-50.7-1.031a3.985,3.985,0,0,1-3.893-3.691l-2.506-33.965a3.984,3.984,0,0,1,3.979-4.277l53.915.071a3.984,3.984,0,0,1,3.979,4.065l-.711,34.926A3.982,3.982,0,0,1,1768.568,603.064Z" transform="translate(-1711.458 -560.1)" fill="#0090f8"/>
              <path id="Path_2056" data-name="Path 2056" d="M1737.95,597.151l1.669,29.36a2.462,2.462,0,0,0,2.384,2.323l48.65,1.5a2.463,2.463,0,0,0,2.539-2.413l.643-31.559a2.463,2.463,0,0,0-2.5-2.514l-50.962.7A2.463,2.463,0,0,0,1737.95,597.151Z" transform="translate(-1734.759 -589.787)" fill="#f2f9fe"/>
              <path id="Path_2057" data-name="Path 2057" d="M1939.263,819.362l27.456-.262a.5.5,0,0,1,.5.509l-.009.442a.5.5,0,0,1-.5.489l-27.448-.179a.5.5,0,0,1-.5-.509h0A.5.5,0,0,1,1939.263,819.362Z" transform="translate(-1911.414 -787.931)" fill="#7d97f4"/>
              <path id="Path_2058" data-name="Path 2058" d="M1938.343,840.888l0,.188a.5.5,0,0,0,.489.509l27.439.558a.5.5,0,0,0,.509-.489l0-.188a.5.5,0,0,0-.489-.509l-27.44-.558A.5.5,0,0,0,1938.343,840.888Z" transform="translate(-1911.035 -806.667)" fill="#7d97f4"/>
              <path id="Path_2059" data-name="Path 2059" d="M2007.151,862.739l0,.083a.5.5,0,0,0,.489.509l19.112.389a.5.5,0,0,0,.509-.489l.009-.389a.5.5,0,0,0-.5-.509l-19.118-.083A.5.5,0,0,0,2007.151,862.739Z" transform="translate(-1971.565 -825.888)" fill="#7d97f4"/>
            </g>
            <g id="Group_1828" data-name="Group 1828">
              <path id="Path_2060" data-name="Path 2060" d="M1652.426,513.909h-56.246a4.419,4.419,0,0,1-4.4-4.005l-3.545-37.609a4.418,4.418,0,0,1,4.315-4.833l59.791-1.138a4.419,4.419,0,0,1,4.5,4.419V509.49A4.417,4.417,0,0,1,1652.426,513.909Z" transform="translate(-1588.214 -466.323)" fill="#0090f8"/>
              <path id="Path_2061" data-name="Path 2061" d="M1618.2,508.207l2.514,32.521a2.732,2.732,0,0,0,2.7,2.522l53.984.566a2.733,2.733,0,0,0,2.762-2.733V506.07a2.733,2.733,0,0,0-2.827-2.732l-56.5,1.925A2.734,2.734,0,0,0,1618.2,508.207Z" transform="translate(-1614.583 -498.882)" fill="#f2f9fe"/>
              <path id="Path_2062" data-name="Path 2062" d="M1853.817,534.669l30.443-.911a.553.553,0,0,1,.57.554v.49a.553.553,0,0,1-.546.554l-30.442.42a.553.553,0,0,1-.561-.554h0A.553.553,0,0,1,1853.817,534.669Z" transform="translate(-1821.381 -525.642)" fill="#7d97f4"/>
              <path id="Path_2063" data-name="Path 2063" d="M1853.27,563.094v.209a.554.554,0,0,0,.554.554h30.442a.554.554,0,0,0,.554-.554v-.209a.554.554,0,0,0-.554-.553h-30.442A.554.554,0,0,0,1853.27,563.094Z" transform="translate(-1821.372 -550.961)" fill="#7d97f4"/>
              <g id="Group_1818" data-name="Group 1818" transform="translate(24.195 30.815)">
                <path id="Path_2064" data-name="Path 2064" d="M1789.528,731.073a.248.248,0,0,1-.248-.248l0-.745a.249.249,0,0,1,.248-.249h0a.248.248,0,0,1,.248.248l0,.745a.249.249,0,0,1-.249.249Zm-.006-2.484a.248.248,0,0,1-.248-.248l0-.745a.248.248,0,0,1,.248-.249h0a.247.247,0,0,1,.248.248l0,.745a.248.248,0,0,1-.249.249Zm-.006-2.483a.248.248,0,0,1-.248-.248l0-.745a.249.249,0,0,1,.248-.249h0a.248.248,0,0,1,.248.248l0,.745a.25.25,0,0,1-.249.249Zm-.006-2.484a.248.248,0,0,1-.248-.248l0-.745a.249.249,0,0,1,.248-.249h0a.248.248,0,0,1,.248.248l0,.745a.248.248,0,0,1-.248.249Z" transform="translate(-1789.26 -722.38)" fill="#7d97f4"/>
              </g>
              <g id="Group_1819" data-name="Group 1819" transform="translate(36.69 27.625)">
                <path id="Path_2065" data-name="Path 2065" d="M1893.338,707.045a.248.248,0,0,1-.248-.248v-.745a.248.248,0,0,1,.5,0v.745A.248.248,0,0,1,1893.338,707.045Zm0-2.484a.248.248,0,0,1-.248-.248v-.745a.248.248,0,0,1,.5,0v.745A.248.248,0,0,1,1893.338,704.561Zm0-2.483a.248.248,0,0,1-.248-.248v-.745a.248.248,0,0,1,.5,0v.745A.248.248,0,0,1,1893.338,702.079Zm0-2.484a.248.248,0,0,1-.248-.248V698.6a.248.248,0,1,1,.5,0v.745A.248.248,0,0,1,1893.338,699.595Zm0-2.484a.248.248,0,0,1-.248-.248v-.745a.248.248,0,0,1,.5,0v.745A.248.248,0,0,1,1893.338,697.111Z" transform="translate(-1893.09 -695.87)" fill="#7d97f4"/>
              </g>
              <g id="Group_1820" data-name="Group 1820" transform="translate(45.729 25.015)">
                <path id="Path_2066" data-name="Path 2066" d="M1968.922,690.026a.248.248,0,0,1-.248-.241l-.014-.445a.249.249,0,0,1,.241-.256.245.245,0,0,1,.257.241l.013.445a.249.249,0,0,1-.241.256Zm-.067-2.183a.248.248,0,0,1-.248-.241l-.023-.745a.249.249,0,0,1,.5-.016l.022.745a.248.248,0,0,1-.24.256Zm-.077-2.483a.248.248,0,0,1-.248-.241l-.023-.745a.249.249,0,0,1,.241-.256.256.256,0,0,1,.256.241l.023.745a.248.248,0,0,1-.24.256Zm-.077-2.482a.248.248,0,0,1-.248-.241l-.023-.745a.249.249,0,1,1,.5-.016l.023.745a.248.248,0,0,1-.24.256Zm-.077-2.483a.248.248,0,0,1-.248-.241l-.023-.745a.249.249,0,0,1,.5-.016l.023.745a.249.249,0,0,1-.241.256Zm-.077-2.483a.248.248,0,0,1-.248-.241l-.023-.745a.249.249,0,0,1,.24-.256.245.245,0,0,1,.256.241l.023.745a.249.249,0,0,1-.241.256Zm-.077-2.483a.247.247,0,0,1-.248-.241l-.023-.745a.249.249,0,0,1,.241-.256.246.246,0,0,1,.256.241l.023.745a.249.249,0,0,1-.241.256Z" transform="translate(-1968.199 -674.189)" fill="#7d97f4"/>
              </g>
              <g id="Group_1821" data-name="Group 1821" transform="translate(55.248 18.352)">
                <path id="Path_2067" data-name="Path 2067" d="M2047.548,639.93a.247.247,0,0,1-.248-.248v-.745a.248.248,0,1,1,.5,0v.745A.247.247,0,0,1,2047.548,639.93Zm0-2.483a.247.247,0,0,1-.248-.248v-.745a.248.248,0,1,1,.5,0v.745A.248.248,0,0,1,2047.548,637.447Zm0-2.484a.247.247,0,0,1-.248-.248v-.745a.248.248,0,1,1,.5,0v.745A.248.248,0,0,1,2047.548,634.963Zm0-2.484a.247.247,0,0,1-.248-.248v-.745a.248.248,0,1,1,.5,0v.745A.247.247,0,0,1,2047.548,632.479Zm0-2.484a.248.248,0,0,1-.248-.248V629a.248.248,0,1,1,.5,0v.745A.247.247,0,0,1,2047.548,630Zm0-2.484a.247.247,0,0,1-.248-.248v-.745a.248.248,0,1,1,.5,0v.745A.247.247,0,0,1,2047.548,627.511Zm0-2.483a.248.248,0,0,1-.248-.248v-.745a.248.248,0,1,1,.5,0v.745A.248.248,0,0,1,2047.548,625.029Zm0-2.484a.247.247,0,0,1-.248-.248v-.745a.248.248,0,1,1,.5,0v.745A.248.248,0,0,1,2047.548,622.545Zm0-2.484a.248.248,0,0,1-.248-.248v-.745a.248.248,0,1,1,.5,0v.745A.248.248,0,0,1,2047.548,620.061Z" transform="translate(-2047.3 -618.82)" fill="#7d97f4"/>
              </g>
              <g id="Group_1823" data-name="Group 1823" transform="translate(7.34 11.104)">
                <path id="Path_2068" data-name="Path 2068" d="M1659.208,593.369a.373.373,0,0,1-.37-.341l-2.547-30.069a.373.373,0,0,1,.743-.064l2.547,30.069a.374.374,0,0,1-.339.4Z" transform="translate(-1655.438 -562.078)" fill="#7d97f4"/>
                <g id="Group_1822" data-name="Group 1822">
                  <path id="Path_2069" data-name="Path 2069" d="M1649.3,561.025l1.152-1.366,1.365,1.153-.09-1.069-1.365-1.153-1.153,1.366Z" transform="translate(-1649.21 -558.59)" fill="#7d97f4"/>
                </g>
              </g>
              <g id="Group_1825" data-name="Group 1825" transform="translate(8.806 39.341)">
                <path id="Path_2070" data-name="Path 2070" d="M1714.154,801.366h-52.391a.373.373,0,1,1,0-.746h52.391a.373.373,0,1,1,0,.746Z" transform="translate(-1661.39 -799.731)" fill="#7d97f4"/>
                <g id="Group_1824" data-name="Group 1824" transform="translate(51.28)">
                  <path id="Path_2071" data-name="Path 2071" d="M2087.5,795.756l1.264-1.264-1.264-1.262h1.072l1.264,1.262-1.264,1.264Z" transform="translate(-2087.5 -793.23)" fill="#7d97f4"/>
                </g>
              </g>
              <g id="Group_1826" data-name="Group 1826" transform="translate(12.919 16.657)">
                <path id="Path_2072" data-name="Path 2072" d="M1695.934,620.414a.373.373,0,0,1-.048-.743c.276-.036,27.706-3.793,42.722-14.865a.372.372,0,1,1,.442.6c-15.172,11.187-42.789,14.967-43.066,15A.351.351,0,0,1,1695.934,620.414Z" transform="translate(-1695.562 -604.734)" fill="#7d97f4"/>
              </g>
              <g id="Group_1827" data-name="Group 1827" transform="translate(53.63 16.279)">
                <path id="Path_2073" data-name="Path 2073" d="M2036.525,604.324h-.03a.372.372,0,0,1-.342-.4l.116-1.463-2.063-.123a.372.372,0,0,1,.043-.744l2.442.144a.373.373,0,0,1,.349.4l-.144,1.843A.372.372,0,0,1,2036.525,604.324Z" transform="translate(-2033.854 -601.591)" fill="#7d97f4"/>
              </g>
            </g>
          </g>
          <g id="Group_1830" data-name="Group 1830" transform="translate(4.413 75.959)">
            <path id="Path_2074" data-name="Path 2074" d="M203.2,876.719h51.969a3,3,0,0,0,3-3V795.881a3,3,0,0,0-2.993-3l-52.384-.141a3,3,0,0,0-3.009,3.017l.415,77.979A3,3,0,0,0,203.2,876.719Z" transform="translate(-199.78 -792.74)" fill="#0090f8"/>
            <path id="Path_2075" data-name="Path 2075" d="M226.942,824.65l46.468.286A3.044,3.044,0,0,1,276.435,828l-.324,69.862a3.044,3.044,0,0,1-2.989,3.03l-45.151.824a3.045,3.045,0,0,1-3.1-3l-.994-70.973A3.045,3.045,0,0,1,226.942,824.65Z" transform="translate(-220.977 -820.809)" fill="#91b3fa"/>
            <path id="Path_2076" data-name="Path 2076" d="M265.04,850.511v.32a.911.911,0,0,0,.911.911h35.8a.911.911,0,0,0,.911-.911v-.32a.911.911,0,0,0-.911-.911h-35.8A.911.911,0,0,0,265.04,850.511Z" transform="translate(-257.186 -842.757)" fill="url(#linear-gradient-15)"/>
            <path id="Path_2077" data-name="Path 2077" d="M298.22,883.64h0a.911.911,0,0,0,.893.862l31.312.57a.911.911,0,0,0,.928-.911v-.075a.912.912,0,0,0-.9-.911l-31.312-.5A.911.911,0,0,0,298.22,883.64Z" transform="translate(-286.372 -871.855)" fill="url(#linear-gradient-16)"/>
            <path id="Path_2078" data-name="Path 2078" d="M244.433,982.819a2.718,2.718,0,0,1-2.71-2.662l-1.016-57.139a2.714,2.714,0,0,1,2.657-2.759l42.278-.823a2.71,2.71,0,0,1,2.763,2.659l1.09,57.453a2.71,2.71,0,0,1-2.678,2.762l-42.351.508ZM285.7,920.531h-.032l-42.278.823A1.619,1.619,0,0,0,241.8,923h0l1.016,57.139a1.62,1.62,0,0,0,1.616,1.587h.019l42.351-.508a1.617,1.617,0,0,0,1.6-1.646l-1.09-57.453a1.621,1.621,0,0,0-1.614-1.587Z" transform="translate(-235.781 -904.189)" fill="url(#linear-gradient-16)"/>
            <path id="Path_2079" data-name="Path 2079" d="M291.942,968.3H245.818a.548.548,0,1,1,0-1.1h46.124a.548.548,0,1,1,0,1.1Z" transform="translate(-239.796 -946.205)" fill="url(#linear-gradient-18)"/>
          </g>
          <g id="Group_1832" data-name="Group 1832" transform="translate(14.703 108.349)">
            <path id="Path_2080" data-name="Path 2080" d="M291.026,1222.39a.58.58,0,0,0-.58-.58H285.86a.58.58,0,0,0-.58.58v19.71a.58.58,0,0,0,.58.58h4.586a.58.58,0,0,0,.58-.58Z" transform="translate(-285.28 -1202.565)" opacity="0.6" fill="url(#linear-gradient-19)"/>
            <path id="Path_2081" data-name="Path 2081" d="M412.34,1201.07h-4.574a.639.639,0,0,0-.586.668v22.008a.663.663,0,0,0,.586.691h4.574a.725.725,0,0,0,.662-.691v-22.008A.7.7,0,0,0,412.34,1201.07Z" transform="translate(-392.51 -1184.32)" opacity="0.6" fill="url(#linear-gradient-19)"/>
            <path id="Path_2082" data-name="Path 2082" d="M350.726,1168.35a.58.58,0,0,0-.58-.58H345.56a.58.58,0,0,0-.58.58v26.213a.58.58,0,0,0,.58.58h4.586a.58.58,0,0,0,.58-.58Z" transform="translate(-337.795 -1155.028)" opacity="0.6" fill="url(#linear-gradient-21)"/>
            <path id="Path_2083" data-name="Path 2083" d="M557.457,1091.06a.581.581,0,0,0-.58-.58H552.29a.58.58,0,0,0-.58.58v35.515a.58.58,0,0,0,.58.58h4.586a.58.58,0,0,0,.58-.58Z" transform="translate(-519.647 -1087.039)" opacity="0.6" fill="url(#linear-gradient-22)"/>
            <path id="Path_2084" data-name="Path 2084" d="M486.446,1133.16a.58.58,0,0,0-.58-.58H481.28a.58.58,0,0,0-.58.58v30.449a.58.58,0,0,0,.58.58h4.586a.58.58,0,0,0,.58-.58Z" transform="translate(-457.182 -1124.073)" opacity="0.6" fill="url(#linear-gradient-19)"/>
            <g id="Group_1831" data-name="Group 1831" transform="translate(1.797)" opacity="0.6">
              <path id="Path_2085" data-name="Path 2085" d="M306.71,1079.4l-.109-.2,7.649-4.178,7.11,3.125,6.105-5.988.012-.007,7.169-4.231.116.2-7.157,4.223-6.2,6.077-7.148-3.142Z" transform="translate(-305.831 -1067.194)" fill="url(#linear-gradient-16)"/>
              <path id="Path_2086" data-name="Path 2086" d="M301.856,1156.463a.823.823,0,1,1-.823-.823A.823.823,0,0,1,301.856,1156.463Z" transform="translate(-300.21 -1144.358)" fill="url(#linear-gradient-25)"/>
              <circle id="Ellipse_137" data-name="Ellipse 137" cx="0.823" cy="0.823" r="0.823" transform="translate(7.6 7.13)" fill="url(#linear-gradient-26)"/>
              <circle id="Ellipse_138" data-name="Ellipse 138" cx="0.823" cy="0.823" r="0.823" transform="translate(14.73 10.108)" fill="url(#linear-gradient-27)"/>
              <circle id="Ellipse_139" data-name="Ellipse 139" cx="0.823" cy="0.823" r="0.823" transform="translate(20.684 4.231)" fill="url(#linear-gradient-28)"/>
              <path id="Path_2087" data-name="Path 2087" d="M534.926,1062.713a.823.823,0,1,1-.823-.823A.823.823,0,0,1,534.926,1062.713Z" transform="translate(-505.232 -1061.89)" fill="url(#linear-gradient-29)"/>
            </g>
          </g>
          <g id="Group_1837" data-name="Group 1837" transform="translate(25.326 41.347)">
            <g id="Group_1834" data-name="Group 1834" transform="translate(0 0)">
              <path id="Path_2092" data-name="Path 2092" d="M199.236,509.6a7.433,7.433,0,0,1,4.542,1.543l2.661-3.766a11.863,11.863,0,0,0-6.95-2.237c-.343,0-.687.019-1.029.049l.684,4.413Z" transform="translate(-186.214 -505.14)" fill="#7d97f4"/>
              <path id="Path_2093" data-name="Path 2093" d="M109.722,524.888c-4.122,0-8.31-3.071-8.31-7.193,0-4.091,4.124-7.678,8.216-7.732l-.684-4.413c-6.235.557-12.245,6.065-12.245,12.307,0,6.585,6.69,11.492,13.275,11.492a11.859,11.859,0,0,0,4.846-1.03l-2.68-3.834A7.454,7.454,0,0,1,109.722,524.888Z" transform="translate(-96.7 -505.501)" fill="url(#linear-gradient-30)"/>
              <path id="Path_2094" data-name="Path 2094" d="M234.768,533.417a11.906,11.906,0,0,0-4.974-9.687l-2.661,3.766a7.462,7.462,0,0,1-2.123,12.981l2.68,3.834A11.924,11.924,0,0,0,234.768,533.417Z" transform="translate(-209.569 -521.493)" fill="url(#linear-gradient-31)"/>
            </g>
            <g id="Group_1836" data-name="Group 1836" transform="translate(34.74)">
              <path id="Path_2099" data-name="Path 2099" d="M708.134,509.591a7.427,7.427,0,0,1,4.279,1.35l2.4-3.926a11.868,11.868,0,0,0-6.432-1.886,13.81,13.81,0,0,0-8.776,3.42l2.853,3.335A8.688,8.688,0,0,1,708.134,509.591Z" transform="translate(-695.112 -505.13)" fill="#263238" opacity="0.464"/>
              <path id="Path_2100" data-name="Path 2100" d="M809.171,530.42l4.645-.939a11.921,11.921,0,0,0-5.412-8.671l-2.4,3.924A7.456,7.456,0,0,1,809.171,530.42Z" transform="translate(-788.698 -518.923)" fill="#263238" opacity="0.464"/>
              <path id="Path_2101" data-name="Path 2101" d="M666.943,542.334a7.461,7.461,0,0,1,2.64-5.44l-2.853-3.335a12.025,12.025,0,0,0-4.5,8.937c0,4.267,2.81,7.826,6.578,9.806l2.331-3.787A7.147,7.147,0,0,1,666.943,542.334Z" transform="translate(-662.23 -530.139)" fill="#263238"/>
              <path id="Path_2102" data-name="Path 2102" d="M730.785,593.79c.008.142.013.285.013.429a7.464,7.464,0,0,1-7.464,7.464,9.1,9.1,0,0,1-4.113-1.013l-2.331,3.787a14.538,14.538,0,0,0,6.7,1.686A11.908,11.908,0,0,0,735.43,592.85Z" transform="translate(-710.312 -582.293)" fill="#263238"/>
            </g>
          </g>
          <g id="Group_1838" data-name="Group 1838" transform="translate(7.114 25.317)">
            <path id="Path_2103" data-name="Path 2103" d="M222.835,445.241a.609.609,0,0,0,.42-.167l8.3-7.861a3.855,3.855,0,0,1,2.661-1.06h28.25a.611.611,0,1,0,0-1.223H234.216a5.077,5.077,0,0,0-3.5,1.395l-8.3,7.861a.612.612,0,0,0,.42,1.055Z" transform="translate(-222.225 -427.348)" fill="#7d97f4"/>
            <path id="Path_2104" data-name="Path 2104" d="M353.441,404.653h23.911a.611.611,0,1,0,0-1.223H353.441a.611.611,0,0,0,0,1.223Z" transform="translate(-337.112 -399.639)" fill="#7d97f4"/>
            <path id="Path_2105" data-name="Path 2105" d="M385.771,373.153h20.02a.611.611,0,1,0,0-1.223h-20.02a.611.611,0,0,0,0,1.223Z" transform="translate(-365.552 -371.93)" fill="#7d97f4"/>
          </g>
          <g id="Group_1841" data-name="Group 1841" transform="translate(164.288 9.951)">
            <g id="Group_1839" data-name="Group 1839" transform="translate(24.841 9.366)">
              <path id="Path_2106" data-name="Path 2106" d="M1734.946,322.31l1.372-.041a.273.273,0,0,1,.016.545h0l-1.359.041h-.009a.273.273,0,1,1-.016-.545Z" transform="translate(-1734.679 -322.245)" fill="#7d97f4"/>
              <path id="Path_2107" data-name="Path 2107" d="M1757.7,322.075l1.369,0a.272.272,0,1,1,0,.544h0l-1.364.006h0a.273.273,0,0,1,0-.545Z" transform="translate(-1754.692 -322.07)" fill="#7d97f4"/>
              <path id="Path_2108" data-name="Path 2108" d="M1780.407,322.15l1.369.022a.271.271,0,1,1-.01.542h0l-1.365-.02h0a.271.271,0,1,1,.009-.543Z" transform="translate(-1774.66 -322.14)" fill="#7d97f4"/>
              <path id="Path_2109" data-name="Path 2109" d="M1803.13,322.619l1.369.047a.27.27,0,1,1-.02.539h0l-1.363-.046h0a.27.27,0,1,1,.019-.54Z" transform="translate(-1794.645 -322.553)" fill="#7d97f4"/>
              <path id="Path_2110" data-name="Path 2110" d="M1825.842,323.507l1.367.072a.269.269,0,0,1-.029.537h0l-1.363-.071h0a.269.269,0,1,1,.029-.538Z" transform="translate(-1814.621 -323.334)" fill="#7d97f4"/>
              <path id="Path_2111" data-name="Path 2111" d="M1848.551,324.806l1.366.1a.268.268,0,0,1-.039.534h0l-1.361-.1h0a.269.269,0,0,1,.039-.537Z" transform="translate(-1834.595 -324.476)" fill="#7d97f4"/>
              <path id="Path_2112" data-name="Path 2112" d="M1871.212,326.551l1.365.125a.266.266,0,0,1-.049.531h0l-1.359-.124h0a.267.267,0,0,1,.048-.532Z" transform="translate(-1854.525 -326.01)" fill="#7d97f4"/>
              <path id="Path_2113" data-name="Path 2113" d="M1893.833,328.747l1.361.154a.265.265,0,0,1-.06.527h0l-1.356-.153h0a.266.266,0,1,1,.06-.528Z" transform="translate(-1874.42 -327.942)" fill="#7d97f4"/>
              <path id="Path_2114" data-name="Path 2114" d="M1916.418,331.431l1.357.185a.264.264,0,1,1-.071.523h0l-1.351-.184h0a.265.265,0,0,1,.071-.525Z" transform="translate(-1894.283 -330.302)" fill="#7d97f4"/>
              <path id="Path_2115" data-name="Path 2115" d="M1938.917,334.644l1.353.22a.263.263,0,0,1-.084.52h0l-1.347-.218h0a.265.265,0,0,1,.086-.522Z" transform="translate(-1914.068 -333.127)" fill="#7d97f4"/>
              <path id="Path_2116" data-name="Path 2116" d="M1961.352,338.435l1.347.258a.262.262,0,0,1-.1.515h0l-1.34-.255h0a.262.262,0,1,1,.1-.515Z" transform="translate(-1933.799 -336.461)" fill="#7d97f4"/>
              <path id="Path_2117" data-name="Path 2117" d="M1983.647,342.871l1.338.3a.261.261,0,0,1-.114.509h0l-1.331-.3h0a.261.261,0,1,1,.115-.51Z" transform="translate(-1953.405 -340.362)" fill="#7d97f4"/>
              <path id="Path_2118" data-name="Path 2118" d="M2005.806,348.018l1.329.347a.259.259,0,1,1-.132.5h0l-1.319-.343h-.005a.26.26,0,1,1,.131-.5Z" transform="translate(-1972.891 -344.888)" fill="#7d97f4"/>
              <path id="Path_2119" data-name="Path 2119" d="M2027.777,353.976l1.314.4a.258.258,0,1,1-.15.495h0l-1.3-.4h0a.259.259,0,0,1-.172-.324.255.255,0,0,1,.322-.173Z" transform="translate(-1992.212 -350.126)" fill="#7d97f4"/>
              <path id="Path_2120" data-name="Path 2120" d="M2049.439,360.849l1.295.462a.258.258,0,0,1-.173.485l-.006,0-1.283-.456-.006,0a.258.258,0,0,1,.173-.486Z" transform="translate(-2011.256 -356.169)" fill="#7d97f4"/>
              <path id="Path_2121" data-name="Path 2121" d="M2070.758,368.781l1.267.533a.256.256,0,1,1-.2.473l-.008,0-1.254-.527-.007,0a.257.257,0,1,1,.2-.473Z" transform="translate(-2029.999 -363.142)" fill="#7d97f4"/>
              <path id="Path_2122" data-name="Path 2122" d="M2091.6,377.93l1.232.617a.255.255,0,1,1-.229.456l-.009,0-1.214-.608-.009,0a.256.256,0,0,1,.229-.458Z" transform="translate(-2048.319 -371.184)" fill="#7d97f4"/>
              <path id="Path_2123" data-name="Path 2123" d="M2111.735,388.508l1.179.715a.254.254,0,1,1-.264.434l-.009-.006-1.16-.7-.009-.006a.255.255,0,1,1,.264-.436Z" transform="translate(-2066.018 -380.48)" fill="#7d97f4"/>
              <path id="Path_2124" data-name="Path 2124" d="M2131.016,400.615l1.135.773a.253.253,0,0,1-.285.418l0,0-1.127-.766,0,0a.254.254,0,1,1,.287-.419Z" transform="translate(-2082.969 -391.124)" fill="#7d97f4"/>
              <path id="Path_2125" data-name="Path 2125" d="M2149.686,413.622l1.1.827a.252.252,0,1,1-.3.4l0,0-1.088-.817,0,0a.253.253,0,0,1,.3-.4Z" transform="translate(-2099.387 -402.56)" fill="#7d97f4"/>
              <path id="Path_2126" data-name="Path 2126" d="M2167.665,427.542l1.05.889a.251.251,0,0,1-.325.383l-.006,0-1.038-.879-.006,0a.252.252,0,1,1,.326-.384Z" transform="translate(-2115.193 -414.797)" fill="#7d97f4"/>
              <path id="Path_2127" data-name="Path 2127" d="M2184.779,442.531l.984.964a.249.249,0,0,1-.349.356l-.007-.007-.971-.95-.007-.007a.251.251,0,0,1,0-.354.254.254,0,0,1,.354,0Z" transform="translate(-2130.238 -427.972)" fill="#7d97f4"/>
              <path id="Path_2128" data-name="Path 2128" d="M2200.688,458.787l.892,1.053a.248.248,0,1,1-.379.321l-.008-.01-.877-1.032-.008-.01a.249.249,0,0,1,.38-.323Z" transform="translate(-2144.221 -442.257)" fill="#7d97f4"/>
              <path id="Path_2129" data-name="Path 2129" d="M2214.923,476.517l.763,1.155a.247.247,0,1,1-.413.273l-.01-.014-.746-1.126-.01-.014a.247.247,0,0,1,.07-.343.25.25,0,0,1,.345.07Z" transform="translate(-2156.726 -457.833)" fill="#7d97f4"/>
              <path id="Path_2130" data-name="Path 2130" d="M2226.778,495.928l.574,1.265a.246.246,0,1,1-.449.2l-.009-.02-.557-1.224-.008-.019a.247.247,0,0,1,.449-.2Z" transform="translate(-2167.142 -474.878)" fill="#7d97f4"/>
              <path id="Path_2131" data-name="Path 2131" d="M2235.233,517.128a12.416,12.416,0,0,1,.312,1.359.245.245,0,0,1-.484.083,12.159,12.159,0,0,0-.3-1.306.246.246,0,0,1,.473-.136Z" transform="translate(-2174.57 -493.498)" fill="#7d97f4"/>
              <path id="Path_2132" data-name="Path 2132" d="M2238.947,539.541a11.1,11.1,0,0,1-.014,1.4.244.244,0,0,1-.487-.035,11.056,11.056,0,0,0,.013-1.337.244.244,0,1,1,.488-.024Z" transform="translate(-2177.82 -513.165)" fill="#7d97f4"/>
              <path id="Path_2133" data-name="Path 2133" d="M2235.006,562.223a12.342,12.342,0,0,1-.343,1.352.243.243,0,0,1-.463-.146,11.79,11.79,0,0,0,.329-1.3.243.243,0,1,1,.478.093Z" transform="translate(-2174.075 -533.067)" fill="#7d97f4"/>
              <path id="Path_2134" data-name="Path 2134" d="M2226.254,583.852l-.611,1.247a.242.242,0,1,1-.435-.213l.01-.019.591-1.207.01-.02a.242.242,0,0,1,.435.213Z" transform="translate(-2166.154 -552.041)" fill="#7d97f4"/>
              <path id="Path_2135" data-name="Path 2135" d="M2213.981,603.85l-.8,1.128a.241.241,0,0,1-.393-.279l.01-.013.783-1.1.009-.014a.242.242,0,0,1,.395.279Z" transform="translate(-2155.208 -569.605)" fill="#7d97f4"/>
              <path id="Path_2136" data-name="Path 2136" d="M2199.237,621.936l-.934,1.016a.239.239,0,0,1-.353-.324l.009-.01.916-1,.008-.01a.24.24,0,1,1,.354.325Z" transform="translate(-2142.143 -585.495)" fill="#7d97f4"/>
              <path id="Path_2137" data-name="Path 2137" d="M2182.773,638.307l-1.024.921a.239.239,0,0,1-.319-.355l.007-.006,1.009-.907.007-.007a.239.239,0,0,1,.32.355Z" transform="translate(-2127.597 -599.884)" fill="#7d97f4"/>
              <path id="Path_2138" data-name="Path 2138" d="M2165.211,653.2l-1.073.848h0a.237.237,0,1,1-.3-.372l1.071-.85h0a.238.238,0,1,1,.294.373Z" transform="translate(-2112.117 -612.975)" fill="#7d97f4"/>
              <path id="Path_2139" data-name="Path 2139" d="M2147.627,667.429l-1.046.876,0,0a.237.237,0,0,1-.334-.029.235.235,0,0,1,.029-.332l1.052-.882a.237.237,0,0,1,.3.362h0Z" transform="translate(-2096.666 -625.498)" fill="#7d97f4"/>
              <path id="Path_2140" data-name="Path 2140" d="M2130.634,682.192l-1.006.918,0,0a.235.235,0,0,1-.317-.348l1.015-.927a.236.236,0,1,1,.319.348h0Z" transform="translate(-2081.748 -638.489)" fill="#7d97f4"/>
              <path id="Path_2141" data-name="Path 2141" d="M2114.508,697.745l-.944.978-.007.007a.234.234,0,1,1-.337-.325l.955-.993a.235.235,0,0,1,.339.326h0Z" transform="translate(-2067.607 -652.179)" fill="#7d97f4"/>
              <path id="Path_2142" data-name="Path 2142" d="M2099.925,714.467l-.832,1.067-.01.013a.233.233,0,1,1-.368-.285l.85-1.093a.233.233,0,0,1,.368.286h0Z" transform="translate(-2054.863 -666.903)" fill="#7d97f4"/>
              <path id="Path_2143" data-name="Path 2143" d="M2088.278,732.937a11.362,11.362,0,0,0-.619,1.188.232.232,0,0,1-.424-.188,11.941,11.941,0,0,1,.643-1.238.233.233,0,0,1,.4.238Z" transform="translate(-2044.79 -683.182)" fill="#7d97f4"/>
              <path id="Path_2144" data-name="Path 2144" d="M2082.071,753.673a7.627,7.627,0,0,0-.237,1.3.23.23,0,1,1-.459-.041,7.924,7.924,0,0,1,.249-1.383.232.232,0,0,1,.447.12Z" transform="translate(-2039.651 -701.476)" fill="#7d97f4"/>
              <path id="Path_2145" data-name="Path 2145" d="M2081.814,776.1a9.224,9.224,0,0,0,.21,1.317.23.23,0,0,1-.448.1,9.728,9.728,0,0,1-.223-1.382.231.231,0,0,1,.46-.039Z" transform="translate(-2039.633 -721.271)" fill="#7d97f4"/>
              <path id="Path_2146" data-name="Path 2146" d="M2086.779,798.111l.49,1.259,0,.013a.229.229,0,1,1-.426.166l-.5-1.288a.229.229,0,1,1,.426-.166h0Z" transform="translate(-2044.011 -740.681)" fill="#7d97f4"/>
              <path id="Path_2147" data-name="Path 2147" d="M2095.619,819.058l.6,1.223,0,0a.227.227,0,0,1-.408.2l-.606-1.231a.228.228,0,0,1,.409-.2h0Z" transform="translate(-2051.801 -759.132)" fill="#7d97f4"/>
              <path id="Path_2148" data-name="Path 2148" d="M2105.712,839.352l.528,1.283a.226.226,0,1,1-.418.172l-.007-.018-.514-1.245-.008-.02a.226.226,0,1,1,.419-.172Z" transform="translate(-2060.676 -776.977)" fill="#7d97f4"/>
              <path id="Path_2149" data-name="Path 2149" d="M2113.568,860.718l.338,1.338a.226.226,0,0,1-.437.11l0-.013-.332-1.312,0-.013a.226.226,0,1,1,.438-.109Z" transform="translate(-2067.58 -795.745)" fill="#7d97f4"/>
              <path id="Path_2150" data-name="Path 2150" d="M2118.519,882.921l.185,1.367a.224.224,0,0,1-.444.059v-.012l-.182-1.343v-.012a.224.224,0,1,1,.444-.059Z" transform="translate(-2071.934 -815.254)" fill="#7d97f4"/>
              <path id="Path_2151" data-name="Path 2151" d="M2120.966,905.528l.037,1.378a.223.223,0,1,1-.445.012v-.012l-.039-1.354v-.012a.223.223,0,1,1,.447-.012Z" transform="translate(-2074.086 -835.12)" fill="#7d97f4"/>
              <path id="Path_2152" data-name="Path 2152" d="M2120.225,928.266l-.107,1.374a.222.222,0,0,1-.442-.035v-.012l.105-1.352v-.012a.221.221,0,1,1,.441.036Z" transform="translate(-2073.343 -855.102)" fill="#7d97f4"/>
              <path id="Path_2153" data-name="Path 2153" d="M2116.762,950.883l-.257,1.355a.22.22,0,1,1-.433-.082l0-.012.25-1.331,0-.012a.221.221,0,1,1,.435.082Z" transform="translate(-2070.17 -874.978)" fill="#7d97f4"/>
              <path id="Path_2154" data-name="Path 2154" d="M2110.861,973.1l-.4,1.319a.22.22,0,1,1-.42-.129l0-.011.395-1.3,0-.012a.22.22,0,1,1,.421.129Z" transform="translate(-2064.857 -894.499)" fill="#7d97f4"/>
              <path id="Path_2155" data-name="Path 2155" d="M2102.587,994.666l-.547,1.266a.219.219,0,1,1-.4-.173l0-.011.535-1.244.005-.011a.219.219,0,0,1,.4.173Z" transform="translate(-2057.461 -913.454)" fill="#7d97f4"/>
              <path id="Path_2156" data-name="Path 2156" d="M2092.08,1015.3l-.679,1.2a.217.217,0,1,1-.377-.214l.006-.01.667-1.181.006-.01a.217.217,0,1,1,.377.214Z" transform="translate(-2048.115 -931.59)" fill="#7d97f4"/>
              <path id="Path_2157" data-name="Path 2157" d="M2079.5,1034.8l-.8,1.122a.217.217,0,0,1-.353-.251l.006-.009.786-1.1.006-.008a.217.217,0,0,1,.354.252Z" transform="translate(-2036.951 -948.723)" fill="#7d97f4"/>
              <path id="Path_2158" data-name="Path 2158" d="M2065.1,1052.988l-.906,1.039a.215.215,0,0,1-.324-.283l.006-.008.89-1.024.007-.007a.216.216,0,1,1,.326.283Z" transform="translate(-2024.21 -964.712)" fill="#7d97f4"/>
              <path id="Path_2159" data-name="Path 2159" d="M2049.142,1069.8l-.994.952a.214.214,0,0,1-.3-.308l.006-.006.98-.94.007-.006a.214.214,0,1,1,.3.308Z" transform="translate(-2010.107 -979.492)" fill="#7d97f4"/>
              <path id="Path_2160" data-name="Path 2160" d="M2031.858,1085.181l-1.068.867a.213.213,0,0,1-.268-.331l.006,0,1.054-.857.006,0a.214.214,0,0,1,.3.031.212.212,0,0,1-.031.3Z" transform="translate(-1994.85 -993.012)" fill="#7d97f4"/>
              <path id="Path_2161" data-name="Path 2161" d="M2013.508,1099.178l-1.129.785a.212.212,0,1,1-.242-.348l.006,0,1.115-.776.006-.005a.212.212,0,0,1,.243.348Z" transform="translate(-1978.667 -1005.318)" fill="#7d97f4"/>
              <path id="Path_2162" data-name="Path 2162" d="M1994.276,1111.841l-1.178.708a.211.211,0,1,1-.217-.361l.006,0,1.166-.7.006,0a.211.211,0,1,1,.217.362Z" transform="translate(-1961.718 -1016.452)" fill="#7d97f4"/>
              <path id="Path_2163" data-name="Path 2163" d="M1974.333,1123.275l-1.217.635a.209.209,0,1,1-.194-.372l0,0,1.206-.631,0,0a.21.21,0,1,1,.195.372Z" transform="translate(-1944.151 -1026.506)" fill="#7d97f4"/>
              <path id="Path_2164" data-name="Path 2164" d="M1953.836,1133.522l-1.248.571a.209.209,0,0,1-.173-.381l0,0,1.238-.567,0,0a.208.208,0,0,1,.277.1.211.211,0,0,1-.1.278Z" transform="translate(-1926.105 -1035.516)" fill="#7d97f4"/>
              <path id="Path_2165" data-name="Path 2165" d="M1932.876,1142.734l-1.273.51a.207.207,0,0,1-.154-.385h0l1.265-.508,0,0a.208.208,0,0,1,.271.116.211.211,0,0,1-.117.271Z" transform="translate(-1907.654 -1043.619)" fill="#7d97f4"/>
              <path id="Path_2166" data-name="Path 2166" d="M1911.533,1150.963l-1.293.455a.207.207,0,0,1-.137-.39h0l1.286-.454h0a.207.207,0,0,1,.139.391Z" transform="translate(-1888.87 -1050.856)" fill="#7d97f4"/>
            </g>
            <g id="Group_1840" data-name="Group 1840">
              <path id="Path_2167" data-name="Path 2167" d="M1678.184,293.12l.726,4.425-3.31-1.412Z" transform="translate(-1657.869 -287.238)" fill="#7d97f4"/>
              <path id="Path_2168" data-name="Path 2168" d="M1528.26,250.849l13.669,8.523a1.135,1.135,0,0,0,1.585-.4l8.04-14.047a.455.455,0,0,0-.521-.663Z" transform="translate(-1528.26 -244.245)" fill="#91b3fa"/>
              <path id="Path_2169" data-name="Path 2169" d="M1548.574,293.12l-20.314.722,19.024,1.549.253,1.219Z" transform="translate(-1528.26 -287.238)" fill="#7d97f4"/>
              <path id="Path_2170" data-name="Path 2170" d="M1679.89,313.331l2.793.814-2.017-2.154Z" transform="translate(-1661.642 -303.837)" fill="#7d97f4"/>
            </g>
          </g>
          <g id="Group_1848" data-name="Group 1848" transform="translate(170.671 84.416)">
            <g id="Group_1842" data-name="Group 1842" transform="translate(36.308 45.976)">
              <rect id="Rectangle_678" data-name="Rectangle 678" width="2.126" height="22.997" transform="translate(10.989 5.477)" fill="#0090f8"/>
              <path id="Path_2171" data-name="Path 2171" d="M1924.395,1475.224H1905.77v-1.06a.323.323,0,0,1,.324-.324h17.952a.349.349,0,0,1,.349.349Z" transform="translate(-1903.03 -1446.307)" fill="#0090f8"/>
              <path id="Path_2172" data-name="Path 2172" d="M1907.887,1249.679a2.438,2.438,0,0,1-2.431,2.431h-20.025a2.438,2.438,0,0,1-2.431-2.431v-2.2a2.438,2.438,0,0,1,2.431-2.431h20.027a2.438,2.438,0,0,1,2.431,2.431v2.2Z" transform="translate(-1883 -1245.05)" fill="#0090f8"/>
            </g>
            <g id="Group_1844" data-name="Group 1844" transform="translate(18.217)">
              <path id="Path_2173" data-name="Path 2173" d="M1847.15,1440.033s-6.073,4.377-5.019,7.317c0,0,6.645-2.866,7.447-5.124s-.136-3.255-.136-3.255Z" transform="translate(-1828.85 -1369.657)" fill="url(#linear-gradient-32)"/>
              <path id="Path_2174" data-name="Path 2174" d="M1872.65,1417.32l.993,2.87a1,1,0,0,1-.388,1.171,2.6,2.6,0,0,1-.822.318,1.162,1.162,0,0,1-1.285-.584l-1.188-2.236Z" transform="translate(-1853.438 -1350.613)" fill="url(#linear-gradient-33)"/>
              <path id="Path_2175" data-name="Path 2175" d="M1831.028,1202.63s-12.472,2.161-17.823,7.1,4.912,20.708,4.912,20.708a6.392,6.392,0,0,0,3.719-1.757s-6.083-11.857-.841-15.315a33.783,33.783,0,0,1,12.688-4.763l-2.533-5.6Z" transform="translate(-1802.154 -1161.76)" fill="url(#linear-gradient-34)"/>
              <path id="Path_2176" data-name="Path 2176" d="M1835.79,1470.282c1.336-.619,5.117-3.265,5.754-3.382s1.743.632,1.743.632a1.726,1.726,0,0,1-.019,1.328,11.941,11.941,0,0,1-5.507,3.884,4.615,4.615,0,0,1-4.16-.574A5.645,5.645,0,0,1,1835.79,1470.282Z" transform="translate(-1821.454 -1394.215)" fill="url(#linear-gradient-35)"/>
              <path id="Path_2177" data-name="Path 2177" d="M1834.926,1487.164a11.939,11.939,0,0,0,5.507-3.884,5.364,5.364,0,0,1-1.6,2.165,13.6,13.6,0,0,1-7.878,2.756c-.774-.119-.7-.833-.19-1.612A4.621,4.621,0,0,0,1834.926,1487.164Z" transform="translate(-1818.618 -1408.635)" fill="url(#linear-gradient-36)"/>
              <path id="Path_2178" data-name="Path 2178" d="M1897.847,1448.874a10.233,10.233,0,0,1-1.207,2.338,1.146,1.146,0,0,1-.971.543,2.951,2.951,0,0,1-.8-.1.743.743,0,0,1-.5-.925l.859-2.933Z" transform="translate(-1874.881 -1377.425)" fill="url(#linear-gradient-37)"/>
              <path id="Path_2179" data-name="Path 2179" d="M1915.765,1171.53s2.77,7.406,0,9.659-9.377,4.788-10.853,9.275-3.981,13.205-7.334,16.292c0,0-2.355-.229-3.237-1.166,0,0,1.908-13.015,3.168-16.354,1.09-2.892,2.7-7.067,5.777-9.4.88-.668.728-1.726.319-2.753l-.743-1.871Z" transform="translate(-1874.884 -1134.402)" fill="url(#linear-gradient-38)"/>
              <path id="Path_2180" data-name="Path 2180" d="M1831.528,1068.945c4.644.28,3.2-7.14,3.113-7.435l7.048,4.979s-.373,3.968-6.234,6.05a7.28,7.28,0,0,1-4.036.292A6.412,6.412,0,0,0,1831.528,1068.945Z" transform="translate(-1819.536 -1037.623)" fill="url(#linear-gradient-39)"/>
              <path id="Path_2181" data-name="Path 2181" d="M1735.682,1100.821a3.592,3.592,0,0,1,3.691,0,11.718,11.718,0,0,0,5.289,2.233,6.417,6.417,0,0,1-.107,3.886,9.976,9.976,0,0,1-5.253-3.4.837.837,0,0,0-1.159-.126c-.36.284-.71.674-.648,1.084.125.809-.813,1.066-.884.773a12.027,12.027,0,0,1,.321-2.033s-1.878,1.887-2.609,2.613a1.283,1.283,0,0,1-1.653,0S1733.952,1102.025,1735.682,1100.821Z" transform="translate(-1732.67 -1071.732)" fill="url(#linear-gradient-40)"/>
              <path id="Path_2182" data-name="Path 2182" d="M1867.755,963.969s-6.756-2.705-19.331,7.676a4.724,4.724,0,0,0,.095,4.109c1.146,1.935,12.063,11.364,13.564,16.593a15.441,15.441,0,0,0,13.23-2.9S1874.721,974.9,1867.755,963.969Z" transform="translate(-1834.107 -951.54)" fill="url(#linear-gradient-41)"/>
              <path id="Path_2183" data-name="Path 2183" d="M1868.452,946.23l3.326,4.033a1.324,1.324,0,0,1,.175,1.424,3.781,3.781,0,0,1-3.987,2.123,2.042,2.042,0,0,1-1.678-1.145l-2.326-4.808Z" transform="translate(-1848.16 -936.216)" fill="url(#linear-gradient-42)"/>
              <path id="Path_2184" data-name="Path 2184" d="M2003.391,983.559c.785-3.194-7.16-10.316-7.16-10.316l1.929-6.953s17.156,11.421,12.784,20.605a6.694,6.694,0,0,1-2.424,2.856A10.694,10.694,0,0,0,2003.391,983.559Z" transform="translate(-1964.512 -953.862)" fill="url(#linear-gradient-39)"/>
              <path id="Path_2185" data-name="Path 2185" d="M2002.063,1027.785a.187.187,0,0,0,.181-.143c.8-3.266-6.889-10.206-7.218-10.5a.187.187,0,1,0-.25.279c.078.07,7.853,7.082,7.1,10.132a.188.188,0,0,0,.137.227A.333.333,0,0,0,2002.063,1027.785Z" transform="translate(-1963.179 -998.552)" fill="url(#linear-gradient-44)"/>
              <path id="Path_2186" data-name="Path 2186" d="M1897.78,1106.414s9.419,3.657,11.719.906a1.533,1.533,0,0,0,.314-.632,10.7,10.7,0,0,1,5.129,6.192c-4.955,3.166-13.422-1.761-15.712-3.213a1.708,1.708,0,0,0-1.265-.232,11.72,11.72,0,0,1-3.231.326c-1.2-.185-2.933,4.06-4.883,2.751C1889.849,1112.51,1891.52,1105.13,1897.78,1106.414Z" transform="translate(-1870.935 -1076.99)" fill="url(#linear-gradient-45)"/>
              <g id="Group_1843" data-name="Group 1843" transform="translate(10.998)">
                <path id="Path_2187" data-name="Path 2187" d="M1841.133,889.78c-.033.13.78,8.944.78,8.944l5.023-.572.47-8.469S1841.693,887.609,1841.133,889.78Z" transform="translate(-1839.077 -885.688)" fill="url(#linear-gradient-46)"/>
                <path id="Path_2188" data-name="Path 2188" d="M1831.08,868.766l.1,4.478a.62.62,0,0,1-.02.168c-.088.341-.474,1.49-1.626,1.023a5.639,5.639,0,0,0-2.711-.662.625.625,0,0,0-.507.672,27.186,27.186,0,0,0,.687,4.141.624.624,0,0,0,.713.449,20.151,20.151,0,0,0,4.514-1.294.626.626,0,0,0,.365-.526c.076-1.119.316-4.52.531-5.458.2-.88,1.353-1.294,1.849-1.433a.617.617,0,0,0,.378-.3,1.622,1.622,0,0,0-.827-2.469.626.626,0,0,1-.305-.849,1.624,1.624,0,0,0-.661-2.331,2.3,2.3,0,0,0-2.791.356.625.625,0,0,1-.8.006.494.494,0,0,0-.562-.042.616.616,0,0,1-.839-.359,1.869,1.869,0,0,0-2.04-1.312c-2.237.135-2.753,2.542-2.331,4.031s2.84,1.206,4.1.616a2.675,2.675,0,0,1,2.537.615A.62.62,0,0,1,1831.08,868.766Z" transform="translate(-1824.061 -863.015)" fill="url(#linear-gradient-47)"/>
                <path id="Path_2189" data-name="Path 2189" d="M1898.162,924.792s-.626-2.627.37-3.145,2.335-.046,1.831,1.753C1899.736,925.637,1898.162,924.792,1898.162,924.792Z" transform="translate(-1889.074 -914.418)" fill="url(#linear-gradient-48)"/>
              </g>
            </g>
            <g id="Group_1845" data-name="Group 1845" transform="translate(1.345 18.691)">
              <path id="Path_2190" data-name="Path 2190" d="M1764.383,1154.358h-.046l-19.764-.022a.885.885,0,0,1,0-1.769l19.764.022a.885.885,0,0,1,.043,1.768Z" transform="translate(-1725.492 -1136.414)" fill="url(#linear-gradient-49)"/>
              <path id="Path_2191" data-name="Path 2191" d="M1593.787,1018.33h16.46a3.138,3.138,0,0,1,2.838,1.8l7.609,16.135h-20.455a1.905,1.905,0,0,1-1.772-1.206l-5.9-14.931A1.313,1.313,0,0,1,1593.787,1018.33Z" transform="translate(-1592.472 -1018.33)" fill="#0090f8"/>
            </g>
            <g id="Group_1847" data-name="Group 1847" transform="translate(0 36.448)">
              <g id="Group_1846" data-name="Group 1846" transform="translate(4.498 1.768)">
                <path id="Path_2192" data-name="Path 2192" d="M1619.5,1221.378a.846.846,0,0,1-.327-.066.8.8,0,0,1-.435-1.057l17.419-39.2a.842.842,0,0,1,1.092-.421.8.8,0,0,1,.434,1.057l-17.419,39.2A.833.833,0,0,1,1619.5,1221.378Z" transform="translate(-1618.675 -1180.568)" fill="#1c2120"/>
                <path id="Path_2193" data-name="Path 2193" d="M1655.235,1221.384a.831.831,0,0,1-.763-.486l-17.419-39.2a.8.8,0,0,1,.434-1.057.841.841,0,0,1,1.091.421l17.419,39.2a.8.8,0,0,1-.434,1.057A.883.883,0,0,1,1655.235,1221.384Z" transform="translate(-1634.782 -1180.573)" fill="#1c2120"/>
                <path id="Path_2194" data-name="Path 2194" d="M2067.535,1221.378a.845.845,0,0,1-.327-.066.8.8,0,0,1-.434-1.057l17.417-39.2a.842.842,0,0,1,1.092-.421.8.8,0,0,1,.434,1.057l-17.418,39.2A.832.832,0,0,1,2067.535,1221.378Z" transform="translate(-2012.787 -1180.568)" fill="#1c2120"/>
                <path id="Path_2195" data-name="Path 2195" d="M2103.254,1221.384a.831.831,0,0,1-.763-.486l-17.419-39.2a.8.8,0,0,1,.434-1.057.841.841,0,0,1,1.092.421l17.418,39.2a.794.794,0,0,1-.434,1.057A.875.875,0,0,1,2103.254,1221.384Z" transform="translate(-2028.885 -1180.573)" fill="#1c2120"/>
              </g>
              <path id="Path_2196" data-name="Path 2196" d="M1662.21,1166.923a.953.953,0,0,0-.165-.724.755.755,0,0,0-.6-.319H1582.2a.882.882,0,0,0-.76.466,1.116,1.116,0,0,0-.059.967l.859,2.081a1.2,1.2,0,0,0,1.091.781H1660.9a.945.945,0,0,0,.894-.826Z" transform="translate(-1581.299 -1165.88)" fill="#1c2120"/>
            </g>
          </g>
          <g id="Group_1850" data-name="Group 1850" transform="translate(0 102.343)">
            <path id="Path_2197" data-name="Path 2197" d="M199.249,1268.33l-34.672,19.232a2.853,2.853,0,0,0-1,4.068l.15.227a2.651,2.651,0,0,0,3.689.74l33.107-22.2Z" transform="translate(-163.107 -1237.481)" fill="url(#linear-gradient-50)"/>
            <path id="Path_2198" data-name="Path 2198" d="M477.118,1044.1a18.4,18.4,0,1,1-21-14.955A18.229,18.229,0,0,1,477.118,1044.1Z" transform="translate(-407.176 -1026.877)" opacity="0.42" fill="url(#linear-gradient-16)"/>
            <path id="Path_2199" data-name="Path 2199" d="M440.647,1012.246a20.1,20.1,0,1,0,23.362,16.64A20.282,20.282,0,0,0,440.647,1012.246Zm5.837,36.781a17.147,17.147,0,1,1,14.557-19.669A17.3,17.3,0,0,1,446.483,1049.026Z" transform="translate(-392.02 -1011.985)" fill="url(#linear-gradient-52)"/>
            <g id="Group_1849" data-name="Group 1849" transform="translate(32.592 1.248)">
              <path id="Path_2200" data-name="Path 2200" d="M434.807,1046.643a.136.136,0,0,1-.131-.1c-.135-.46-.253-.933-.351-1.4a.135.135,0,0,1,.106-.161.137.137,0,0,1,.162.106c.1.465.214.929.347,1.383a.137.137,0,0,1-.093.17A.221.221,0,0,1,434.807,1046.643Zm-.741-5.572h0a.135.135,0,0,1-.134-.14,18.5,18.5,0,0,1,.5-3.905h0A19.126,19.126,0,0,1,450.16,1022.6,19.386,19.386,0,0,1,460.8,1023.9a.137.137,0,1,1-.107.251,19.11,19.11,0,0,0-10.492-1.276,18.853,18.853,0,0,0-15.51,14.219h0a18.265,18.265,0,0,0-.491,3.846A.137.137,0,0,1,434.066,1041.072Z" transform="translate(-433.929 -1022.359)" fill="#bdd0fb"/>
            </g>
            <path id="Path_2201" data-name="Path 2201" d="M171.641,1420.13l-.024,0c-1.516-.268-1.984-1.065-2.111-1.685a2.214,2.214,0,0,1,1.093-2.334l4.145-2.424a.136.136,0,0,1,.137.236l-4.145,2.424a1.943,1.943,0,0,0-.963,2.045c.159.781.8,1.276,1.891,1.471a.137.137,0,0,1,.111.159A.135.135,0,0,1,171.641,1420.13Z" transform="translate(-168.699 -1365.327)" fill="#bdd0fb"/>
            <path id="Path_2202" data-name="Path 2202" d="M223.521,1405.439a.136.136,0,0,1-.069-.254l.537-.314a.135.135,0,0,1,.187.049.136.136,0,0,1-.049.187l-.537.314A.142.142,0,0,1,223.521,1405.439Z" transform="translate(-216.13 -1357.573)" fill="#bdd0fb"/>
          </g>
        </g>
      </g>
    </g>
  </g>
</svg>
