<svg xmlns="http://www.w3.org/2000/svg" width="64.6" height="63.152" viewBox="0 0 64.6 63.152">
  <g id="Save_Resources" data-name="Save Resources" transform="translate(-479.54 -180.48)">
    <g id="Group_4220" data-name="Group 4220" transform="translate(479.54 180.48)">
      <path id="Path_13600" data-name="Path 13600" d="M522.357,221.683h-.586q-4.141,0-8.283,0c-1.952,0-3.022-.982-3.022-2.777q0-17.814,0-35.627c0-1.8,1.068-2.78,3.017-2.78,9.107,0,18.213.017,27.321-.019,1.656-.006,2.786.524,3.336,1.989v37.239c-.551,1.467-1.68,2.011-3.337,1.991-4.1-.052-8.195-.023-12.292-.006M517.125,227.6h.763c1.259,0,2.518-.015,3.777,0a4.31,4.31,0,1,1-.052,8.619c-2.985.029-5.97.012-8.955,0a6.522,6.522,0,0,1-3.482-.948c-.916-.57-1.819-1.161-2.719-1.754a18.171,18.171,0,0,1-1.65-1.152,1.143,1.143,0,0,1-.186-1.557,1.181,1.181,0,0,1,1.456-.422,3.5,3.5,0,0,1,.584.324c1.125.735,2.251,1.469,3.368,2.216a4.718,4.718,0,0,0,2.692.832c2.944-.006,5.889,0,8.833,0a1.852,1.852,0,1,0,.015-3.693c-1.4-.008-2.8-.022-4.2,0a5.371,5.371,0,0,1-4.137-1.74c-1.959-2.026-3.965-4.009-5.922-6.037a5.385,5.385,0,0,0-4.087-1.717c-2.782.014-5.564,0-8.346,0h-.627a2.142,2.142,0,0,0-.05.273c0,4.993-.009,9.987.012,14.98a.878.878,0,0,0,.394.592c1.48.934,2.976,1.842,4.471,2.754a12.488,12.488,0,0,0,6.452,1.96q9.442.067,18.885.006a11.194,11.194,0,0,0,6.666-2.031c2.677-1.958,5.219-4.11,7.787-6.218a1.821,1.821,0,0,0,.5-2.139,2.228,2.228,0,0,0-3.5-.883c-1.68,1.259-3.343,2.542-5.015,3.813-.536.408-1.057.835-1.613,1.211a1.183,1.183,0,0,1-1.837-.482,1.257,1.257,0,0,1,.543-1.6c2.185-1.674,4.357-3.365,6.574-4.994a4.542,4.542,0,0,1,6.455.911,11.817,11.817,0,0,1,.963,1.947v1.356a6.023,6.023,0,0,1-2.555,3.666c-1.747,1.371-3.444,2.809-5.163,4.219a15.715,15.715,0,0,1-6.009,3.133c-.9.236-1.815.383-2.722.571H504.771c-.134-.037-.27-.076-.4-.108a24.315,24.315,0,0,1-4.1-1.056c-1.862-.831-3.594-1.961-5.379-2.965-.2-.114-.406-.235-.7-.4a14.388,14.388,0,0,1-.015,1.756,3.987,3.987,0,0,1-.441,1.676,5.657,5.657,0,0,1-1.392,1.1H480.4a1.767,1.767,0,0,1-.864-1.747q.025-13.343.011-26.688c0-1.32.391-1.713,1.717-1.714q5.024,0,10.049,0c1.964,0,2.87.92,2.875,2.9,0,.551,0,1.1,0,1.736h.7c2.8,0,5.6.009,8.405,0a7.524,7.524,0,0,1,5.677,2.378c1.734,1.79,3.492,3.557,5.236,5.336A4.758,4.758,0,0,0,517.125,227.6Zm24.729-8.4v-36.2H512.811v36.2ZM491.7,241.142V215.983h-9.681v25.159Z" transform="translate(-479.54 -180.48)" fill="#0090f8"/>
      <path id="Path_13601" data-name="Path 13601" d="M746.5,370.4c-2.656,0-5.312.016-7.966-.016a2.274,2.274,0,0,1-1.264-.369,1.361,1.361,0,0,1,.417-2.363,3.067,3.067,0,0,1,.987-.119q7.825-.011,15.648-.005c.167,0,.336-.007.5.007a1.466,1.466,0,0,1,1.426,1.428,1.435,1.435,0,0,1-1.426,1.422c-.932.041-1.867.014-2.8.014Q749.265,370.406,746.5,370.4Z" transform="translate(-702.018 -338.836)" fill="#0090f8"/>
      <path id="Path_13602" data-name="Path 13602" d="M743.5,396.45c1.719,0,3.438-.013,5.157.005,1.059.011,1.687.658,1.6,1.588a1.417,1.417,0,0,1-1.552,1.273c-3.462.014-6.923.005-10.387.005-.023,0-.049,0-.072,0a1.471,1.471,0,0,1-1.478-1.446,1.443,1.443,0,0,1,1.507-1.412c1.742-.027,3.485-.007,5.229-.007Z" transform="translate(-699.016 -363.316)" fill="#0090f8"/>
      <path id="Path_13603" data-name="Path 13603" d="M830.816,396.54a1.423,1.423,0,1,1-1.437,1.41A1.481,1.481,0,0,1,830.816,396.54Z" transform="translate(-777.993 -363.393)" fill="#0090f8"/>
      <path id="Path_13604" data-name="Path 13604" d="M522.385,479.244c0,.883.013,1.768,0,2.651a1.434,1.434,0,1,1-2.857.07c-.032-1.789-.029-3.58,0-5.371a1.413,1.413,0,0,1,1.433-1.543c.869,0,1.41.6,1.426,1.617C522.4,477.524,522.385,478.384,522.385,479.244Z" transform="translate(-512.315 -430.527)" fill="#0090f8"/>
      <path id="Path_13605" data-name="Path 13605" d="M521.132,533.618a1.425,1.425,0,1,1-1.455,1.4A1.49,1.49,0,0,1,521.132,533.618Z" transform="translate(-512.46 -480.497)" fill="#0090f8"/>
    </g>
    <g id="Group_4221" data-name="Group 4221" transform="translate(515.213 183.596)">
      <path id="Path_13606" data-name="Path 13606" d="M749.555,218.8v17.472a1.472,1.472,0,0,0-.049.153,2.834,2.834,0,0,1-2.744,2.307q-9.325.011-18.651,0a2.821,2.821,0,0,1-2.794-2.794q-.011-9.325,0-18.651a2.731,2.731,0,0,1,1.109-2.2,3.488,3.488,0,0,1,1.349-.59h17.472a1.137,1.137,0,0,0,.1.128q2.042,2.042,4.084,4.084A1.417,1.417,0,0,0,749.555,218.8Zm-20.6,18.031v-8.2a2.844,2.844,0,0,1,2.96-2.969H743a2.844,2.844,0,0,1,2.96,2.969v8.205h.656a.957.957,0,0,0,1.047-1.041q0-7.99-.005-15.979a.543.543,0,0,0-.146-.343c-.959-.973-1.931-1.931-2.888-2.9a.518.518,0,0,0-.559-.164v.254q0,2.1,0,4.19a2.843,2.843,0,0,1-2.915,2.919q-3.682,0-7.362,0a2.843,2.843,0,0,1-2.931-2.926q0-2.1,0-4.19v-.27h-2.509c-.789,0-1.138.349-1.138,1.138V235.7c0,.07,0,.142,0,.212a.93.93,0,0,0,.811.908A8.541,8.541,0,0,0,728.958,236.828Zm1.9-.009h13.21v-8.182a.964.964,0,0,0-1.077-1.081H731.93a.964.964,0,0,0-1.077,1.081v8.182Zm1.894-20.426v4.413a.961.961,0,0,0,1.066,1.068H741.1a.961.961,0,0,0,1.066-1.068v-4.411h-1.9v3.569h-1.9v-3.569C736.5,216.393,734.64,216.393,732.747,216.393Z" transform="translate(-725.311 -214.49)" fill="#0090f8"/>
    </g>
  </g>
</svg>
