<svg xmlns="http://www.w3.org/2000/svg" xmlns:xlink="http://www.w3.org/1999/xlink" width="758.881" height="581.5" viewBox="0 0 758.881 581.5">
  <defs>
    <linearGradient id="linear-gradient" x1="0.5" y1="1.192" x2="0.5" y2="0.045" gradientUnits="objectBoundingBox">
      <stop offset="0" stop-color="#0090f8"/>
      <stop offset="0.97" stop-color="#0090f8"/>
      <stop offset="1" stop-color="#ffd255"/>
    </linearGradient>
    <linearGradient id="linear-gradient-2" x1="0.314" y1="-1.111" x2="0.52" y2="0.678" gradientUnits="objectBoundingBox">
      <stop offset="0" stop-color="#40d5e6"/>
      <stop offset="1" stop-color="#57f"/>
    </linearGradient>
  </defs>
  <g id="Group_4211" data-name="Group 4211" transform="translate(-140 -6621.25)">
    <g id="Group_404" data-name="Group 404" transform="translate(-157.65 6525.42)">
      <g id="Group_206" data-name="Group 206" transform="translate(310.257 147.469)">
        <path id="Path_140" data-name="Path 140" d="M1000.518,316.12l-308.293,308.3-15.172,15.172-32.386,32.386-75.108,75.1-231.9-231.9,56.413-56.4,69.045,69.042,66.357,66.357,40.084,40.087,40.087-40.087L853.91,349.9l90.195-90.195Z" transform="translate(-337.66 -259.71)" fill="#0090f8"/>
      </g>
      <g id="Group_207" data-name="Group 207" transform="translate(617.264 457.756)">
        <path id="Path_141" data-name="Path 141" d="M1359.528,1244.43v54.418l-15.172,15.172-32.386,32.386V1244.43Z" transform="translate(-1311.97 -1244.43)" fill="#fbfbfb" opacity="0.571"/>
      </g>
      <g id="Group_208" data-name="Group 208" transform="translate(435.712 237.635)" opacity="0.325">
        <path id="Path_142" data-name="Path 142" d="M1146.46,566.748v72.1L949.742,835.568H756.688A20.892,20.892,0,0,1,735.8,814.68V566.748a20.882,20.882,0,0,1,20.888-20.888h368.88c.347,0,.677.013,1.024.025A20.888,20.888,0,0,1,1146.46,566.748Z" transform="translate(-735.8 -545.86)" fill="url(#linear-gradient)"/>
      </g>
      <g id="Group_209" data-name="Group 209" transform="translate(451.788 206.806)">
        <path id="Path_143" data-name="Path 143" d="M1165.327,448.02V587.913L1030.085,723.154H786.82V448.02Z" transform="translate(-786.82 -448.02)" fill="#fff"/>
      </g>
      <g id="Group_210" data-name="Group 210" transform="translate(451.792 206.802)">
        <rect id="Rectangle_22" data-name="Rectangle 22" width="378.5" height="33.231" transform="translate(378.5 33.231) rotate(180)" fill="#0090f8"/>
      </g>
      <path id="Path_144" data-name="Path 144" d="M886.471,493.36H841.515A4.515,4.515,0,0,1,837,488.844v-3.529a4.515,4.515,0,0,1,4.515-4.515h44.956a4.515,4.515,0,0,1,4.515,4.515v3.529A4.517,4.517,0,0,1,886.471,493.36Z" transform="translate(-369.4 -263.665)" fill="#f5f7ff"/>
      <g id="Group_213" data-name="Group 213" transform="translate(846.628 501.279)">
        <g id="Group_212" data-name="Group 212" transform="translate(0 0)">
          <g id="Group_211" data-name="Group 211">
            <path id="Path_145" data-name="Path 145" d="M2039.924,1382.555a.02.02,0,0,1,.019,0C2039.861,1382.59,2039.851,1382.593,2039.924,1382.555Z" transform="translate(-2039.875 -1382.552)" fill="#323657"/>
          </g>
        </g>
      </g>
      <g id="Group_223" data-name="Group 223" transform="translate(885.466 393.233)">
        <g id="Group_216" data-name="Group 216">
          <g id="Group_215" data-name="Group 215">
            <g id="Group_214" data-name="Group 214">
              <path id="Path_146" data-name="Path 146" d="M2163.13,1061.648l37.784-21.131-12.985-.857Z" transform="translate(-2163.13 -1039.66)" fill="#101010"/>
            </g>
          </g>
        </g>
        <g id="Group_219" data-name="Group 219" transform="translate(0 3.028)">
          <g id="Group_218" data-name="Group 218">
            <g id="Group_217" data-name="Group 217">
              <path id="Path_147" data-name="Path 147" d="M2163.13,1068.23l11.627-18.7,9.756-.258Z" transform="translate(-2163.13 -1049.27)" fill="#101010"/>
            </g>
          </g>
        </g>
        <g id="Group_222" data-name="Group 222" transform="translate(0 5.716)">
          <g id="Group_221" data-name="Group 221">
            <g id="Group_220" data-name="Group 220">
              <path id="Path_148" data-name="Path 148" d="M2192.223,1057.8l.76,4.761-29.853,11.511Z" transform="translate(-2163.13 -1057.8)" fill="#101010"/>
            </g>
          </g>
        </g>
      </g>
      <g id="Group_224" data-name="Group 224" transform="translate(388.799 130.305)">
        <path id="Path_149" data-name="Path 149" d="M588.152,460.2c-.123-1.484-.24-2.984-.343-4.456l1.03-.072c.1,1.468.221,2.965.343,4.446Zm534.98-4.7-.589-.851a43.094,43.094,0,0,0,4.254-3.529l.706.756A43.44,43.44,0,0,1,1123.132,455.494Zm-535.676-5.335c-.1-1.862-.2-3.74-.268-5.587l1.034-.041c.072,1.84.164,3.715.268,5.571Zm543.976-2.338-.778-.681a48.17,48.17,0,0,0,3.394-4.361l.854.586A49.437,49.437,0,0,1,1131.432,447.821Zm-544.424-8.839c-.044-1.862-.073-3.747-.088-5.593l1.034-.006c.013,1.84.041,3.718.085,5.574Zm550.776-.479-.923-.463a34.084,34.084,0,0,0,2.07-5.092l.986.309A35.6,35.6,0,0,1,1137.784,438.5ZM587.963,427.809l-1.034-.009c.019-1.865.054-3.747.1-5.593l1.034.028C588.017,424.075,587.982,425.95,587.963,427.809Zm553.139-.1-1.027-.12a27.628,27.628,0,0,0,.186-3.182c0-.759-.032-1.528-.094-2.288l1.03-.085c.066.788.1,1.585.1,2.373A30.505,30.505,0,0,1,1141.1,427.711Zm-1.925-10.975a32.805,32.805,0,0,0-1.947-5.133l.933-.444a33.716,33.716,0,0,1,2.01,5.3Zm-550.9-.072-1.034-.047c.085-1.862.189-3.74.309-5.584l1.034.066C588.464,412.933,588.36,414.808,588.275,416.664ZM1134.5,406.82a48.76,48.76,0,0,0-3.315-4.418l.791-.665a50.425,50.425,0,0,1,3.384,4.512ZM589,405.541l-1.03-.088c.158-1.859.334-3.731.526-5.568l1.027.107C589.327,401.823,589.151,403.691,589,405.541Zm538.443-7.21c-.148-.148-.3-.3-.451-.444a40.747,40.747,0,0,0-3.677-3.179l.63-.822a41.931,41.931,0,0,1,3.772,3.261l.457.447Zm-537.287-3.873-1.027-.129c.23-1.85.485-3.715.753-5.543l1.024.151C590.635,390.759,590.383,392.615,590.153,394.459Zm528.59-2.8a50.1,50.1,0,0,0-4.916-2.492l.419-.945a51.093,51.093,0,0,1,5.016,2.543Zm-10.071-4.49c-1.67-.567-3.409-1.093-5.309-1.6l.268-1c1.925.517,3.683,1.046,5.376,1.623Zm-10.713-2.912c-1.645-.362-3.432-.725-5.461-1.112l.2-1.015c2.039.391,3.835.756,5.489,1.119Zm-506.186-.822-1.021-.173c.312-1.837.643-3.69.993-5.5l1.015.2C592.412,379.759,592.081,381.606,591.773,383.436Zm495.236-1.3-1.667-.3q-1.909-.34-3.835-.69l.186-1.018q1.924.35,3.832.69l1.667.3Zm-11-2.029c-1.976-.391-3.766-.772-5.48-1.163l.23-1.008c1.7.388,3.485.766,5.451,1.156Zm-10.918-2.511c-1.859-.5-3.668-1.037-5.376-1.594l.318-.983c1.692.551,3.485,1.081,5.325,1.579Zm-10.657-3.482c-1.765-.693-3.5-1.443-5.149-2.228l.444-.933c1.629.775,3.34,1.516,5.083,2.2ZM593.871,372.5l-1.011-.217c.394-1.824.81-3.658,1.241-5.454l1.005.243C594.678,368.854,594.262,370.681,593.871,372.5Zm450.438-3.2c-1.626-.93-3.227-1.928-4.758-2.971l.583-.854c1.509,1.027,3.085,2.014,4.689,2.927Zm-9.264-6.315c-1.44-1.163-2.861-2.4-4.222-3.69l.709-.75c1.342,1.267,2.741,2.492,4.159,3.636Zm-438.571-1.311-1-.265c.479-1.8.983-3.614,1.5-5.388l.993.29C597.454,358.071,596.95,359.873,596.474,361.666Zm430.426-6.381c-1.235-1.358-2.451-2.8-3.617-4.279l.813-.64c1.15,1.462,2.354,2.883,3.57,4.222Zm-427.3-4.307-.986-.315c.567-1.774,1.163-3.561,1.774-5.306l.977.34C600.759,347.436,600.164,349.213,599.6,350.978Zm420.365-4.484c-1.037-1.506-2.058-3.091-3.031-4.708l.885-.536c.967,1.6,1.976,3.167,3,4.657Zm-416.7-6.031-.967-.366c.659-1.739,1.349-3.491,2.048-5.206l.958.391C604.607,336.99,603.92,338.733,603.264,340.463Zm410.9-3.545c-.86-1.61-1.7-3.293-2.515-5l.936-.444c.8,1.692,1.642,3.362,2.492,4.957ZM607.48,330.159l-.945-.419c.75-1.7,1.534-3.416,2.329-5.089l.936.444C609.009,326.762,608.227,328.464,607.48,330.159Zm401.884-3.346c-.709-1.68-1.409-3.425-2.08-5.193l.967-.366c.665,1.755,1.358,3.491,2.064,5.158ZM612.254,320.1l-.92-.47c.844-1.657,1.72-3.321,2.609-4.95l.908.495C613.968,316.8,613.092,318.456,612.254,320.1Zm393.143-3.75c-.586-1.727-1.163-3.517-1.714-5.322l.989-.3c.548,1.8,1.122,3.576,1.7,5.294Zm-387.812-6.022-.892-.52c.939-1.607,1.909-3.22,2.889-4.793l.879.548C619.486,307.128,618.518,308.732,617.586,310.333Zm384.538-4.673c-.485-1.761-.961-3.583-1.415-5.413l1.005-.249c.454,1.824.926,3.636,1.408,5.388Zm-378.652-4.777-.86-.573c1.027-1.547,2.092-3.1,3.164-4.616l.844.6C625.555,297.8,624.5,299.345,623.472,300.883Zm375.888-6.037c-.492-1.758-1.062-3.529-1.7-5.262l.97-.356c.643,1.758,1.219,3.554,1.717,5.338ZM629.9,291.8l-.826-.621c1.119-1.484,2.272-2.975,3.431-4.424l.807.646C632.159,288.84,631.012,290.318,629.9,291.8Zm365.673-7.336c-.753-1.661-1.582-3.331-2.467-4.963l.911-.492c.895,1.654,1.736,3.343,2.5,5.029ZM636.851,283.1l-.788-.668c1.2-1.415,2.442-2.833,3.684-4.213l.769.693C639.28,280.285,638.048,281.693,636.851,283.1Zm7.452-8.271-.747-.715c1.282-1.342,2.6-2.685,3.923-3.992l.728.737C646.89,272.158,645.576,273.494,644.3,274.83Zm345.995-.113c-.974-1.538-2.023-3.085-3.116-4.588l.838-.608c1.106,1.522,2.168,3.085,3.154,4.645ZM652.222,267l-.706-.756c1.355-1.264,2.751-2.53,4.147-3.759l.684.775C654.957,264.489,653.57,265.746,652.222,267Zm331.569-1.267c-1.156-1.409-2.382-2.82-3.643-4.191l.763-.7c1.273,1.386,2.511,2.814,3.677,4.235Zm-323.213-6.091-.662-.794c1.424-1.185,2.89-2.37,4.355-3.517l.64.813C663.452,257.292,662,258.467,660.578,259.646Zm315.707-2.1c-1.3-1.276-2.666-2.555-4.055-3.8l.69-.772c1.405,1.254,2.782,2.546,4.093,3.835Zm-306.963-4.764-.614-.832c1.484-1.1,3.006-2.2,4.528-3.264l.592.848C672.313,250.593,670.8,251.686,669.322,252.783ZM968,250.139c-1.415-1.156-2.89-2.307-4.383-3.425l.621-.829c1.5,1.128,2.99,2.288,4.418,3.454Zm-289.579-3.731-.57-.863c1.544-1.021,3.126-2.036,4.7-3.019l.548.879C681.532,244.382,679.957,245.393,678.422,246.408ZM959.1,243.465c-1.5-1.037-3.063-2.073-4.638-3.075l.555-.873c1.585,1.011,3.157,2.051,4.67,3.1Zm-271.243-2.943-.523-.892c1.591-.936,3.227-1.869,4.856-2.773l.5.9C691.067,238.66,689.442,239.589,687.857,240.522Zm261.859-3.044c-1.576-.93-3.2-1.856-4.84-2.751l.5-.908c1.648.9,3.286,1.834,4.871,2.77Zm-252.122-2.354-.479-.917c1.642-.857,3.321-1.708,4.991-2.527l.457.93C700.9,233.423,699.229,234.27,697.593,235.124Zm242.357-3c-1.632-.829-3.315-1.654-5-2.451l.441-.936c1.7.8,3.39,1.629,5.029,2.464Zm-232.359-1.916-.435-.939c1.679-.775,3.4-1.544,5.111-2.285l.41.948C710.976,228.674,709.265,229.44,707.591,230.212Zm222.286-2.845c-1.68-.737-3.406-1.465-5.133-2.171l.391-.958c1.733.706,3.469,1.44,5.158,2.181ZM717.82,225.781l-.388-.958c1.717-.7,3.469-1.383,5.212-2.045l.365.967C721.273,224.4,719.527,225.091,717.82,225.781Zm201.738-2.618c-1.72-.652-3.482-1.292-5.237-1.906l.343-.977c1.761.618,3.532,1.26,5.262,1.916ZM728.243,221.83l-.343-.977c1.749-.618,3.532-1.226,5.3-1.806l.325.983C731.76,220.611,729.986,221.216,728.243,221.83Zm180.8-2.354c-1.752-.567-3.542-1.125-5.322-1.657l.3-.989c1.787.536,3.586,1.093,5.344,1.664Zm-170.2-1.128-.3-.989c1.774-.542,3.58-1.071,5.372-1.576l.28,1C742.4,217.28,740.6,217.809,738.837,218.348Zm159.52-2.07c-1.777-.488-3.592-.967-5.391-1.421l.252-1c1.805.457,3.627.936,5.414,1.427Zm-148.788-.955-.258-1c1.79-.463,3.617-.917,5.432-1.349l.24,1.005C753.171,214.409,751.35,214.86,749.569,215.323Zm137.977-1.771c-1.8-.413-3.633-.816-5.445-1.194l.211-1.011c1.821.381,3.662.781,5.467,1.2Zm-127.131-.8-.217-1.011c1.812-.391,3.655-.769,5.48-1.125l.2,1.015C764.058,211.983,762.221,212.361,760.415,212.749Zm116.216-1.472c-1.812-.34-3.661-.668-5.489-.974l.17-1.021c1.837.309,3.69.636,5.511.977Zm-105.276-.659-.177-1.018c1.821-.318,3.677-.624,5.517-.908l.157,1.021C775.02,210,773.17,210.3,771.355,210.619Zm94.278-1.182c-1.828-.268-3.687-.526-5.524-.759l.132-1.024c1.846.236,3.712.492,5.543.763Zm-83.269-.52-.139-1.024c1.837-.249,3.7-.479,5.546-.693l.12,1.027C786.055,208.438,784.2,208.671,782.365,208.917Zm72.206-.895c-1.84-.2-3.709-.384-5.549-.548l.091-1.03c1.85.164,3.721.35,5.568.551Zm-61.142-.378-.1-1.03c1.846-.176,3.718-.34,5.565-.482l.079,1.03C797.131,207.3,795.265,207.468,793.428,207.644Zm50.035-.618c-1.84-.129-3.715-.246-5.565-.343l.054-1.034c1.859.1,3.737.214,5.584.343Zm-38.94-.239-.06-1.034c1.846-.107,3.721-.2,5.574-.274l.041,1.034C808.232,206.585,806.363,206.68,804.523,206.787Zm27.8-.343c-1.846-.063-3.718-.107-5.565-.135l.016-1.034c1.853.028,3.734.076,5.587.135Zm-16.694-.1-.022-1.034c1.846-.041,3.721-.063,5.574-.069l0,1.034C819.342,206.28,817.471,206.3,815.634,206.343Z" transform="translate(-586.92 -205.24)" fill="#080808"/>
      </g>
      <g id="Group_233" data-name="Group 233" transform="translate(955.992 232.348)">
        <g id="Group_226" data-name="Group 226" transform="translate(0.001)">
          <g id="Group_225" data-name="Group 225">
            <path id="Path_150" data-name="Path 150" d="M2432.918,532.18a32.193,32.193,0,1,0-27.537,58.2q.983.463,1.979.86a32.194,32.194,0,0,0,25.558-59.06Zm8.051,39.422a24.111,24.111,0,0,1-30.656,12.138q-.747-.293-1.484-.643a24.136,24.136,0,1,1,32.14-11.495Z" transform="translate(-2386.951 -529.079)" fill="#dae8f5"/>
          </g>
        </g>
        <g id="Group_228" data-name="Group 228" transform="translate(0 10.121)">
          <g id="Group_227" data-name="Group 227">
            <path id="Path_151" data-name="Path 151" d="M2397.769,594.484l-7.137,3.74a32.24,32.24,0,0,1,5.076-37.024l5.864,5.527a24.175,24.175,0,0,0-3.8,27.757Z" transform="translate(-2386.947 -561.2)" fill="#2273b5"/>
          </g>
        </g>
        <g id="Group_230" data-name="Group 230" transform="translate(3.688 43.406)">
          <g id="Group_229" data-name="Group 229">
            <path id="Path_152" data-name="Path 152" d="M2418.325,678.085l-2.949,7.5c-.665-.261-1.326-.548-1.979-.86a32.049,32.049,0,0,1-14.747-14.154l7.137-3.74a24.032,24.032,0,0,0,11.057,10.613C2417.332,677.673,2417.827,677.887,2418.325,678.085Z" transform="translate(-2398.65 -666.83)" fill="#4dafff"/>
          </g>
        </g>
        <g id="Group_232" data-name="Group 232" transform="translate(20.413 54.661)">
          <g id="Group_231" data-name="Group 231">
            <path id="Path_153" data-name="Path 153" d="M2460.925,712.186a32.1,32.1,0,0,1-9.195-2.136l2.949-7.5a23.949,23.949,0,0,0,6.895,1.6Z" transform="translate(-2451.73 -702.55)" fill="#4dafff"/>
          </g>
        </g>
      </g>
      <g id="Group_234" data-name="Group 234" transform="translate(918.186 291.2)">
        <path id="Path_154" data-name="Path 154" d="M2327.085,742.514H2266.97v-1.2h58.921V715.85h1.194Z" transform="translate(-2266.97 -715.85)" fill="#4dafff"/>
      </g>
      <g id="Group_235" data-name="Group 235" transform="translate(918.186 304.232)">
        <rect id="Rectangle_23" data-name="Rectangle 23" width="31.643" height="7.169" fill="#e0e0e0"/>
      </g>
      <g id="Group_250" data-name="Group 250" transform="translate(297.65 195.008)">
        <g id="Group_236" data-name="Group 236" transform="translate(0 4.629)">
          <rect id="Rectangle_24" data-name="Rectangle 24" width="6.28" height="41.647" fill="#e0e0e0"/>
        </g>
        <g id="Group_237" data-name="Group 237" transform="translate(15.594 13.092)">
          <rect id="Rectangle_25" data-name="Rectangle 25" width="6.28" height="33.183" fill="#e0e0e0"/>
        </g>
        <g id="Group_238" data-name="Group 238" transform="translate(31.189 6.866)">
          <rect id="Rectangle_26" data-name="Rectangle 26" width="6.28" height="39.413" fill="#e0e0e0"/>
        </g>
        <g id="Group_239" data-name="Group 239" transform="translate(46.783 19.158)">
          <rect id="Rectangle_27" data-name="Rectangle 27" width="6.28" height="27.118" fill="#e0e0e0"/>
        </g>
        <g id="Group_240" data-name="Group 240" transform="translate(62.378 8.142)">
          <rect id="Rectangle_28" data-name="Rectangle 28" width="6.28" height="38.134" fill="#e0e0e0"/>
        </g>
        <g id="Group_241" data-name="Group 241" transform="translate(77.969 2.395)">
          <rect id="Rectangle_29" data-name="Rectangle 29" width="6.28" height="43.881" fill="#e0e0e0"/>
        </g>
        <g id="Group_242" data-name="Group 242" transform="translate(93.563)">
          <rect id="Rectangle_30" data-name="Rectangle 30" width="6.28" height="46.276" fill="#e0e0e0"/>
        </g>
        <g id="Group_243" data-name="Group 243" transform="translate(0 20.148)">
          <rect id="Rectangle_31" data-name="Rectangle 31" width="6.28" height="26.128" fill="#5d96ff"/>
        </g>
        <g id="Group_244" data-name="Group 244" transform="translate(15.594 25.457)">
          <rect id="Rectangle_32" data-name="Rectangle 32" width="6.28" height="20.819" fill="#5d96ff"/>
        </g>
        <g id="Group_245" data-name="Group 245" transform="translate(31.189 21.55)">
          <rect id="Rectangle_33" data-name="Rectangle 33" width="6.28" height="24.726" fill="#5d96ff"/>
        </g>
        <g id="Group_246" data-name="Group 246" transform="translate(46.783 29.264)">
          <rect id="Rectangle_34" data-name="Rectangle 34" width="6.28" height="17.012" fill="#5d96ff"/>
        </g>
        <g id="Group_247" data-name="Group 247" transform="translate(62.378 22.353)">
          <rect id="Rectangle_35" data-name="Rectangle 35" width="6.28" height="23.926" fill="#5d96ff"/>
        </g>
        <g id="Group_248" data-name="Group 248" transform="translate(77.969 18.745)">
          <rect id="Rectangle_36" data-name="Rectangle 36" width="6.28" height="27.53" fill="#5d96ff"/>
        </g>
        <g id="Group_249" data-name="Group 249" transform="translate(93.563 17.242)">
          <rect id="Rectangle_37" data-name="Rectangle 37" width="6.28" height="29.033" fill="#5d96ff"/>
        </g>
      </g>
      <rect id="Rectangle_38" data-name="Rectangle 38" width="36.297" height="5.243" transform="translate(402.755 134.663)" fill="#d9d9d9"/>
      <rect id="Rectangle_39" data-name="Rectangle 39" width="51.488" height="5.243" transform="translate(402.755 144.356)" fill="#d9d9d9"/>
      <g id="Group_259" data-name="Group 259" transform="translate(1007.714 187.082)">
        <g id="Group_252" data-name="Group 252" transform="translate(0)">
          <g id="Group_251" data-name="Group 251">
            <path id="Path_155" data-name="Path 155" d="M2598.476,401.617a24.4,24.4,0,1,0-45.951,16.436q.274.775.6,1.522a24.4,24.4,0,0,0,45.35-17.958Zm-16.814,25.444a18.273,18.273,0,0,1-22.937-9.926c-.16-.372-.312-.753-.451-1.141a18.3,18.3,0,1,1,23.387,11.066Z" transform="translate(-2551.091 -385.425)" fill="#dae8f5"/>
          </g>
        </g>
        <g id="Group_254" data-name="Group 254" transform="translate(1.115 0.008)">
          <g id="Group_253" data-name="Group 253">
            <path id="Path_156" data-name="Path 156" d="M2560.459,404.4l-5.829-1.821a24.439,24.439,0,0,1,22.564-17.126l.183,6.107a18.323,18.323,0,0,0-16.918,12.84Z" transform="translate(-2554.63 -385.45)" fill="#1a598c"/>
          </g>
        </g>
        <g id="Group_256" data-name="Group 256" transform="translate(0 17.137)">
          <g id="Group_255" data-name="Group 255">
            <path id="Path_157" data-name="Path 157" d="M2558.726,454.383l-5.6,2.439c-.214-.495-.416-1.005-.6-1.522a24.277,24.277,0,0,1-.318-15.49l5.83,1.821a18.207,18.207,0,0,0,.236,11.612C2558.414,453.63,2558.565,454.012,2558.726,454.383Z" transform="translate(-2551.092 -439.81)" fill="#2273b5"/>
          </g>
        </g>
        <g id="Group_258" data-name="Group 258" transform="translate(2.035 31.707)">
          <g id="Group_257" data-name="Group 257">
            <path id="Path_158" data-name="Path 158" d="M2561.331,494.564a24.308,24.308,0,0,1-3.781-6.075l5.6-2.439a18.228,18.228,0,0,0,2.836,4.556Z" transform="translate(-2557.55 -486.05)" fill="#4dafff"/>
          </g>
        </g>
      </g>
      <g id="Group_279" data-name="Group 279" transform="translate(478.355 279.223)">
        <g id="Group_260" data-name="Group 260" transform="translate(43.749 5.7)">
          <rect id="Rectangle_40" data-name="Rectangle 40" width="190.772" height="6.645" fill="#e8e8e8"/>
          <rect id="Rectangle_41" data-name="Rectangle 41" width="190.772" height="6.645" transform="translate(0 21.651)" fill="#e8e8e8"/>
          <rect id="Rectangle_42" data-name="Rectangle 42" width="190.772" height="6.645" transform="translate(0 42.539)" fill="#e8e8e8"/>
          <rect id="Rectangle_43" data-name="Rectangle 43" width="190.772" height="6.645" transform="translate(0 64.193)" fill="#e8e8e8"/>
          <rect id="Rectangle_44" data-name="Rectangle 44" width="190.772" height="6.645" transform="translate(0 88.515)" fill="#e8e8e8"/>
          <rect id="Rectangle_45" data-name="Rectangle 45" width="190.772" height="6.645" transform="translate(0 110.169)" fill="#e8e8e8"/>
          <rect id="Rectangle_46" data-name="Rectangle 46" width="190.772" height="6.645" transform="translate(0 131.057)" fill="#e8e8e8"/>
          <rect id="Rectangle_47" data-name="Rectangle 47" width="190.772" height="6.645" transform="translate(0 152.711)" fill="#e8e8e8"/>
        </g>
        <path id="Path_159" data-name="Path 159" d="M876.506,704.914h16.322a5.377,5.377,0,0,0,5.376-5.376V683.216a5.376,5.376,0,0,0-5.376-5.376H876.506a5.376,5.376,0,0,0-5.376,5.376v16.322A5.376,5.376,0,0,0,876.506,704.914Z" transform="translate(-871.13 -677.84)" fill="#4ca1f4"/>
        <g id="Group_266" data-name="Group 266" transform="translate(0 84.86)">
          <path id="Path_160" data-name="Path 160" d="M876.506,974.22h16.322a5.376,5.376,0,0,0,5.376-5.372V952.526a5.377,5.377,0,0,0-5.376-5.376H876.506a5.376,5.376,0,0,0-5.376,5.376v16.322A5.374,5.374,0,0,0,876.506,974.22Z" transform="translate(-871.13 -947.15)" fill="#4ca1f4"/>
          <g id="Group_265" data-name="Group 265" transform="translate(4.593 6.994)">
            <g id="Group_264" data-name="Group 264">
              <g id="Group_263" data-name="Group 263">
                <g id="Group_262" data-name="Group 262">
                  <g id="Group_261" data-name="Group 261">
                    <path id="Path_161" data-name="Path 161" d="M893.727,982.43l-7.512-6.526a1.479,1.479,0,1,1,1.941-2.231l5.313,4.616,7.55-8.451a1.477,1.477,0,0,1,2.2,1.969Z" transform="translate(-885.706 -969.345)" fill="#fff"/>
                  </g>
                </g>
              </g>
            </g>
          </g>
        </g>
        <g id="Group_277" data-name="Group 277" transform="translate(0 42.261)">
          <path id="Path_162" data-name="Path 162" d="M876.506,839.034h16.322a5.376,5.376,0,0,0,5.376-5.376V817.336a5.377,5.377,0,0,0-5.376-5.376H876.506a5.376,5.376,0,0,0-5.376,5.376v16.322A5.374,5.374,0,0,0,876.506,839.034Z" transform="translate(-871.13 -811.96)" fill="#4ca1f4"/>
          <g id="Group_271" data-name="Group 271" transform="translate(4.593 6.997)">
            <g id="Group_270" data-name="Group 270">
              <g id="Group_269" data-name="Group 269">
                <g id="Group_268" data-name="Group 268">
                  <g id="Group_267" data-name="Group 267">
                    <path id="Path_163" data-name="Path 163" d="M893.727,847.25l-7.512-6.526a1.479,1.479,0,1,1,1.941-2.231l5.313,4.616,7.55-8.451a1.477,1.477,0,1,1,2.2,1.969Z" transform="translate(-885.706 -834.165)" fill="#fff"/>
                  </g>
                </g>
              </g>
            </g>
          </g>
          <path id="Path_164" data-name="Path 164" d="M876.506,1109.393h16.322a5.377,5.377,0,0,0,5.376-5.376V1087.7a5.377,5.377,0,0,0-5.376-5.376H876.506a5.376,5.376,0,0,0-5.376,5.376v16.322A5.374,5.374,0,0,0,876.506,1109.393Z" transform="translate(-871.13 -997.129)" fill="#4ca1f4"/>
          <g id="Group_276" data-name="Group 276" transform="translate(4.593 92.188)">
            <g id="Group_275" data-name="Group 275">
              <g id="Group_274" data-name="Group 274">
                <g id="Group_273" data-name="Group 273">
                  <g id="Group_272" data-name="Group 272">
                    <path id="Path_165" data-name="Path 165" d="M893.727,1117.61l-7.512-6.526a1.479,1.479,0,1,1,1.941-2.231l5.313,4.616,7.55-8.451a1.477,1.477,0,0,1,2.2,1.969Z" transform="translate(-885.706 -1104.525)" fill="#fff"/>
                  </g>
                </g>
              </g>
            </g>
          </g>
        </g>
        <g id="Group_278" data-name="Group 278" transform="translate(8.659 4.752)">
          <path id="Path_166" data-name="Path 166" d="M900.327,703.772a6.945,6.945,0,0,1,.069-1.008,3.5,3.5,0,0,1,.265-.926,2.879,2.879,0,0,1,.561-.835,3.75,3.75,0,0,1,.961-.709c.2-.107.46-.249.791-.422a8.038,8.038,0,0,0,.961-.608,4.033,4.033,0,0,0,.813-.791,1.592,1.592,0,0,0,.343-1,1.4,1.4,0,0,0-.548-1.178,2,2,0,0,0-1.26-.422,1.856,1.856,0,0,0-.813.17,3.066,3.066,0,0,0-.643.413,2.643,2.643,0,0,0-.492.539c-.139.2-.261.375-.365.526l-2.36-1.648A4.567,4.567,0,0,1,900.5,693.7a5.55,5.55,0,0,1,2.921-.778,6.261,6.261,0,0,1,1.739.252,4.43,4.43,0,0,1,1.557.8,4.157,4.157,0,0,1,1.122,1.421,4.674,4.674,0,0,1,.435,2.108,4.12,4.12,0,0,1-.539,2.187,4.835,4.835,0,0,1-1.591,1.547,10.321,10.321,0,0,1-.974.573,9,9,0,0,0-.9.526,2.625,2.625,0,0,0-.665.618,1.366,1.366,0,0,0-.252.826h-3.022Zm.069,5.609v-3.435h3v3.435Z" transform="translate(-898.61 -692.92)" fill="#fff"/>
        </g>
      </g>
      <g id="Group_283" data-name="Group 283" transform="translate(519.668 95.83)">
        <path id="Path_167" data-name="Path 167" d="M1118.314,660.276a30.968,30.968,0,0,0-4.742,5.555c-2.244,3.365-8.2,3.545-8.454,8.139s8.1,4.736,12.484,3.239,5.048-5.984,7.7-7.106,4.027-2.029,3.825-4.219a26.745,26.745,0,0,0-1.67-5.744,18.145,18.145,0,0,1-2.615.633A21.651,21.651,0,0,1,1118.314,660.276Z" transform="translate(-1072.697 -482.325)" fill="#252840"/>
        <path id="Path_168" data-name="Path 168" d="M1174.992,236.428s-1.68,10-3.035,16.6h0a40.187,40.187,0,0,1-1.352,5.464c-.388.841-3.542,4.229-7.4,8.2-6.775,6.973-15.727,15.755-15.727,15.755l-3.5-6.642s7.95-9.321,13.338-15.541c2.5-2.877,4.44-5.092,4.8-5.41,1.128-1.008,2.436-10.94,4.273-19.124a32.953,32.953,0,0,1,5.524-12.708Z" transform="translate(-1099.318 -182.942)" fill="#1d3b54"/>
        <path id="Path_169" data-name="Path 169" d="M1163.194,347.638c-6.775,6.973-15.727,15.755-15.727,15.755l-3.5-6.642s7.95-9.321,13.338-15.541A11.326,11.326,0,0,1,1163.194,347.638Z" transform="translate(-1099.311 -263.89)" fill="#eea886"/>
        <g id="Group_280" data-name="Group 280" transform="translate(96.989 174.989)">
          <path id="Path_170" data-name="Path 170" d="M1320.383,651.4s2.3,2.543,3.661,4.087,6.573,4.3,6.6,8.88c.031,4.966-3.844,4.531-7.292,4.352a9.53,9.53,0,0,1-7.7-5.376c-1.453-2.811-5.312-3.551-5.587-5.82s1.79-6.349,1.79-6.349Z" transform="translate(-1310.042 -651.17)" fill="#252840"/>
        </g>
        <path id="Path_171" data-name="Path 171" d="M1316.244,637.74l-.444,4.229s7.194,3.135,8.527.23l-.309-3.765Z" transform="translate(-1216.997 -466.983)" fill="#5f8cc9"/>
        <path id="Path_172" data-name="Path 172" d="M1147.394,650.86l-.394,3.06a15.075,15.075,0,0,0,9.138-.135l.1-2.722Z" transform="translate(-1101.386 -475.969)" fill="#5f8cc9"/>
        <path id="Path_173" data-name="Path 173" d="M1244.038,268.727c.249.889-46.058,0-46.058,0s12.809-9.324,13.641-11.813-3.261-17.435-3.794-22.3c-.429-3.892-1.5-21.3,1.068-23.96,2.682-2.779,12.336-5.694,12.336-5.694l14.076.523a22.045,22.045,0,0,1,3.983,1.257c1.661.772,11.158,4.153,12.7,8.9s-9.475,20-9.475,20-.022.687-.054,1.809h0c-.044,1.5-.1,3.775-.164,6.245-.072,3.2-.139,6.721-.139,9.292A91.7,91.7,0,0,0,1244.038,268.727Z" transform="translate(-1136.302 -170.573)" fill="#1d3b54"/>
        <path id="Path_174" data-name="Path 174" d="M1173.181,402.118s6.3,9.251,6.387,15.566-2.332,23.828-2.511,27.3-3.441,32.38-3.441,32.38-2.521,2.341-10.083-.592c0,0-1.67-27.417-1.846-30.354s-.177-16.455-1.869-18.411-11.92-8.095-13.253-9.251-24.578,4.393-27.014,5.023c-6.305,1.635-3.431,12.61-2.036,17.529,2.335,8.23,4.374,37.954,4.374,37.954s-4.493,1.913-12.015.3c0,0-14.775-53.671-15.251-59.006s-.709-14.139,35.7-20.828Z" transform="translate(-1065.445 -303.964)" fill="#323657"/>
        <path id="Path_175" data-name="Path 175" d="M1262.628,107.5s-12.217-2.757-9.428,12.62,5.729,16.584,13.1,13.4,6.712-13.033,7.084-17.863S1266.526,107.669,1262.628,107.5Z" transform="translate(-1173.839 -103.693)" fill="#eea886"/>
        <path id="Path_176" data-name="Path 176" d="M1273.76,175.383s5.41,5.738,13.962.523c0,0-1.913-12.431-.9-18.487s-11.158,9.384-11.158,9.384c.161.085.265.662.29,1.484a16.222,16.222,0,0,1-.129,2.464C1275.569,172.762,1274.945,174.889,1273.76,175.383Z" transform="translate(-1188.203 -137.048)" fill="#eea886"/>
        <path id="Path_177" data-name="Path 177" d="M1304.566,138.928c.161-1.355,2.842-1.853,3.06.18s-1.219,5.6-2.237,5.253S1304.346,140.8,1304.566,138.928Z" transform="translate(-1209.226 -124.538)" fill="#eea886"/>
        <path id="Path_178" data-name="Path 178" d="M1271.236,115.688s-.315-4.843-2.086-4.994-2.042,1.8-2.042,1.8l-1.787.337s.564-4.248-1.2-4.988-11.448,2.338-12.866,1.09-.75-9.86,1.815-11.038,9.648-3.819,14.838-.306c0,0,4.046-.46,4.645,2.8S1272.336,113.262,1271.236,115.688Z" transform="translate(-1172.288 -95.83)" fill="#3a3f47"/>
        <path id="Path_179" data-name="Path 179" d="M1280.3,185.154c8.823-2.719,9.488-8.032,9.5-8.114-2.905,4.991-9.368,5.653-9.368,5.653A16.642,16.642,0,0,1,1280.3,185.154Z" transform="translate(-1192.683 -151.451)" fill="#a77860"/>
        <path id="Path_180" data-name="Path 180" d="M1281.66,205.015s-6.459,12.862-16.9,12.031-1.78-13.757-1.3-13.877C1263.98,203.036,1274.161,200.5,1281.66,205.015Z" transform="translate(-1178.53 -168.778)" fill="#eea886"/>
        <path id="Path_181" data-name="Path 181" d="M1181.17,396.623s31.98,3.942,51.355.652L1195.5,392.65S1195.287,393.6,1181.17,396.623Z" transform="translate(-1124.789 -299.122)" fill="#1d3b54"/>
        <path id="Path_182" data-name="Path 182" d="M1251.9,388.03l-2.382,1.207s.542,3.784,1.846,4.931l2.672-.681S1253.484,389.335,1251.9,388.03Z" transform="translate(-1171.602 -295.957)" fill="#eea886"/>
        <path id="Path_183" data-name="Path 183" d="M1294.086,275.455c-.476.551-6.762,3.082-13.865,5.817h0c-9.7,3.737-20.649,7.273-20.649,7.273l-2.493-5.341s11.463-6.23,19.206-10.6c3.658-2.064,6.488-3.712,6.888-4.093,1.245-1.185,1.569-3.088.652-6.406s-3.025-18.563-3.261-20.34.592-6.523,5.042-6.762,6.712,1.018,6.712,1.018,1.115.463,1.947,11.259S1295.214,274.147,1294.086,275.455Z" transform="translate(-1176.779 -191.131)" fill="#1d3b54"/>
        <path id="Path_184" data-name="Path 184" d="M1333.231,279.739h0c-.044,1.5-.1,3.775-.164,6.245-4.342-10.641-1.834-19.133-1.79-19.275C1330.808,269.6,1333.2,279.6,1333.231,279.739Z" transform="translate(-1227.076 -212.865)" fill="#1d3b54"/>
        <path id="Path_185" data-name="Path 185" d="M1228.31,294.549h0a40.2,40.2,0,0,1-1.352,5.464c-1.484-7.175-.148-16.363-.148-16.363A92.307,92.307,0,0,0,1228.31,294.549Z" transform="translate(-1155.669 -224.468)" fill="#1d3b54"/>
        <path id="Path_186" data-name="Path 186" d="M1280.221,363.062h0c-9.7,3.737-21,7.389-21,7.389L1257.08,365s11.463-6.23,19.206-10.6C1276.289,354.4,1279.106,355.774,1280.221,363.062Z" transform="translate(-1176.779 -272.924)" fill="#eea886"/>
        <path id="Path_187" data-name="Path 187" d="M1156.093,404.891l-45.453-.671,22.949,11.652Z" transform="translate(-1076.483 -307.046)" fill="#5e5853"/>
        <path id="Path_188" data-name="Path 188" d="M1179.607,417.331l22.5-8.716V406.35l-24.282,8.76Z" transform="translate(-1122.501 -308.505)" fill="#91887f"/>
        <g id="Group_281" data-name="Group 281" transform="translate(62.593 92.349)">
          <path id="Path_189" data-name="Path 189" d="M1216.725,389.918s-2.839-.441-4.8-.9c-1.519-.353-5.294.132-6.258,1.109s-4.021,7.764-4.6,8.18.3,1.374,1.314.892c0,0,.933,2.971,3.236,1.859s3.866-3.542,5.07-3.97,8.227-2.587,8.227-2.587S1218.533,389.194,1216.725,389.918Z" transform="translate(-1200.882 -388.905)" fill="#eea886"/>
        </g>
        <g id="Group_282" data-name="Group 282" transform="translate(62.797 93.125)">
          <path id="Path_190" data-name="Path 190" d="M1206.8,391.37a20.071,20.071,0,0,0-2.3,1.273c-.476.394-2.407,1.837-2.874,2.177s.706,1.308,4.156-.189S1206.8,391.37,1206.8,391.37Z" transform="translate(-1201.53 -391.37)" fill="#eea886"/>
        </g>
        <path id="Path_191" data-name="Path 191" d="M1059.346,360.964l-13.521-36.914-43.585.712,12.885,34.018Z" transform="translate(-1002.24 -252.137)" fill="#6e6760"/>
        <path id="Path_192" data-name="Path 192" d="M1080.225,368.407c1.33,2.659.929,5.555-.9,6.469s-4.383-.5-5.713-3.16-.93-5.555.9-6.469S1078.9,365.747,1080.225,368.407Z" transform="translate(-1050.587 -280.163)" fill="#807066"/>
      </g>
      <g id="Group_290" data-name="Group 290" transform="translate(725.212 343.837)">
        <g id="Group_284" data-name="Group 284">
          <path id="Path_193" data-name="Path 193" d="M1673.324,888.884h-17.693a1.081,1.081,0,0,1-1.081-1.081v-3.822a1.081,1.081,0,0,1,1.081-1.081h17.693a1.081,1.081,0,0,1,1.081,1.081V887.8A1.083,1.083,0,0,1,1673.324,888.884Z" transform="translate(-1654.55 -882.9)" fill="#e0e0e0"/>
        </g>
        <g id="Group_285" data-name="Group 285" transform="translate(0 14.35)">
          <path id="Path_194" data-name="Path 194" d="M1673.324,934.424h-17.693a1.081,1.081,0,0,1-1.081-1.081v-3.822a1.081,1.081,0,0,1,1.081-1.081h17.693a1.081,1.081,0,0,1,1.081,1.081v3.822A1.083,1.083,0,0,1,1673.324,934.424Z" transform="translate(-1654.55 -928.44)" fill="#e0e0e0"/>
        </g>
        <g id="Group_286" data-name="Group 286" transform="translate(0 28.699)">
          <path id="Path_195" data-name="Path 195" d="M1673.324,979.964h-17.693a1.081,1.081,0,0,1-1.081-1.081v-3.822a1.081,1.081,0,0,1,1.081-1.081h17.693a1.081,1.081,0,0,1,1.081,1.081v3.822A1.083,1.083,0,0,1,1673.324,979.964Z" transform="translate(-1654.55 -973.98)" fill="#e0e0e0"/>
        </g>
        <g id="Group_287" data-name="Group 287" transform="translate(0 43.052)">
          <path id="Path_196" data-name="Path 196" d="M1673.324,1025.511h-17.693a1.081,1.081,0,0,1-1.081-1.081v-3.819a1.081,1.081,0,0,1,1.081-1.081h17.693a1.081,1.081,0,0,1,1.081,1.081v3.819A1.083,1.083,0,0,1,1673.324,1025.511Z" transform="translate(-1654.55 -1019.53)" fill="#e0e0e0"/>
        </g>
        <g id="Group_288" data-name="Group 288" transform="translate(0 57.399)">
          <path id="Path_197" data-name="Path 197" d="M1673.324,1071.044h-17.693a1.081,1.081,0,0,1-1.081-1.081v-3.822a1.081,1.081,0,0,1,1.081-1.081h17.693a1.081,1.081,0,0,1,1.081,1.081v3.822A1.083,1.083,0,0,1,1673.324,1071.044Z" transform="translate(-1654.55 -1065.06)" fill="#e0e0e0"/>
        </g>
        <g id="Group_289" data-name="Group 289" transform="translate(0 71.745)">
          <path id="Path_198" data-name="Path 198" d="M1673.324,1116.574h-17.693a1.081,1.081,0,0,1-1.081-1.081v-3.822a1.081,1.081,0,0,1,1.081-1.081h17.693a1.08,1.08,0,0,1,1.081,1.081v3.822A1.081,1.081,0,0,1,1673.324,1116.574Z" transform="translate(-1654.55 -1110.59)" fill="#e0e0e0"/>
        </g>
      </g>
      <g id="Group_297" data-name="Group 297" transform="translate(753.265 343.837)">
        <g id="Group_291" data-name="Group 291">
          <path id="Path_199" data-name="Path 199" d="M1748.149,888.884h-3.488a1.081,1.081,0,0,1-1.081-1.081v-3.822a1.081,1.081,0,0,1,1.081-1.081h3.488a1.081,1.081,0,0,1,1.081,1.081V887.8A1.083,1.083,0,0,1,1748.149,888.884Z" transform="translate(-1743.58 -882.9)" fill="#e0e0e0"/>
        </g>
        <g id="Group_292" data-name="Group 292" transform="translate(0 14.35)">
          <path id="Path_200" data-name="Path 200" d="M1748.149,934.424h-3.488a1.081,1.081,0,0,1-1.081-1.081v-3.822a1.081,1.081,0,0,1,1.081-1.081h3.488a1.081,1.081,0,0,1,1.081,1.081v3.822A1.082,1.082,0,0,1,1748.149,934.424Z" transform="translate(-1743.58 -928.44)" fill="#e0e0e0"/>
        </g>
        <g id="Group_293" data-name="Group 293" transform="translate(0 28.699)">
          <path id="Path_201" data-name="Path 201" d="M1748.149,979.964h-3.488a1.081,1.081,0,0,1-1.081-1.081v-3.822a1.081,1.081,0,0,1,1.081-1.081h3.488a1.081,1.081,0,0,1,1.081,1.081v3.822A1.083,1.083,0,0,1,1748.149,979.964Z" transform="translate(-1743.58 -973.98)" fill="#e0e0e0"/>
        </g>
        <g id="Group_294" data-name="Group 294" transform="translate(0 43.052)">
          <path id="Path_202" data-name="Path 202" d="M1748.149,1025.511h-3.488a1.081,1.081,0,0,1-1.081-1.081v-3.819a1.081,1.081,0,0,1,1.081-1.081h3.488a1.081,1.081,0,0,1,1.081,1.081v3.819A1.083,1.083,0,0,1,1748.149,1025.511Z" transform="translate(-1743.58 -1019.53)" fill="#e0e0e0"/>
        </g>
        <g id="Group_295" data-name="Group 295" transform="translate(0 57.399)">
          <path id="Path_203" data-name="Path 203" d="M1748.149,1071.044h-3.488a1.081,1.081,0,0,1-1.081-1.081v-3.822a1.081,1.081,0,0,1,1.081-1.081h3.488a1.08,1.08,0,0,1,1.081,1.081v3.822A1.083,1.083,0,0,1,1748.149,1071.044Z" transform="translate(-1743.58 -1065.06)" fill="#e0e0e0"/>
        </g>
        <g id="Group_296" data-name="Group 296" transform="translate(0 71.745)">
          <path id="Path_204" data-name="Path 204" d="M1748.149,1116.574h-3.488a1.081,1.081,0,0,1-1.081-1.081v-3.822a1.081,1.081,0,0,1,1.081-1.081h3.488a1.08,1.08,0,0,1,1.081,1.081v3.822A1.08,1.08,0,0,1,1748.149,1116.574Z" transform="translate(-1743.58 -1110.59)" fill="#e0e0e0"/>
        </g>
      </g>
      <g id="Group_298" data-name="Group 298" transform="translate(530.95 353.12)">
        <path id="Path_205" data-name="Path 205" d="M1741.632,1094.38s-8.486-19.224,1.358-17.633a35.812,35.812,0,0,1,6.791,8.413c2.606,4.276,8.022,15.591,7.821,19.417s-2.924,6.68-5.861,12.828c0,0-6.11,11.407-6.368,12.781l-6.46-3.353s5.473-10.906,9.33-20.494Z" transform="translate(-1517.602 -1024.884)" fill="#323657"/>
        <path id="Path_206" data-name="Path 206" d="M1596.526,1206.812l-113.1-19.372,2.946-17.3,113.1,19.372Z" transform="translate(-1343.088 -1088.913)" fill="url(#linear-gradient-2)"/>
        <rect id="Rectangle_48" data-name="Rectangle 48" width="5.514" height="13.319" transform="translate(137.495 82.372) rotate(9.66)" fill="#2d3038"/>
        <path id="Path_207" data-name="Path 207" d="M1542.227,1608.942h-1.6s.532-6.047-.948-6.107-5.158,4.922-7.351,5.691-13.458,1.421-13.518-.652,4.326-2.905,5.691-3.5,8-7.055,9.188-7.827,3.211-6.129,3.211-6.129l6.29-.28s.356,5.01.737,7.66a22.794,22.794,0,0,1,.258,2.483C1544.241,1602.54,1542.227,1608.942,1542.227,1608.942Z" transform="translate(-1367.319 -1376.57)" fill="#eea886"/>
        <path id="Path_208" data-name="Path 208" d="M1678.651,1606.118h-1.333v-5.628c-1.112.095-4.846,3.63-6,4.651s-2.741.977-7.61,1.286-5.328-2.606-4.556-3.6,3.261-1.427,4.556-2.045,6.409-6.387,7.774-7.751,2.193-5.272,2.193-5.272l5.691.495a34.758,34.758,0,0,0,.611,6.573h0c0,.006,0,.016.006.022.054.255.117.507.183.75C1681.008,1598.719,1678.651,1606.118,1678.651,1606.118Z" transform="translate(-1463.233 -1374.94)" fill="#eea886"/>
        <path id="Path_209" data-name="Path 209" d="M1597.362,1232.228a56.665,56.665,0,0,0-2.341,6.372c-.189,1.285-5.224,13.458-6.68,21.663-.873,4.913-3.28,20.293-3.476,22.246-.334,3.346-1.91,10.732-2.152,14.151-.135,1.909-9.548,31.239-11.823,46.55,0,0,5.414.8,9.478-.274a160.408,160.408,0,0,0,12.85-38.272c2.763-13.521,5.205-20.728,7.345-26.3s14.265-21.339,15.528-23.11,9.195-11.561,1.686-22.171S1597.362,1232.228,1597.362,1232.228Z" transform="translate(-1402.989 -1128.638)" fill="#292c47"/>
        <path id="Path_210" data-name="Path 210" d="M1691.632,1271.888c-.687,4.566.035,10.565,1.468,27.263s-2.511,36.911-2.511,36.911c-4.957,1.7-10.663,0-10.663,0,.132-1.175,0-40.7,0-44.218s-1.011-7.518-1.273-11.561c-.18-2.754-1.459-7.833-2.9-13.02-.432-1.553-.879-3.113-1.314-4.626v0c-.246-.848-.482-1.679-.715-2.486-2.032-7.043-4.761-34.242-4.761-34.242s15.138-12.195,22.508-.715,3.586,19.826,3.328,21.26S1692.318,1267.325,1691.632,1271.888Z" transform="translate(-1470.157 -1123.245)" fill="#292c47"/>
        <path id="Path_211" data-name="Path 211" d="M1697.265,1306.25c-.117.261-7.66,17-9.6,19.905-.432-1.553-.879-3.113-1.314-4.626v0S1697.013,1306.615,1697.265,1306.25Z" transform="translate(-1482.068 -1182.134)" fill="#191b2b"/>
        <path id="Path_212" data-name="Path 212" d="M1678.651,1619.144h-1.333v-5.628c-1.112.094-4.846,3.63-6,4.651s-2.741.977-7.61,1.286-5.328-2.606-4.556-3.6,3.261-1.427,4.556-2.045c5.209.277,11.568-7.046,14.618-7.03,1.623.006,1.607.907,1.654,1.074h0c0,.006,0,.016.006.022.053.255.117.507.183.75C1681.008,1611.746,1678.651,1619.144,1678.651,1619.144Z" transform="translate(-1463.233 -1387.966)" fill="#c6c9cc"/>
        <path id="Path_213" data-name="Path 213" d="M1542.227,1625.194h-1.6s.532-6.047-.948-6.107-5.158,4.922-7.351,5.691-13.458,1.421-13.518-.652,4.326-2.905,5.691-3.5c4.645-.01,12.2-5.124,14.545-6.16a8.45,8.45,0,0,1,4.878-.413,22.8,22.8,0,0,1,.258,2.483C1544.241,1618.791,1542.227,1625.194,1542.227,1625.194Z" transform="translate(-1367.319 -1392.822)" fill="#c6c9cc"/>
        <path id="Path_214" data-name="Path 214" d="M1697.32,1028.856s2.417,6.39.536,11.331c0,0,8.858-.577,9.192-1.61s-.356-10.609.863-13.439S1697.32,1028.856,1697.32,1028.856Z" transform="translate(-1489.581 -989.115)" fill="#eea886"/>
        <path id="Path_215" data-name="Path 215" d="M1663.01,1065.932s-5.234,1.862-7.6,2.379-7.313,2.861-6.91,11.684a183.871,183.871,0,0,0,2.417,20.267c.536,3.791.2,13.442-.671,18.131a66.365,66.365,0,0,0,27.31,0s-2.615-8-2.549-10.064,8.722-19.1,9.125-21.783,2.146-14.545-1.812-17.164-7.181-2.275-8.857-3.447S1665.458,1065.09,1663.01,1065.932Z" transform="translate(-1456.128 -1017.021)" fill="#323657"/>
        <path id="Path_216" data-name="Path 216" d="M1675.016,1150.074c-21.436,5.688-38.5.022-38.5.022a53.031,53.031,0,0,0,3.529-9.475v0a56.729,56.729,0,0,0,1.32-6.359h0a57.59,57.59,0,0,0-.529-20.62c2.474-20.365,33.287-26.443,35.755-19.987s-4.783,34.2-5.149,36.577S1675.016,1150.074,1675.016,1150.074Z" transform="translate(-1447.939 -1034.838)" fill="#323657"/>
        <path id="Path_217" data-name="Path 217" d="M1686.454,955.609c-3.561-1.223-13.184-2.521-15.651,12.251s2.905,15.027,8.423,14.6,14.145-10.392,14.807-13.423S1696.616,959.094,1686.454,955.609Z" transform="translate(-1470.998 -941.508)" fill="#eea886"/>
        <path id="Path_218" data-name="Path 218" d="M1678.44,958.728s2.94,6.289,6.8,8.483c0,0,2.417,6.683,7.647,9.387,0,0,13.883-9.2,5.826-20.126S1679.351,954.244,1678.44,958.728Z" transform="translate(-1476.65 -938.952)" fill="#0f324f"/>
        <path id="Path_219" data-name="Path 219" d="M1697.2,992.784c.312-.769,2.392-2.02,3.328.091s-2.417,5.823-3.337,5.621S1696.016,995.7,1697.2,992.784Z" transform="translate(-1488.954 -966.706)" fill="#eea886"/>
        <path id="Path_220" data-name="Path 220" d="M1729.443,970.2c.3-.473,9.5-4.73,11.41,4.163s-7.4,19.234-9.037,23.68.737,14.867.737,14.867-5.606-5.3-7.3-10.846C1723.389,995.976,1722.762,980.618,1729.443,970.2Z" transform="translate(-1507.852 -950.995)" fill="#0f324f"/>
        <path id="Path_221" data-name="Path 221" d="M1735.579,972.284a9.277,9.277,0,0,0-3.176,5.738s-.53-2.741.608-4.414A2.535,2.535,0,0,1,1735.579,972.284Z" transform="translate(-1513.525 -953.381)" fill="#e54242"/>
        <path id="Path_222" data-name="Path 222" d="M1647.72,1183.091c.586-2.18,1.349-6.957,1.654-9.006h0a5.218,5.218,0,0,0,1.557-1.8c.46-1.443,4.027-19.089,4.027-19.089S1658.711,1169.781,1647.72,1183.091Z" transform="translate(-1455.61 -1077.311)" fill="#1d3b54"/>
        <path id="Path_223" data-name="Path 223" d="M1566.094,1234.45s-3.832,1.777-4.726,2.054-2.619-1.245-8.965-1.717c-.558-.041-1.538.46-1.308,1.2s2.994,2.738,4.175,3.044,6.762,2.521,9.478,1.434,4.569-4.547,4.569-4.547Z" transform="translate(-1389.408 -1132.959)" fill="#eea886"/>
        <path id="Path_224" data-name="Path 224" d="M1610.115,1076.66s-7.342,2.908-7.777,13.111-.832,15.528-1.232,17.1-1.16,7.9-3.006,11.712c-1.793,3.7-13.6,9.535-13.6,9.535l3.589,4.569s18.544-9.816,19.539-12.825,5.1-23.945,5.423-27.474C1613.316,1089.548,1617.069,1076.871,1610.115,1076.66Z" transform="translate(-1412.311 -1024.888)" fill="#323657"/>
        <path id="Path_225" data-name="Path 225" d="M1191.264,1015.16c-.009.274-.028.545-.047.819h10.506c.019-.274.028-.545.038-.819Zm-117.174-2.9c0,.321,0,.63.009.952.019,1.327.076,2.647.189,3.958a62.4,62.4,0,0,0,1.78,10.909,63.562,63.562,0,0,0,16.779,29.377c.312.321.621.621.933.923,1.254,1.207,2.562,2.366,3.92,3.457a63.547,63.547,0,0,0,40.261,14.293c.255,0,.51,0,.762-.01a63.929,63.929,0,0,0,59.784-43.484c.5-1.5.952-3.016,1.349-4.56a64.067,64.067,0,0,0,1.553-8.451v-.01c.066-.611.132-1.226.179-1.846.057-.592.1-1.188.133-1.79.019-.274.028-.545.038-.819.028-.6.047-1.2.057-1.8.01-.369.01-.734.01-1.1a63.87,63.87,0,0,0-54.157-63.128q-.888-.142-1.79-.255c-.658-.076-1.32-.151-1.979-.208-.593-.057-1.2-.1-1.79-.142-1.377-.095-2.76-.132-4.147-.132-1.178,0-2.347.028-3.5.094-1.989.1-3.948.312-5.889.592a64.038,64.038,0,0,0-49.3,37.941c-.094.208-.18.425-.265.63s-.17.406-.246.6c-.489,1.178-.933,2.376-1.339,3.58a62.425,62.425,0,0,0-2.429,9.7c-.161.876-.284,1.761-.407,2.656-.009.151-.028.3-.047.463-.01.009-.01.019-.01.038a1.869,1.869,0,0,0-.019.227,2.242,2.242,0,0,0-.038.265v.066a.555.555,0,0,0-.019.132,1.417,1.417,0,0,0-.019.2c-.019.161-.038.321-.047.482-.094.98-.17,1.969-.217,2.959-.01.132-.019.274-.019.407-.009.217-.019.435-.028.649C1074.1,1010.8,1074.09,1011.524,1074.09,1012.258Zm14.315,19.87-.246-.621c-.18-.463-.35-.923-.517-1.4l-.388-1.131c-.094-.284-.189-.564-.274-.848-.009-.019-.009-.038-.019-.057a1.006,1.006,0,0,1-.047-.161c-.151-.473-.284-.952-.416-1.431l-.151-.555c-.142-.507-.265-1.027-.387-1.544-.01-.047-.028-.1-.038-.161-.1-.479-.208-.961-.3-1.443-.047-.2-.085-.4-.123-.592-.113-.6-.217-1.216-.312-1.828-.17-1.075-.293-2.158-.4-3.252-.038-.369-.066-.744-.095-1.122,0,0,.01,0,0-.009,0-.123-.009-.236-.019-.359-.028-.51-.057-1.018-.076-1.525v-.151c-.01-.113-.01-.236-.01-.359-.01-.444-.019-.885-.019-1.33,0-.416,0-.829.019-1.235a46.506,46.506,0,0,1,.34-4.9,4.709,4.709,0,0,1,.057-.51.034.034,0,0,1,.01-.028c-.01-.009,0-.009,0-.009a.018.018,0,0,1,0-.028.356.356,0,0,1,.009-.1v-.019c0-.019,0-.028.009-.038a52.976,52.976,0,0,1,7.925-21.83,53.6,53.6,0,0,1,19.372-18.118,51.941,51.941,0,0,1,6.482-3.016c.706-.274,1.431-.536,2.158-.772a52.039,52.039,0,0,1,12.73-2.59c1.415-.123,2.836-.18,4.279-.18.435,0,.857,0,1.292.019.5.009.989.028,1.487.047.359.019.715.047,1.075.076a2.845,2.845,0,0,1,.293.019c.592.038,1.2.095,1.79.161l.454.057c.236.028.482.057.715.094.274.028.539.066.81.113.6.085,1.2.189,1.79.293.057.009.114.019.161.028.46.085.923.18,1.384.284.028.009.057.009.085.019.189.038.387.085.573.132.435.095.857.2,1.282.312a5.115,5.115,0,0,1,.554.142c.489.132.98.265,1.471.416.47.132.933.284,1.393.435.218.066.435.142.64.217.923.312,1.837.649,2.732,1.018.246.095.491.2.734.3.378.161.743.321,1.122.488.3.132.6.265.9.416.444.2.876.416,1.311.63.489.246.97.5,1.443.763.545.293,1.074.592,1.6.9,1.093.64,2.149,1.32,3.186,2.036.444.3.876.611,1.311.942q.818.581,1.592,1.207c.463.369.923.744,1.377,1.131.472.4.923.791,1.377,1.207a53.238,53.238,0,0,1,17.45,39.479c0,.369,0,.734-.009,1.1-.01.6-.029,1.2-.066,1.8-.009.274-.028.545-.047.819-.047.6-.095,1.2-.161,1.79-.17,1.7-.426,3.362-.753,5.013a51.63,51.63,0,0,1-1.349,5.294c-.425,1.377-.9,2.732-1.443,4.052a53.355,53.355,0,0,1-48.787,33.5c-.255.01-.51.01-.762.01a53.372,53.372,0,0,1-47.158-28.34c-.236-.454-.473-.9-.7-1.358l-.416-.866c-.17-.34-.321-.677-.479-1.027l-.151-.34c-.132-.3-.265-.6-.387-.914Z" transform="translate(-1062.732 -937.037)" fill="#3f444f"/>
        <circle id="Ellipse_5" data-name="Ellipse 5" cx="53.192" cy="53.192" r="53.192" transform="translate(0 75.225) rotate(-45)" fill="#b8b8b8" opacity="0.1"/>
        <path id="Path_226" data-name="Path 226" d="M1196.686,995.576s-69.275-8.586-83.08,64.527h0a53.388,53.388,0,0,1,83.08-64.527Z" transform="translate(-1085.532 -959.837)" fill="#869ac2" opacity="0.3"/>
      </g>
      <g id="Group_321" data-name="Group 321" transform="translate(351.477 425.455)">
        <g id="Group_299" data-name="Group 299" transform="translate(59.496 29.182)">
          <path id="Path_227" data-name="Path 227" d="M657.29,1268.151l23.147,12.724,23.242-36.58-28.113-9.765Z" transform="translate(-657.29 -1234.53)" fill="#292c47"/>
        </g>
        <g id="Group_300" data-name="Group 300" transform="translate(60.962 30.263)">
          <path id="Path_228" data-name="Path 228" d="M661.94,1269.4l21.647,11.9,21.739-34.211-26.292-9.132Z" transform="translate(-661.94 -1237.96)" fill="#e2d2ca"/>
        </g>
        <g id="Group_301" data-name="Group 301" transform="translate(53.037 47.703)">
          <path id="Path_229" data-name="Path 229" d="M636.79,1300.912s4.03-1.925,5.8-2.934,6.318-2.388,6.683-2.719,13.483-1.138,14.281-1.824,1.569,1.61-1.831,2.354-8.13,2.565-8.388,3.895,3.491,1.642,3.873,2.738-.107.848-.643,1.084-4.462-1.938-6.185-1.323-4.364-.236-5.684.214-7.751,2.615-7.751,2.615Z" transform="translate(-636.79 -1293.308)" fill="#eea886"/>
        </g>
        <g id="Group_302" data-name="Group 302" transform="translate(79.965 47.747)">
          <path id="Path_230" data-name="Path 230" d="M726.056,1316.64s3.384-3.047,5.023-4.32,4.711-5.023,5.165-5.24,6.324-12.264,7.279-12.746-.9-2.1-2.93.81-5.584,6.664-6.935,6.39-.189-3.929-1.071-4.714-.841-.23-1.273.186.088,4.96-1.163,6.343-1.475,4.2-2.417,5.275-5.483,6.286-5.483,6.286Z" transform="translate(-722.25 -1293.448)" fill="#eea886"/>
        </g>
        <g id="Group_303" data-name="Group 303" transform="translate(1.259 233.1)">
          <path id="Path_231" data-name="Path 231" d="M482.09,1882.335s-.731,5.083-.822,5.845-8.145-.451-8.145-.451l-.652-6.05S481.085,1881.62,482.09,1882.335Z" transform="translate(-472.47 -1881.679)" fill="#424773"/>
        </g>
        <g id="Group_304" data-name="Group 304" transform="translate(0.002 238.611)">
          <path id="Path_232" data-name="Path 232" d="M478.621,1899.513a21.721,21.721,0,0,0,5.02,4.4c2.467,1.336,6.346,1.862,7.805,3.245,1.052,1,3.838,5.291-6.412,5.206s-15.191.608-16.288-1.04,1.588-12.15,1.588-12.15S472.76,1900.043,478.621,1899.513Z" transform="translate(-468.481 -1899.17)" fill="#292c47"/>
        </g>
        <g id="Group_305" data-name="Group 305" transform="translate(58.961 233.1)">
          <path id="Path_233" data-name="Path 233" d="M665.21,1882.335s-.731,5.083-.822,5.845-8.145-.451-8.145-.451l-.652-6.05S664.2,1881.62,665.21,1882.335Z" transform="translate(-655.59 -1881.679)" fill="#424773"/>
        </g>
        <g id="Group_306" data-name="Group 306" transform="translate(57.704 238.608)">
          <path id="Path_234" data-name="Path 234" d="M661.741,1899.507a21.718,21.718,0,0,0,5.02,4.4c2.467,1.336,11.549,2.429,13.007,3.813,1.052,1,2.8,5.013-11.615,4.635-10.247-.268-15.191.608-16.288-1.04s1.588-12.15,1.588-12.15S655.738,1900.1,661.741,1899.507Z" transform="translate(-651.601 -1899.16)" fill="#292c47"/>
        </g>
        <g id="Group_307" data-name="Group 307" transform="translate(0 103.177)">
          <path id="Path_235" data-name="Path 235" d="M486.021,1469.36s-7.566,12.021-7,22.889-2.745,22.731-3.879,34.085c-1.267,12.655-6.453,42.618-6.642,49.386s.8,28.388.8,28.388l10.379.236s8.719-52.379,10.978-57.723,13.455-43.446,13.833-47.722S486.021,1469.36,486.021,1469.36Z" transform="translate(-468.474 -1469.36)" fill="#292c47"/>
        </g>
        <g id="Group_308" data-name="Group 308" transform="translate(13.743 101.107)">
          <path id="Path_236" data-name="Path 236" d="M555.729,1466.489s5.7,29.786,6.456,36.435,1.254,32.188,1.632,36.344,2.508,54.4,4.515,60.575H555.06s-10.187-36.523-10.187-53.8-7.871-37.566-12.951-48.97-16.71-11.672-19.833-32.824C512.087,1464.245,551.5,1459.78,555.729,1466.489Z" transform="translate(-512.09 -1462.79)" fill="#292c47"/>
        </g>
        <g id="Group_309" data-name="Group 309" transform="translate(23.817 1.172)">
          <path id="Path_237" data-name="Path 237" d="M550.417,1146.567s10.156-3.794,14.838,3.939,4.232,23.21-.889,25.114-12.809.907-15.43-3.929-4.988-11.832-4.875-16.505S547.748,1147.916,550.417,1146.567Z" transform="translate(-544.058 -1145.637)" fill="#eea886"/>
        </g>
        <g id="Group_310" data-name="Group 310" transform="translate(26.71 21.867)">
          <path id="Path_238" data-name="Path 238" d="M569.554,1220.956s-.422,2.741.277,4.093-13.159,1.386-13.159,1.386a91.22,91.22,0,0,0-3.258-13.556C551.284,1206.669,569.554,1220.956,569.554,1220.956Z" transform="translate(-553.242 -1211.316)" fill="#eea886"/>
        </g>
        <g id="Group_311" data-name="Group 311" transform="translate(22.97)">
          <path id="Path_239" data-name="Path 239" d="M545.284,1165.35s.955,1.579,4.859.964,8.665-5.807,10.3-6.378,1.645-1.528,1.645-1.528l1.021,1.49,1.73.11s-1.579-4.648.8-6.542-2.474-15.037-14.992-10.663c0,0-9.617,2.65-9.267,8.12S543.132,1162.624,545.284,1165.35Z" transform="translate(-541.37 -1141.918)" fill="#3a3f47"/>
        </g>
        <g id="Group_312" data-name="Group 312" transform="translate(28.56 31.638)">
          <path id="Path_240" data-name="Path 240" d="M574.673,1246.124s-.044-2.581-1.213-2.83-12.913-1.377-14.35-.813v3.006S561.877,1247.192,574.673,1246.124Z" transform="translate(-559.11 -1242.325)" fill="#e2d2ca"/>
        </g>
        <g id="Group_313" data-name="Group 313" transform="translate(39.778 12.508)">
          <path id="Path_241" data-name="Path 241" d="M598.36,1183.608c-.217-.917-2.552-3.539-3.444-.731s1.349,6.583,2.6,6.258S598.918,1185.933,598.36,1183.608Z" transform="translate(-594.711 -1181.614)" fill="#eea886"/>
        </g>
        <g id="Group_314" data-name="Group 314" transform="translate(90.71 65.93)">
          <path id="Path_242" data-name="Path 242" d="M756.369,1351.155a.02.02,0,0,0-.019,0C756.429,1351.187,756.441,1351.19,756.369,1351.155Z" transform="translate(-756.35 -1351.153)" fill="#323657"/>
        </g>
        <g id="Group_315" data-name="Group 315" transform="translate(6.647 34.807)">
          <path id="Path_243" data-name="Path 243" d="M491.933,1349.39a107.524,107.524,0,0,0,16.849,3.006c10.622,1.169,37.16-.422,37.327-1.676s-5.71-46.726-5.376-49.068.514-10.685.514-10.685a58.866,58.866,0,0,0,5.272,16.716c1.015,1.84,4.424,7.6,6.066,6.293,7.95-6.349,20.261-30.269,21.043-30.47-.655-.287-5.836-2.669-6.56-2.911-.636-.211-6.371,5.861-9.847,9.623-1.55,1.679-2.65,2.9-2.65,2.9-1-2.259-4.66-16.483-5.795-21.4-2.562-11.1-2.168-11.564-2.168-11.564-7.77-2.351-19.565-7.134-19.565-7.134l-15.563-.633s-14.284,3.145-19.908,5.684c-.532.24-.536,12.743-2,16.02l4.664,9.838s2.694,19.489,3.252,28.157C497.747,1316.056,491.933,1349.39,491.933,1349.39Z" transform="translate(-489.57 -1252.38)" fill="#323657"/>
        </g>
        <g id="Group_316" data-name="Group 316" transform="translate(4.777 40.485)">
          <path id="Path_244" data-name="Path 244" d="M484.862,1302.654c.406,1.311,2.253,2.42,3.45,2.905a4.475,4.475,0,0,0,2.492.249l.608-.114h0l10.666-1.979s2.335-26.875-14.57-33.316C487.061,1270.548,481.128,1290.62,484.862,1302.654Z" transform="translate(-483.634 -1270.4)" fill="#323657"/>
        </g>
        <g id="Group_317" data-name="Group 317" transform="translate(9.455 62.047)">
          <path id="Path_245" data-name="Path 245" d="M498.48,1352.424h0a4.448,4.448,0,0,0,2.492.252l.608-.113h0l-1.052-13.732Z" transform="translate(-498.48 -1338.83)" fill="#252840"/>
        </g>
        <g id="Group_318" data-name="Group 318" transform="translate(71.65 72.644)">
          <path id="Path_246" data-name="Path 246" d="M695.86,1375.356l1.3,5.521s1.415-5.54,1.346-8.416C696.96,1374.136,695.86,1375.356,695.86,1375.356Z" transform="translate(-695.86 -1372.46)" fill="#252840"/>
        </g>
        <g id="Group_319" data-name="Group 319" transform="translate(21.299 2.993)">
          <path id="Path_247" data-name="Path 247" d="M542.052,1151.441s-13.313-1.535-.227,20.7Z" transform="translate(-536.067 -1151.418)" fill="#3a3f47"/>
        </g>
        <g id="Group_320" data-name="Group 320" transform="translate(84.531 30.984)">
          <path id="Path_248" data-name="Path 248" d="M747.4,1246.25l1.352-2.322-10.657-3.677-1.352,2.313Z" transform="translate(-736.74 -1240.25)" fill="#292c47"/>
        </g>
      </g>
      <g id="Group_371" data-name="Group 371" transform="translate(476.035 423.988)">
        <g id="Group_330" data-name="Group 330" transform="translate(105.528 48.052)">
          <g id="Group_325" data-name="Group 325" transform="translate(0 1.677)">
            <g id="Group_324" data-name="Group 324">
              <g id="Group_323" data-name="Group 323">
                <g id="Group_322" data-name="Group 322">
                  <path id="Path_249" data-name="Path 249" d="M1198.67,1304.853s2.111-1.957,1.692-3.422a6.271,6.271,0,0,1,.315-3.22c.18-.769.252-3.258.826-3.123.971.233.744,4.21.863,5.057s2.685-1.988,3.561-2.14,5.332,4.364,3.346,6.107-4.723,2.451-5.013,2.826a15.8,15.8,0,0,1-1.648,1.409Z" transform="translate(-1198.67 -1295.083)" fill="#eea987"/>
                </g>
              </g>
            </g>
          </g>
          <g id="Group_329" data-name="Group 329" transform="translate(6.696)">
            <g id="Group_328" data-name="Group 328">
              <g id="Group_327" data-name="Group 327">
                <g id="Group_326" data-name="Group 326">
                  <path id="Path_250" data-name="Path 250" d="M1219.92,1294.66s6.434-4.931,7.137-4.9.952.394.369.879-6.078,4.944-6.078,4.944,8.6-4.556,9.176-4.657c.34-.06.6.592.312.879s-8.287,5.319-8.287,5.319,8.032-4.241,8.546-4.178a.626.626,0,0,1,.2,1.15c-.573.356-7.808,4.711-7.808,4.711s6.041-2.719,6.444-2.41c.246.186.592.6-.986,1.251a56.281,56.281,0,0,0-5.02,2.735Z" transform="translate(-1219.92 -1289.759)" fill="#eea987"/>
                </g>
              </g>
            </g>
          </g>
        </g>
        <g id="Group_331" data-name="Group 331" transform="translate(60.815)">
          <path id="Path_251" data-name="Path 251" d="M1056.8,1137.288s15.39-1.279,14.967,14.907-2.987,18.622.01,30.064-15-6.494-15-6.494Z" transform="translate(-1056.77 -1137.264)" fill="#e8734d"/>
        </g>
        <g id="Group_333" data-name="Group 333" transform="translate(8.957 229.573)">
          <g id="Group_332" data-name="Group 332">
            <path id="Path_252" data-name="Path 252" d="M897.2,1878.561s-5.713,8.029-4.931,9.3,6.794,1.453,10.452,0,3.743-10.862,5.4-14.9c.693-1.692-.791-6.686-2.874-7.049a8.467,8.467,0,0,0-4.352.7S903.059,1872.3,897.2,1878.561Z" transform="translate(-892.197 -1865.831)" fill="#363a5e"/>
          </g>
        </g>
        <g id="Group_336" data-name="Group 336" transform="translate(12.075 229.458)">
          <g id="Group_335" data-name="Group 335">
            <g id="Group_334" data-name="Group 334">
              <path id="Path_253" data-name="Path 253" d="M907.637,1866.294a39.414,39.414,0,0,0-1.642,6.683c-.365,2.707-4.071,8.454-3.9,9.182s4.878,1.386,6.794-.488,3.148-7.326,3.57-10.584a27.309,27.309,0,0,1,.889-4.537S909.464,1864.3,907.637,1866.294Z" transform="translate(-902.091 -1865.468)" fill="#eea886"/>
            </g>
          </g>
        </g>
        <g id="Group_338" data-name="Group 338" transform="translate(58.901 229.577)">
          <g id="Group_337" data-name="Group 337">
            <path id="Path_254" data-name="Path 254" d="M1055.5,1878.7s-5.508,7.893-4.723,9.166,6.794,1.453,10.452,0,3.743-10.862,5.4-14.9c.693-1.692-.791-6.686-2.874-7.049a9.028,9.028,0,0,0-4.528.778S1061.352,1872.444,1055.5,1878.7Z" transform="translate(-1050.697 -1865.844)" fill="#363a5e"/>
          </g>
        </g>
        <g id="Group_341" data-name="Group 341" transform="translate(62.019 229.281)">
          <g id="Group_340" data-name="Group 340">
            <g id="Group_339" data-name="Group 339">
              <path id="Path_255" data-name="Path 255" d="M1065.995,1866.05a55.892,55.892,0,0,1-1.131,6.362c-.7,2.634-4.44,8.634-4.266,9.362s4.878,1.386,6.794-.488,3.4-7.3,3.57-10.584a18.25,18.25,0,0,0-.435-5.426S1067.826,1864.052,1065.995,1866.05Z" transform="translate(-1060.591 -1864.905)" fill="#eea886"/>
            </g>
          </g>
        </g>
        <g id="Group_344" data-name="Group 344" transform="translate(16.603 82.387)">
          <g id="Group_343" data-name="Group 343">
            <g id="Group_342" data-name="Group 342">
              <path id="Path_256" data-name="Path 256" d="M939.755,1416.08s-4.9,23.8-6.028,29.8-4.279,35.017-4.616,39.955-5.117,23.532-4.89,25.293-7.761,36.7-7.761,36.7,5.659.611,7.915-.334c1.541-.646,13.931-32.156,13.931-40.97,0-12.182,6.8-28.088,7.789-30.861,9.708-27.294,11.489-33.77,12.84-35.414,0,0,.2,2.228.665,5.924.529,4.254,2.849,34.63,3.86,38.625s.227,17.51.791,24.326,1.607,37.9,1.607,37.9,5.083.221,7.323-1.115c.75-.448,3.343-33.407,3.457-41.515s.233-19.291.451-22.8c2.086-33.6,7.213-38.4-.863-62.179C961.1,1374.9,939.755,1416.08,939.755,1416.08Z" transform="translate(-916.46 -1398.726)" fill="#313657"/>
            </g>
          </g>
        </g>
        <g id="Group_346" data-name="Group 346" transform="translate(23.992 235.991)">
          <g id="Group_345" data-name="Group 345">
            <path id="Path_257" data-name="Path 257" d="M940.953,1886.2v8.4H939.91v-6.494Z" transform="translate(-939.91 -1886.2)" fill="#363a5e"/>
          </g>
        </g>
        <g id="Group_348" data-name="Group 348" transform="translate(73.932 235.991)">
          <g id="Group_347" data-name="Group 347">
            <path id="Path_258" data-name="Path 258" d="M1099.446,1886.2v8.4H1098.4v-6.494Z" transform="translate(-1098.4 -1886.2)" fill="#363a5e"/>
          </g>
        </g>
        <g id="Group_349" data-name="Group 349" transform="translate(54.437 26.068)">
          <path id="Path_259" data-name="Path 259" d="M1036.53,1237.022a63.922,63.922,0,0,0,2.36-6.75c.047-.17.091-.34.135-.51.12-.466.23-.936.331-1.4.057-.265.107-.529.158-.794a11.157,11.157,0,0,0,0-5.19c-1.49-4.408,9.355-1.355,9.355-1.355s-2.1,11.659,0,15.591S1036.53,1237.022,1036.53,1237.022Z" transform="translate(-1036.53 -1219.992)" fill="#eea886"/>
        </g>
        <g id="Group_350" data-name="Group 350" transform="translate(31.315 40.013)">
          <path id="Path_260" data-name="Path 260" d="M1004.671,1267.143c1.21-1.513-7.288-2.039-7.288-2.039l-9.913-.854a88.452,88.452,0,0,0-12.1,2.965c-5.287,1.831-12.216,11.848-12.216,11.848s9.557,22.438,11.391,28.879-2.077,22.826-2.077,22.826c11.457,6.236,34.085.665,34.085.665S997.531,1276.082,1004.671,1267.143Z" transform="translate(-963.15 -1264.25)" fill="#eddad3"/>
        </g>
        <g id="Group_351" data-name="Group 351" transform="translate(74.444 58.784)">
          <path id="Path_261" data-name="Path 261" d="M1102.455,1334.99s-.444.939-1.667,4.645c-1.245-10.4-.6-15.815-.6-15.815A39.214,39.214,0,0,0,1102.455,1334.99Z" transform="translate(-1100.023 -1323.82)" fill="#cfbeb8"/>
        </g>
        <g id="Group_352" data-name="Group 352" transform="translate(54.434 39.487)">
          <path id="Path_262" data-name="Path 262" d="M1048.185,1263.614l-11.665,9.51,1.2-10.017S1044.524,1261.635,1048.185,1263.614Z" transform="translate(-1036.52 -1262.58)" fill="#eea886"/>
        </g>
        <g id="Group_353" data-name="Group 353" transform="translate(56.769 40.376)">
          <path id="Path_263" data-name="Path 263" d="M1060.959,1305.61c-1.6,6.652,6.51,27.477,6.51,27.477l-13.7,4.638a2.92,2.92,0,0,1-3.813-2.253c-1.544-8.662-5.549-31.888-6-42.186-.564-12.793,8.75-27.886,8.75-27.886,16.556,2.839,12.018,27.886,12.018,27.886s-.6,1.579-1.405,4.043v0c-.2.618-.416,1.3-.64,2.017C1062.116,1301.2,1061.508,1303.348,1060.959,1305.61Z" transform="translate(-1043.932 -1265.4)" fill="#494f80"/>
        </g>
        <g id="Group_354" data-name="Group 354" transform="translate(29.327 40.01)">
          <path id="Path_264" data-name="Path 264" d="M981.979,1264.788l.2-.548s-8.479,1.289-12.787,3.441-12.557,13.272-12.557,13.272l10.789,14.246c.013,10.947-3.806,36.631-3.806,36.631l7.5,3.066a1.791,1.791,0,0,0,2.47-1.629c.12-7.818.485-30.971.668-40.005.224-10.947,8.035-28.652,8.035-28.652C982.316,1264.665,982.146,1264.725,981.979,1264.788Z" transform="translate(-956.84 -1264.24)" fill="#494f80"/>
        </g>
        <g id="Group_355" data-name="Group 355" transform="translate(39.088 83.239)">
          <path id="Path_265" data-name="Path 265" d="M987.823,1410.077s8.136.315,9.4,0,9.708-3.977,10.212-7.594-19.615,3.242-19.615,3.242v4.351Z" transform="translate(-987.82 -1401.431)" fill="#eea886"/>
        </g>
        <g id="Group_356" data-name="Group 356" transform="translate(31.318 76.723)">
          <path id="Path_266" data-name="Path 266" d="M996.176,1384.613l-33.016-3.863,14.914,12.135Z" transform="translate(-963.16 -1380.75)" fill="#707070"/>
        </g>
        <g id="Group_357" data-name="Group 357" transform="translate(45.624 80.586)">
          <path id="Path_267" data-name="Path 267" d="M1009.168,1401.281l18.1-6.17v-2.1l-18.711,6Z" transform="translate(-1008.56 -1393.01)" fill="#a1a1a1"/>
        </g>
        <g id="Group_358" data-name="Group 358" transform="translate(46.941 38.164)">
          <path id="Path_268" data-name="Path 268" d="M1022.045,1258.38l-6.271,9.951-3.034,1.913,7.071-9.91Z" transform="translate(-1012.74 -1258.38)" fill="#fae6de"/>
        </g>
        <g id="Group_359" data-name="Group 359" transform="translate(49.975 38.164)">
          <path id="Path_269" data-name="Path 269" d="M1022.37,1268.331l4.459,1.913,1.2-10.014.608-1.85Z" transform="translate(-1022.37 -1258.38)" fill="#d6c5be"/>
        </g>
        <g id="Group_360" data-name="Group 360" transform="translate(15.997 81.131)">
          <path id="Path_270" data-name="Path 270" d="M938.629,1400.84s-.34,4.2,0,5.086c0,0-20.359-2.036-22.259-4.881a12.294,12.294,0,0,1-1.831-6.305Z" transform="translate(-914.539 -1394.74)" fill="#494f80"/>
        </g>
        <g id="Group_361" data-name="Group 361" transform="translate(0 49.199)">
          <path id="Path_271" data-name="Path 271" d="M910,1333.059l-9.626-35.792L863.77,1293.4l10.033,32.947Z" transform="translate(-863.77 -1293.4)" fill="#a1a1a1"/>
        </g>
        <g id="Group_362" data-name="Group 362" transform="translate(69.244 48.045)">
          <path id="Path_272" data-name="Path 272" d="M1107.956,1310.089c1.837-1.516,2.915-2.07,5.127-3.977,3.444-2.965,7.846-6.718,7.846-6.718l4.185,6.141s-10.118,8.9-15.494,14.173h0s-6.806,7.307-8.328,6.661-6.945-8.511-11.277-16.073-6.274-12.39-6.491-15.68,10.682-4.878,10.682-4.878l8.533,18.638a27.72,27.72,0,0,0,2.291,3.472S1106.951,1310.764,1107.956,1310.089Z" transform="translate(-1083.52 -1289.74)" fill="#494f80"/>
        </g>
        <g id="Group_363" data-name="Group 363" transform="translate(45.921 1.517)">
          <path id="Path_273" data-name="Path 273" d="M1025.928,1142.226c-3.816-.624-12.541.331-15.015,10.348a31.817,31.817,0,0,0,.413,5c.419,2.228-2.237,8.356-1.768,8.728a13.9,13.9,0,0,0,2.5,1.008s1.443,7.191,3.885,7.411,11.876-.63,17.2-8.763S1041.33,1144.747,1025.928,1142.226Z" transform="translate(-1009.503 -1142.077)" fill="#eea886"/>
        </g>
        <g id="Group_364" data-name="Group 364" transform="translate(47.331 0.009)">
          <path id="Path_274" data-name="Path 274" d="M1013.98,1149.3s5.741,4.956,11.823,6.519,9.3,8.394,9.3,8.394,10.758-10.732,4.266-21.146S1013.989,1137.3,1013.98,1149.3Z" transform="translate(-1013.98 -1137.293)" fill="#e8734d"/>
        </g>
        <g id="Group_365" data-name="Group 365" transform="translate(60.27 17.57)">
          <path id="Path_275" data-name="Path 275" d="M1055.04,1194.342s6.365,16.707,5.621,20.731c0,0,3.145-.545,9.009,1.248C1069.67,1216.321,1066.837,1186.48,1055.04,1194.342Z" transform="translate(-1055.04 -1193.023)" fill="#e8734d"/>
        </g>
        <g id="Group_366" data-name="Group 366" transform="translate(54.434 38.671)">
          <path id="Path_276" data-name="Path 276" d="M1039.892,1269.733l-3.372,1.613,11.457-11.356Z" transform="translate(-1036.52 -1259.99)" fill="#d6c5be"/>
        </g>
        <g id="Group_367" data-name="Group 367" transform="translate(57.805 38.671)">
          <path id="Path_277" data-name="Path 277" d="M1055.306,1259.99l-8.086,9.743,4.424,3.945,4.777-11.662Z" transform="translate(-1047.22 -1259.99)" fill="#fae6de"/>
        </g>
        <g id="Group_368" data-name="Group 368" transform="translate(56.929 31.102)">
          <path id="Path_278" data-name="Path 278" d="M1051.183,1235.97c-.054.085-1.806,2.811-6.743,4.736.12-.466.23-.936.331-1.4.057-.265.107-.529.157-.794A22.764,22.764,0,0,0,1051.183,1235.97Z" transform="translate(-1044.44 -1235.97)" fill="#a77860"/>
        </g>
        <g id="Group_369" data-name="Group 369" transform="translate(19.757 65.417)">
          <path id="Path_279" data-name="Path 279" d="M930.986,1347.482c1.018,1.916,1,3.917-.038,4.468s-2.707-.555-3.724-2.47-1-3.917.038-4.468S929.968,1345.567,930.986,1347.482Z" transform="translate(-926.471 -1344.87)" fill="#828282"/>
        </g>
        <g id="Group_370" data-name="Group 370" transform="translate(67.006 40.636)">
          <path id="Path_280" data-name="Path 280" d="M1076.42,1266.287s10.66-1.446,13.77,9.718C1090.187,1276,1076.628,1274.543,1076.42,1266.287Z" transform="translate(-1076.42 -1266.226)" fill="#494f80"/>
        </g>
      </g>
      <g id="Group_402" data-name="Group 402" transform="translate(721.453 156.591)">
        <g id="Group_372" data-name="Group 372">
          <path id="Path_281" data-name="Path 281" d="M1797.779,482.738h-143.22A11.938,11.938,0,0,1,1642.62,470.8V300.6a11.938,11.938,0,0,1,11.939-11.939h143.22a11.938,11.938,0,0,1,11.939,11.939V470.8A11.94,11.94,0,0,1,1797.779,482.738Z" transform="translate(-1642.62 -288.66)" fill="#dae8f5"/>
        </g>
        <g id="Group_381" data-name="Group 381" transform="translate(18.518 52.165)">
          <g id="Group_374" data-name="Group 374" transform="translate(0.002)">
            <g id="Group_373" data-name="Group 373">
              <path id="Path_282" data-name="Path 282" d="M1784.314,482.543A42.7,42.7,0,1,0,1703.9,511.3c.321.9.674,1.793,1.052,2.663a42.7,42.7,0,0,0,79.362-31.422Zm-29.427,44.527a31.983,31.983,0,0,1-40.138-17.372c-.284-.652-.545-1.317-.791-2a32.018,32.018,0,1,1,40.928,19.369Z" transform="translate(-1701.393 -454.209)" fill="#0090f8"/>
            </g>
          </g>
          <g id="Group_376" data-name="Group 376" transform="translate(1.948 0.019)">
            <g id="Group_375" data-name="Group 375">
              <path id="Path_283" data-name="Path 283" d="M1717.773,487.422l-10.2-3.186a42.762,42.762,0,0,1,39.485-29.966l.318,10.685a32.059,32.059,0,0,0-29.6,22.467Z" transform="translate(-1707.57 -454.27)" fill="#1a598c"/>
            </g>
          </g>
          <g id="Group_378" data-name="Group 378" transform="translate(0 29.985)">
            <g id="Group_377" data-name="Group 377">
              <path id="Path_284" data-name="Path 284" d="M1714.745,574.874l-9.8,4.266q-.567-1.3-1.052-2.663a42.527,42.527,0,0,1-.558-27.108l10.2,3.186a31.891,31.891,0,0,0,.416,20.324C1714.2,573.557,1714.461,574.222,1714.745,574.874Z" transform="translate(-1701.387 -549.37)" fill="#2273b5"/>
            </g>
          </g>
          <g id="Group_380" data-name="Group 380" transform="translate(3.559 55.49)">
            <g id="Group_379" data-name="Group 379">
              <path id="Path_285" data-name="Path 285" d="M1719.3,645.2a42.535,42.535,0,0,1-6.62-10.628l9.8-4.266a31.8,31.8,0,0,0,4.963,7.972Z" transform="translate(-1712.68 -630.31)" fill="#3788cc"/>
            </g>
          </g>
        </g>
        <g id="Group_388" data-name="Group 388" transform="translate(113.242 104.882)">
          <g id="Group_383" data-name="Group 383" transform="translate(0)">
            <g id="Group_382" data-name="Group 382">
              <path id="Path_286" data-name="Path 286" d="M2027.226,623.213a17.665,17.665,0,1,0-15.109,31.936q.539.255,1.087.473a17.666,17.666,0,0,0,14.022-32.408Zm4.418,21.632a13.231,13.231,0,0,1-16.82,6.661c-.274-.107-.545-.227-.816-.353a13.242,13.242,0,0,1-6.305-17.636,13.243,13.243,0,1,1,23.942,11.328Z" transform="translate(-2002.003 -621.512)" fill="#4aafff"/>
            </g>
          </g>
          <g id="Group_385" data-name="Group 385" transform="translate(0 5.555)">
            <g id="Group_384" data-name="Group 384">
              <path id="Path_287" data-name="Path 287" d="M2007.941,657.4l-3.917,2.051a17.681,17.681,0,0,1,2.785-20.315l3.217,3.031a13.258,13.258,0,0,0-2.086,15.232Z" transform="translate(-2002.003 -639.14)" fill="#1a598c"/>
            </g>
          </g>
          <g id="Group_387" data-name="Group 387" transform="translate(2.019 23.818)">
            <g id="Group_386" data-name="Group 386">
              <path id="Path_288" data-name="Path 288" d="M2019.208,703.276l-1.62,4.115q-.548-.217-1.087-.473a17.569,17.569,0,0,1-8.092-7.767l3.917-2.051a13.188,13.188,0,0,0,6.066,5.823C2018.663,703.049,2018.938,703.166,2019.208,703.276Z" transform="translate(-2008.41 -697.1)" fill="#2273b5"/>
            </g>
          </g>
        </g>
        <g id="Group_389" data-name="Group 389" transform="translate(92.498 138.686)">
          <path id="Path_289" data-name="Path 289" d="M1969.155,741.908H1936.17v-.655h32.33V728.79h.655Z" transform="translate(-1936.17 -728.79)" fill="#e2f3fe"/>
        </g>
        <g id="Group_390" data-name="Group 390" transform="translate(20.469 144.326)">
          <rect id="Rectangle_49" data-name="Rectangle 49" width="29.519" height="3.932" fill="#4aafff"/>
        </g>
        <g id="Group_391" data-name="Group 391" transform="translate(92.498 144.326)">
          <rect id="Rectangle_50" data-name="Rectangle 50" width="17.362" height="3.932" fill="#4aafff"/>
        </g>
        <g id="Group_392" data-name="Group 392" transform="translate(13.779 16.659)">
          <rect id="Rectangle_51" data-name="Rectangle 51" width="14.129" height="3.019" fill="#4aafff"/>
        </g>
        <g id="Group_393" data-name="Group 393" transform="translate(72.675 28.028)">
          <rect id="Rectangle_52" data-name="Rectangle 52" width="21.918" height="3.019" fill="#4aafff"/>
        </g>
        <g id="Group_394" data-name="Group 394" transform="translate(44.335 28.028)">
          <rect id="Rectangle_53" data-name="Rectangle 53" width="13.382" height="3.019" fill="#4aafff"/>
        </g>
        <g id="Group_395" data-name="Group 395" transform="translate(13.779 28.028)">
          <rect id="Rectangle_54" data-name="Rectangle 54" width="26.51" height="3.019" fill="#4aafff"/>
        </g>
        <g id="Group_396" data-name="Group 396" transform="translate(32.21 16.659)">
          <rect id="Rectangle_55" data-name="Rectangle 55" width="20.932" height="3.019" fill="#4aafff"/>
        </g>
        <g id="Group_397" data-name="Group 397" transform="translate(61.905 28.028)">
          <rect id="Rectangle_56" data-name="Rectangle 56" width="5.751" height="3.019" fill="#4aafff"/>
        </g>
        <g id="Group_398" data-name="Group 398" transform="translate(78.958 16.826)">
          <rect id="Rectangle_57" data-name="Rectangle 57" width="15.639" height="3.019" fill="#4aafff"/>
        </g>
        <g id="Group_399" data-name="Group 399" transform="translate(100.174 28.028)">
          <rect id="Rectangle_58" data-name="Rectangle 58" width="13.335" height="3.019" fill="#4aafff"/>
        </g>
        <g id="Group_400" data-name="Group 400" transform="translate(58.291 16.826)">
          <rect id="Rectangle_59" data-name="Rectangle 59" width="16.578" height="3.019" fill="#4aafff"/>
        </g>
        <g id="Group_401" data-name="Group 401" transform="translate(62.437 170.079)" opacity="0.46">
          <path id="Path_290" data-name="Path 290" d="M1875.025,870.644h-26.286a7.968,7.968,0,0,1-7.969-7.969V836.389a7.968,7.968,0,0,1,7.969-7.969h26.286a7.968,7.968,0,0,1,7.969,7.969v26.286A7.968,7.968,0,0,1,1875.025,870.644Z" transform="translate(-1840.77 -828.42)" fill="#fff"/>
          <rect id="Rectangle_60" data-name="Rectangle 60" width="3.995" height="16.801" transform="translate(19.114 12.711)" fill="#c5ccd1"/>
          <rect id="Rectangle_61" data-name="Rectangle 61" width="3.995" height="16.801" transform="translate(29.512 19.115) rotate(90)" fill="#c5ccd1"/>
        </g>
      </g>
      <g id="Group_403" data-name="Group 403" transform="translate(899.589 129.883)">
        <path id="Path_291" data-name="Path 291" d="M2261.5,241.454l-35.676-35.673-16.934,16.934-.939-.939,17.873-17.876,36.615,36.615Z" transform="translate(-2207.95 -203.9)" fill="#707070"/>
      </g>
    </g>
  </g>
</svg>
