<svg id="_5259949" data-name="5259949" xmlns="http://www.w3.org/2000/svg" width="734" height="489" viewBox="0 0 734 489">
  <g id="BACKGROUND">
    <g id="Group_405" data-name="Group 405">
      <rect id="Rectangle_62" data-name="Rectangle 62" width="734" height="489" fill="#fff"/>
    </g>
  </g>
  <g id="OBJECTS" transform="translate(61.067 47.446)">
    <g id="Group_412" data-name="Group 412" transform="translate(59.533 30.925)">
      <g id="Group_408" data-name="Group 408" transform="translate(0 69.701)">
        <g id="Group_407" data-name="Group 407">
          <g id="Group_406" data-name="Group 406">
            <path id="Path_293" data-name="Path 293" d="M605.666,414.1H128.1S80.294,225.743,286.472,163.645,672.742,289.425,605.666,414.1Z" transform="translate(-123.303 -151.392)" fill="#0090f8" opacity="0.158"/>
          </g>
        </g>
      </g>
      <g id="Group_411" data-name="Group 411" transform="translate(144.057)">
        <g id="Group_410" data-name="Group 410">
          <g id="Group_409" data-name="Group 409">
            <path id="Path_294" data-name="Path 294" d="M315.8,350.322h57.6V314.838H315.8ZM353.707,80.8c-40.932,5.037-79.84,29.89-83.117,98.061l40.59,5.223s7.531-23.112,20.412-27.474,27.709,2.934,31.592,13.986,4.861,21.508-13.6,33.9-40.345,25.273-33.783,94.54h57.6V284.058c.7-11.805,3.374-27.435,12.148-34.546,15.072-12.216,48.4-32.227,54.342-67.135C452.678,107.271,401.1,74.966,353.707,80.8Z" transform="translate(-270.59 -80.129)" fill="#0090f8"/>
          </g>
        </g>
      </g>
    </g>
    <g id="Group_421" data-name="Group 421" transform="translate(490.488 200.338)">
      <g id="Group_414" data-name="Group 414" transform="translate(47.397)">
        <g id="Group_413" data-name="Group 413">
          <rect id="Rectangle_63" data-name="Rectangle 63" width="4.01" height="163.005" fill="#0b4665"/>
        </g>
      </g>
      <g id="Group_416" data-name="Group 416" transform="translate(51.407)">
        <g id="Group_415" data-name="Group 415">
          <path id="Path_295" data-name="Path 295" d="M665.09,279.513H616.48V253.34h48.61l7.648,13.087Z" transform="translate(-616.48 -253.34)" fill="#0090f8"/>
        </g>
      </g>
      <g id="Group_418" data-name="Group 418" transform="translate(51.407 43.426)">
        <g id="Group_417" data-name="Group 417">
          <path id="Path_296" data-name="Path 296" d="M672.739,327.385H616.48V297.74h56.259l12.275,14.828Z" transform="translate(-616.48 -297.74)" fill="#0090f8"/>
        </g>
      </g>
      <g id="Group_420" data-name="Group 420" transform="translate(0 29.753)">
        <g id="Group_419" data-name="Group 419">
          <path id="Path_297" data-name="Path 297" d="M575.041,308.006h36.277V283.76H575.041L563.92,295.888Z" transform="translate(-563.92 -283.76)" fill="#0090f8"/>
        </g>
      </g>
    </g>
    <g id="Group_426" data-name="Group 426" transform="translate(0 103.736)">
      <g id="Group_423" data-name="Group 423" transform="translate(436.08)">
        <g id="Group_422" data-name="Group 422">
          <path id="Path_298" data-name="Path 298" d="M523.392,194.417a.983.983,0,0,1-.665-1.7,34.26,34.26,0,0,0,5.878-7.834,43.194,43.194,0,0,1-8.93-2.347c-7.2-2.836-11.238-7.326-11.375-12.646-.254-10.26,6.035-15.072,12.373-15.307,6.573-.225,13.722,4.255,14.133,13.047a33.528,33.528,0,0,1-3.169,15.708c20.031,2.3,50.958-4.3,74.646-28.472a.975.975,0,1,1,1.389,1.369c-24.4,24.892-56.415,31.484-76.964,28.941a35.744,35.744,0,0,1-6.68,8.979A.872.872,0,0,1,523.392,194.417Zm-2.211-37.891c-.137,0-.284,0-.421.01-4.988.176-10.72,3.766-10.485,13.3.108,4.48,3.707,8.343,10.133,10.866a42.3,42.3,0,0,0,9.155,2.347,31.593,31.593,0,0,0,3.306-15.336A11.48,11.48,0,0,0,521.181,156.526Z" transform="translate(-508.292 -154.572)" fill="#0b4169"/>
        </g>
      </g>
      <g id="Group_425" data-name="Group 425" transform="translate(0 16.925)">
        <g id="Group_424" data-name="Group 424">
          <path id="Path_299" data-name="Path 299" d="M93.914,225.967c-13.224,0-24.149-3.668-28.892-10.632-3.668-5.389-5.262-15.033,8.03-30.359a.978.978,0,1,1,1.477,1.281c-9.869,11.385-12.6,21.058-7.893,27.973,7.355,10.8,32.218,12.92,55.427,4.734a136.094,136.094,0,0,0,17.155-7.433,19.43,19.43,0,0,1-4.264-7.032c-1.819-5.458-.851-11.727,2.856-18.613,3.8-7.071,15.2-13.879,23.444-14.006,3.971-.088,6.993,1.408,8.646,4.255,1.526,2.641,1.584,6.064.166,9.908-2.739,7.424-11.336,17.243-27.484,26.036a38.734,38.734,0,0,0,9.135,5.7c19.728,9.155,47.192-6.367,47.466-6.524a.975.975,0,0,1,.968,1.692,85.991,85.991,0,0,1-16.735,6.925c-8.861,2.631-21.7,4.7-32.531-.323a39.4,39.4,0,0,1-10.152-6.5,139.536,139.536,0,0,1-18.036,7.746A87.642,87.642,0,0,1,93.914,225.967Zm67.595-52.141h-.215c-7.512.117-18.29,6.543-21.752,12.979-3.443,6.4-4.362,12.138-2.719,17.067a17.785,17.785,0,0,0,4.206,6.71c12.392-6.68,23.63-15.493,27.22-25.224,1.213-3.277,1.2-6.133-.029-8.245C166.947,174.931,164.7,173.826,161.509,173.826Z" transform="translate(-62.436 -171.876)" fill="#0b4169"/>
        </g>
      </g>
    </g>
    <g id="Group_483" data-name="Group 483" transform="translate(25.012 150.981)">
      <g id="Group_465" data-name="Group 465" transform="translate(401.859)">
        <g id="Group_428" data-name="Group 428" transform="translate(45.514 120.137)" opacity="0.485">
          <g id="Group_427" data-name="Group 427">
            <path id="Path_300" data-name="Path 300" d="M547.112,416.71s7.531,3.648,13.37-7.287c3.648-5.585,4.617-3.159,5.105-15.551.245-7.287,3.893-10.935,6.318-13.37s3.648-9.478,2.67-12.637-2.856-6.26,3.893-13,9.839-13.673,10.387-21.508-3.1-10.759-11.844-3.462-14.769,18.779-15.679,19.865-7.287,7.111-7.11,14.583-1.272,11.121-2.553,12.764-6.631,2.064-1.858,23.366C548.941,404.983,542.378,410.391,547.112,416.71Z" transform="translate(-545.412 -325.706)" fill="#0090f8"/>
          </g>
        </g>
        <g id="Group_430" data-name="Group 430" transform="translate(4.373 128.75)">
          <g id="Group_429" data-name="Group 429">
            <path id="Path_301" data-name="Path 301" d="M546.19,416.9s4.558-10.27,3.1-15.189-7.473-7.473-7.473-7.473-.362-13.488-2.915-18.593-9.839-11.844-10.573-14.035.186-8.93-6.2-14.221-11.483-10.211-12.578-11.844-8.206-3.824-5.653,15.307c1.1,2.915,7.287,12.94,9.292,17.136s2.191,8.93,1.457,13.673,1.643,9.478,6.749,12.764,6.2,3.1,6.925,8.206S536.35,418.419,546.19,416.9Z" transform="translate(-503.348 -334.513)" fill="#0b4169"/>
          </g>
        </g>
        <g id="Group_432" data-name="Group 432" transform="translate(19.271 153.053)">
          <g id="Group_431" data-name="Group 431">
            <path id="Path_302" data-name="Path 302" d="M543.893,417.4,518.58,359.36,544.792,417a.491.491,0,0,1-.245.646.486.486,0,0,1-.655-.245Z" transform="translate(-518.58 -359.36)" fill="#fff"/>
          </g>
        </g>
        <g id="Group_434" data-name="Group 434" transform="translate(50.113 138.47)">
          <g id="Group_433" data-name="Group 433">
            <path id="Path_303" data-name="Path 303" d="M550.139,415.028q2.949-8.979,5.771-18.006c.929-3.012,1.849-6.025,2.66-9.057q1.188-4.577,2.543-9.116c1.8-6.044,3.834-12.03,6.191-17.879,1.223-2.9,2.465-5.81,3.951-8.6a44.476,44.476,0,0,1,5.135-7.922,44.2,44.2,0,0,0-5.027,7.981c-1.448,2.8-2.651,5.712-3.834,8.627-2.279,5.868-4.225,11.874-5.947,17.928-.861,3.032-1.673,6.074-2.416,9.125-.773,3.071-1.663,6.093-2.553,9.116q-2.685,9.067-5.536,18.085a.5.5,0,0,1-.616.323.466.466,0,0,1-.323-.606Z" transform="translate(-550.114 -344.45)" fill="#fff"/>
          </g>
        </g>
        <g id="Group_436" data-name="Group 436" transform="translate(45.661 100.803)">
          <g id="Group_435" data-name="Group 435">
            <path id="Path_304" data-name="Path 304" d="M549.287,399.522a.494.494,0,0,1-.489-.43c-.02-.156-2.025-15.923-2.866-35.132-.782-17.752-.7-42.174,4.1-57.677a.486.486,0,0,1,.929.284c-9.116,29.45-1.281,91.772-1.2,92.4a.492.492,0,0,1-.42.548A.074.074,0,0,1,549.287,399.522Z" transform="translate(-545.562 -305.938)" fill="#0b4169"/>
          </g>
        </g>
        <g id="Group_438" data-name="Group 438" transform="translate(50.598 87.413)">
          <g id="Group_437" data-name="Group 437">
            <path id="Path_305" data-name="Path 305" d="M550.61,306.129s2.572-9.478,5.487-12.519,6.68-.851,5.585,5.223S550.61,306.129,550.61,306.129Z" transform="translate(-550.61 -292.248)" fill="#0b4169"/>
          </g>
        </g>
        <g id="Group_440" data-name="Group 440" transform="translate(47.253 104.81)">
          <g id="Group_439" data-name="Group 439">
            <path id="Path_306" data-name="Path 306" d="M547.787,319.42s5.986-9.253,8.392-9.38,4.343,2.191,1.8,6.2-10.788,8.02-10.788,8.02Z" transform="translate(-547.19 -310.036)" fill="#0b4169"/>
          </g>
        </g>
        <g id="Group_442" data-name="Group 442" transform="translate(40.109 106.506)">
          <g id="Group_441" data-name="Group 441">
            <path id="Path_307" data-name="Path 307" d="M546.8,326.5s-5.223-3.541-6.309-6.768-.734-7.961,1.213-7.961,4.558,4.616,5.311,10.514Z" transform="translate(-539.885 -311.77)" fill="#0b4169"/>
          </g>
        </g>
        <g id="Group_444" data-name="Group 444" transform="translate(45.511 92.575)">
          <g id="Group_443" data-name="Group 443">
            <path id="Path_308" data-name="Path 308" d="M549.244,310.92s-3.775-3.648-3.834-7.717,1.653-7.169,3.834-4.92.381,11.062.381,11.062Z" transform="translate(-545.409 -297.526)" fill="#0b4169"/>
          </g>
        </g>
        <g id="Group_446" data-name="Group 446" transform="translate(46.304 122.072)">
          <g id="Group_445" data-name="Group 445">
            <path id="Path_309" data-name="Path 309" d="M546.22,338.683s4.2-7.6,5.771-9.6,5.585-2.67,4.5,3.766-8.93,10.387-10.27,10.328Z" transform="translate(-546.22 -327.685)" fill="#0b4169"/>
          </g>
        </g>
        <g id="Group_448" data-name="Group 448" transform="translate(38.909 126.224)">
          <g id="Group_447" data-name="Group 447">
            <path id="Path_310" data-name="Path 310" d="M546.054,337.8s-1.457-4.313-2.915-5.409-5.594-.548-4.2,5.106,6.005,6.445,6.954,5.771.156,0,.156,0Z" transform="translate(-538.659 -331.929)" fill="#0b4169"/>
          </g>
        </g>
        <g id="Group_450" data-name="Group 450" transform="translate(46.304 137.347)">
          <g id="Group_449" data-name="Group 449">
            <path id="Path_311" data-name="Path 311" d="M546.22,358.724s2.8-10.289,5.223-13.263,5.35-3.345,5.233,1.888-8.861,11.727-10.416,12.578Z" transform="translate(-546.22 -343.302)" fill="#0b4169"/>
          </g>
        </g>
        <g id="Group_452" data-name="Group 452" transform="translate(46.735 155.022)">
          <g id="Group_451" data-name="Group 451">
            <path id="Path_312" data-name="Path 312" d="M546.66,369.439s4.245-6.993,6.436-7.971,4.617,5.771,0,9.292-6.182,2.983-6.182,2.983Z" transform="translate(-546.66 -361.374)" fill="#0b4169"/>
          </g>
        </g>
        <g id="Group_454" data-name="Group 454" transform="translate(36.394 155.481)">
          <g id="Group_453" data-name="Group 453">
            <path id="Path_313" data-name="Path 313" d="M546.428,374.056s-5.78-.489-8.7-4.617-1.536-7.776.871-7.59S544.609,367.982,546.428,374.056Z" transform="translate(-536.087 -361.843)" fill="#0b4169"/>
          </g>
        </g>
        <g id="Group_456" data-name="Group 456" transform="translate(36.383 140.161)">
          <g id="Group_455" data-name="Group 455">
            <path id="Path_314" data-name="Path 314" d="M545.841,357.741s-2.964.44-7.238-4.128-2.631-8.94,1.252-6.935,6.133,10.387,6.133,10.387Z" transform="translate(-536.076 -346.179)" fill="#0b4169"/>
          </g>
        </g>
        <g id="Group_458" data-name="Group 458" transform="translate(70.739 9.782)" opacity="0.5">
          <g id="Group_457" data-name="Group 457">
            <path id="Path_315" data-name="Path 315" d="M572.472,218.592s4.978,1.457,5.712-1.1-.245-3.4-1.1-4.127-5.467-.851-5.829,1.1S572.472,218.592,572.472,218.592Z" transform="translate(-571.202 -212.877)" fill="#0090f8"/>
          </g>
        </g>
        <g id="Group_460" data-name="Group 460" transform="translate(37.709)" opacity="0.5">
          <g id="Group_459" data-name="Group 459">
            <path id="Path_316" data-name="Path 316" d="M554.781,223.84s7.834-4.509,7.834-11.179-13.126-9.595-16.588-9.781-9.839,5.829-8.382,17.312C538.193,223.664,547.67,228.946,554.781,223.84Z" transform="translate(-537.432 -202.876)" fill="#0090f8"/>
          </g>
        </g>
        <g id="Group_462" data-name="Group 462" transform="translate(20.179 103.315)" opacity="0.5">
          <g id="Group_461" data-name="Group 461">
            <path id="Path_317" data-name="Path 317" d="M520.909,314.985a4.137,4.137,0,0,0,5.467-3.277c1.213-4.744-3.4-2.915-4.255-2.553S517.5,312.8,520.909,314.985Z" transform="translate(-519.509 -308.507)" fill="#0090f8"/>
          </g>
        </g>
        <g id="Group_464" data-name="Group 464" transform="translate(0 86.466)" opacity="0.5">
          <g id="Group_463" data-name="Group 463">
            <path id="Path_318" data-name="Path 318" d="M509.15,309.022s7.9.489,8.871-7.531-5.467-10.211-9.839-10.211-11.541,3.012-8.627,12.8C500.161,306.714,502.958,309.511,509.15,309.022Z" transform="translate(-498.877 -291.28)" fill="#0090f8"/>
          </g>
        </g>
      </g>
      <g id="Group_482" data-name="Group 482" transform="translate(0 38.391)">
        <g id="Group_467" data-name="Group 467" transform="translate(53.98 33.937)" opacity="0.552">
          <g id="Group_466" data-name="Group 466">
            <path id="Path_319" data-name="Path 319" d="M146.036,414.67s14.016,1.819,16.666-14.945.284-14.4,2.836-20.05,5.282-10.759,5.282-21.146,2.367-14.749,4.744-17.4,5.653-9.214,4.744-17.781.91-18.045,2.739-24.422,2.553-14.4.91-19.5-9.116-2.367-14.221,5.467-13.673,26.975-16.774,31.533-4.744,15.874-3.648,24.706,1.3,17.214-2.171,20.676-5.3,16.95-2.748,26.613S141.117,412.664,146.036,414.67Z" transform="translate(-143.199 -276.826)" fill="#0090f8"/>
          </g>
        </g>
        <g id="Group_469" data-name="Group 469" transform="translate(0 22.457)">
          <g id="Group_468" data-name="Group 468">
            <path id="Path_320" data-name="Path 320" d="M145.922,414.412s.362-12.392-3.042-16.529-.489-15.8-13.6-32.814,2.426-34.751-9.233-49.334-11.668-21.146-11.668-29.411-1.213-19.268-4.861-21.058-7.531,10.368-6.807,18.388-12.637,25.518-7.531,41.314S95,350.485,95,355.346s.245,10.69,3.648,13.6,14.828,13.6,8.02,18.955S113.234,413.923,145.922,414.412Z" transform="translate(-88.009 -265.089)" fill="#0b4169"/>
          </g>
        </g>
        <g id="Group_471" data-name="Group 471" transform="translate(14.907 73.71)">
          <g id="Group_470" data-name="Group 470">
            <path id="Path_321" data-name="Path 321" d="M142.324,415.336c-4.607-7.56-8.822-15.317-12.832-23.19q-5.986-11.81-11.121-24.031c-3.413-8.147-6.406-16.451-9.067-24.872a200.482,200.482,0,0,1-6.054-25.753,199.381,199.381,0,0,0,6.289,25.674c2.739,8.382,5.81,16.657,9.292,24.755s7.277,16.06,11.326,23.884c4.069,7.815,8.353,15.532,13.008,22.994l.01.01a.492.492,0,0,1-.157.675.511.511,0,0,1-.694-.147Z" transform="translate(-103.25 -317.49)" fill="#fff"/>
          </g>
        </g>
        <g id="Group_473" data-name="Group 473" transform="translate(56.315 76.262)">
          <g id="Group_472" data-name="Group 472">
            <path id="Path_322" data-name="Path 322" d="M145.639,414.944a187.03,187.03,0,0,0,7.424-23.151c2.064-7.854,3.061-15.933,4.617-23.924,1.5-7.991,3.091-15.972,4.724-23.933,1.663-7.961,3.286-15.933,5.194-23.836-1.829,7.922-3.365,15.913-4.949,23.885-1.555,7.981-3.071,15.972-4.489,23.973-1.477,7.981-2.4,16.089-4.392,24.012a189.977,189.977,0,0,1-7.228,23.347.492.492,0,1,1-.919-.352h0Z" transform="translate(-145.586 -320.1)" fill="#fff"/>
          </g>
        </g>
        <g id="Group_475" data-name="Group 475" transform="translate(101.454 134.385)" opacity="0.5">
          <g id="Group_474" data-name="Group 474">
            <path id="Path_323" data-name="Path 323" d="M199.594,388.3s2.367-5.653.91-7.834-9.116-.548-8.754,4.744C192.121,390.484,196.679,388.3,199.594,388.3Z" transform="translate(-191.737 -379.526)" fill="#0090f8"/>
          </g>
        </g>
        <g id="Group_477" data-name="Group 477" transform="translate(107.985 110.381)" opacity="0.5">
          <g id="Group_476" data-name="Group 476">
            <path id="Path_324" data-name="Path 324" d="M211.956,375s7.472-3.1,5.106-13.673-15.493-5.467-17.312-2.191S195.368,376.282,211.956,375Z" transform="translate(-198.414 -354.984)" fill="#0090f8"/>
          </g>
        </g>
        <g id="Group_479" data-name="Group 479" transform="translate(56.814)" opacity="0.5">
          <g id="Group_478" data-name="Group 478">
            <path id="Path_325" data-name="Path 325" d="M150.11,247.3s3.824.372,2.739-3.091-6.925-2.005-6.749,0S149.024,247.353,150.11,247.3Z" transform="translate(-146.096 -242.128)" fill="#0090f8"/>
          </g>
        </g>
        <g id="Group_481" data-name="Group 481" transform="translate(58.79 11.238)" opacity="0.5">
          <g id="Group_480" data-name="Group 480">
            <path id="Path_326" data-name="Path 326" d="M148.149,260.134s-.91,7.111,6.925,10.211,12.392.186,12.578-4.372-.1-8.02-3.511-9.839S147.6,249.923,148.149,260.134Z" transform="translate(-148.117 -253.618)" fill="#0090f8"/>
          </g>
        </g>
      </g>
    </g>
    <g id="Group_510" data-name="Group 510" transform="translate(95.933)">
      <g id="Group_492" data-name="Group 492" transform="translate(0 90.892)">
        <g id="Group_486" data-name="Group 486">
          <g id="Group_485" data-name="Group 485">
            <g id="Group_484" data-name="Group 484">
              <path id="Path_327" data-name="Path 327" d="M219.331,152.2a10.79,10.79,0,0,0-10.759-10.759H171.279A10.79,10.79,0,0,0,160.52,152.2v12.754a10.79,10.79,0,0,0,10.759,10.759h36.58l10.5,5.106-.861-8.627a4.061,4.061,0,0,0-.518-.558,10.672,10.672,0,0,0,2.347-6.68V152.2Z" transform="translate(-160.52 -141.44)" fill="#0090f8"/>
            </g>
          </g>
        </g>
        <g id="Group_491" data-name="Group 491" transform="translate(9.771 10.7)">
          <g id="Group_488" data-name="Group 488" transform="translate(0.01)">
            <g id="Group_487" data-name="Group 487">
              <path id="Path_328" data-name="Path 328" d="M203.872,154.747a2.363,2.363,0,0,1-2.367,2.367H172.887a2.363,2.363,0,0,1-2.367-2.367h0a2.363,2.363,0,0,1,2.367-2.367h28.618a2.363,2.363,0,0,1,2.367,2.367Z" transform="translate(-170.52 -152.38)" fill="#fff"/>
            </g>
          </g>
          <g id="Group_490" data-name="Group 490" transform="translate(0 10.749)">
            <g id="Group_489" data-name="Group 489">
              <path id="Path_329" data-name="Path 329" d="M194.209,165.561a2.187,2.187,0,0,1-2.191,2.191H172.7a2.187,2.187,0,0,1-2.191-2.191h0a2.187,2.187,0,0,1,2.191-2.191h19.317a2.187,2.187,0,0,1,2.191,2.191Z" transform="translate(-170.51 -163.37)" fill="#fff"/>
            </g>
          </g>
        </g>
      </g>
      <g id="Group_509" data-name="Group 509" transform="translate(238.161)">
        <g id="Group_500" data-name="Group 500">
          <g id="Group_495" data-name="Group 495">
            <g id="Group_494" data-name="Group 494">
              <g id="Group_493" data-name="Group 493">
                <path id="Path_330" data-name="Path 330" d="M453.041,48.51H412.774a8.757,8.757,0,0,0-8.754,8.754V67.23a8.757,8.757,0,0,0,8.754,8.754h16.6c1.066,1.985,2.924,5.076,4.822,6.5,1.135,1.32.753-1.428.753-2.827a4.013,4.013,0,0,1,2.7-3.678h15.395a8.751,8.751,0,0,0,8.754-8.754V57.264A8.757,8.757,0,0,0,453.041,48.51Z" transform="translate(-404.02 -48.51)" fill="#0090f8"/>
              </g>
            </g>
          </g>
          <g id="Group_497" data-name="Group 497" transform="translate(5.839 6.436)">
            <g id="Group_496" data-name="Group 496">
              <path id="Path_331" data-name="Path 331" d="M456.84,57.281c0,1.213-.734,2.191-1.643,2.191H411.633c-.91,0-1.643-.978-1.643-2.191h0c0-1.2.734-2.191,1.643-2.191H455.2a1.994,1.994,0,0,1,1.643,2.191Z" transform="translate(-409.99 -55.09)" fill="#fff"/>
            </g>
          </g>
          <g id="Group_499" data-name="Group 499" transform="translate(5.849 16.559)">
            <g id="Group_498" data-name="Group 498">
              <path id="Path_332" data-name="Path 332" d="M451.431,67.6c0,1.193-.548,2.162-1.213,2.162H411.213c-.675,0-1.213-.968-1.213-2.162h0c0-1.193.548-2.162,1.213-2.162h39.006c.665,0,1.213.968,1.213,2.162Z" transform="translate(-410 -65.44)" fill="#fff"/>
            </g>
          </g>
        </g>
        <g id="Group_508" data-name="Group 508" transform="translate(68.543 40.647)">
          <g id="Group_502" data-name="Group 502">
            <g id="Group_501" data-name="Group 501">
              <path id="Path_333" data-name="Path 333" d="M474.1,123.217l4.8-7.365s-5.164-19.16,12.881-24.628,28.8,9.478,23.7,23.513-26.613,16.95-35.357,6.925Z" transform="translate(-474.1 -90.068)" fill="#0090f8"/>
            </g>
          </g>
          <g id="Group_507" data-name="Group 507" transform="translate(16.334 7.609)">
            <g id="Group_504" data-name="Group 504" transform="translate(2.377 17.06)">
              <g id="Group_503" data-name="Group 503">
                <rect id="Rectangle_64" data-name="Rectangle 64" width="5.106" height="2.856" fill="#fff"/>
              </g>
            </g>
            <g id="Group_506" data-name="Group 506">
              <g id="Group_505" data-name="Group 505">
                <path id="Path_334" data-name="Path 334" d="M493.539,112.9v-5.585s2.553-.245,2.8-1.7-1.4-1.819-2.494-.489l-3.042-2.005s2.25-6.563,8.323-5.047,4.2,7.531,3.218,8.812-4.284,2.435-4.284,2.435l-.088,3.58Z" transform="translate(-490.8 -97.848)" fill="#fff"/>
              </g>
            </g>
          </g>
        </g>
      </g>
    </g>
    <g id="Group_537" data-name="Group 537" transform="translate(98.5 121.397)">
      <g id="Group_512" data-name="Group 512" transform="translate(41.654 251.723)" opacity="0.44">
        <g id="Group_511" data-name="Group 511">
          <path id="Path_335" data-name="Path 335" d="M263.153,451.019s41.011-.362,45.383-1.1c0,0,21.322-2.739,24.246-5.282s-9.663-7.834-17.86-10.387-49.217-5.467-72.729-3.736-50.126,9.957-28.433,17.146c11.844,3.541,33.45,2.445,33.45,2.445Z" transform="translate(-205.732 -429.996)" fill="#0090f8"/>
        </g>
      </g>
      <g id="Group_518" data-name="Group 518" transform="translate(47.431 90.622)">
        <g id="Group_513" data-name="Group 513" transform="translate(64.456 160.673)">
          <path id="Path_336" data-name="Path 336" d="M298.451,437.091l4.1,3.14s4.558.558,5.008,2.934-2.553,4.372-12.666,4.47c-3.374.186-7.746-1.819-10.935-2.191s-6.837-1.369-6.377-12.666C279.858,423.76,295.263,436.485,298.451,437.091Z" transform="translate(-277.54 -429.558)" fill="#0b4665"/>
        </g>
        <g id="Group_514" data-name="Group 514" transform="translate(0 161.617)">
          <path id="Path_337" data-name="Path 337" d="M239.955,432.417s1.731,10.495-4.421,12.412c-5.6,2.367-7.8,3.1-9.165,3.922s-10.935.567-13.488-1.086-1.007-5.575,3.1-6.3l6.416-5.409S238.928,426.627,239.955,432.417Z" transform="translate(-211.639 -430.523)" fill="#0b4665"/>
        </g>
        <g id="Group_515" data-name="Group 515" transform="translate(8.608 75.594)">
          <path id="Path_338" data-name="Path 338" d="M251.024,350.248s-8.323,65.775-8.509,68.866-1.457,10.573-2.915,12.3a23.146,23.146,0,0,1-11.571,6.915c-6.289,1.653-7.834-.626-7.561-2.445,0,0,7.932-6.289,9.2-11.483s2.093-72.172,2.093-78.784S250.046,344.35,251.024,350.248Z" transform="translate(-220.44 -342.571)" fill="#f48f8f"/>
        </g>
        <g id="Group_516" data-name="Group 516" transform="translate(47.242 78.643)">
          <path id="Path_339" data-name="Path 339" d="M280.078,346.668l10.935,82.148,7.052,6.436s-2.279,6.074-13.214,1.34c-5.741-2.739-7.658-5.653-7.658-5.653S262.7,355.656,260.155,351.1,278.5,344.242,280.078,346.668Z" transform="translate(-259.939 -345.689)" fill="#f48f8f"/>
        </g>
        <g id="Group_517" data-name="Group 517" transform="translate(10.702)">
          <path id="Path_340" data-name="Path 340" d="M274.437,273.7a50.172,50.172,0,0,0,1.3,15.307c2.005,7.658,11.668,53.041,11.668,53.041s-4.2,13.3-33.9,9.839c-25.89-3.022-30.927-9.116-30.927-9.116s1.584-17.84,3.316-29.42,5.555-26.721,5.741-37.47S272.4,259.666,274.437,273.7Z" transform="translate(-222.58 -265.283)" fill="#0b4665"/>
        </g>
      </g>
      <g id="Group_519" data-name="Group 519" transform="translate(58.394)">
        <path id="Path_341" data-name="Path 341" d="M272.184,218.443s-2.005-18.593-2.191-28.53-13.028-24.7-28.98-12.94c0,0-3.13-1.79-2.22,2.827,0,0-5.223,1.1-8.02,14.828s-6.68,29.411-7.9,33.049C221.666,231.324,268.516,232.654,272.184,218.443Z" transform="translate(-222.847 -172.629)" fill="#074066"/>
      </g>
      <g id="Group_522" data-name="Group 522" transform="translate(69.852 11.542)">
        <g id="Group_520" data-name="Group 520" transform="translate(11.667 23.799)">
          <path id="Path_342" data-name="Path 342" d="M258.55,212.545v13.067l-12.06,1.272.166-16.94S258.55,205.992,258.55,212.545Z" transform="translate(-246.49 -208.763)" fill="#f48f8f"/>
        </g>
        <g id="Group_521" data-name="Group 521">
          <path id="Path_343" data-name="Path 343" d="M265.976,195.277a26.768,26.768,0,0,1-21.508-10.847s-3.824,1.457-2.915,8.656a4.227,4.227,0,0,1-3.462-.577c-1.946-1.154-4.313.734-3.277,3.951a3.382,3.382,0,0,0,4.01,2.494s1.731,14.916,13.947,15.463S265.888,200.382,265.976,195.277Z" transform="translate(-234.562 -184.43)" fill="#f48f8f"/>
        </g>
      </g>
      <g id="Group_536" data-name="Group 536" transform="translate(0 27.827)">
        <g id="Group_523" data-name="Group 523" transform="translate(125.759 26.538)">
          <path id="Path_344" data-name="Path 344" d="M297.481,253.748s8.382-8.382,17.586-16.676c3.1-3.277,5.105-7.834,12.666-7.746s11.023,0,13.488-.636,4.832-.822,4.832.636-10.025,4.646-15.307,5.555a8.809,8.809,0,0,0-1.643,0s-16.5,22.329-22.056,28.159-10.387,5.555-14.309,0S297.481,253.748,297.481,253.748Z" transform="translate(-291.722 -228.213)" fill="#f48f8f"/>
        </g>
        <g id="Group_524" data-name="Group 524" transform="translate(0 28.63)">
          <path id="Path_345" data-name="Path 345" d="M206.694,253.706s-20.569-20.52-21.664-21.791-7.56-1.545-9.937-1.545-8.754.274-10.113,0-4.558,2.739,3.1,4.832,11.483,2.465,14.945,8.02,17.41,26.339,22.691,27.983,8.568,1.007,11.571-3.922S206.694,253.706,206.694,253.706Z" transform="translate(-163.144 -230.352)" fill="#f48f8f"/>
        </g>
        <g id="Group_525" data-name="Group 525" transform="translate(124.202 43.945)">
          <path id="Path_346" data-name="Path 346" d="M300.067,248.484l-3.648-2.308-.117-.166c-.968,2.758-4.665,13.38-6.172,18.877l2.641,2.318C292.771,267.2,299.451,255.292,300.067,248.484Z" transform="translate(-290.13 -246.01)" fill="#1a8b91"/>
        </g>
        <g id="Group_526" data-name="Group 526" transform="translate(45.77 16.512)">
          <path id="Path_347" data-name="Path 347" d="M294.543,245.395c-1.389-2-15.747-22.662-19.992-26.046-3.374-3-15.952,2.641-16.862,2.739,0,0-1.007,2.827-5.194,2.739A10.128,10.128,0,0,1,245.747,222v-1s-7.7-2.553-11.737-3-7.4,3.462-10.319,7.2c-2.387,3.052-8.656,15.463-13.752,21.6,1.33,3.726,5.5,14.016,12.353,18.613a25.323,25.323,0,0,0,3.5-5.849s.548,9.389.548,11.756-1.731,6.837,11.3,7.746,32.081,3.277,38.556-6.475c1.731-5.477.46-18.593.46-18.593l11.727,10.289C289.878,258.765,293.575,248.153,294.543,245.395Z" transform="translate(-209.94 -217.962)" fill="#fff"/>
        </g>
        <g id="Group_527" data-name="Group 527" transform="translate(42.572 45.324)">
          <path id="Path_348" data-name="Path 348" d="M209.868,247.42a13.588,13.588,0,0,1-3.2,3.012s2.827,15.033,13.028,19.777l.274-1.545a31.486,31.486,0,0,0,2.24-2.631C215.365,261.436,211.2,251.137,209.868,247.42Z" transform="translate(-206.67 -247.42)" fill="#1a8b91"/>
        </g>
        <g id="Group_528" data-name="Group 528" transform="translate(107.019 22.597)">
          <path id="Path_349" data-name="Path 349" d="M278.018,254.6a.481.481,0,0,1-.293-.1l-4.695-3.55-.02-.205c-1.937-17.7,3.022-25.987,3.228-26.33a.49.49,0,1,1,.831.518c-.049.078-4.949,8.3-3.11,25.5l4.362,3.3a.5.5,0,0,1,.1.685A.518.518,0,0,1,278.018,254.6Z" transform="translate(-272.562 -224.184)" fill="#afc1d1"/>
        </g>
        <g id="Group_529" data-name="Group 529" transform="translate(80.635 24.243)">
          <path id="Path_350" data-name="Path 350" d="M254.715,230.213c-2.465,0-6.817-.479-9.037-3.57a.49.49,0,0,1,.792-.577c2.8,3.9,9.859,3.091,9.937,3.081a.492.492,0,0,1,.548.43.5.5,0,0,1-.421.548A17.491,17.491,0,0,1,254.715,230.213Z" transform="translate(-245.586 -225.866)" fill="#afc1d1"/>
        </g>
        <g id="Group_530" data-name="Group 530" transform="translate(64.87 22.053)">
          <path id="Path_351" data-name="Path 351" d="M233.7,244.287a.215.215,0,0,1-.078-.01.48.48,0,0,1-.4-.557,29.672,29.672,0,0,0-3.668-19.337.487.487,0,1,1,.812-.538,30.15,30.15,0,0,1,3.814,20.031A.483.483,0,0,1,233.7,244.287Z" transform="translate(-229.468 -223.628)" fill="#afc1d1"/>
        </g>
        <g id="Group_531" data-name="Group 531" transform="translate(60.953 53.406)">
          <path id="Path_352" data-name="Path 352" d="M225.949,261.578a.492.492,0,0,1-.235-.059.483.483,0,0,1-.186-.665l2.739-4.92a.488.488,0,0,1,.851.479l-2.739,4.92A.512.512,0,0,1,225.949,261.578Z" transform="translate(-225.464 -255.684)" fill="#afc1d1"/>
        </g>
        <g id="Group_532" data-name="Group 532" transform="translate(115.526 10.514)">
          <path id="Path_353" data-name="Path 353" d="M281.26,213.434l7.433,3.316,2.807-4.01-9.83-.91Z" transform="translate(-281.26 -211.83)" fill="#074066"/>
        </g>
        <g id="Group_533" data-name="Group 533" transform="translate(113.746)">
          <path id="Path_354" data-name="Path 354" d="M280.809,210.039c.362,0,7.2-5.008,7.2-5.008l-2.885-3.951-5.683,7.512Z" transform="translate(-279.44 -201.08)" fill="#074066"/>
        </g>
        <g id="Group_534" data-name="Group 534" transform="translate(48.313 5.595)">
          <path id="Path_355" data-name="Path 355" d="M218.809,216.639h1.663l-3.834-9.839-4.1,3.365Z" transform="translate(-212.54 -206.8)" fill="#074066"/>
        </g>
        <g id="Group_535" data-name="Group 535" transform="translate(42.773 17.439)">
          <path id="Path_356" data-name="Path 356" d="M216.886,220.827l-8.294,3.188s-2.641-1.545-1.369-5.105h9.663Z" transform="translate(-206.876 -218.91)" fill="#074066"/>
        </g>
      </g>
    </g>
    <g id="Group_599" data-name="Group 599" transform="translate(302.378 44.27)">
      <g id="Group_539" data-name="Group 539" transform="translate(11.444 325.647)" opacity="0.368">
        <g id="Group_538" data-name="Group 538">
          <path id="Path_357" data-name="Path 357" d="M506.371,432.716s7.472.851,7.472,3.433-11.483,6.23-48.483,6.592-86.227,2.739-81.786-5.008,34.575-11.013,34.575-11.013,21.1,2.357,30.418,2.719S502,429.987,506.371,432.716Z" transform="translate(-383.293 -426.72)" fill="#0090f8"/>
        </g>
      </g>
      <g id="Group_591" data-name="Group 591" transform="translate(0 22.17)">
        <g id="Group_546" data-name="Group 546" transform="translate(11.728 112.761)">
          <g id="Group_541" data-name="Group 541" transform="translate(86.804 179.068)">
            <g id="Group_540" data-name="Group 540">
              <path id="Path_358" data-name="Path 358" d="M492.527,417.568s1.946,5.135,9.477,6.4,10.211,4.294,9.233,8.548c-.968,2.064-8.793,2.915-16.666,3.042s-21.126,1.946-22.212-4.372c-.244-1.584,1.34-14.221,1.34-14.221S489.613,411.739,492.527,417.568Z" transform="translate(-472.334 -414.81)" fill="#0b4665"/>
            </g>
          </g>
          <g id="Group_543" data-name="Group 543" transform="translate(0 177.888)">
            <g id="Group_542" data-name="Group 542">
              <path id="Path_359" data-name="Path 359" d="M425.089,423.254s0,8.382-1.1,11.3-2.915,4.861-13.243,4.617-21.263.851-24.794-1.213-4.255-7.287,5.829-9.36,12.519-2.064,16.529-11.424S424.6,419.371,425.089,423.254Z" transform="translate(-383.583 -413.604)" fill="#0b4665"/>
            </g>
          </g>
          <g id="Group_545" data-name="Group 545" transform="translate(18.971)">
            <g id="Group_544" data-name="Group 544">
              <path id="Path_360" data-name="Path 360" d="M476.551,253.727s5.467,60.308,8.382,84.858c.851,9.839,9.116,69.991,8.02,75.644a24.6,24.6,0,0,1-27.337.186S449.39,291.383,448.842,289.739s-2.553-7.473-3.462-.362-11.238,119.452-14.153,127.228c0,0-.43,3.648-8.93,3.345s-18.29-2.739-19.317-2.426c0,0,5.438-67.5,7.854-124.127C413.24,236.747,411.538,209.459,476.551,253.727Z" transform="translate(-402.98 -231.728)" fill="#0b4665"/>
            </g>
          </g>
        </g>
        <g id="Group_548" data-name="Group 548" transform="translate(127.232 130.247)">
          <g id="Group_547" data-name="Group 547">
            <path id="Path_361" data-name="Path 361" d="M514.2,249.776s2.67,1.213,4.978,5.467,3,6.074,4.01,6.348c0,0,.215,3.648-4.5,2.093,0,0-.694,3.1-5.8,4.92s-12.764,4.284-10.935-16.128C501.954,252.485,512.732,248.779,514.2,249.776Z" transform="translate(-501.677 -249.606)" fill="#f48f8f"/>
          </g>
        </g>
        <g id="Group_550" data-name="Group 550" transform="translate(26.823)">
          <g id="Group_549" data-name="Group 549">
            <path id="Path_362" data-name="Path 362" d="M410.3,136s6.651-8.294,10.759-11.023-2.465-3.55-4.2-2.005c0,0,.186-3.189-5.106-5.555s-10.387-1.369-12.216,13.576C397.083,144.022,403.734,139.288,410.3,136Z" transform="translate(-399.017 -116.439)" fill="#f48f8f"/>
          </g>
        </g>
        <g id="Group_552" data-name="Group 552" transform="translate(37.826 122.703)">
          <g id="Group_551" data-name="Group 551">
            <path id="Path_363" data-name="Path 363" d="M478.089,245.528s1.457,6.925,0,9.6-33.577,9.184-66.636,1.408c-2.67-1.1,0-9.36,0-12.881S476.388,242.487,478.089,245.528Z" transform="translate(-410.267 -241.893)" fill="#1a8b91"/>
          </g>
        </g>
        <g id="Group_554" data-name="Group 554" transform="translate(0 12.041)">
          <g id="Group_553" data-name="Group 553">
            <path id="Path_364" data-name="Path 364" d="M442.109,151.49s11.512-1.213,18.926-.734,19.014,1.272,23.571,12.578,28.618,80.926,28.618,80.926-2.739,10.387-15.855,6.2l-18.231-43.2s4.861,28.922-2.915,37.666c0,0-12.392,11.424-61.971,3.159,0,0-8.744-5.585-7.776-12.881s3.658-51.818,3.658-51.818-17.507,8.8-24.794,10.5-18.955-3.159-11.179-21.39S395.8,128.75,395.8,128.75s12.275.968,14.945,8.988l-15.923,31.347s14.339-14.886,25.635-16.529C423.78,152.106,442.109,151.49,442.109,151.49Z" transform="translate(-371.593 -128.75)" fill="#323657"/>
          </g>
        </g>
        <g id="Group_556" data-name="Group 556" transform="translate(102.071 59.939)">
          <g id="Group_555" data-name="Group 555">
            <path id="Path_365" data-name="Path 365" d="M481.183,208.715a.743.743,0,0,1-.724-.626l-4.5-29.528a.732.732,0,0,1,1.448-.215l4.5,29.528a.73.73,0,0,1-.616.831A.367.367,0,0,1,481.183,208.715Z" transform="translate(-475.952 -177.722)" fill="#106578"/>
          </g>
        </g>
        <g id="Group_558" data-name="Group 558" transform="translate(58.442 37.828)">
          <g id="Group_557" data-name="Group 557">
            <path id="Path_366" data-name="Path 366" d="M443.723,164.47a14.677,14.677,0,0,1-5.966-1.174,12.031,12.031,0,0,1-6.367-7.2.733.733,0,0,1,1.379-.5,10.613,10.613,0,0,0,5.585,6.367c5.458,2.455,12.363-.205,12.431-.235a.731.731,0,1,1,.538,1.36A22.819,22.819,0,0,1,443.723,164.47Z" transform="translate(-431.345 -155.115)" fill="#106578"/>
          </g>
        </g>
        <g id="Group_560" data-name="Group 560" transform="translate(19.063 50.913)">
          <g id="Group_559" data-name="Group 559">
            <path id="Path_367" data-name="Path 367" d="M392.166,179.894a.729.729,0,0,1-.675-.45c-1.888-4.568,3.374-10.456,3.6-10.71a.734.734,0,0,1,1.086.988c-.049.059-4.861,5.448-3.325,9.165a.73.73,0,0,1-.4.958A.908.908,0,0,1,392.166,179.894Z" transform="translate(-391.083 -168.493)" fill="#106578"/>
          </g>
        </g>
        <g id="Group_562" data-name="Group 562" transform="translate(95.33 131.16)">
          <g id="Group_561" data-name="Group 561">
            <path id="Path_368" data-name="Path 368" d="M469.794,258.707a.739.739,0,0,1-.734-.734v-6.7a.734.734,0,1,1,1.467,0v6.7A.733.733,0,0,1,469.794,258.707Z" transform="translate(-469.06 -250.54)" fill="#106578"/>
          </g>
        </g>
        <g id="Group_564" data-name="Group 564" transform="translate(81.538 133.153)">
          <g id="Group_563" data-name="Group 563">
            <path id="Path_369" data-name="Path 369" d="M456.055,260.424a.745.745,0,0,1-.734-.694l-.362-6.377a.733.733,0,0,1,.694-.773.721.721,0,0,1,.773.694l.362,6.377a.734.734,0,0,1-.694.773Z" transform="translate(-454.959 -252.577)" fill="#106578"/>
          </g>
        </g>
        <g id="Group_566" data-name="Group 566" transform="translate(68.629 133.165)">
          <g id="Group_565" data-name="Group 565">
            <path id="Path_370" data-name="Path 370" d="M442.494,260.424a.739.739,0,0,1-.734-.734v-6.367a.734.734,0,1,1,1.467,0v6.367A.739.739,0,0,1,442.494,260.424Z" transform="translate(-441.76 -252.59)" fill="#106578"/>
          </g>
        </g>
        <g id="Group_568" data-name="Group 568" transform="translate(56.149 132.422)">
          <g id="Group_567" data-name="Group 567">
            <path id="Path_371" data-name="Path 371" d="M429.734,259.919a.739.739,0,0,1-.734-.734v-6.622a.734.734,0,0,1,1.467,0v6.622A.739.739,0,0,1,429.734,259.919Z" transform="translate(-429 -251.83)" fill="#106578"/>
          </g>
        </g>
        <g id="Group_570" data-name="Group 570" transform="translate(43.571 131.248)">
          <g id="Group_569" data-name="Group 569">
            <path id="Path_372" data-name="Path 372" d="M416.874,258.073a.739.739,0,0,1-.734-.734v-5.976a.734.734,0,1,1,1.467,0v5.976A.739.739,0,0,1,416.874,258.073Z" transform="translate(-416.14 -250.63)" fill="#106578"/>
          </g>
        </g>
        <g id="Group_572" data-name="Group 572" transform="translate(37.804 127.653)">
          <g id="Group_571" data-name="Group 571">
            <path id="Path_373" data-name="Path 373" d="M450.008,253.934c-.577,0-1.154,0-1.751-.01-25.225-.332-36.218-2.054-37.949-5.937a.733.733,0,1,1,1.34-.6c2.054,4.607,28.08,4.949,36.629,5.066,22.359.3,27.836-5.213,27.885-5.262a.734.734,0,0,1,1.086.988C477.033,248.417,471.751,253.934,450.008,253.934Z" transform="translate(-410.244 -246.954)" fill="#106578"/>
          </g>
        </g>
        <g id="Group_574" data-name="Group 574" transform="translate(137.009 135.804)">
          <g id="Group_573" data-name="Group 573">
            <path id="Path_374" data-name="Path 374" d="M520.023,264.454a.561.561,0,0,1-.244-.059c-2.582-1.457-4.3-6.553-4.372-6.768-.039-.205-.245-1.262-1.966-1.36a.607.607,0,0,0-.606.342c-.391.7-.381,2.846,2.132,6.377a.491.491,0,1,1-.8.567c-2.6-3.668-2.836-6.24-2.181-7.414a1.605,1.605,0,0,1,1.516-.851,2.751,2.751,0,0,1,2.856,2.122h0c.01,0,1.663,4.871,3.9,6.133a.485.485,0,0,1-.235.91Z" transform="translate(-511.673 -255.288)" fill="#ce6161"/>
          </g>
        </g>
        <g id="Group_576" data-name="Group 576" transform="translate(127.608 140.354)">
          <g id="Group_575" data-name="Group 575">
            <path id="Path_375" data-name="Path 375" d="M503.87,268.655a.488.488,0,0,1-.45-.3c-.235-.567-2.24-5.575-.9-7.57a1.932,1.932,0,0,1,1.7-.841c1.223,0,1.7,1.438,2.025,2.387.049.147.1.274.137.4a.489.489,0,0,1-.919.333c-.049-.127-.1-.274-.147-.421-.235-.685-.577-1.721-1.1-1.721a.957.957,0,0,0-.89.411c-.792,1.183.186,4.7.988,6.651a.486.486,0,0,1-.264.636A.425.425,0,0,1,503.87,268.655Z" transform="translate(-502.062 -259.94)" fill="#ce6161"/>
          </g>
        </g>
        <g id="Group_578" data-name="Group 578" transform="translate(130.478 138.199)">
          <g id="Group_577" data-name="Group 577">
            <path id="Path_376" data-name="Path 376" d="M507.338,266.709a.506.506,0,0,1-.45-.284c-.753-1.673-3.061-7.208-1.154-8.363a1.847,1.847,0,0,1,1.633-.225c.773.284,1.379,1.135,1.849,2.572a.5.5,0,0,1-.313.616.486.486,0,0,1-.616-.313c-.479-1.477-1-1.858-1.262-1.956a.885.885,0,0,0-.783.137c-.782.479.166,4.069,1.545,7.13a.491.491,0,0,1-.245.646A.761.761,0,0,1,507.338,266.709Z" transform="translate(-504.996 -257.737)" fill="#ce6161"/>
          </g>
        </g>
        <g id="Group_580" data-name="Group 580" transform="translate(133.279 136.068)">
          <g id="Group_579" data-name="Group 579">
            <path id="Path_377" data-name="Path 377" d="M510.638,265.135a.485.485,0,0,1-.421-.245c-.313-.548-3.032-5.448-2.2-7.942a2,2,0,0,1,1.135-1.262,2.286,2.286,0,0,1,1.976.205,4.562,4.562,0,0,1,1.614,2.846.486.486,0,1,1-.958.156,3.622,3.622,0,0,0-1.174-2.181,1.3,1.3,0,0,0-1.125-.108,1.063,1.063,0,0,0-.538.655c-.587,1.761,1.33,5.761,2.122,7.15a.486.486,0,0,1-.186.665A.6.6,0,0,1,510.638,265.135Z" transform="translate(-507.859 -255.558)" fill="#ce6161"/>
          </g>
        </g>
        <g id="Group_582" data-name="Group 582" transform="translate(37.8 5.32)">
          <g id="Group_581" data-name="Group 581">
            <path id="Path_378" data-name="Path 378" d="M411.883,129.108a1.569,1.569,0,0,1-1.076-.391,1.992,1.992,0,0,1-.3-2.426c.734-1.6,2.24-4.069,2.3-4.176a.491.491,0,1,1,.841.509c-.019.029-1.535,2.523-2.25,4.069-.245.538-.225,1.037.059,1.281s.773.186,1.291-.147c1.193-.773,3.257-3.863,3.951-5a.49.49,0,0,1,.831.518c-.108.176-2.631,4.255-4.255,5.3A2.6,2.6,0,0,1,411.883,129.108Z" transform="translate(-410.24 -121.878)" fill="#ce6161"/>
          </g>
        </g>
        <g id="Group_584" data-name="Group 584" transform="translate(33.985 2.974)">
          <g id="Group_583" data-name="Group 583">
            <path id="Path_379" data-name="Path 379" d="M408.277,128.067a2.465,2.465,0,0,1-1.32-.391,1.377,1.377,0,0,1-.6-1.066c-.215-1.731,1.311-5.379,2.9-6.983a.491.491,0,0,1,.694.694c-1.35,1.35-2.8,4.753-2.621,6.172a.546.546,0,0,0,.127.342,1.521,1.521,0,0,0,1.2.2,4.322,4.322,0,0,0,2.074-1.849.486.486,0,0,1,.841.489,5.257,5.257,0,0,1-2.67,2.308A2.426,2.426,0,0,1,408.277,128.067Z" transform="translate(-406.339 -119.48)" fill="#ce6161"/>
          </g>
        </g>
        <g id="Group_586" data-name="Group 586" transform="translate(31.492 2.206)">
          <g id="Group_585" data-name="Group 585">
            <path id="Path_380" data-name="Path 380" d="M406.088,125.908a2.6,2.6,0,0,1-1.849-.616,1.735,1.735,0,0,1-.4-1.643,13.571,13.571,0,0,1,2.465-4.773.494.494,0,0,1,.685-.078.485.485,0,0,1,.078.685,12.609,12.609,0,0,0-2.269,4.343c-.1.538.078.724.137.782.381.391,1.359.333,1.672.284a.487.487,0,0,1,.558.4.48.48,0,0,1-.4.558A3.063,3.063,0,0,1,406.088,125.908Z" transform="translate(-403.79 -118.694)" fill="#ce6161"/>
          </g>
        </g>
        <g id="Group_588" data-name="Group 588" transform="translate(29.368 1.847)">
          <g id="Group_587" data-name="Group 587">
            <path id="Path_381" data-name="Path 381" d="M403.028,123.856a1.368,1.368,0,0,1-1.037-.391c-.714-.743-.411-2.3.978-4.881a.5.5,0,0,1,.665-.205.492.492,0,0,1,.2.665c-1.643,3.071-1.193,3.678-1.134,3.736.215.225,1,.02,1.457-.205a.49.49,0,1,1,.43.88A3.933,3.933,0,0,1,403.028,123.856Z" transform="translate(-401.619 -118.327)" fill="#ce6161"/>
          </g>
        </g>
        <g id="Group_590" data-name="Group 590" transform="translate(37.798 63.332)">
          <g id="Group_589" data-name="Group 589">
            <path id="Path_382" data-name="Path 382" d="M410.974,185.278a.75.75,0,0,1-.6-.3.735.735,0,0,1,.166-1.027l3.638-2.621a.744.744,0,0,1,1.027.166.735.735,0,0,1-.166,1.027l-3.638,2.621A.685.685,0,0,1,410.974,185.278Z" transform="translate(-410.238 -181.191)" fill="#106578"/>
          </g>
        </g>
      </g>
      <g id="Group_598" data-name="Group 598" transform="translate(45.981)">
        <g id="Group_593" data-name="Group 593" transform="translate(16.891 46.652)">
          <g id="Group_592" data-name="Group 592">
            <path id="Path_383" data-name="Path 383" d="M450.3,142.233v9.233s1.946,2.611,0,4.675-9.233,2.915-12.764-.489c-2.553-2.611-1.4-4.01-1.4-4.01V141.92C436.134,141.93,449.26,140.717,450.3,142.233Z" transform="translate(-435.874 -141.47)" fill="#f48f8f"/>
          </g>
        </g>
        <g id="Group_595" data-name="Group 595" transform="translate(1.53 9.029)">
          <g id="Group_594" data-name="Group 594">
            <path id="Path_384" data-name="Path 384" d="M458.7,113.289s.91,12.764,0,18.593S456.505,144,442.744,144s-14.5-4.47-17.224-16.4c0,0-4.372,1.545-5.194-3.55-1.105-6.846,3.981-6.406,3.981-6.406s3.492-12.275,6.778-13.37,12.49-1.545,13.4-1.1S458.7,113.289,458.7,113.289Z" transform="translate(-420.169 -103.003)" fill="#f48f8f"/>
          </g>
        </g>
        <g id="Group_597" data-name="Group 597">
          <g id="Group_596" data-name="Group 596">
            <path id="Path_385" data-name="Path 385" d="M463.523,107.835s1.34,8.871-10.211,5.829-1.946-10.328-21.752-7.658c-3.042.851-2.064,5.106-2.064,7.052s-.968,7.169-7.776,5.106c0,0-1.584-2.386-2.191-3.521-.528-.988-4.255-11.424,8.265-13.37,0,0-.763-2.494.244-2.768s1.917,2.739,1.917,2.739,2.162-9.145,17.586-7.2C455.082,94.954,455.933,108.255,463.523,107.835Z" transform="translate(-418.605 -93.772)" fill="#074066"/>
          </g>
        </g>
      </g>
    </g>
  </g>
</svg>
